<svg xmlns="http://www.w3.org/2000/svg" data-name="图层 1" id="图层_1" viewBox="0 0 40 40" xmlns:xlink="http://www.w3.org/1999/xlink">
      <defs>
        <linearGradient x1="7.83" y2="22.18" y1="22.18" gradientUnits="userSpaceOnUse" x2="28.04" id="未命名的渐变_126">
          <stop offset="0.12" stop-color="#0384c5"/>
          <stop offset="0.9" stop-color="#0063b1"/>
        </linearGradient>
        <linearGradient x1="7.83" y2="11.96" y1="11.96" x2="26.12" id="未命名的渐变_126-2" xlink:href="#未命名的渐变_126"/>
        <linearGradient x1="20.3" y2="21.91" y1="21.91" x2="33.8" id="未命名的渐变_126-3" xlink:href="#未命名的渐变_126"/>
        <linearGradient x1="20.34" y2="17.22" y1="17.22" x2="26.12" id="未命名的渐变_126-4" xlink:href="#未命名的渐变_126"/>
        <linearGradient x1="28.03" y2="27.06" y1="27.06" x2="33.81" id="未命名的渐变_126-5" xlink:href="#未命名的渐变_126"/>
      </defs>
      <polygon points="7.83 11.37 20.34 16.65 20.34 22.43 28.04 26.28 28.04 32.99 7.83 24.87 7.83 11.37" style="fill:#d4edff"/>
      <path style="fill:url(#未命名的渐变_126)" d="M8.83,12.88l10.51,4.43v5.74l.55.28L27,26.9v4.61L8.83,24.19V12.88m-1-1.51v13.5L28,33V26.28l-7.7-3.85V16.65L7.83,11.37Z"/>
      <polygon points="13.32 7.28 26.11 12.01 20.34 16.65 7.83 11.37 13.32 7.28" style="fill:#d4edff"/>
      <path style="fill:url(#未命名的渐变_126-2)" d="M13.49,8.4l10.62,3.94-3.93,3.15L9.83,11.13,13.49,8.4m-.17-1.12L7.83,11.37l12.51,5.28L26.12,12,13.32,7.28Z"/>
      <polygon points="26.11 17.51 33.8 21.12 28.06 26.31 20.3 22.41 26.11 17.51" style="fill:#d4edff"/>
      <path style="fill:url(#未命名的渐变_126-3)" d="M26.27,18.69,32,21.39,27.9,25.11,22.11,22.2l4.16-3.51m-.15-1.18-5.82,4.9,7.76,3.9,5.74-5.19-7.68-3.61Z"/>
      <polygon points="26.11 12 26.11 17.51 20.34 22.43 20.34 16.52 26.11 12" style="fill:#d4edff"/>
      <path style="fill:url(#未命名的渐变_126-4)" d="M25.12,14.05v3l-3.78,3.22V17l3.78-3m1-2.05-5.78,4.52v5.91l5.78-4.92V12Z"/>
      <polygon points="33.81 21.1 33.81 27.92 28.03 33.02 28.04 26.18 33.81 21.1" style="fill:#d4edff"/>
      <path style="fill:url(#未命名的渐变_126-5)" d="M32.81,23.31v4.16L29,30.8V26.63l3.77-3.32m1-2.21L28,26.18V33l5.78-5.1V21.1Z"/>
    </svg>