<svg xmlns="http://www.w3.org/2000/svg" data-name="图层 1" id="图层_1" viewBox="0 0 40 40" xmlns:xlink="http://www.w3.org/1999/xlink">
      <defs>
        <linearGradient x1="11.52" y2="29.24" y1="10.91" gradientUnits="userSpaceOnUse" x2="29.85" id="未命名的渐变_72">
          <stop offset="0.12" stop-color="#666"/>
          <stop offset="0.56" stop-color="#333"/>
        </linearGradient>
        <linearGradient x1="16.17" y2="24.5" y1="15.62" gradientUnits="userSpaceOnUse" x2="25.05" id="未命名的渐变_126">
          <stop offset="0.12" stop-color="#0384c5"/>
          <stop offset="0.9" stop-color="#0063b1"/>
        </linearGradient>
      </defs>
      <path style="fill:#ddd" d="M31.36,20.08a3.53,3.53,0,0,1,2.29-3.31,13.09,13.09,0,0,0-1.46-3.51,3.55,3.55,0,0,1-4.68-4.69A13.4,13.4,0,0,0,24,7.12a3.55,3.55,0,0,1-6.63,0,13.54,13.54,0,0,0-3.51,1.45,3.54,3.54,0,0,1-4.68,4.69,13.09,13.09,0,0,0-1.46,3.51,3.54,3.54,0,0,1,0,6.62A13.09,13.09,0,0,0,9.18,26.9a3.55,3.55,0,0,1,4.68,4.69A13.54,13.54,0,0,0,17.37,33,3.54,3.54,0,0,1,24,33a13.4,13.4,0,0,0,3.51-1.45,3.54,3.54,0,0,1,4.68-4.69,13.09,13.09,0,0,0,1.46-3.51A3.54,3.54,0,0,1,31.36,20.08Z"/>
      <path style="fill:url(#未命名的渐变_72)" d="M24.51,8.31a11.74,11.74,0,0,1,1.8.74,4.53,4.53,0,0,0,5.41,5.41,12.72,12.72,0,0,1,.74,1.79,4.54,4.54,0,0,0,0,7.66,12.11,12.11,0,0,1-.75,1.79,4.44,4.44,0,0,0-1-.11,4.55,4.55,0,0,0-4.44,5.52,12.25,12.25,0,0,1-1.79.74,4.53,4.53,0,0,0-7.65,0,12.84,12.84,0,0,1-1.8-.74,4.59,4.59,0,0,0-1.22-4.19,4.47,4.47,0,0,0-3.21-1.33,4.6,4.6,0,0,0-1,.11,13.23,13.23,0,0,1-.74-1.79,4.54,4.54,0,0,0,0-7.66,11.68,11.68,0,0,1,.75-1.79,4.58,4.58,0,0,0,4.18-1.23,4.5,4.5,0,0,0,1.23-4.18,11.23,11.23,0,0,1,1.79-.74,4.55,4.55,0,0,0,7.65,0M24,7.12a3.55,3.55,0,0,1-6.63,0,13.54,13.54,0,0,0-3.51,1.45,3.53,3.53,0,0,1-3.23,5,3.66,3.66,0,0,1-1.45-.3,13.09,13.09,0,0,0-1.46,3.51,3.54,3.54,0,0,1,0,6.62A13.09,13.09,0,0,0,9.18,26.9a3.53,3.53,0,0,1,4,.73,3.54,3.54,0,0,1,.73,4A13.54,13.54,0,0,0,17.37,33,3.54,3.54,0,0,1,24,33a13.4,13.4,0,0,0,3.51-1.45,3.54,3.54,0,0,1,3.23-5,3.67,3.67,0,0,1,1.45.31,13.09,13.09,0,0,0,1.46-3.51,3.54,3.54,0,0,1,0-6.62,13.09,13.09,0,0,0-1.46-3.51,3.67,3.67,0,0,1-1.45.31,3.52,3.52,0,0,1-2.5-1,3.56,3.56,0,0,1-.73-4A13.4,13.4,0,0,0,24,7.12Z"/>
      <circle r="6.28" cx="20.61" cy="20.06" style="fill:#d4edff"/>
      <path style="fill:url(#未命名的渐变_126)" d="M20.61,14.79a5.28,5.28,0,1,1-5.28,5.27,5.28,5.28,0,0,1,5.28-5.27m0-1a6.28,6.28,0,1,0,6.28,6.27,6.28,6.28,0,0,0-6.28-6.27Z"/>
    </svg>