<svg xmlns:xlink="http://www.w3.org/1999/xlink" viewBox="0 0 40 40" id="图层_1" xmlns="http://www.w3.org/2000/svg" data-name="图层 1">
      <defs>
        <linearGradient gradientUnits="userSpaceOnUse" id="未命名的渐变_33" y1="19.85" x1="33.72" x2="18.93" y2="19.85">
          <stop stop-color="gray" offset="0.06"/>
          <stop stop-color="#4d4d4d" offset="0.98"/>
        </linearGradient>
        <linearGradient xlink:href="#未命名的渐变_33" id="未命名的渐变_33-2" y1="17.73" x1="22.15" x2="13.53" y2="17.73"/>
        <linearGradient xlink:href="#未命名的渐变_33" id="未命名的渐变_33-3" y1="9.29" x1="33.72" x2="16.85" y2="9.29"/>
        <linearGradient xlink:href="#未命名的渐变_33" gradientTransform="matrix(-1, 0, 0, 1, -10.82, 0)" id="未命名的渐变_33-4" y1="28.36" x1="-30.52" x2="-24.98" y2="28.36"/>
        <linearGradient gradientUnits="userSpaceOnUse" id="未命名的渐变_126" y1="29.35" x1="18" x2="7.98" y2="29.35">
          <stop stop-color="#0384c5" offset="0.12"/>
          <stop stop-color="#0063b1" offset="0.9"/>
        </linearGradient>
        <linearGradient xlink:href="#未命名的渐变_33" id="未命名的渐变_33-5" y1="31.3" x1="10.72" x2="7.98" y2="31.3"/>
        <linearGradient xlink:href="#未命名的渐变_33" id="未命名的渐变_33-6" y1="26.1" x1="20.69" x2="14.16" y2="26.1"/>
        <linearGradient xlink:href="#未命名的渐变_33" id="未命名的渐变_33-7" y1="19.48" x1="31.73" x2="21.82" y2="17.71"/>
        <linearGradient xlink:href="#未命名的渐变_126" id="未命名的渐变_126-2" y1="16.01" x1="31.8" x2="21.68" y2="16.01"/>
        <linearGradient xlink:href="#未命名的渐变_126" id="未命名的渐变_126-3" y1="19.97" x1="18" x2="15.39" y2="19.97"/>
      </defs>
      <path style="fill:#dbdbdb" d="M33.72,9.12V25.28l-14,5.3V27.86l1-1.72s-2.53-2.31-1.53-7.37a19.66,19.66,0,0,1,3-7.66Z"/>
      <path style="fill:url(#未命名的渐变_33)" d="M33.22,9.71V24.94l-13,4.92V28l.93-1.6.2-.34L21,25.77c-.1-.08-2.3-2.21-1.38-6.91a20.31,20.31,0,0,1,2.79-7.29L33.22,9.71m.5-.59-11.57,2a19.66,19.66,0,0,0-3,7.66c-1,5.06,1.53,7.37,1.53,7.37l-1,1.72v2.72l14-5.3V9.12Z"/>
      <path style="fill:#dbdbdb" d="M20.69,26.14s-2.53-2.31-1.53-7.37a19.66,19.66,0,0,1,3-7.66l-5.39-1.8a19.57,19.57,0,0,0-3,7.66c-1,5.06,1.52,7.37,1.52,7.37Z"/>
      <path style="fill:url(#未命名的渐变_33-2)" d="M17,9.91l4.42,1.47a21.7,21.7,0,0,0-2.7,7.29,9.58,9.58,0,0,0,.72,6.51l-3.83-1.27c-.38-.41-2.15-2.56-1.3-6.84A20.65,20.65,0,0,1,17,9.91m-.19-.6a19.57,19.57,0,0,0-3,7.66c-1,5.06,1.52,7.37,1.52,7.37l5.4,1.8s-2.53-2.31-1.53-7.37a19.66,19.66,0,0,1,3-7.66l-5.39-1.8Z"/>
      <polygon style="fill:#dbdbdb" points="22.15 11.11 16.85 9.37 28.82 7.47 33.72 9.12 22.15 11.11"/>
      <path style="fill:url(#未命名的渐变_33-3)" d="M28.77,8l2.91,1L22.19,10.6,19,9.54,28.77,8m0-.52-12,1.9,5.3,1.74,11.57-2L28.81,7.47Z"/>
      <polygon style="fill:url(#未命名的渐变_33-4)" points="19.69 27.86 14.16 26.14 14.16 28.91 19.69 30.58 19.69 27.86"/>
      <polygon style="fill:#d4edff" points="18 29.01 10.82 31.25 7.98 29.45 15.31 27.46 18 29.01"/>
      <path style="fill:url(#未命名的渐变_126)" d="M15.24,28l1.52.87L10.89,30.7,9.21,29.64l6-1.64m.07-.54L8,29.45l2.84,1.8L18,29l-2.69-1.55Z"/>
      <polygon style="fill:#dbdbdb" points="10.72 33.14 10.72 31.25 7.98 29.45 7.98 31.25 10.72 33.14"/>
      <path style="fill:url(#未命名的渐变_33-5)" d="M8.48,30.38l1.74,1.14v.67L8.48,31v-.61M8,29.45v1.8l2.74,1.89V31.25L8,29.45Z"/>
      <polygon style="fill:#dbdbdb" points="14.16 26.14 15.29 24.34 20.69 26.14 19.69 27.86 14.16 26.14"/>
      <path style="fill:url(#未命名的渐变_33-6)" d="M15.51,24.94,20,26.42l-.49.84-4.53-1.4.58-.92m-.22-.6-1.13,1.8,5.53,1.72,1-1.72-5.4-1.8Z"/>
      <ellipse style="fill:#a0a0a0" cx="26.77" cy="18.59" rx="6.58" transform="translate(3.75 41.67) rotate(-79.86)" ry="5.03"/>
      <path style="fill:url(#未命名的渐变_33-7)" d="M27.24,12.55a3.94,3.94,0,0,1,.6,0c2.46.44,4,3.49,3.39,6.79-.53,3-2.65,5.24-4.93,5.24a3,3,0,0,1-.6-.05c-2.46-.44-4-3.48-3.39-6.79.53-3,2.65-5.24,4.93-5.24m0-.5c-2.49,0-4.84,2.38-5.42,5.66-.64,3.57,1.05,6.87,3.79,7.36a4,4,0,0,0,.69.06c2.49,0,4.84-2.37,5.43-5.65.64-3.58-1.06-6.88-3.8-7.37a4,4,0,0,0-.69-.06Z"/>
      <path style="fill:#d4edff" d="M21.72,20a8.25,8.25,0,0,1,.1-2.26c.64-3.58,3.37-6.09,6.11-5.6,2.08.37,3.56,2.38,3.87,4.89Z"/>
      <path style="fill:url(#未命名的渐变_126-2)" d="M27.24,12.55h0a4,4,0,0,1,.6,0c1.71.31,3,1.87,3.4,4l-9,2.68a7.83,7.83,0,0,1,.12-1.53c.53-3,2.65-5.24,4.93-5.24m0-.5c-2.49,0-4.84,2.38-5.42,5.66a8.25,8.25,0,0,0-.1,2.26L31.8,17c-.31-2.51-1.79-4.52-3.87-4.89a4,4,0,0,0-.69-.06Z"/>
      <path style="fill:#d4edff" d="M18,17l-2.09-.5s-1.33,4.62.29,6.68l1.57.33S16.4,19.79,18,17Z"/>
      <path style="fill:url(#未命名的渐变_126-3)" d="M16.27,17.07l1,.24a9,9,0,0,0-.22,5.51l-.55-.12c-.95-1.41-.57-4.2-.23-5.63m-.36-.6s-1.33,4.62.29,6.68l1.57.33S16.4,19.79,18,17l-2.09-.5Z"/>
    </svg>