<svg xmlns="http://www.w3.org/2000/svg" data-name="图层 1" id="图层_1" viewBox="0 0 40 40" xmlns:xlink="http://www.w3.org/1999/xlink">
      <defs>
        <linearGradient x1="12.61" y2="34.52" y1="6.03" gradientUnits="userSpaceOnUse" x2="29.06" id="未命名的渐变_72">
          <stop offset="0.12" stop-color="#666"/>
          <stop offset="0.56" stop-color="#333"/>
        </linearGradient>
        <linearGradient x1="16.21" y2="19.11" y1="3.86" x2="25.01" id="未命名的渐变_72-2" xlink:href="#未命名的渐变_72"/>
        <linearGradient x1="18.26" y2="28.04" y1="19.13" gradientUnits="userSpaceOnUse" x2="23.4" id="未命名的渐变_126">
          <stop offset="0.12" stop-color="#0384c5"/>
          <stop offset="0.9" stop-color="#0063b1"/>
        </linearGradient>
        <linearGradient x1="-2599.09" y2="-1297.32" y1="-1297.32" x2="-2591.35" id="未命名的渐变_126-2" xlink:href="#未命名的渐变_126" gradientTransform="translate(938.58 2775.06) rotate(45)"/>
      </defs>
      <rect y="7.28" height="26" x="7.83" style="fill:#fff" rx="3.59" width="26"/>
      <path style="fill:url(#未命名的渐变_72)" d="M30.24,8.28a2.59,2.59,0,0,1,2.59,2.58V29.69a2.6,2.6,0,0,1-2.59,2.59H11.42a2.6,2.6,0,0,1-2.59-2.59V10.86a2.59,2.59,0,0,1,2.59-2.58H30.24m0-1H11.42a3.58,3.58,0,0,0-3.59,3.58V29.69a3.59,3.59,0,0,0,3.59,3.59H30.24a3.59,3.59,0,0,0,3.59-3.59V10.86a3.58,3.58,0,0,0-3.59-3.58Z"/>
      <path style="fill:#eaeaea" d="M33.83,14h-26V10.63a3.35,3.35,0,0,1,3.36-3.35H30.48a3.35,3.35,0,0,1,3.35,3.35Z"/>
      <path style="fill:url(#未命名的渐变_72-2)" d="M30.48,8.28a2.35,2.35,0,0,1,2.35,2.35V13h-24V10.63a2.36,2.36,0,0,1,2.36-2.35H30.48m0-1H11.19a3.35,3.35,0,0,0-3.36,3.35V14h26V10.63a3.35,3.35,0,0,0-3.35-3.35Z"/>
      <line x1="20.83" y2="18.23" y1="28.94" x2="20.83" style="fill:none;stroke-linecap:round;stroke-miterlimit:10;stroke:url(#未命名的渐变_126)"/>
      <polyline points="16.06 22.62 20.83 17.85 25.6 22.62" style="fill:none;stroke-linecap:round;stroke-linejoin:round;stroke:url(#未命名的渐变_126-2)"/>
    </svg>