<svg xmlns:xlink="http://www.w3.org/1999/xlink" data-name="图层 1" viewBox="0 0 40 40" id="图层_1" xmlns="http://www.w3.org/2000/svg">
      <defs>
        <linearGradient x1="11.63" x2="29.61" gradientUnits="userSpaceOnUse" id="未命名的渐变_22" y2="11.34" y1="29.32">
          <stop offset="0.12" stop-color="#666"/>
          <stop offset="0.9" stop-color="#333"/>
        </linearGradient>
        <linearGradient x1="17.24" x2="29.61" xlink:href="#未命名的渐变_22" id="未命名的渐变_22-2" y2="11.34" y1="23.71"/>
      </defs>
      <rect style="fill:#fff" height="12.61" width="25.43" x="7.9" rx="1.63" transform="translate(-8.34 20.53) rotate(-45)" y="14.03"/>
      <path d="M25.15,8.56a.64.64,0,0,1,.45.19l6.6,6.6a.63.63,0,0,1,0,.9L16.53,31.92a.6.6,0,0,1-.44.18.63.63,0,0,1-.45-.18L9,25.31a.63.63,0,0,1-.18-.45A.62.62,0,0,1,9,24.42L24.7,8.75a.64.64,0,0,1,.45-.19m0-1A1.64,1.64,0,0,0,24,8L8.33,23.71a1.63,1.63,0,0,0,0,2.31l6.6,6.6a1.63,1.63,0,0,0,2.31,0L32.91,17a1.64,1.64,0,0,0,0-2.32L26.31,8a1.64,1.64,0,0,0-1.16-.48Z" style="fill:url(#未命名的渐变_22)"/>
      <path d="M32.91,17,21.7,28.16l-8.91-8.91L24,8a1.62,1.62,0,0,1,2.3,0l6.61,6.61A1.63,1.63,0,0,1,32.91,17Z" style="fill:#e0e0e0"/>
      <path d="M25.15,8.56a.64.64,0,0,1,.45.19l6.6,6.6a.63.63,0,0,1,0,.9L21.7,26.75l-7.5-7.5L24.7,8.75a.64.64,0,0,1,.45-.19m0-1A1.6,1.6,0,0,0,24,8L12.79,19.25l8.91,8.91L32.91,17a1.63,1.63,0,0,0,0-2.31L26.3,8a1.6,1.6,0,0,0-1.15-.48Z" style="fill:url(#未命名的渐变_22-2)"/>
    </svg>