<svg xmlns="http://www.w3.org/2000/svg" viewBox="0 0 40 40" xmlns:xlink="http://www.w3.org/1999/xlink" id="图层_1" data-name="图层 1">
      <defs>
        <linearGradient y1="31.06" x2="32.74" id="未命名的渐变_126" x1="6.48" gradientUnits="userSpaceOnUse" y2="31.06">
          <stop offset="0.12" stop-color="#0384c5"/>
          <stop offset="0.9" stop-color="#0063b1"/>
        </linearGradient>
        <linearGradient y1="28.11" x2="32.74" xlink:href="#未命名的渐变_126" id="未命名的渐变_126-2" x1="6.48" y2="28.11"/>
        <linearGradient y1="25.03" x2="32.74" xlink:href="#未命名的渐变_126" id="未命名的渐变_126-3" x1="6.48" y2="25.03"/>
        <linearGradient y1="22.77" x2="32.74" xlink:href="#未命名的渐变_126" id="未命名的渐变_126-4" x1="6.48" y2="22.77"/>
        <linearGradient y1="21.06" x2="32.74" xlink:href="#未命名的渐变_126" id="未命名的渐变_126-5" x1="6.48" y2="21.06"/>
        <linearGradient y1="17.23" x2="32.74" xlink:href="#未命名的渐变_126" id="未命名的渐变_126-6" x1="6.48" y2="17.23"/>
        <linearGradient y1="20.51" x2="32.74" xlink:href="#未命名的渐变_126" id="未命名的渐变_126-7" x1="6.48" y2="20.51"/>
        <linearGradient y1="22.77" x2="32.74" xlink:href="#未命名的渐变_126" id="未命名的渐变_126-8" x1="6.48" y2="22.77"/>
        <linearGradient y1="24.5" x2="32.74" xlink:href="#未命名的渐变_126" id="未命名的渐变_126-9" x1="6.48" y2="24.5"/>
        <linearGradient y1="28.29" x2="32.74" xlink:href="#未命名的渐变_126" id="未命名的渐变_126-10" x1="6.48" y2="28.29"/>
        <linearGradient y1="31.45" x2="32.74" xlink:href="#未命名的渐变_126" id="未命名的渐变_126-11" x1="6.48" y2="31.45"/>
        <linearGradient y1="20.37" x2="32.63" xlink:href="#未命名的渐变_126" id="未命名的渐变_126-12" x1="6.68" y2="20.37"/>
        <linearGradient y1="23.83" x2="32.63" xlink:href="#未命名的渐变_126" id="未命名的渐变_126-13" x1="6.68" y2="23.83"/>
        <linearGradient y1="20.96" x2="32.63" xlink:href="#未命名的渐变_126" id="未命名的渐变_126-14" x1="6.68" y2="20.96"/>
        <linearGradient y1="21.88" x2="32.6" xlink:href="#未命名的渐变_126" id="未命名的渐变_126-15" x1="6.45" y2="21.88"/>
        <linearGradient y1="28.2" x2="32.63" xlink:href="#未命名的渐变_126" id="未命名的渐变_126-16" x1="6.68" y2="28.2"/>
        <linearGradient y1="14.47" x2="32.57" id="未命名的渐变_63" x1="20" gradientUnits="userSpaceOnUse" y2="14.47">
          <stop offset="0.12" stop-color="#d49a00"/>
          <stop offset="0.81" stop-color="#916306"/>
        </linearGradient>
        <linearGradient y1="27.37" x2="23.04" xlink:href="#未命名的渐变_126" id="未命名的渐变_126-17" x1="22.54" y2="27.37"/>
        <linearGradient y1="29.21" x2="23.04" xlink:href="#未命名的渐变_126" id="未命名的渐变_126-18" x1="22.54" y2="29.21"/>
        <linearGradient y1="30.74" x2="23.04" xlink:href="#未命名的渐变_126" id="未命名的渐变_126-19" x1="22.54" y2="30.74"/>
        <linearGradient y1="14.55" x2="17.11" xlink:href="#未命名的渐变_126" id="未命名的渐变_126-20" x1="16.61" y2="14.55"/>
        <linearGradient y1="16.39" x2="17.11" xlink:href="#未命名的渐变_126" id="未命名的渐变_126-21" x1="16.61" y2="16.39"/>
        <linearGradient y1="17.92" x2="17.11" xlink:href="#未命名的渐变_126" id="未命名的渐变_126-22" x1="16.61" y2="17.92"/>
      </defs>
      <path d="M22.79,31.33l9.7-6.18V20.69s-5.21.46-8.22-3.52a8.46,8.46,0,0,0-7.61-3.27L8.12,19.48h0l-1.39.91v4.45s3.55-.66,7.94,3.68,8.12,2.81,8.12,2.81" style="fill:#d4edff"/>
      <line y1="31.33" x2="23.63" style="fill:none;stroke-miterlimit:10;stroke-width:0.5px;stroke:url(#未命名的渐变_126)" x1="22.79" y2="30.79"/>
      <line y1="30.28" x2="31.25" style="fill:none;stroke-miterlimit:10;stroke-width:0.5px;stroke-dasharray:1.9005999565124512,0.9502999782562256;stroke:url(#未命名的渐变_126-2)" x1="24.44" y2="25.94"/>
      <polyline points="31.65 25.69 32.49 25.15 32.49 24.15" style="fill:none;stroke-miterlimit:10;stroke-width:0.5px;stroke:url(#未命名的渐变_126-3)"/>
      <line y1="23.54" x2="32.49" style="fill:none;stroke-miterlimit:10;stroke-width:0.5px;stroke-dasharray:1.2285062074661255,0.6142531037330627;stroke:url(#未命名的渐变_126-4)" x1="32.49" y2="22"/>
      <path d="M32.49,21.69v-1a7.12,7.12,0,0,1-1,0" style="fill:none;stroke-miterlimit:10;stroke-width:0.5px;stroke:url(#未命名的渐变_126-5)"/>
      <path d="M30.51,20.61a9.26,9.26,0,0,1-6.24-3.44,8.46,8.46,0,0,0-7.61-3.27L8.12,19.48,8,19.57" style="fill:none;stroke-miterlimit:10;stroke-width:0.5px;stroke-dasharray:1.9868638515472412,0.9934319257736206;stroke:url(#未命名的渐变_126-6)"/>
      <polyline points="7.57 19.84 6.73 20.39 6.73 21.39" style="fill:none;stroke-miterlimit:10;stroke-width:0.5px;stroke:url(#未命名的渐变_126-7)"/>
      <line y1="22" x2="6.73" style="fill:none;stroke-miterlimit:10;stroke-width:0.5px;stroke-dasharray:1.2285062074661255,0.6142531037330627;stroke:url(#未命名的渐变_126-8)" x1="6.73" y2="23.54"/>
      <path d="M6.73,23.84v1a4.5,4.5,0,0,1,1,0" style="fill:none;stroke-miterlimit:10;stroke-width:0.5px;stroke:url(#未命名的渐变_126-9)"/>
      <path d="M8.71,25a12.32,12.32,0,0,1,6,3.55c2.71,2.68,5.16,3.12,6.65,3.07" style="fill:none;stroke-miterlimit:10;stroke-width:0.5px;stroke-dasharray:2.004316806793213,1.0021584033966064;stroke:url(#未命名的渐变_126-10)"/>
      <path d="M21.82,31.55a3.76,3.76,0,0,0,1-.22" style="fill:none;stroke-miterlimit:10;stroke-width:0.5px;stroke:url(#未命名的渐变_126-11)"/>
      <path d="M6.61,24.9s3.59-.67,8,3.71,8.19,2.83,8.19,2.83l9.79-6.24s-5.26.47-8.3-3.55a8.51,8.51,0,0,0-7.67-3.3Z" style="fill:#9ccfe8"/>
      <path d="M6.73,20.39a4,4,0,0,1,1,0" style="fill:none;stroke-miterlimit:10;stroke-width:0.5px;stroke:url(#未命名的渐变_126-12)"/>
      <path d="M8.69,20.51a12.4,12.4,0,0,1,6,3.55c4.39,4.35,8.12,2.81,8.12,2.81l8.44-5.37" style="fill:none;stroke-miterlimit:10;stroke-width:0.5px;stroke-dasharray:1.966970682144165,0.9834853410720825;stroke:url(#未命名的渐变_126-13)"/>
      <line y1="21.23" x2="32.49" style="fill:none;stroke-miterlimit:10;stroke-width:0.5px;stroke:url(#未命名的渐变_126-14)" x1="31.65" y2="20.69"/>
      <path d="M32.58,25.32s-5.25.47-8.29-3.55a8.53,8.53,0,0,0-7.68-3.3L6.59,25" style="fill:none;stroke-miterlimit:10;stroke-width:0.5px;stroke-dasharray:2,1;stroke:url(#未命名的渐变_126-15)"/>
      <path d="M6.73,24.84s3.55-.66,7.94,3.68,8.12,2.81,8.12,2.81l9.7-6.18" style="fill:none;stroke-miterlimit:10;stroke-width:0.5px;stroke:url(#未命名的渐变_126-16)"/>
      <path d="M32.49,9a.3.3,0,0,0-.43-.27l-6,2.86a.31.31,0,0,0,0,.54l1.43.89c-3,6.51-7.36,7-7.47,6.94s6.29,2.27,11-4.77l1.13.71a.31.31,0,0,0,.47-.27Z" style="fill:#ffd96e"/>
      <path d="M32,9.28l.07,6-.83-.51-.42-.26-.26.4c-2.7,4-5.91,4.9-8.13,4.9h-.32c1.64-.81,3.95-2.6,5.81-6.57l.19-.4-.38-.24-1.12-.7L32,9.28m.19-.61a.28.28,0,0,0-.13,0l-6,2.86a.31.31,0,0,0,0,.54l1.43.89c-3,6.31-7.1,6.94-7.45,6.94h0a7.83,7.83,0,0,0,2.43.35c2.26,0,5.69-.84,8.54-5.12l1.13.71a.35.35,0,0,0,.17,0,.3.3,0,0,0,.3-.31L32.49,9a.29.29,0,0,0-.3-.3Z" style="fill:url(#未命名的渐变_63)"/>
      <line y1="26.87" x2="22.79" style="fill:none;stroke-miterlimit:10;stroke-width:0.5px;stroke:url(#未命名的渐变_126-17)" x1="22.79" y2="27.87"/>
      <line y1="28.47" x2="22.79" style="fill:none;stroke-miterlimit:10;stroke-width:0.5px;stroke-dasharray:1.1844810247421265,0.5922405123710632;stroke:url(#未命名的渐变_126-18)" x1="22.79" y2="29.95"/>
      <line y1="30.24" x2="22.79" style="fill:none;stroke-miterlimit:10;stroke-width:0.5px;stroke:url(#未命名的渐变_126-19)" x1="22.79" y2="31.24"/>
      <line y1="14.05" x2="16.86" style="fill:none;stroke-miterlimit:10;stroke-width:0.5px;stroke:url(#未命名的渐变_126-20)" x1="16.86" y2="15.05"/>
      <line y1="15.64" x2="16.86" style="fill:none;stroke-miterlimit:10;stroke-width:0.5px;stroke-dasharray:1.1844810247421265,0.5922405123710632;stroke:url(#未命名的渐变_126-21)" x1="16.86" y2="17.13"/>
      <line y1="17.42" x2="16.86" style="fill:none;stroke-miterlimit:10;stroke-width:0.5px;stroke:url(#未命名的渐变_126-22)" x1="16.86" y2="18.42"/>
    </svg>