<svg xmlns="http://www.w3.org/2000/svg" data-name="图层 1" id="图层_1" viewBox="0 0 40 40" xmlns:xlink="http://www.w3.org/1999/xlink">
      <defs>
        <linearGradient x1="7.65" y2="22.12" y1="22.12" gradientUnits="userSpaceOnUse" x2="33.65" id="未命名的渐变_72">
          <stop offset="0.12" stop-color="#666"/>
          <stop offset="0.56" stop-color="#333"/>
        </linearGradient>
        <linearGradient x1="7.65" y2="9.64" y1="9.64" x2="25" id="未命名的渐变_72-2" xlink:href="#未命名的渐变_72"/>
        <linearGradient x1="25.89" y2="23.22" y1="15.71" gradientUnits="userSpaceOnUse" x2="33.41" id="未命名的渐变_102">
          <stop offset="0.01" stop-color="#379e4e"/>
          <stop offset="1" stop-color="#006837"/>
        </linearGradient>
        <linearGradient x1="17.79" y2="30.67" y1="20.93" x2="27.52" id="未命名的渐变_102-2" xlink:href="#未命名的渐变_102"/>
      </defs>
      <rect y="11.12" height="22" x="7.65" style="fill:#fff" rx="1.32" width="26"/>
      <path style="fill:url(#未命名的渐变_72)" d="M32.33,12.12a.32.32,0,0,1,.32.31V31.8a.32.32,0,0,1-.32.32H9a.31.31,0,0,1-.31-.32V12.43A.31.31,0,0,1,9,12.12H32.33m0-1H9a1.31,1.31,0,0,0-1.31,1.31V31.8A1.32,1.32,0,0,0,9,33.12H32.33a1.32,1.32,0,0,0,1.32-1.32V12.43a1.32,1.32,0,0,0-1.32-1.31Z"/>
      <path style="fill:#fff" d="M7.65,11.23V8.05a1,1,0,0,1,1.11-.93H21.14A1.18,1.18,0,0,1,22,7.5l2.76,3.18c.53.61,0,1.48-.9,1.48H8.76A1,1,0,0,1,7.65,11.23Z"/>
      <path style="fill:url(#未命名的渐变_72-2)" d="M21.14,8.12a.21.21,0,0,1,.14,0l2.6,3H8.76l-.11,0v-3l.11,0H21.14m0-1H8.76a1,1,0,0,0-1.11.93v3.18a1,1,0,0,0,1.11.93H23.89c.91,0,1.43-.87.9-1.48L22,7.5a1.18,1.18,0,0,0-.89-.38Z"/>
      <path style="fill:#d4ffec" d="M33.18,16a1.59,1.59,0,0,0-2.25,0l-2.51,2.51-.85-.85a2.6,2.6,0,0,0-3.67,0l-1.49,1.5,7.51,7.52,1.5-1.5a2.6,2.6,0,0,0,0-3.67l-.75-.75,2.51-2.51A1.59,1.59,0,0,0,33.18,16Z"/>
      <path style="fill:url(#未命名的渐变_102)" d="M32.06,16.57a.58.58,0,0,1,.41.17.6.6,0,0,1,0,.84L30,20.09l-.7.7.7.71.75.75a1.58,1.58,0,0,1,0,2.25l-.79.79-6.1-6.1.79-.79a1.58,1.58,0,0,1,2.25,0l.85.85.71.71.71-.71,2.51-2.51a.59.59,0,0,1,.42-.17m0-1a1.59,1.59,0,0,0-1.13.46l-2.51,2.51-.85-.85a2.6,2.6,0,0,0-3.67,0l-1.49,1.5,7.51,7.52,1.5-1.5a2.6,2.6,0,0,0,0-3.67l-.75-.75,2.51-2.51a1.59,1.59,0,0,0-1.12-2.71Z"/>
      <polygon points="21.64 19.9 29.16 27.42 25.08 33.12 15.34 23.38 21.64 19.9" style="fill:#d4ffec"/>
      <path style="fill:url(#未命名的渐变_102-2)" d="M21.47,21.14l6.38,6.39-2.9,4-8-8,4.48-2.47m.17-1.24-6.3,3.48,9.74,9.74,4.08-5.7L21.64,19.9Z"/>
    </svg>