<svg data-name="图层 1" xmlns:xlink="http://www.w3.org/1999/xlink" id="图层_1" xmlns="http://www.w3.org/2000/svg" viewBox="0 0 40 40">
      <defs>
        <linearGradient gradientUnits="userSpaceOnUse" y1="28.47" y2="15.3" id="未命名的渐变_4" gradientTransform="matrix(-1, 0, 0, 1, 1412, 0)" x2="1397.45" x1="1377.75">
          <stop offset="0" stop-color="#e9b600"/>
          <stop offset="0.97" stop-color="#ffd555"/>
        </linearGradient>
        <radialGradient gradientUnits="userSpaceOnUse" cy="16.74" id="未命名的渐变_3" gradientTransform="matrix(-1, 0, 0, 1.1, 1412, -1.2)" r="24.57" cx="1401.58">
          <stop offset="0" stop-color="#fbebca"/>
          <stop offset="0.97" stop-color="#ffd555"/>
        </radialGradient>
        <linearGradient gradientUnits="userSpaceOnUse" y1="13.19" y2="32.85" id="未命名的渐变_63" x2="30.36" x1="10.7">
          <stop offset="0.12" stop-color="#d49a00"/>
          <stop offset="0.81" stop-color="#916306"/>
        </linearGradient>
      </defs>
      <path d="M11.47,30a1.22,1.22,0,0,1-1.13-1.29V14.24a1.23,1.23,0,0,1,1.13-1.3h9.72l2.54-2.71h8.32a1.23,1.23,0,0,1,1.13,1.3V28.71A1.22,1.22,0,0,1,32.05,30Z" style="fill:url(#未命名的渐变_4)"/>
      <path d="M32.05,10.73a.74.74,0,0,1,.63.8V28.71a.73.73,0,0,1-.63.79H11.47a.73.73,0,0,1-.63-.79V14.24a.74.74,0,0,1,.63-.8h9.94l.29-.32L24,10.73h8.1m0-1H23.52L21,12.44h-9.5a1.72,1.72,0,0,0-1.63,1.8V28.71a1.71,1.71,0,0,0,1.63,1.79H32.05a1.71,1.71,0,0,0,1.63-1.79V11.53a1.72,1.72,0,0,0-1.63-1.8Z" style="fill:#916306"/>
      <path d="M10.85,30.5H32.23a1.29,1.29,0,0,0,1.19-1.57l-2-12.3a1.26,1.26,0,0,0-1.2-1.09H8.82a1.3,1.3,0,0,0-1.19,1.57l2,12.3A1.24,1.24,0,0,0,10.85,30.5Z" style="fill:url(#未命名的渐变_3)"/>
      <path d="M30.2,16.54c.08,0,.18.1.21.26l2,12.3a.38.38,0,0,1-.09.33.14.14,0,0,1-.12.07H10.85c-.08,0-.18-.09-.21-.25l-2-12.31a.41.41,0,0,1,.08-.33.15.15,0,0,1,.12-.07H30.2m0-1H8.82a1.3,1.3,0,0,0-1.19,1.57l2,12.3a1.24,1.24,0,0,0,1.19,1.09H32.23a1.29,1.29,0,0,0,1.19-1.57l-2-12.3a1.26,1.26,0,0,0-1.2-1.09Z" style="fill:url(#未命名的渐变_63)"/>
    </svg>