<svg data-name="图层 1" viewBox="0 0 40 40" id="图层_1" xmlns:xlink="http://www.w3.org/1999/xlink" xmlns="http://www.w3.org/2000/svg">
      <defs>
        <linearGradient x2="19.83" gradientUnits="userSpaceOnUse" id="未命名的渐变_35" x1="9.29" y2="24.22" y1="24.22">
          <stop stop-color="#ccc" offset="0.1"/>
          <stop stop-color="#999" offset="0.95"/>
        </linearGradient>
        <linearGradient x2="32.06" gradientUnits="userSpaceOnUse" id="未命名的渐变_41" x1="21.52" y2="24.22" y1="24.22">
          <stop stop-color="gray" offset="0.12"/>
          <stop stop-color="#4d4d4d" offset="0.9"/>
        </linearGradient>
        <linearGradient x2="29.99" id="未命名的渐变_35-2" x1="12.76" y2="6.9" xlink:href="#未命名的渐变_35" y1="19.17"/>
        <linearGradient x2="-333.3" gradientUnits="userSpaceOnUse" id="未命名的渐变_22" x1="-344.58" y2="-297.55" gradientTransform="translate(457.85 384.58) scale(1.27 1.2)" y1="-297.55">
          <stop stop-color="#666" offset="0.12"/>
          <stop stop-color="#333" offset="0.9"/>
        </linearGradient>
      </defs>
      <polygon points="19.83 33.5 9.29 27.18 9.29 14.93 19.83 21.26 19.83 33.5" style="fill:url(#未命名的渐变_35)"/>
      <polygon points="21.52 33.5 32.06 27.18 32.06 14.93 21.52 21.26 21.52 33.5" style="fill:url(#未命名的渐变_41)"/>
      <polygon points="20.62 19.92 10.05 13.57 20.62 7.22 31.2 13.57 20.62 19.92" style="fill:url(#未命名的渐变_35-2)"/>
      <rect height="2.01" transform="translate(27.31 -10.81) rotate(45)" y="26.55" style="fill:#e5e5e5;stroke-linecap:round;stroke-miterlimit:10;stroke-width:0.5px;stroke:url(#未命名的渐变_22)" width="13.72" x="19.85"/>
      <polygon points="17.66 23.07 13.11 23.06 15.89 19.45 14.5 15.12 18.79 16.65 22.48 13.99 22.34 18.54 26.02 21.22 21.65 22.5 20.23 26.83 17.66 23.07" style="fill:#e8e8e8"/>
      <path d="M22,15l-.1,3.28v.52l.42.31L24.91,21,21.76,22l-.5.15-.16.5-1,3.11L18.23,23l-.3-.43h-3.8l2-2.59.32-.42-.16-.5-1-3.12L18.37,17l.5.18.42-.31L22,15M23,13l-4.29,3.1-5-1.78,1.63,5L12.1,23.55l5.3,0,3,4.37,1.66-5,5.08-1.5-4.28-3.12L23,13Z" style="fill:#727272"/>
    </svg>