<svg xmlns="http://www.w3.org/2000/svg" data-name="图层 1" id="图层_1" viewBox="0 0 40 40" xmlns:xlink="http://www.w3.org/1999/xlink">
      <defs>
        <radialGradient r="9.1" cx="19.36" gradientUnits="userSpaceOnUse" cy="26.48" id="未命名的渐变_15">
          <stop offset="0" stop-color="#e6faff"/>
          <stop offset="0.95" stop-color="#83beec"/>
        </radialGradient>
        <linearGradient x1="7.72" y2="26.48" y1="26.48" gradientUnits="userSpaceOnUse" x2="31" id="未命名的渐变_126">
          <stop offset="0.12" stop-color="#0384c5"/>
          <stop offset="0.9" stop-color="#0063b1"/>
        </linearGradient>
        <linearGradient x1="18.25" y2="18.43" y1="18.43" x2="19.25" id="未命名的渐变_126-2" xlink:href="#未命名的渐变_126"/>
        <radialGradient r="4.76" cx="24.26" gradientUnits="userSpaceOnUse" cy="53.63" id="未命名的渐变_45" gradientTransform="translate(1.57 -30.79) scale(0.95 1.07)">
          <stop offset="0.01" stop-color="#ffbfdd"/>
          <stop offset="0.96" stop-color="#ff6a7a"/>
        </radialGradient>
        <linearGradient x1="18.2" y2="26.48" y1="26.48" gradientUnits="userSpaceOnUse" x2="31" id="未命名的渐变_162">
          <stop offset="0.01" stop-color="#ff3f65"/>
          <stop offset="1" stop-color="#aa001c"/>
        </linearGradient>
        <linearGradient x1="16.26" y2="9.02" y1="9.02" x2="21.2" id="未命名的渐变_126-3" xlink:href="#未命名的渐变_126"/>
        <linearGradient x1="31" y2="26.48" y1="26.48" x2="33.65" id="未命名的渐变_162-2" xlink:href="#未命名的渐变_162"/>
        <linearGradient x1="25.77" y2="12.68" y1="12.68" x2="32.29" id="未命名的渐变_126-4" xlink:href="#未命名的渐变_126"/>
      </defs>
      <ellipse cx="19.36" cy="26.48" style="fill:url(#未命名的渐变_15)" ry="5.51" rx="11.64"/>
      <path style="fill:url(#未命名的渐变_126)" d="M19.36,22C25.63,22,30,24.35,30,26.48S25.63,31,19.36,31,8.72,28.62,8.72,26.48,13.09,22,19.36,22m0-1c-6.43,0-11.64,2.47-11.64,5.51S12.93,32,19.36,32,31,29.53,31,26.48,25.79,21,19.36,21Z"/>
      <line x1="18.75" y2="9.95" y1="26.92" x2="18.75" style="fill:none;stroke-miterlimit:10;stroke:url(#未命名的渐变_126-2)"/>
      <line x1="31" y2="26.48" y1="26.48" x2="18.2" style="stroke-miterlimit:10;fill:url(#未命名的渐变_45);stroke:url(#未命名的渐变_162)"/>
      <polygon points="18.73 7.12 16.26 10.92 21.2 10.92 18.73 7.12" style="fill:url(#未命名的渐变_126-3)"/>
      <polygon points="33.65 26.48 31 24.52 31 28.44 33.65 26.48" style="fill:url(#未命名的渐变_162-2)"/>
      <path style="fill:url(#未命名的渐变_126-4)" d="M28.69,10.14A6,6,0,0,0,26,17a5.86,5.86,0,0,1,3.84-4.26l.76,1.78,1.74-4.34L28,8.4l.74,1.74"/>
    </svg>