<svg xmlns="http://www.w3.org/2000/svg" data-name="图层 1" id="图层_1" viewBox="0 0 40 40" xmlns:xlink="http://www.w3.org/1999/xlink">
      <defs>
        <linearGradient x1="7.65" y2="22.12" y1="22.12" gradientUnits="userSpaceOnUse" x2="33.65" id="未命名的渐变_72">
          <stop offset="0.12" stop-color="#666"/>
          <stop offset="0.56" stop-color="#333"/>
        </linearGradient>
        <linearGradient x1="7.65" y2="9.64" y1="9.64" x2="25" id="未命名的渐变_72-2" xlink:href="#未命名的渐变_72"/>
        <linearGradient x1="20.49" y2="30.28" y1="19.96" gradientUnits="userSpaceOnUse" x2="30.81" id="未命名的渐变_63">
          <stop offset="0.12" stop-color="#d49a00"/>
          <stop offset="0.81" stop-color="#916306"/>
        </linearGradient>
      </defs>
      <rect y="11.12" height="22" x="7.65" style="fill:#fff" rx="1.32" width="26"/>
      <path style="fill:url(#未命名的渐变_72)" d="M32.33,12.12a.32.32,0,0,1,.32.31V31.8a.32.32,0,0,1-.32.32H9a.31.31,0,0,1-.31-.32V12.43A.31.31,0,0,1,9,12.12H32.33m0-1H9a1.31,1.31,0,0,0-1.31,1.31V31.8A1.32,1.32,0,0,0,9,33.12H32.33a1.32,1.32,0,0,0,1.32-1.32V12.43a1.32,1.32,0,0,0-1.32-1.31Z"/>
      <path style="fill:#fff" d="M7.65,11.23V8.05a1,1,0,0,1,1.11-.93H21.14A1.18,1.18,0,0,1,22,7.5l2.76,3.18c.53.61,0,1.48-.9,1.48H8.76A1,1,0,0,1,7.65,11.23Z"/>
      <path style="fill:url(#未命名的渐变_72-2)" d="M21.14,8.12a.21.21,0,0,1,.14,0l2.6,3H8.76l-.11,0v-3l.11,0H21.14m0-1H8.76a1,1,0,0,0-1.11.93v3.18a1,1,0,0,0,1.11.93H23.89c.91,0,1.43-.87.9-1.48L22,7.5a1.18,1.18,0,0,0-.89-.38Z"/>
      <path style="fill:#fcdb88" d="M32.49,22.12H28.65V18.28a1.16,1.16,0,0,0-1.16-1.16H23.81a1.16,1.16,0,0,0-1.16,1.16v3.84H18.81a1.16,1.16,0,0,0-1.16,1.16V27a1.16,1.16,0,0,0,1.16,1.16h3.84V32a1.16,1.16,0,0,0,1.16,1.16h3.68A1.16,1.16,0,0,0,28.65,32V28.12h3.84A1.16,1.16,0,0,0,33.65,27V23.28A1.16,1.16,0,0,0,32.49,22.12Z"/>
      <path style="fill:url(#未命名的渐变_63)" d="M27.49,18.12a.16.16,0,0,1,.16.16v4.84h4.84a.16.16,0,0,1,.16.16V27a.16.16,0,0,1-.16.16H27.65V32a.16.16,0,0,1-.16.16H23.81a.16.16,0,0,1-.16-.16V27.12H18.81a.16.16,0,0,1-.16-.16V23.28a.16.16,0,0,1,.16-.16h4.84V18.28a.16.16,0,0,1,.16-.16h3.68m0-1H23.81a1.16,1.16,0,0,0-1.16,1.16v3.84H18.81a1.16,1.16,0,0,0-1.16,1.16V27a1.16,1.16,0,0,0,1.16,1.16h3.84V32a1.16,1.16,0,0,0,1.16,1.16h3.68A1.16,1.16,0,0,0,28.65,32V28.12h3.84A1.16,1.16,0,0,0,33.65,27V23.28a1.16,1.16,0,0,0-1.16-1.16H28.65V18.28a1.16,1.16,0,0,0-1.16-1.16Z"/>
    </svg>