<svg xmlns="http://www.w3.org/2000/svg" data-name="图层 1" id="图层_1" viewBox="0 0 40 40" xmlns:xlink="http://www.w3.org/1999/xlink">
      <defs>
        <linearGradient x1="7.78" y2="12.07" y1="12.07" gradientUnits="userSpaceOnUse" x2="17.37" id="未命名的渐变_89">
          <stop offset="0.01" stop-color="#d4ffec"/>
          <stop offset="1" stop-color="#a1ddaa"/>
        </linearGradient>
        <linearGradient x1="7.78" y2="12.07" y1="12.07" gradientUnits="userSpaceOnUse" x2="17.37" id="未命名的渐变_102">
          <stop offset="0.01" stop-color="#379e4e"/>
          <stop offset="1" stop-color="#006837"/>
        </linearGradient>
        <linearGradient x1="12.56" y2="11.97" y1="30.2" gradientUnits="userSpaceOnUse" x2="30.79" id="未命名的渐变_72">
          <stop offset="0.12" stop-color="#666"/>
          <stop offset="0.56" stop-color="#333"/>
        </linearGradient>
        <linearGradient x1="11.95" y2="25.61" y1="25.61" x2="14.65" id="未命名的渐变_72-2" xlink:href="#未命名的渐变_72"/>
        <linearGradient x1="15.95" y2="21.61" y1="21.61" x2="18.65" id="未命名的渐变_72-3" xlink:href="#未命名的渐变_72"/>
        <linearGradient x1="19.94" y2="17.62" y1="17.62" x2="22.65" id="未命名的渐变_72-4" xlink:href="#未命名的渐变_72"/>
        <linearGradient x1="23.76" y2="13.8" y1="13.8" x2="26.47" id="未命名的渐变_72-5" xlink:href="#未命名的渐变_72"/>
      </defs>
      <circle r="4.79" cx="12.58" cy="12.07" style="fill:url(#未命名的渐变_89)"/>
      <path style="fill:url(#未命名的渐变_102)" d="M12.58,8.28a3.79,3.79,0,1,1-3.8,3.79,3.79,3.79,0,0,1,3.8-3.79m0-1a4.79,4.79,0,1,0,4.79,4.79,4.79,4.79,0,0,0-4.79-4.79Z"/>
      <rect y="16.48" height="9.21" transform="translate(-8.56 21.5) rotate(-45)" x="8.78" style="fill:#fff" rx="0.62" width="25.78"/>
      <path style="fill:url(#未命名的渐变_72)" d="M27.53,10.13l5.1,5.1L15.81,32l-5.09-5.1L27.53,10.13m0-1.16a.63.63,0,0,0-.44.19L9.74,26.5a.63.63,0,0,0,0,.88L15.37,33a.6.6,0,0,0,.88,0L33.6,15.67a.63.63,0,0,0,0-.88L28,9.16A.63.63,0,0,0,27.53,9Z"/>
      <line x1="12.3" y2="26.61" y1="24.61" x2="14.3" style="fill:#fff;stroke-miterlimit:10;stroke:url(#未命名的渐变_72-2)"/>
      <line x1="16.3" y2="22.61" y1="20.61" x2="18.3" style="fill:#fff;stroke-miterlimit:10;stroke:url(#未命名的渐变_72-3)"/>
      <line x1="20.3" y2="18.62" y1="16.62" x2="22.29" style="fill:#fff;stroke-miterlimit:10;stroke:url(#未命名的渐变_72-4)"/>
      <line x1="24.11" y2="14.8" y1="12.8" x2="26.11" style="fill:#fff;stroke-miterlimit:10;stroke:url(#未命名的渐变_72-5)"/>
      <path style="fill:url(#未命名的渐变_72)" d="M27.53,10.13l5.1,5.1L15.81,32l-5.09-5.1L27.53,10.13m0-1.16a.63.63,0,0,0-.44.19L9.74,26.5a.63.63,0,0,0,0,.88L15.37,33a.6.6,0,0,0,.88,0L33.6,15.67a.63.63,0,0,0,0-.88L28,9.16A.63.63,0,0,0,27.53,9Z"/>
    </svg>