<svg xmlns="http://www.w3.org/2000/svg" data-name="图层 1" id="图层_1" viewBox="0 0 40 40" xmlns:xlink="http://www.w3.org/1999/xlink">
      <defs>
        <linearGradient x1="18.01" y2="22.12" y1="15.28" gradientUnits="userSpaceOnUse" x2="21.95" id="未命名的渐变_72">
          <stop offset="0.12" stop-color="#666"/>
          <stop offset="0.56" stop-color="#333"/>
        </linearGradient>
        <linearGradient x1="15.54" y2="12.09" y1="12.09" gradientUnits="userSpaceOnUse" x2="25.17" id="未命名的渐变_126">
          <stop offset="0.12" stop-color="#0384c5"/>
          <stop offset="0.9" stop-color="#0063b1"/>
        </linearGradient>
        <linearGradient x1="14.31" y2="37.34" y1="18.1" x2="25.43" id="未命名的渐变_72-2" xlink:href="#未命名的渐变_72"/>
      </defs>
      <polygon points="24.31 20.76 16.61 20.76 18.54 14.98 22.39 14.98 24.31 20.76" style="fill:#fff"/>
      <path style="fill:url(#未命名的渐变_72)" d="M21.67,16l1.26,3.78H18L19.26,16h2.41m.72-1H18.53l-1.92,5.78h7.7L22.39,15Z"/>
      <circle r="4.81" cx="20.35" cy="12.09" style="fill:#d4edff"/>
      <path style="fill:url(#未命名的渐变_126)" d="M20.35,8.28a3.82,3.82,0,1,1-3.81,3.81,3.82,3.82,0,0,1,3.81-3.81m0-1a4.82,4.82,0,1,0,4.82,4.81,4.81,4.81,0,0,0-4.82-4.81Z"/>
      <path style="fill:#fff" d="M30,24.2V20.69a1.86,1.86,0,0,0-1.86-1.86H13.54a1.86,1.86,0,0,0-1.86,1.86V24.2a1.85,1.85,0,0,1-1.85,1.85H9.69a1.86,1.86,0,0,0-1.86,1.86v3.51a1.86,1.86,0,0,0,1.86,1.86H32a1.86,1.86,0,0,0,1.85-1.86V27.91A1.85,1.85,0,0,0,32,26.05h-.14A1.85,1.85,0,0,1,30,24.2Z"/>
      <path style="fill:url(#未命名的渐变_72-2)" d="M28.12,19.83a.86.86,0,0,1,.86.86V24.2a2.86,2.86,0,0,0,2.86,2.85H32a.86.86,0,0,1,.85.86v3.51a.86.86,0,0,1-.85.86H9.69a.87.87,0,0,1-.86-.86V27.91a.87.87,0,0,1,.86-.86h.14a2.86,2.86,0,0,0,2.85-2.85V20.69a.87.87,0,0,1,.86-.86H28.12m0-1H13.54a1.86,1.86,0,0,0-1.86,1.86V24.2a1.85,1.85,0,0,1-1.85,1.85H9.69a1.86,1.86,0,0,0-1.86,1.86v3.51a1.86,1.86,0,0,0,1.86,1.86H32a1.86,1.86,0,0,0,1.85-1.86V27.91A1.85,1.85,0,0,0,32,26.05h-.14A1.85,1.85,0,0,1,30,24.2V20.69a1.86,1.86,0,0,0-1.86-1.86Z"/>
    </svg>