<svg id="图层_1" viewBox="0 0 40 40" data-name="图层 1" xmlns="http://www.w3.org/2000/svg" xmlns:xlink="http://www.w3.org/1999/xlink">
      <defs>
        <linearGradient x1="11.64" id="未命名的渐变_99" y2="29.47" y1="11.08" x2="30.02" gradientUnits="userSpaceOnUse">
          <stop stop-color="#379e4e" offset="0.08"/>
          <stop stop-color="#006837" offset="0.81"/>
        </linearGradient>
        <linearGradient x1="18.05" id="未命名的渐变_102" y2="25.7" y1="16.69" x2="27.07" gradientUnits="userSpaceOnUse">
          <stop stop-color="#379e4e" offset="0.01"/>
          <stop stop-color="#006837" offset="1"/>
        </linearGradient>
      </defs>
      <circle cx="20.83" r="13" style="fill:#fff" cy="20.28"/>
      <path d="M20.83,8.28a12,12,0,1,1-12,12,12,12,0,0,1,12-12m0-1a13,13,0,1,0,13,13,13,13,0,0,0-13-13Z" style="fill:url(#未命名的渐变_99)"/>
      <path d="M24.26,14.2A3.55,3.55,0,0,1,25.44,17a4,4,0,0,1-.72,2.43c-.18.19-.75.72-1.7,1.55a3,3,0,0,0-.78,1,2.72,2.72,0,0,1-.93,1.28v.38H19.39v-.38c.29-.75.41-1.39.68-1.93a11.21,11.21,0,0,1,2.3-2.5l.24-.27a2.21,2.21,0,0,0,.53-1.4,2.15,2.15,0,0,0-.55-1.53A2.09,2.09,0,0,0,21,15.09a2,2,0,0,0-1.85.8,3.25,3.25,0,0,0-.5,2H16.43a4.51,4.51,0,0,1,1.28-3.47,4.7,4.7,0,0,1,3.44-1.24A4.45,4.45,0,0,1,24.26,14.2ZM21.9,24.93a1.52,1.52,0,0,1,0,2.14,1.49,1.49,0,0,1-1.08.41,1.5,1.5,0,0,1-1.08-.43,1.5,1.5,0,0,1,0-2.12,1.49,1.49,0,0,1,1.08-.42A1.54,1.54,0,0,1,21.9,24.93Z" style="fill:url(#未命名的渐变_102)"/>
    </svg>