<svg xmlns="http://www.w3.org/2000/svg" data-name="图层 1" id="图层_1" viewBox="0 0 40 40" xmlns:xlink="http://www.w3.org/1999/xlink">
      <defs>
        <linearGradient x1="11.99" y2="20.3" y1="20.3" gradientUnits="userSpaceOnUse" x2="29.84" id="未命名的渐变_63">
          <stop offset="0.12" stop-color="#d49a00"/>
          <stop offset="0.81" stop-color="#916306"/>
        </linearGradient>
      </defs>
      <path style="fill:#fcdb88" d="M29.31,17.51H22.58L23.9,7.63a.2.2,0,0,0-.18-.24.22.22,0,0,0-.2.08L12.1,22.25a.52.52,0,0,0,.1.73.46.46,0,0,0,.32.11h6.74L17.93,33a.21.21,0,0,0,.38.16L29.73,18.36a.53.53,0,0,0-.1-.74.52.52,0,0,0-.32-.11Z"/>
      <path style="fill:url(#未命名的渐变_63)" d="M22.52,10.4l-.94,7-.15,1.13h6.91l-9,11.7.94-7,.15-1.14H13.49l9-11.69m1.17-3a.23.23,0,0,0-.17.08L12.1,22.25a.52.52,0,0,0,.1.73.46.46,0,0,0,.32.11h6.74L17.93,33a.22.22,0,0,0,.18.24h0a.21.21,0,0,0,.17-.08L29.73,18.36a.53.53,0,0,0-.1-.74.52.52,0,0,0-.32-.11H22.58L23.9,7.63a.2.2,0,0,0-.18-.24Z"/>
    </svg>