<svg data-name="图层 1" xmlns:xlink="http://www.w3.org/1999/xlink" id="图层_1" viewBox="0 0 40 40" xmlns="http://www.w3.org/2000/svg">
      <defs>
        <linearGradient y2="29.9" y1="10.1" x1="10.1" x2="29.9" id="未命名的渐变_9" gradientUnits="userSpaceOnUse">
          <stop stop-color="#666" offset="0.12"/>
          <stop stop-color="#333" offset="0.95"/>
        </linearGradient>
        <linearGradient y2="20" y1="20" x1="14" x2="26" id="未命名的渐变_178" gradientUnits="userSpaceOnUse">
          <stop stop-color="#ff5559" offset="0.01"/>
          <stop stop-color="#aa001c" offset="1"/>
        </linearGradient>
      </defs>
      <circle cy="20" cx="20" style="fill:#fff" r="14"/>
      <path d="M20,7A13,13,0,1,1,7,20,13,13,0,0,1,20,7m0-1A14,14,0,1,0,34,20,14,14,0,0,0,20,6Z" style="fill:url(#未命名的渐变_9)"/>
      <rect x="14" width="12" y="14" height="12" rx="2" style="fill:#fcc5cd"/>
      <path d="M24,15a1,1,0,0,1,1,1v8a1,1,0,0,1-1,1H16a1,1,0,0,1-1-1V16a1,1,0,0,1,1-1h8m0-1H16a2,2,0,0,0-2,2v8a2,2,0,0,0,2,2h8a2,2,0,0,0,2-2V16a2,2,0,0,0-2-2Z" style="fill:url(#未命名的渐变_178)"/>
    </svg>