<svg xmlns="http://www.w3.org/2000/svg" data-name="图层 1" id="图层_1" viewBox="0 0 40 40" xmlns:xlink="http://www.w3.org/1999/xlink">
      <defs>
        <linearGradient x1="9.92" y2="31.3" y1="9.31" gradientUnits="userSpaceOnUse" x2="31.91" id="未命名的渐变_178">
          <stop offset="0.01" stop-color="#ff5559"/>
          <stop offset="1" stop-color="#aa001c"/>
        </linearGradient>
      </defs>
      <path style="fill:#fcc5cd" d="M32.91,26.3l-6-6,6-6a2.84,2.84,0,0,0,0-4l-2-2a2.82,2.82,0,0,0-4,0l-6,6-6-6a2.82,2.82,0,0,0-4,0l-2,2a2.84,2.84,0,0,0,0,4l6,6-6,6a2.84,2.84,0,0,0,0,4l2,2a2.84,2.84,0,0,0,4,0l6-6,6,6a2.84,2.84,0,0,0,4,0l2-2A2.84,2.84,0,0,0,32.91,26.3Z"/>
      <path style="fill:url(#未命名的渐变_178)" d="M28.91,8.48A1.78,1.78,0,0,1,30.2,9l2,2a1.82,1.82,0,0,1,0,2.59l-6,6-.71.7.71.71,6,6a1.81,1.81,0,0,1,0,2.58l-2,2a1.83,1.83,0,0,1-2.58,0l-6-6-.7-.7-.71.7-6,6a1.83,1.83,0,0,1-2.58,0l-2-2a1.81,1.81,0,0,1,0-2.58l6-6,.7-.71-.7-.7-6-6a1.82,1.82,0,0,1,0-2.59l2-2a1.81,1.81,0,0,1,2.58,0l6,6,.71.71.7-.71,6-6a1.8,1.8,0,0,1,1.29-.54m0-1a2.85,2.85,0,0,0-2,.83l-6,6-6-6a2.82,2.82,0,0,0-4,0l-2,2a2.84,2.84,0,0,0,0,4l6,6-6,6a2.84,2.84,0,0,0,0,4l2,2a2.85,2.85,0,0,0,4,0l6-6,6,6a2.84,2.84,0,0,0,2,.82,2.81,2.81,0,0,0,2-.82l2-2a2.84,2.84,0,0,0,0-4l-6-6,6-6a2.84,2.84,0,0,0,0-4l-2-2a2.82,2.82,0,0,0-2-.83Z"/>
    </svg>