<svg id="图层_1" data-name="图层 1" viewBox="0 0 40 40" xmlns="http://www.w3.org/2000/svg" xmlns:xlink="http://www.w3.org/1999/xlink">
      <defs>
        <linearGradient id="未命名的渐变_72" y2="16.36" x1="7.29" x2="34.27" gradientUnits="userSpaceOnUse" y1="16.36">
          <stop offset="0.12" stop-color="#666"/>
          <stop offset="0.56" stop-color="#333"/>
        </linearGradient>
        <linearGradient id="未命名的渐变_72-2" y2="20.31" x1="26.78" xlink:href="#未命名的渐变_72" x2="34.27" y1="20.31"/>
        <linearGradient id="未命名的渐变_102" y2="24.59" x1="7.29" x2="26.78" gradientUnits="userSpaceOnUse" y1="24.59">
          <stop offset="0.01" stop-color="#379e4e"/>
          <stop offset="1" stop-color="#006837"/>
        </linearGradient>
      </defs>
      <polygon style="fill:#c1c1c1" points="7.29 19.97 20.13 10.04 34.27 11.41 26.79 22.68 7.29 19.97"/>
      <path d="M20.2,10.29l13.63,1.33L26.66,22.41,7.91,19.8,20.2,10.29M20.13,10,7.29,20l19.49,2.71,7.49-11.27L20.13,10Z" style="fill:url(#未命名的渐变_72)"/>
      <polygon style="fill:#c1c1c1" points="26.79 29.22 34.27 16.23 34.27 11.41 26.79 22.68 26.79 29.22"/>
      <path d="M34,12.24v3.92L27,28.28V22.76l7-10.52m.25-.83L26.78,22.68v6.54l7.49-13V11.41Z" style="fill:url(#未命名的渐变_72-2)"/>
      <path d="M23.17,22.18a.53.53,0,0,1-.51.46.52.52,0,0,1-.52-.52s0-.05,0-.08l-3.06-.43a.51.51,0,0,1-.51.46.52.52,0,0,1-.52-.52.31.31,0,0,1,0-.08l-3-.41a.51.51,0,0,1-.5.45.52.52,0,0,1-.52-.52s0,0,0-.07l-2.84-.4a.51.51,0,0,1-.5.43.52.52,0,0,1-.52-.52s0,0,0-.05L7.29,20l.38,8.18,2.77.15a.5.5,0,0,1,.51-.5.52.52,0,0,1,.52.52v0l2.74.15v0a.52.52,0,0,1,.52-.52.52.52,0,0,1,.52.52s0,.05,0,.08l2.92.16s0,0,0,0a.52.52,0,1,1,1,0,.29.29,0,0,1,0,.09l3,.17v0a.52.52,0,0,1,.52-.52.52.52,0,0,1,.52.52s0,.06,0,.09l3.62.2V22.68ZM15.55,24,9.92,26.38A.41.41,0,0,1,9.35,26l-.08-2.88a.4.4,0,0,1,.44-.42l5.71.46A.41.41,0,0,1,15.55,24Zm9.21,3.57a.41.41,0,0,1-.43.41l-7-.5a.4.4,0,0,1-.11-.78l7-2.54a.41.41,0,0,1,.54.38Z" style="fill:#d4ffec"/>
      <path d="M7.56,20.26,10,20.6a.77.77,0,0,0,1.42.2l2.42.33a.77.77,0,0,0,.76.63.76.76,0,0,0,.68-.43l2.54.36a.77.77,0,0,0,.76.63.74.74,0,0,0,.68-.43l2.64.37a.76.76,0,0,0,1.44.2l3.19.44V29l-3.12-.17a.77.77,0,0,0-1.49-.08l-2.51-.14a.77.77,0,0,0-.76-.63.77.77,0,0,0-.73.54l-2.45-.14A.77.77,0,0,0,14,28.25l-2.29-.13a.77.77,0,0,0-.75-.57.75.75,0,0,0-.71.49l-2.33-.13-.35-7.65m2.2,6.41a.62.62,0,0,0,.26-.06l5.62-2.42a.64.64,0,0,0,.39-.71.66.66,0,0,0-.59-.55l-5.71-.46H9.67a.65.65,0,0,0-.65.67L9.1,26a.66.66,0,0,0,.66.64m14.59,1.52h0a.66.66,0,0,0,.65-.66v-3a.68.68,0,0,0-.19-.47.67.67,0,0,0-.46-.18h0a.54.54,0,0,0-.22,0l-7,2.53a.65.65,0,0,0,.18,1.27l7,.5h0M7.29,20l.38,8.18,2.77.15a.5.5,0,0,1,.51-.5.52.52,0,0,1,.52.52v0l2.74.15v0a.52.52,0,0,1,.52-.52.52.52,0,0,1,.52.52s0,.05,0,.08l2.92.16s0,0,0,0a.52.52,0,1,1,1,0,.29.29,0,0,1,0,.09l3,.17v0a.52.52,0,0,1,.52-.52.52.52,0,0,1,.52.52s0,.06,0,.09l3.62.2V22.68l-3.62-.5a.51.51,0,0,1-.5.46.52.52,0,0,1-.52-.52s0-.05,0-.08l-3.06-.43a.51.51,0,0,1-.51.46.52.52,0,0,1-.52-.52.31.31,0,0,1,0-.08l-3-.41a.51.51,0,0,1-.5.45.52.52,0,0,1-.52-.52s0,0,0-.07l-2.84-.4a.51.51,0,0,1-.5.43.52.52,0,0,1-.52-.52s0,0,0-.05L7.29,20Zm2.47,6.45a.42.42,0,0,1-.41-.4l-.08-2.88a.41.41,0,0,1,.4-.42h0l5.71.46a.41.41,0,0,1,.13.78L9.92,26.38a.32.32,0,0,1-.16,0Zm14.6,1.52h0l-7-.5a.4.4,0,0,1-.11-.78l7-2.54.14,0a.4.4,0,0,1,.4.4v3a.4.4,0,0,1-.4.41Z" style="fill:url(#未命名的渐变_102)"/>
    </svg>