<svg id="图层_1" data-name="图层 1" viewBox="0 0 40 40" xmlns="http://www.w3.org/2000/svg" xmlns:xlink="http://www.w3.org/1999/xlink">
      <defs>
        <radialGradient cy="26.74" gradientTransform="matrix(-0.1, 0, 0, 2.98, -429.19, -54.95)" id="未命名的渐变_23" r="4.69" cx="-4249.1" gradientUnits="userSpaceOnUse">
          <stop offset="0" stop-color="#aa8900"/>
          <stop offset="1" stop-color="#ffd555"/>
        </radialGradient>
        <radialGradient cy="26.68" gradientTransform="translate(-295.87 -50.41) scale(0.1 2.82)" id="未命名的渐变_23-2" r="4.69" xlink:href="#未命名的渐变_23" cx="3112.97"/>
        <radialGradient cy="23.09" gradientTransform="matrix(0.33, 0, 0, -2.99, -254.17, 92.24)" id="未命名的渐变_11" r="12.89" cx="792.35" gradientUnits="userSpaceOnUse">
          <stop offset="0" stop-color="#fbebca"/>
          <stop offset="1" stop-color="#ffd555"/>
        </radialGradient>
        <radialGradient cy="23.18" gradientTransform="translate(-458.14 92.24) rotate(180) scale(0.33 2.99)" id="未命名的渐变_11-2" r="12.89" xlink:href="#未命名的渐变_11" cx="-1464.24"/>
        <radialGradient cy="24.39" gradientTransform="translate(0 7.32) scale(1 0.77)" id="未命名的渐变_154" r="12.38" cx="19.99" gradientUnits="userSpaceOnUse">
          <stop offset="0" stop-color="#fbebca"/>
          <stop offset="0.57" stop-color="#ffd555"/>
        </radialGradient>
        <radialGradient cy="24.21" gradientTransform="matrix(1, 0, 0, -2.99, 0, 92.24)" id="未命名的渐变_11-3" r="9.02" xlink:href="#未命名的渐变_11" cx="20"/>
        <radialGradient cy="27.47" gradientTransform="translate(-184.03 -40.26) scale(0.38 2.47)" id="未命名的渐变_154-2" r="4.99" xlink:href="#未命名的渐变_154" cx="512.71"/>
        <radialGradient cy="27.47" gradientTransform="translate(-184.03 -40.26) scale(0.38 2.47)" id="未命名的渐变_154-3" r="4.99" xlink:href="#未命名的渐变_154" cx="570.2"/>
        <linearGradient id="未命名的渐变_102" y2="26.57" x1="23.28" x2="33.51" gradientUnits="userSpaceOnUse" y1="26.57">
          <stop offset="0.01" stop-color="#379e4e"/>
          <stop offset="1" stop-color="#006837"/>
        </linearGradient>
        <linearGradient id="未命名的渐变_102-2" y2="28.97" x1="24.39" xlink:href="#未命名的渐变_102" x2="27.53" y1="28.97"/>
        <linearGradient id="未命名的渐变_102-3" y2="25.28" x1="27.03" xlink:href="#未命名的渐变_102" x2="32.28" y1="25.28"/>
        <linearGradient id="未命名的渐变_102-4" y2="22.79" x1="26.61" xlink:href="#未命名的渐变_102" x2="27.86" y1="22.79"/>
        <linearGradient gradientTransform="translate(13.15 102.31) rotate(-135)" id="未命名的渐变_102-5" y2="58.73" x1="42.17" xlink:href="#未命名的渐变_102" x2="43.42" y1="58.73"/>
        <linearGradient gradientTransform="translate(70.27 6.65) rotate(90)" id="未命名的渐变_102-6" y2="38.06" x1="20.38" xlink:href="#未命名的渐变_102" x2="21.63" y1="38.06"/>
      </defs>
      <polygon style="fill:url(#未命名的渐变_23)" points="11.78 29.41 13.13 24.7 13.13 20.26 11.78 24.97 11.78 29.41"/>
      <polygon style="fill:url(#未命名的渐变_23-2)" points="28.36 29.24 27.01 24.79 27.01 20.58 28.36 25.04 28.36 29.24"/>
      <polygon style="fill:url(#未命名的渐变_11)" points="13.33 20.2 10.32 20.2 6.61 26.12 11.29 26.12 13.33 20.2"/>
      <polygon style="fill:url(#未命名的渐变_11-2)" points="26.62 19.91 29.63 19.91 33.34 25.83 28.66 25.83 26.62 19.91"/>
      <line y2="16.83" x1="15.74" style="fill:none;stroke:#0063b1;stroke-miterlimit:10;stroke-width:0.5px" x2="15.74" y1="9.99"/>
      <line y2="16.83" x1="24.27" style="fill:none;stroke:#0063b1;stroke-miterlimit:10;stroke-width:0.5px" x2="24.27" y1="9.99"/>
      <path d="M25.89,12.37l1.7,3.87v9.19l-1.7-7V12.37M25.39,10v8.53l2.7,11.08V16.14L25.39,10Z" style="fill:#0063b1"/>
      <path d="M14.09,12.37v6.09l-1.7,7V16.24l1.7-3.87m.5-2.38-2.7,6.15V29.6l2.7-11.08V10Z" style="fill:#0063b1"/>
      <rect x="12.97" style="opacity:0.63;fill:url(#未命名的渐变_154)" width="14.04" height="6.88" y="22.72"/>
      <polygon style="opacity:0.63;fill:url(#未命名的渐变_11-3)" points="24.53 16.83 15.5 16.83 12.98 22.75 27.02 22.75 24.53 16.83"/>
      <rect x="6.49" style="opacity:0.63;fill:url(#未命名的渐变_154-2)" width="5.29" height="3.68" y="25.74"/>
      <rect x="28.15" style="opacity:0.63;fill:url(#未命名的渐变_154-3)" width="5.29" height="3.68" y="25.74"/>
      <path d="M24.15,10.49l2.12,5.15H13.72l2.11-5.15h8.32m.34-.5h-9L13,16.14H27L24.49,10Z" style="fill:#0063b1"/>
      <path d="M26.51,16.64V29.1h-13V16.64h13m.5-.5H13V29.6H27V16.14Z" style="fill:#0063b1"/>
      <path d="M33,16.64V29.1H28.59V16.64H33m.5-.5H28.09V29.6h5.42V16.14Z" style="fill:#0063b1"/>
      <path d="M11.41,16.64V29.1H7V16.64h4.42m.5-.5H6.49V29.6h5.42V16.14Z" style="fill:#0063b1"/>
      <path d="M13.81,10.49l-2.23,5.15H7.38l3.1-5.15h3.33m.76-.5H10.2L6.49,16.14h5.42L14.57,10Z" style="fill:#0063b1"/>
      <path d="M29.48,10.49l3.11,5.15h-4.2l-2.23-5.15h3.32m.28-.5H25.39l2.67,6.15h5.41L29.76,10Z" style="fill:#0063b1"/>
      <path d="M31.81,27.23a.51.51,0,1,1-.51.51.51.51,0,0,1,.51-.51m0-.5a1,1,0,1,0,1,1,1,1,0,0,0-1-1Z" style="fill:#0063b1"/>
      <path d="M11.38,8c-.38,0-.59-.16-.6-.21s.2-.2.6-.2.59.16.59.2S11.75,8,11.38,8Z" style="fill:#fff"/>
      <path d="M11.38,7.34c-.47,0-.85.2-.85.45s.38.46.85.46.84-.21.84-.46-.38-.45-.84-.45Z" style="fill:#0063b1"/>
      <path d="M11.38,12.59c-.4,0-.6-.17-.6-.21V8H12v4.36S11.77,12.59,11.38,12.59Z" style="fill:#fff"/>
      <path d="M11.72,8.27v4a.79.79,0,0,1-.34.07.88.88,0,0,1-.35-.07v-4h.69m.5-.5H10.53v4.61c0,.26.38.46.85.46s.84-.2.84-.46V7.77Z" style="fill:#0063b1"/>
      <line y2="20.2" x1="10.5" style="fill:none;stroke:#0063b1;stroke-miterlimit:10;stroke-width:0.5px" x2="10.5" y1="10.3"/>
      <line y2="19.91" x1="29.43" style="fill:none;stroke:#0063b1;stroke-miterlimit:10;stroke-width:0.5px" x2="29.43" y1="10.37"/>
      <rect x="23.28" style="fill:#d4ffec" width="10.22" height="10.22" y="21.46"/>
      <path d="M33,22v9.23H23.78V22H33m.5-.5H23.28V31.69H33.51V21.46Z" style="fill:url(#未命名的渐变_102)"/>
      <line y2="30.29" x1="27.28" style="fill:none;stroke-linecap:round;stroke-linejoin:round;stroke-width:0.5px;stroke:url(#未命名的渐变_102-2)" x2="24.64" y1="27.65"/>
      <polyline style="fill:none;stroke-linecap:round;stroke-linejoin:round;stroke-width:0.5px;stroke:url(#未命名的渐变_102-3)" points="32.03 27.65 27.28 27.65 27.28 22.91"/>
      <polygon style="fill:url(#未命名的渐变_102-4)" points="27.23 22.25 26.61 23.33 27.86 23.33 27.23 22.25"/>
      <polygon style="fill:url(#未命名的渐变_102-5)" points="24.04 30.9 25.24 30.57 24.36 29.69 24.04 30.9"/>
      <polygon style="fill:url(#未命名的渐变_102-6)" points="32.75 27.65 31.67 27.03 31.67 28.27 32.75 27.65"/>
    </svg>