<svg xmlns="http://www.w3.org/2000/svg" data-name="图层 1" id="图层_1" viewBox="0 0 40 40" xmlns:xlink="http://www.w3.org/1999/xlink">
      <defs>
        <linearGradient x1="7.65" y2="22.12" y1="22.12" gradientUnits="userSpaceOnUse" x2="33.65" id="未命名的渐变_72">
          <stop offset="0.12" stop-color="#666"/>
          <stop offset="0.56" stop-color="#333"/>
        </linearGradient>
        <linearGradient x1="7.65" y2="9.61" y1="9.61" x2="25" id="未命名的渐变_72-2" xlink:href="#未命名的渐变_72"/>
        <linearGradient x1="25.82" y2="32.49" y1="18.09" gradientUnits="userSpaceOnUse" x2="25.82" id="未命名的渐变_178">
          <stop offset="0.01" stop-color="#ff5559"/>
          <stop offset="1" stop-color="#aa001c"/>
        </linearGradient>
      </defs>
      <rect y="11.12" height="22" x="7.65" style="fill:#fff" rx="1.32" width="26"/>
      <path style="fill:url(#未命名的渐变_72)" d="M32.33,12.12a.32.32,0,0,1,.32.31V31.8a.32.32,0,0,1-.32.32H9a.31.31,0,0,1-.31-.32V12.43A.31.31,0,0,1,9,12.12H32.33m0-1H9a1.31,1.31,0,0,0-1.31,1.31V31.8A1.32,1.32,0,0,0,9,33.12H32.33a1.32,1.32,0,0,0,1.32-1.32V12.43a1.32,1.32,0,0,0-1.32-1.31Z"/>
      <path style="fill:#fff" d="M7.65,11.18V8a1,1,0,0,1,1.11-.92H21.14A1.18,1.18,0,0,1,22,7.5l2.76,3.14c.53.61,0,1.46-.9,1.46H8.76A1,1,0,0,1,7.65,11.18Z"/>
      <path style="fill:url(#未命名的渐变_72-2)" d="M21.14,8.12a.22.22,0,0,1,.14,0l2.58,2.94H8.76l-.11,0V8.14l.11,0H21.14m0-1H8.76A1,1,0,0,0,7.65,8v3.14a1,1,0,0,0,1.11.92H23.89c.91,0,1.43-.85.9-1.46L22,7.5a1.18,1.18,0,0,0-.89-.38Z"/>
      <path style="fill:#fcc5cd" d="M32.68,27.86,30.1,25.29l2.58-2.58a1.16,1.16,0,0,0,0-1.64L30,18.43a1.15,1.15,0,0,0-1.64,0L25.82,21l-2.58-2.57a1.15,1.15,0,0,0-1.64,0L19,21.07a1.15,1.15,0,0,0,0,1.64l2.57,2.58L19,27.86a1.15,1.15,0,0,0,0,1.64l2.64,2.65a1.16,1.16,0,0,0,1.64,0l2.58-2.58,2.57,2.58a1.16,1.16,0,0,0,1.64,0l2.65-2.65A1.16,1.16,0,0,0,32.68,27.86Z"/>
      <path style="fill:url(#未命名的渐变_178)" d="M29.21,19.09a.19.19,0,0,1,.11,0L32,21.78a.15.15,0,0,1,.05.11A.17.17,0,0,1,32,22L29.4,24.58l-.71.71.71.7L32,28.57a.15.15,0,0,1,.05.11.14.14,0,0,1-.05.11l-2.65,2.65a.15.15,0,0,1-.22,0l-2.58-2.57-.7-.71-.71.71-2.57,2.57a.17.17,0,0,1-.12,0,.15.15,0,0,1-.11,0l-2.65-2.65a.16.16,0,0,1,0-.22L22.24,26l.7-.7-.7-.71L19.66,22a.17.17,0,0,1,0-.23l2.65-2.65a.19.19,0,0,1,.11,0,.21.21,0,0,1,.12,0l2.57,2.58.71.7.7-.7,2.58-2.58a.19.19,0,0,1,.11,0m0-1a1.14,1.14,0,0,0-.82.34L25.82,21l-2.58-2.57a1.13,1.13,0,0,0-.82-.34,1.16,1.16,0,0,0-.82.34L19,21.07a1.15,1.15,0,0,0,0,1.64l2.57,2.58L19,27.86a1.15,1.15,0,0,0,0,1.64l2.64,2.65a1.2,1.2,0,0,0,.82.34,1.17,1.17,0,0,0,.82-.34l2.58-2.58,2.57,2.58a1.16,1.16,0,0,0,1.64,0l2.65-2.65a1.16,1.16,0,0,0,0-1.64L30.1,25.29l2.58-2.58a1.16,1.16,0,0,0,0-1.64L30,18.43a1.14,1.14,0,0,0-.82-.34Z"/>
    </svg>