<svg data-name="图层 1" viewBox="0 0 40 40" xmlns="http://www.w3.org/2000/svg" xmlns:xlink="http://www.w3.org/1999/xlink" id="图层_1">
      <defs>
        <linearGradient y2="24.22" gradientUnits="userSpaceOnUse" x2="19.83" x1="9.29" id="未命名的渐变_35" y1="24.22">
          <stop offset="0.1" stop-color="#ccc"/>
          <stop offset="0.95" stop-color="#999"/>
        </linearGradient>
        <linearGradient y2="24.22" gradientUnits="userSpaceOnUse" x2="32.06" x1="21.52" id="未命名的渐变_126" y1="24.22">
          <stop offset="0.12" stop-color="#0384c5"/>
          <stop offset="0.9" stop-color="#0063b1"/>
        </linearGradient>
        <linearGradient y2="6.9" x2="29.99" x1="12.76" id="未命名的渐变_35-2" xlink:href="#未命名的渐变_35" y1="19.17"/>
        <linearGradient y2="-266.18" gradientUnits="userSpaceOnUse" x2="-310.33" gradientTransform="translate(428.63 346.93) scale(1.27 1.2)" x1="-321.61" id="未命名的渐变_22" y1="-266.18">
          <stop offset="0.12" stop-color="#666"/>
          <stop offset="0.9" stop-color="#333"/>
        </linearGradient>
        <linearGradient y2="22.92" gradientUnits="userSpaceOnUse" x2="26.33" x1="12.92" id="未命名的渐变_63" y1="15.82">
          <stop offset="0.12" stop-color="#d49a00"/>
          <stop offset="0.81" stop-color="#916306"/>
        </linearGradient>
      </defs>
      <polygon style="fill:url(#未命名的渐变_35)" points="19.83 33.5 9.29 27.18 9.29 14.93 19.83 21.26 19.83 33.5"/>
      <polygon style="fill:url(#未命名的渐变_126)" points="21.52 33.5 32.06 27.18 32.06 14.93 21.52 21.26 21.52 33.5"/>
      <polygon style="fill:url(#未命名的渐变_35-2)" points="20.62 19.92 10.05 13.57 20.62 7.22 31.2 13.57 20.62 19.92"/>
      <rect x="19.85" style="fill:#e5e5e5;stroke-linecap:round;stroke-miterlimit:10;stroke-width:0.5px;stroke:url(#未命名的渐变_22)" y="26.55" width="13.72" transform="translate(27.31 -10.81) rotate(45)" height="2.01"/>
      <polygon style="fill:#fcdb88" points="23 12.99 22.85 18.29 27.13 21.41 22.05 22.91 20.39 27.95 17.4 23.57 12.1 23.55 15.34 19.36 13.71 14.31 18.71 16.09 23 12.99"/>
      <path d="M22,15l-.1,3.28v.52l.42.31L24.91,21,21.76,22l-.5.15-.16.5-1,3.11L18.23,23l-.3-.43h-3.8l2-2.59.32-.42-.16-.5-1-3.12L18.37,17l.5.18.42-.31L22,15M23,13l-4.29,3.1-5-1.78,1.63,5L12.1,23.55l5.3,0,3,4.37,1.66-5,5.08-1.5-4.28-3.12L23,13Z" style="fill:url(#未命名的渐变_63)"/>
    </svg>