<svg xmlns="http://www.w3.org/2000/svg" data-name="图层 1" id="图层_1" viewBox="0 0 40 40" xmlns:xlink="http://www.w3.org/1999/xlink">
      <defs>
        <linearGradient x1="7.87" y2="20.32" y1="20.32" gradientUnits="userSpaceOnUse" x2="33.87" id="未命名的渐变_126">
          <stop offset="0.12" stop-color="#0384c5"/>
          <stop offset="0.9" stop-color="#0063b1"/>
        </linearGradient>
      </defs>
      <circle r="13" cx="20.87" cy="20.32" style="fill:url(#未命名的渐变_126)"/>
      <path style="fill:#fff" d="M19.59,27.76a1.39,1.39,0,0,1-1.06-.44,1.52,1.52,0,0,1-.39-1.08,23,23,0,0,1,1-4.62l-.5-.44-3.26,1.45,2.3-2.53a8.17,8.17,0,0,1,1.93-1.65,3.58,3.58,0,0,1,1.71-.54h.09a1.27,1.27,0,0,1,1,.36,1.15,1.15,0,0,1,.29.87,12.18,12.18,0,0,1-.65,2.56c-.51,1.68-.75,2.66-.88,3.21l1-.46,4.12-2L23,25.63a12.5,12.5,0,0,1-2.06,1.69A2.75,2.75,0,0,1,19.59,27.76ZM22,16.91a1.55,1.55,0,0,1-1.14-.48,1.66,1.66,0,0,1-.45-1.19A2.09,2.09,0,0,1,21,13.8a1.85,1.85,0,0,1,1.39-.62,1.56,1.56,0,0,1,1.15.47A1.62,1.62,0,0,1,24,14.81a2.13,2.13,0,0,1-.56,1.45A1.86,1.86,0,0,1,22,16.91Z"/>
    </svg>