<svg xmlns="http://www.w3.org/2000/svg" data-name="图层 1" id="图层_1" viewBox="0 0 40 40" xmlns:xlink="http://www.w3.org/1999/xlink">
      <defs>
        <linearGradient x1="14.54" y2="35.97" y1="18.49" gradientUnits="userSpaceOnUse" x2="32.02" id="未命名的渐变_6">
          <stop offset="0" stop-color="#d49a00"/>
          <stop offset="1" stop-color="#916306"/>
        </linearGradient>
      </defs>
      <path style="fill:url(#未命名的渐变_6)" d="M19,9.34,8.15,27.18a2.23,2.23,0,0,0,1.9,3.38H31.69a2.23,2.23,0,0,0,1.9-3.38L22.77,9.34A2.22,2.22,0,0,0,19,9.34Z"/>
      <path style="fill:#fff" d="M21.15,28.1a1.24,1.24,0,0,1-1.26-1.33,1.26,1.26,0,0,1,1.26-1.32,1.29,1.29,0,0,1,1.31,1.32A1.27,1.27,0,0,1,21.15,28.1Zm0-13c.56,0,1.18.12,1.2.7a6.71,6.71,0,0,1-.06.81c-.14,1.59-.56,5.31-.72,7.77h-.81c-.19-2.46-.56-6.08-.72-7.75,0-.27-.07-.64-.07-.85C20,15.26,20.55,15.12,21.13,15.12Z"/>
    </svg>