<svg xmlns="http://www.w3.org/2000/svg" data-name="图层 1" id="图层_1" viewBox="0 0 40 40" xmlns:xlink="http://www.w3.org/1999/xlink">
      <defs>
        <linearGradient x1="20.21" y2="13.95" y1="13.95" gradientUnits="userSpaceOnUse" x2="21.21" id="未命名的渐变_72">
          <stop offset="0.12" stop-color="#666"/>
          <stop offset="0.56" stop-color="#333"/>
        </linearGradient>
        <linearGradient x1="7.53" y2="27.91" y1="27.91" x2="33.89" id="未命名的渐变_72-2" xlink:href="#未命名的渐变_72"/>
        <linearGradient x1="13.67" y2="13.82" y1="13.82" gradientUnits="userSpaceOnUse" x2="26.28" id="未命名的渐变_102">
          <stop offset="0.01" stop-color="#379e4e"/>
          <stop offset="1" stop-color="#006837"/>
        </linearGradient>
        <linearGradient x1="-1139.69" y2="12160.76" y1="12152.04" x2="-1145.13" id="未命名的渐变_102-2" xlink:href="#未命名的渐变_102" gradientTransform="matrix(-0.53, -0.85, 0.85, -0.53, -10905.75, 5491.2)"/>
        <linearGradient x1="-10898.92" y2="5940.47" y1="5947.5" x2="-10904.01" id="未命名的渐变_102-3" xlink:href="#未命名的渐变_102" gradientTransform="translate(-1551.57 12342.67) rotate(125.91)"/>
        <linearGradient x1="17.37" y2="22.54" y1="22.54" x2="25" id="未命名的渐变_72-3" xlink:href="#未命名的渐变_72"/>
      </defs>
      <line x1="20.71" y2="7.28" y1="20.63" x2="20.71" style="fill:#fff;stroke-miterlimit:10;stroke:url(#未命名的渐变_72)"/>
      <polyline points="33.58 33.11 20.75 22.96 7.83 33.03" style="fill:none;stroke-miterlimit:10;stroke:url(#未命名的渐变_72-2)"/>
      <path style="fill:url(#未命名的渐变_102)" d="M20.78,17.5s4.38-1.8,5.3-4.18a2.32,2.32,0,0,0-3-3.06c-1.4.55-5.62,2.27-5.62,2.27l-.79-2.27-3,5.18L19,17.09,18.29,15l4.62-1.85s1.06-.47.8.63S20.78,17.5,20.78,17.5Z"/>
      <path style="fill:url(#未命名的渐变_102-2)" d="M17.14,26s-3.84-2.77-6.35-2.29a2.32,2.32,0,0,0-1,4.13c1.2.9,4.9,3.57,4.9,3.57l-1.51,1.87,6-.16-1.4-5.38-1.38,1.67-4-2.94s-.95-.65.12-1S17.14,26,17.14,26Z"/>
      <path style="fill:url(#未命名的渐变_102-3)" d="M23.9,25.22s-1.11,4.6.28,6.75a2.32,2.32,0,0,0,4.21-.61c.38-1.45,1.46-5.88,1.46-5.88l2.3.69-2.41-5.5L25.29,24l2.06.65-1.21,4.83s-.24,1.13-1,.27S23.9,25.22,23.9,25.22Z"/>
      <circle r="3.81" cx="21.18" cy="22.54" style="fill:#fff"/>
      <path style="fill:url(#未命名的渐变_72-3)" d="M21.18,19.72a2.82,2.82,0,1,1-2.81,2.82,2.82,2.82,0,0,1,2.81-2.82m0-1A3.82,3.82,0,1,0,25,22.54a3.82,3.82,0,0,0-3.82-3.82Z"/>
    </svg>