<svg xmlns:xlink="http://www.w3.org/1999/xlink" xmlns="http://www.w3.org/2000/svg" viewBox="0 0 40 40" data-name="图层 1" id="图层_1">
      <defs>
        <linearGradient x2="18.25" x1="9.25" y1="8.09" y2="17.1" id="未命名的渐变_102" gradientUnits="userSpaceOnUse">
          <stop offset="0.01" stop-color="#379e4e"/>
          <stop offset="1" stop-color="#006837"/>
        </linearGradient>
        <linearGradient x2="30.35" x1="18.26" y1="17.11" y2="29.2" id="未命名的渐变_102-2" xlink:href="#未命名的渐变_102"/>
      </defs>
      <circle cx="13.75" cy="12.6" r="6.37" style="fill:#d4ffec"/>
      <path d="M13.75,7.23A5.36,5.36,0,1,1,10,8.8a5.37,5.37,0,0,1,3.8-1.57m0-1a6.37,6.37,0,1,0,4.5,1.86,6.34,6.34,0,0,0-4.5-1.86Z" style="fill:url(#未命名的渐变_102)"/>
      <circle cx="24.31" cy="23.15" r="8.55" style="fill:#d4ffec"/>
      <path d="M24.31,15.6A7.56,7.56,0,1,1,19,17.82a7.47,7.47,0,0,1,5.34-2.22m0-1a8.56,8.56,0,1,0,6,2.51,8.53,8.53,0,0,0-6-2.51Z" style="fill:url(#未命名的渐变_102-2)"/>
    </svg>