<svg xmlns="http://www.w3.org/2000/svg" data-name="图层 1" id="图层_1" viewBox="0 0 40 40" xmlns:xlink="http://www.w3.org/1999/xlink">
      <defs>
        <linearGradient x1="-9665.1" y2="1691.83" y1="1691.83" gradientUnits="userSpaceOnUse" x2="-9653.43" id="未命名的渐变_89" gradientTransform="translate(1713.01 9672.47) rotate(90)">
          <stop offset="0.01" stop-color="#d4ffec"/>
          <stop offset="1" stop-color="#a1ddaa"/>
        </linearGradient>
        <linearGradient x1="21.18" y2="19.03" y1="7.37" gradientUnits="userSpaceOnUse" x2="21.18" id="未命名的渐变_102">
          <stop offset="0.01" stop-color="#379e4e"/>
          <stop offset="1" stop-color="#006837"/>
        </linearGradient>
        <linearGradient x1="8.62" y2="28.95" y1="28.95" x2="20.02" id="未命名的渐变_89-2" xlink:href="#未命名的渐变_89" gradientTransform="matrix(1, 0, 0, 1, 0, 0)"/>
        <linearGradient x1="8.62" y2="28.95" y1="28.95" x2="20.02" id="未命名的渐变_102-2" xlink:href="#未命名的渐变_102"/>
        <linearGradient x1="-7978.29" y2="28.95" y1="28.95" x2="-7966.9" id="未命名的渐变_89-3" xlink:href="#未命名的渐变_89" gradientTransform="matrix(-1, 0, 0, 1, -7944.46, 0)"/>
        <linearGradient x1="33.83" y2="28.95" y1="28.95" x2="22.44" id="未命名的渐变_102-3" xlink:href="#未命名的渐变_102"/>
        <linearGradient x1="17.46" y2="22.29" y1="22.29" gradientUnits="userSpaceOnUse" x2="24.2" id="未命名的渐变_72">
          <stop offset="0.12" stop-color="#666"/>
          <stop offset="0.56" stop-color="#333"/>
        </linearGradient>
        <linearGradient x1="16.09" y2="11.93" y1="11.93" gradientUnits="userSpaceOnUse" x2="28.36" id="未命名的渐变_126">
          <stop offset="0.12" stop-color="#0384c5"/>
          <stop offset="0.9" stop-color="#0063b1"/>
        </linearGradient>
        <linearGradient x1="7.83" y2="27.93" y1="27.93" x2="17.83" id="未命名的渐变_126-2" xlink:href="#未命名的渐变_126"/>
        <linearGradient x1="26.27" y2="27.86" y1="27.86" x2="33.3" id="未命名的渐变_126-3" xlink:href="#未命名的渐变_126"/>
      </defs>
      <polygon points="21.18 19.03 25.25 13.15 23.24 13.15 23.24 7.37 19.39 7.37 19.39 13.15 17.11 13.15 21.18 19.03" style="fill:url(#未命名的渐变_89)"/>
      <path style="fill:url(#未命名的渐变_102)" d="M22.24,8.37v5.78h1.1l-2.16,3.12L19,14.15h1.37V8.37h1.85m1-1H19.39v5.78H17.11L21.18,19l4.07-5.88h-2V7.37Z"/>
      <polygon points="20.02 25.66 10.9 25.66 13.21 27.7 8.62 30.09 10.65 32.23 15.47 29.69 17.73 31.68 20.02 25.66" style="fill:url(#未命名的渐变_89-2)"/>
      <path style="fill:url(#未命名的渐变_102-2)" d="M18.57,26.67,17.31,30l-1.18-1-.52-.46L15,28.8,10.85,31l-.59-.62,3.41-1.78L15,27.91l-1.09-1-.32-.28h5m1.45-1H10.9l2.31,2L8.62,30.09l2,2.14,4.82-2.54,2.26,2,2.29-6Z"/>
      <polygon points="22.44 25.66 31.56 25.66 29.24 27.7 33.83 30.09 31.8 32.23 26.99 29.69 24.72 31.68 22.44 25.66" style="fill:url(#未命名的渐变_89-3)"/>
      <path style="fill:url(#未命名的渐变_102-3)" d="M28.91,26.67l-.33.28-1.09,1,1.29.68,3.41,1.78L31.6,31,27.45,28.8l-.61-.32-.51.46-1.19,1-1.25-3.31h5m2.65-1H22.44l2.28,6,2.27-2,4.81,2.54,2-2.14L29.24,27.7l2.32-2Z"/>
      <circle r="3.37" cx="20.83" cy="22.29" style="fill:#fff"/>
      <path style="fill:url(#未命名的渐变_72)" d="M20.83,19.92a2.38,2.38,0,1,1-2.37,2.37,2.38,2.38,0,0,1,2.37-2.37m0-1a3.38,3.38,0,1,0,3.37,3.37,3.37,3.37,0,0,0-3.37-3.37Z"/>
      <path style="fill:url(#未命名的渐变_126)" d="M23,15.52s4.26-1.75,5.16-4.07a2.26,2.26,0,0,0-2.88-3c-1.36.53-5.47,2.2-5.47,2.2L19,8.48l-2.95,5,5.16,1.61-.67-2,4.5-1.8s1-.45.77.61S23,15.52,23,15.52Z"/>
      <path style="fill:url(#未命名的渐变_126-2)" d="M15.88,25.53S12.14,22.84,9.7,23.3a2.26,2.26,0,0,0-1,4c1.17.87,4.76,3.47,4.76,3.47L12,32.61l5.83-.15-1.36-5.24-1.34,1.62L11.22,26s-.92-.63.11-1S15.88,25.53,15.88,25.53Z"/>
      <path style="fill:url(#未命名的渐变_126-3)" d="M26.61,26.51s-.9,3.74.22,5.48a1.88,1.88,0,0,0,3.42-.5c.31-1.17,1.19-4.77,1.19-4.77l1.86.56-1.95-4.46-3.61,2.7,1.67.53-1,3.92s-.2.91-.79.22S26.61,26.51,26.61,26.51Z"/>
    </svg>