<svg xmlns="http://www.w3.org/2000/svg" data-name="图层 1" id="图层_1" viewBox="0 0 40 40" xmlns:xlink="http://www.w3.org/1999/xlink">
      <defs>
        <linearGradient x1="9.98" y2="19.63" y1="26.72" gradientUnits="userSpaceOnUse" x2="18.27" id="未命名的渐变_72">
          <stop offset="0.12" stop-color="#666"/>
          <stop offset="0.56" stop-color="#333"/>
        </linearGradient>
        <linearGradient x1="31.77" y2="19.63" y1="26.72" gradientUnits="userSpaceOnUse" x2="23.48" id="未命名的渐变_126">
          <stop offset="0.12" stop-color="#0384c5"/>
          <stop offset="0.9" stop-color="#0063b1"/>
        </linearGradient>
        <linearGradient x1="14.36" y2="17.97" y1="17.97" x2="27.26" id="未命名的渐变_126-2" xlink:href="#未命名的渐变_126"/>
        <linearGradient x1="16.66" y2="17.97" y1="17.97" x2="24.96" id="未命名的渐变_126-4" xlink:href="#未命名的渐变_126"/>
      </defs>
      <rect y="20.06" height="6.23" transform="translate(-11.67 14.73) rotate(-40.52)" x="8.67" style="fill:#fff" width="10.9"/>
      <path style="fill:url(#未命名的渐变_72)" d="M16.13,18.68l2.75,3.21-6.77,5.79L9.36,24.46l6.77-5.78m.11-1.41L8,24.35,12,29.09,20.29,22l-4.05-4.73Z"/>
      <rect y="17.73" height="10.9" transform="translate(-7.94 29.12) rotate(-49.48)" x="24.63" style="fill:#d4edff" width="5.99"/>
      <path style="fill:url(#未命名的渐变_126)" d="M25.54,18.77l6.76,5.78-2.59,3L22.94,21.8l2.6-3m-.12-1.41-3.89,4.55L29.82,29l3.89-4.56-8.29-7.08Z"/>
      <circle r="6.45" cx="20.81" cy="17.97" style="fill:#d4edff"/>
      <path style="fill:url(#未命名的渐变_126-2)" d="M20.81,12.52A5.45,5.45,0,1,1,15.36,18a5.45,5.45,0,0,1,5.45-5.45m0-1A6.45,6.45,0,1,0,27.26,18a6.45,6.45,0,0,0-6.45-6.45Z"/>
      <circle r="6.45" cx="20.81" cy="17.97" style="fill:#d4edff"/>
      <path style="fill:url(#未命名的渐变_126-2)" d="M20.81,12.52A5.45,5.45,0,1,1,15.36,18a5.45,5.45,0,0,1,5.45-5.45m0-1A6.45,6.45,0,1,0,27.26,18a6.45,6.45,0,0,0-6.45-6.45Z"/>
      <circle r="4.15" cx="20.81" cy="17.97" style="fill:#d4edff"/>
      <path style="fill:url(#未命名的渐变_126-4)" d="M20.81,14.82A3.15,3.15,0,1,1,17.66,18a3.15,3.15,0,0,1,3.15-3.15m0-1A4.15,4.15,0,1,0,25,18a4.15,4.15,0,0,0-4.15-4.15Z"/>
    </svg>