<svg xmlns="http://www.w3.org/2000/svg" data-name="图层 1" id="图层_1" viewBox="0 0 40 40" xmlns:xlink="http://www.w3.org/1999/xlink">
      <defs>
        <linearGradient x1="24.22" y2="34.01" y1="7.17" gradientUnits="userSpaceOnUse" x2="17.03" id="未命名的渐变_126">
          <stop offset="0.12" stop-color="#0384c5"/>
          <stop offset="0.9" stop-color="#0063b1"/>
        </linearGradient>
        <linearGradient x1="30.82" y2="14.14" y1="7.95" x2="29.16" id="未命名的渐变_126-2" xlink:href="#未命名的渐变_126"/>
        <linearGradient x1="23.71" y2="30.46" y1="10.29" gradientUnits="userSpaceOnUse" x2="18.3" id="未命名的渐变_72">
          <stop offset="0.12" stop-color="#666"/>
          <stop offset="0.56" stop-color="#333"/>
        </linearGradient>
        <linearGradient x1="26.98" y2="21.84" y1="9.56" x2="23.69" id="未命名的渐变_72-2" xlink:href="#未命名的渐变_72"/>
      </defs>
      <path style="fill:#d4edff" d="M26.47,7.77,8.34,25.9c-.94.94-.18,3.22,1.7,5.1s4.16,2.64,5.1,1.7L33.27,14.57Z"/>
      <path style="fill:url(#未命名的渐变_126)" d="M26.47,9.19l5.39,5.38L14.43,32a.6.6,0,0,1-.41.11,5.45,5.45,0,0,1-3.27-1.81,6.88,6.88,0,0,1-1.67-2.51c-.2-.62-.16-1,0-1.17L26.47,9.19m0-1.42L8.34,25.9c-.94.94-.18,3.22,1.7,5.1a6.38,6.38,0,0,0,4,2.1,1.54,1.54,0,0,0,1.12-.4L33.27,14.57l-6.8-6.8Z"/>
      <ellipse cx="29.99" cy="11.04" transform="translate(0.98 24.44) rotate(-45)" style="fill:#d4edff" ry="4.85" rx="2.42"/>
      <path style="fill:url(#未命名的渐变_126-2)" d="M27.69,8.21h0A5.5,5.5,0,0,1,31,10c1.68,1.69,2.06,3.38,1.71,3.73a.64.64,0,0,1-.42.11A5.5,5.5,0,0,1,29,12.05,7.14,7.14,0,0,1,27.3,9.51c-.21-.63-.16-1,0-1.19a.64.64,0,0,1,.42-.11m0-1a1.58,1.58,0,0,0-1.13.4c-.94,1-.18,3.25,1.72,5.14a6.38,6.38,0,0,0,4,2.12,1.58,1.58,0,0,0,1.13-.4c.94-1,.18-3.25-1.72-5.14a6.43,6.43,0,0,0-4-2.12Z"/>
      <path style="fill:#fff" d="M18.54,8.9l-7.93,7.94C8.73,18.71,10.25,23.28,14,27s8.32,5.28,10.2,3.4l7.93-7.93Z"/>
      <path style="fill:url(#未命名的渐变_72)" d="M18.54,10.32,30.72,22.5,23.5,29.73a2.12,2.12,0,0,1-1.53.51c-2,0-4.88-1.54-7.26-3.91a14.71,14.71,0,0,1-3.57-5.42c-.5-1.52-.44-2.75.18-3.37l7.22-7.22m0-1.42-7.93,7.94C8.73,18.71,10.25,23.28,14,27c2.66,2.67,5.73,4.21,8,4.21a3.05,3.05,0,0,0,2.24-.81l7.93-7.93L18.54,8.9Z"/>
      <path style="fill:#fff" d="M31.68,16.16,30.44,17.4c-.94.94-3.22.18-5.1-1.7s-2.64-4.16-1.7-5.1l1.24-1.24c-2.62-1.44-5.08-1.71-6.34-.46-1.88,1.88-.36,6.45,3.4,10.2s8.32,5.28,10.2,3.4C33.39,21.24,33.12,18.78,31.68,16.16Z"/>
      <path style="fill:url(#未命名的渐变_72-2)" d="M20.77,9.1a6.66,6.66,0,0,1,2.41.55l-.25.25a3,3,0,0,0-.45,3.22,9,9,0,0,0,2.15,3.29,7.23,7.23,0,0,0,4.69,2.39,2.51,2.51,0,0,0,1.82-.69l.25-.25c.71,1.75.75,3.23,0,3.93a2.08,2.08,0,0,1-1.53.51c-2,0-4.88-1.53-7.25-3.91A14.43,14.43,0,0,1,19.08,13c-.51-1.52-.45-2.75.17-3.37a2.05,2.05,0,0,1,1.52-.51h0m0-1a3.05,3.05,0,0,0-2.23.8c-1.88,1.88-.36,6.45,3.4,10.2,2.66,2.67,5.73,4.2,8,4.2a3,3,0,0,0,2.24-.8c1.25-1.26,1-3.72-.46-6.34L30.44,17.4a1.55,1.55,0,0,1-1.12.4,6.38,6.38,0,0,1-4-2.1c-1.88-1.87-2.64-4.16-1.7-5.1l1.24-1.24A8.91,8.91,0,0,0,20.77,8.1Z"/>
    </svg>