<svg xmlns="http://www.w3.org/2000/svg" data-name="图层 1" id="图层_1" viewBox="0 0 40 40" xmlns:xlink="http://www.w3.org/1999/xlink">
      <defs>
        <linearGradient x1="10.2" y2="26.59" y1="8.15" gradientUnits="userSpaceOnUse" x2="20.85" id="未命名的渐变_72">
          <stop offset="0.12" stop-color="#666"/>
          <stop offset="0.56" stop-color="#333"/>
        </linearGradient>
        <linearGradient x1="32.19" y2="35.96" y1="22.81" x2="9.43" id="未命名的渐变_72-2" xlink:href="#未命名的渐变_72"/>
        <linearGradient x1="20.6" y2="17.58" y1="8.51" gradientUnits="userSpaceOnUse" x2="25.83" id="未命名的渐变_126">
          <stop offset="0.12" stop-color="#0384c5"/>
          <stop offset="0.9" stop-color="#0063b1"/>
        </linearGradient>
        <linearGradient x1="25.4" y2="26.26" y1="17.19" x2="30.64" id="未命名的渐变_126-2" xlink:href="#未命名的渐变_126"/>
      </defs>
      <rect y="7.28" height="20.19" x="11.68" style="fill:#fff" rx="0.04" width="7.69"/>
      <path style="fill:url(#未命名的渐变_72)" d="M18.37,8.28V26.46H12.68V8.28h5.69m.95-1h-7.6a0,0,0,0,0,0,0v20.1a0,0,0,0,0,0,0h7.6a0,0,0,0,0,.05,0V7.32a0,0,0,0,0-.05,0Z"/>
      <rect y="25.54" height="7.69" x="7.83" style="fill:#fff" rx="0.04" width="25.96"/>
      <path style="fill:url(#未命名的渐变_72-2)" d="M32.79,26.54v5.69h-24V26.54h24m1-1H7.88a0,0,0,0,0,0,0v7.61a0,0,0,0,0,0,0H33.74a0,0,0,0,0,0,0V25.58a0,0,0,0,0,0,0Z"/>
      <rect y="9.2" height="7.69" x="19.37" style="fill:#d4edff" rx="0.04" width="7.69"/>
      <path style="fill:url(#未命名的渐变_126)" d="M26.06,10.2v5.69H20.37V10.2h5.69m1-1H19.41a0,0,0,0,0,0,0v7.6a0,0,0,0,0,0,.05H27a0,0,0,0,0,0-.05V9.24a0,0,0,0,0,0,0Z"/>
      <rect y="17.88" height="7.69" x="24.17" style="fill:#d4edff" rx="0.04" width="7.69"/>
      <path style="fill:url(#未命名的渐变_126-2)" d="M30.87,18.88v5.69H25.18V18.88h5.69m.95-1h-7.6s0,0,0,.05v7.6a0,0,0,0,0,0,0h7.6a0,0,0,0,0,.05,0v-7.6a0,0,0,0,0-.05-.05Z"/>
    </svg>