<svg xmlns="http://www.w3.org/2000/svg" data-name="图层 1" id="图层_1" viewBox="0 0 40 40" xmlns:xlink="http://www.w3.org/1999/xlink">
      <defs>
        <linearGradient x1="17.23" y2="15.58" y1="32.83" gradientUnits="userSpaceOnUse" x2="34.48" id="未命名的渐变_126">
          <stop offset="0.12" stop-color="#0384c5"/>
          <stop offset="0.9" stop-color="#0063b1"/>
        </linearGradient>
        <linearGradient x1="10.58" y2="9.19" y1="22.13" gradientUnits="userSpaceOnUse" x2="23.52" id="未命名的渐变_72">
          <stop offset="0.12" stop-color="#666"/>
          <stop offset="0.56" stop-color="#333"/>
        </linearGradient>
      </defs>
      <path style="fill:#d4edff" d="M27.58,8.67,10.32,25.93A12.21,12.21,0,0,0,25.14,27.8l5.46,5.46L33.84,30l-5.26-5.26A12.21,12.21,0,0,0,27.58,8.67Z"/>
      <path style="fill:url(#未命名的渐变_126)" d="M27.54,10.12a11.21,11.21,0,0,1,.25,14l-.54.7.62.62L32.42,30,30.6,31.85l-4.76-4.76-.54-.54-.67.39a11.27,11.27,0,0,1-5.7,1.55,11.07,11.07,0,0,1-7.16-2.59L27.54,10.12m0-1.45L10.32,25.93A12.22,12.22,0,0,0,25.14,27.8l5.46,5.46L33.84,30l-5.26-5.26a12.21,12.21,0,0,0-1-16.1Z"/>
      <path style="fill:#fff" d="M25.21,11a9.15,9.15,0,0,0-10.59-.23L11.1,7.29,7.86,10.53l3.76,3.75a9.12,9.12,0,0,0,.81,9.54l-.08.08,3.23,3.24,2-2-2.29-2.29,1.34-1.34,4.45,4.45,2.15-2.16-4.44-4.44L21,17.17l4.44,4.44,2.16-2.15L23.13,15l1.08-1.08,2.29,2.29,2-2L25.29,11Z"/>
      <path style="fill:url(#未命名的渐变_72)" d="M11.1,8l3.17,3.17.29.29.34-.23a8.66,8.66,0,0,1,10,.21l.35.26,0,0,2.53,2.53L26.5,15.51l-1.94-1.93-.35-.35-.35.35-1.08,1.08-.35.35.35.36,4.09,4.09-1.45,1.45-4.09-4.09L21,16.46l-.36.36L18.47,19l-.36.36.36.35,4.09,4.09-1.45,1.45L17,21.13l-.36-.35-.35.35L15,22.47l-.35.35.35.36,1.93,1.93-1.32,1.32L13.06,23.9l0,0-.26-.34a8.61,8.61,0,0,1-.77-9l.17-.32L12,13.93l-3.4-3.4L11.1,8m0-.71L7.86,10.53l3.76,3.75a9.12,9.12,0,0,0,.81,9.54l-.08.08,3.23,3.24,2-2-2.29-2.29,1.34-1.34,4.45,4.45,2.15-2.16-4.44-4.44L21,17.17l4.44,4.44,2.16-2.15L23.13,15l1.08-1.08,2.29,2.29,2-2L25.29,11l-.08.08a9.17,9.17,0,0,0-10.59-.23L11.1,7.29Z"/>
    </svg>