<svg xmlns="http://www.w3.org/2000/svg" data-name="图层 1" id="图层_1" viewBox="0 0 40 40" xmlns:xlink="http://www.w3.org/1999/xlink">
      <defs>
        <linearGradient x1="9.2" y2="31.68" y1="8.89" gradientUnits="userSpaceOnUse" x2="22.36" id="未命名的渐变_72">
          <stop offset="0.12" stop-color="#666"/>
          <stop offset="0.56" stop-color="#333"/>
        </linearGradient>
        <linearGradient x1="26.23" y2="17.4" y1="7.63" gradientUnits="userSpaceOnUse" x2="23.61" id="未命名的渐变_126">
          <stop offset="0.12" stop-color="#0384c5"/>
          <stop offset="0.9" stop-color="#0063b1"/>
        </linearGradient>
        <linearGradient x1="20.86" y2="33.97" y1="24.89" x2="26.1" id="未命名的渐变_126-2" xlink:href="#未命名的渐变_126"/>
      </defs>
      <rect y="7.29" height="25.99" x="11.93" style="fill:#fff" rx="0.04" width="7.7"/>
      <path style="fill:url(#未命名的渐变_72)" d="M18.63,8.29v24h-5.7v-24h5.7m.95-1H12a0,0,0,0,0,0,0v25.9a0,0,0,0,0,0,0h7.61a0,0,0,0,0,.05,0V7.34a0,0,0,0,0-.05,0Z"/>
      <rect y="8.8" height="7.42" transform="translate(-1.55 21.28) rotate(-45)" x="21.21" style="fill:#d4edff" rx="0.04" width="7.42"/>
      <path style="fill:url(#未命名的渐变_126)" d="M24.92,8.68l3.83,3.83-3.83,3.84-3.84-3.84,3.84-3.83m0-1.4,0,0L19.7,12.48a0,0,0,0,0,0,.07l5.19,5.18,0,0,0,0,5.18-5.18a0,0,0,0,0,0-.07L25,7.3l0,0Z"/>
      <rect y="25.58" height="7.7" x="19.63" style="fill:#d4edff" rx="0.04" width="7.7"/>
      <path style="fill:url(#未命名的渐变_126-2)" d="M26.33,26.58v5.7h-5.7v-5.7h5.7m1-1H19.67a0,0,0,0,0,0,0v7.62a0,0,0,0,0,0,0h7.61a0,0,0,0,0,0,0V25.62a0,0,0,0,0,0,0Z"/>
    </svg>