<svg xmlns="http://www.w3.org/2000/svg" data-name="图层 1" id="图层_1" viewBox="0 0 40 40" xmlns:xlink="http://www.w3.org/1999/xlink">
      <defs>
        <linearGradient x1="7.83" y2="20.2" y1="20.2" gradientUnits="userSpaceOnUse" x2="20.76" id="未命名的渐变_72">
          <stop offset="0.12" stop-color="#666"/>
          <stop offset="0.56" stop-color="#333"/>
        </linearGradient>
        <linearGradient x1="15.17" y2="20.2" y1="20.2" x2="27.46" id="未命名的渐变_72-2" xlink:href="#未命名的渐变_72"/>
        <linearGradient x1="19.06" y2="20.23" y1="20.23" gradientUnits="userSpaceOnUse" x2="33.83" id="未命名的渐变_126">
          <stop offset="0.12" stop-color="#0384c5"/>
          <stop offset="0.9" stop-color="#0063b1"/>
        </linearGradient>
      </defs>
      <path style="fill:#fff" d="M20.76,33.13a12.93,12.93,0,1,1,0-25.85Z"/>
      <path style="fill:url(#未命名的渐变_72)" d="M19.76,8.32V32.09a11.93,11.93,0,0,1,0-23.77m1-1a12.93,12.93,0,1,0,0,25.85V7.28Z"/>
      <ellipse cx="21.32" cy="20.2" style="fill:#fff" ry="12.93" rx="6.15"/>
      <path style="fill:url(#未命名的渐变_72-2)" d="M21.32,8.28c3,0,5.14,6.28,5.14,11.92s-2.11,11.93-5.14,11.93-5.15-6.28-5.15-11.93S18.29,8.28,21.32,8.28m0-1c-3.4,0-6.15,5.78-6.15,12.92s2.75,12.93,6.15,12.93,6.14-5.79,6.14-12.93S24.71,7.28,21.32,7.28Z"/>
      <path style="fill:#d4edff" d="M24.6,11c-3.06,0-5.54,4.13-5.54,9.23s2.48,9.24,5.54,9.24A9.24,9.24,0,0,0,24.6,11Z"/>
      <path style="fill:url(#未命名的渐变_126)" d="M24.6,12a8.24,8.24,0,0,1,0,16.47c-2.46,0-4.54-3.77-4.54-8.24S22.14,12,24.6,12m0-1c-3.06,0-5.54,4.13-5.54,9.23s2.48,9.24,5.54,9.24A9.24,9.24,0,0,0,24.6,11Z"/>
    </svg>