<svg id="图层_1" xmlns:xlink="http://www.w3.org/1999/xlink" xmlns="http://www.w3.org/2000/svg" viewBox="0 0 40 40" data-name="图层 1">
      <defs>
        <linearGradient id="未命名的渐变_126" y1="11.32" gradientUnits="userSpaceOnUse" x2="26.28" y2="19.28" x1="21.69">
          <stop offset="0.12" stop-color="#0384c5"/>
          <stop offset="0.9" stop-color="#0063b1"/>
        </linearGradient>
        <linearGradient id="未命名的渐变_126-2" y1="7.62" x2="28.52" xlink:href="#未命名的渐变_126" y2="12.98" x1="25.42"/>
        <linearGradient id="未命名的渐变_126-3" y1="10.1" x2="32.83" xlink:href="#未命名的渐变_126" y2="16.5" x1="29.14"/>
        <linearGradient id="未命名的渐变_72" y1="13.46" gradientUnits="userSpaceOnUse" x2="23.67" y2="33.14" x1="12.3">
          <stop offset="0.12" stop-color="#666"/>
          <stop offset="0.56" stop-color="#333"/>
        </linearGradient>
        <linearGradient id="未命名的渐变_72-2" y1="7.9" x2="24.52" xlink:href="#未命名的渐变_72" y2="16.7" x1="19.44"/>
        <linearGradient id="未命名的渐变_72-3" y1="13.32" x2="33.99" xlink:href="#未命名的渐变_72" y2="27.2" x1="25.98"/>
        <linearGradient id="未命名的渐变_126-4" y1="26.46" x2="13.66" xlink:href="#未命名的渐变_126" y2="33.99" x1="9.31"/>
        <linearGradient id="未命名的渐变_126-5" y1="21.75" x2="15.95" xlink:href="#未命名的渐变_126" y2="26.7" x1="13.09"/>
        <linearGradient id="未命名的渐变_126-6" y1="24.07" x2="19.83" xlink:href="#未命名的渐变_126" y2="30.48" x1="16.14"/>
      </defs>
      <rect style="fill:#d4edff" y="12.3" height="6" x="19.99" width="8"/>
      <path style="fill:url(#未命名的渐变_126)" d="M27,13.3v4H21v-4h6m1-1H20v6h8v-6Z"/>
      <polygon style="fill:#d4edff" points="27.97 13.3 19.97 13.3 25.97 7.3 33.97 7.3 27.97 13.3"/>
      <path style="fill:url(#未命名的渐变_126-2)" d="M31.56,8.3l-4,4H22.39l4-4h5.17M34,7.3H26l-6,6h8l6-6Z"/>
      <polygon style="fill:#d4edff" points="33.98 13.3 27.98 19.3 27.98 13.3 33.98 7.3 33.98 13.3"/>
      <path style="fill:url(#未命名的渐变_126-3)" d="M33,9.71v3.18l-4,4V13.71l4-4M34,7.3l-6,6v6l6-6v-6Z"/>
      <rect style="fill:#fff;stroke-linejoin:bevel;stroke:url(#未命名的渐变_72)" y="15.3" height="16" x="9.99" width="16"/>
      <polygon style="fill:#fff;stroke-linejoin:bevel;stroke:url(#未命名的渐变_72-2)" points="25.96 15.3 10 15.3 18 9.3 33.96 9.3 25.96 15.3"/>
      <polygon style="fill:#fff;stroke-linejoin:bevel;stroke:url(#未命名的渐变_72-3)" points="33.98 25.25 25.98 31.25 25.98 15.27 33.98 9.27 33.98 25.25"/>
      <rect style="fill:#d4edff" y="27.22" height="6" x="7.99" width="7"/>
      <path style="fill:url(#未命名的渐变_126-4)" d="M14,28.22v4H9v-4h5m1-1H8v6h7v-6Z"/>
      <polygon style="fill:#d4edff" points="15.04 27.23 8 27.23 14 21.23 21.04 21.23 15.04 27.23"/>
      <path style="fill:url(#未命名的渐变_126-5)" d="M18.63,22.22l-4,4H10.41l4-4h4.22m2.41-1H14l-6,6h7l6-6Z"/>
      <polygon style="fill:#d4edff" points="20.98 27.28 14.98 33.28 14.98 27.28 20.98 21.28 20.98 27.28"/>
      <path style="fill:url(#未命名的渐变_126-6)" d="M20,23.69v3.17l-4,4V27.69l4-4m1-2.41-6,6v6l6-6v-6Z"/>
    </svg>