<svg id="图层_1" xmlns:xlink="http://www.w3.org/1999/xlink" viewBox="0 0 40 40" xmlns="http://www.w3.org/2000/svg" data-name="图层 1">
      <defs>
        <linearGradient id="未命名的渐变_22" y1="23.6" x2="18.13" gradientUnits="userSpaceOnUse" y2="23.6" x1="7.79">
          <stop stop-color="#666" offset="0.12"/>
          <stop stop-color="#333" offset="0.9"/>
        </linearGradient>
        <linearGradient id="未命名的渐变_22-2" y1="23.6" x2="33.92" y2="23.6" xlink:href="#未命名的渐变_22" x1="23.58"/>
        <linearGradient id="未命名的渐变_126" y1="16.72" x2="18.13" gradientUnits="userSpaceOnUse" y2="16.72" x1="17.13">
          <stop stop-color="#0384c5" offset="0.12"/>
          <stop stop-color="#0063b1" offset="0.9"/>
        </linearGradient>
        <linearGradient id="未命名的渐变_126-2" y1="16.72" x2="24.58" y2="16.72" xlink:href="#未命名的渐变_126" x1="23.58"/>
        <linearGradient id="未命名的渐变_126-3" y1="12.57" x2="15.29" y2="12.57" xlink:href="#未命名的渐变_126" x1="9.17"/>
        <linearGradient id="未命名的渐变_126-4" y1="11.3" x2="15.59" y2="13.84" xlink:href="#未命名的渐变_126" x1="15.59"/>
        <linearGradient id="未命名的渐变_126-5" y1="12.57" x2="39.99" y2="12.57" xlink:href="#未命名的渐变_126" gradientTransform="matrix(-1, 0, 0, 1, 66.51, 0)" x1="33.87"/>
        <linearGradient id="未命名的渐变_126-6" y1="11.3" x2="40.29" y2="13.84" xlink:href="#未命名的渐变_126" gradientTransform="matrix(-1, 0, 0, 1, 66.51, 0)" x1="40.29"/>
      </defs>
      <circle r="5.17" cx="12.96" style="fill:#fff" cy="23.6"/>
      <path d="M13,19.43a4.17,4.17,0,0,1,1.36,8.11,4,4,0,0,1-1.36.23,4.17,4.17,0,0,1-1.35-8.11A3.91,3.91,0,0,1,13,19.43m0-1a5.17,5.17,0,1,0,4.89,3.49A5.19,5.19,0,0,0,13,18.43Z" style="fill:url(#未命名的渐变_22)"/>
      <circle r="5.17" cx="28.75" style="fill:#fff" cy="23.6"/>
      <path d="M28.75,19.43a4.17,4.17,0,0,1,1.36,8.11,4,4,0,0,1-1.36.23,4.17,4.17,0,0,1-1.36-8.12,4.21,4.21,0,0,1,1.36-.22m0-1a5.17,5.17,0,1,0,4.89,3.49,5.19,5.19,0,0,0-4.89-3.49Z" style="fill:url(#未命名的渐变_22-2)"/>
      <line y1="23.6" x2="17.63" y2="9.84" style="fill:#d4edff;stroke-miterlimit:10;stroke:url(#未命名的渐变_126)" x1="17.63"/>
      <line y1="23.6" x2="24.08" y2="9.84" style="fill:#d4edff;stroke-miterlimit:10;stroke:url(#未命名的渐变_126-2)" x1="24.08"/>
      <line y1="12.57" x2="15.29" y2="12.57" style="fill:#d4edff;stroke-miterlimit:10;stroke:url(#未命名的渐变_126-3)" x1="9.17"/>
      <polygon points="17.34 12.57 13.83 11.3 13.83 13.84 17.34 12.57" style="fill:url(#未命名的渐变_126-4)"/>
      <line y1="12.57" x2="26.52" y2="12.57" style="fill:#d4edff;stroke-miterlimit:10;stroke:url(#未命名的渐变_126-5)" x1="32.64"/>
      <polygon points="24.47 12.57 27.98 11.3 27.98 13.84 24.47 12.57" style="fill:url(#未命名的渐变_126-6)"/>
    </svg>