<svg data-name="图层 1" id="图层_1" viewBox="0 0 40 40" xmlns="http://www.w3.org/2000/svg" xmlns:xlink="http://www.w3.org/1999/xlink">
      <defs>
        <linearGradient id="未命名的渐变_72" gradientUnits="userSpaceOnUse" y1="21.97" y2="21.97" x2="34.15" x1="8.15">
          <stop stop-color="#666" offset="0.12"/>
          <stop stop-color="#333" offset="0.56"/>
        </linearGradient>
        <linearGradient id="未命名的渐变_72-2" xlink:href="#未命名的渐变_72" y1="9.49" y2="9.49" x2="25.5" x1="8.15"/>
        <linearGradient id="未命名的渐变_126" gradientUnits="userSpaceOnUse" y1="25.27" y2="25.27" x2="34.45" x1="17.15">
          <stop stop-color="#0384c5" offset="0.12"/>
          <stop stop-color="#0063b1" offset="0.9"/>
        </linearGradient>
      </defs>
      <rect y="10.97" width="26" height="22" x="8.15" style="fill:#fff" rx="1.32"/>
      <path d="M32.83,12a.32.32,0,0,1,.32.31V31.65a.32.32,0,0,1-.32.32H9.46a.31.31,0,0,1-.31-.32V12.28A.31.31,0,0,1,9.46,12H32.83m0-1H9.46a1.31,1.31,0,0,0-1.31,1.31V31.65A1.32,1.32,0,0,0,9.46,33H32.83a1.32,1.32,0,0,0,1.32-1.32V12.28A1.32,1.32,0,0,0,32.83,11Z" style="fill:url(#未命名的渐变_72)"/>
      <path d="M8.15,11.08V7.9A1,1,0,0,1,9.26,7H21.64a1.18,1.18,0,0,1,.89.38l2.76,3.18c.53.61,0,1.48-.9,1.48H9.26A1,1,0,0,1,8.15,11.08Z" style="fill:#fff"/>
      <path d="M21.64,8a.21.21,0,0,1,.14,0l2.6,3H9.26l-.11,0V8l.11,0H21.64m0-1H9.26a1,1,0,0,0-1.11.93v3.18A1,1,0,0,0,9.26,12H24.39c.91,0,1.43-.87.9-1.48L22.53,7.35A1.18,1.18,0,0,0,21.64,7Z" style="fill:url(#未命名的渐变_72-2)"/>
      <path d="M26,31.52h0c2.27.73,5,.49,8.07-.69a.56.56,0,0,0,.4-.63v-.05a.56.56,0,0,0-.64-.31,7.08,7.08,0,0,1-3-.25,6.91,6.91,0,0,1-4.53-4.41l3-1.07a.68.68,0,0,0,.45-.42.38.38,0,0,0-.23-.43l-8.14-4.58a.61.61,0,0,0-.53,0,.74.74,0,0,0-.4.34L17.2,27.7a.38.38,0,0,0,.11.5.65.65,0,0,0,.62,0l3.2-1.16a9,9,0,0,0,1.12,1.86A7.87,7.87,0,0,0,26,31.52Z" style="fill:#d4edff"/>
      <path d="M21.17,19.75l6.72,3.78-2,.71-1,.35.4,1a7.89,7.89,0,0,0,5.14,5l.53.15a11.78,11.78,0,0,1-2.29.25,8.07,8.07,0,0,1-2.34-.33l-.08,0A7,7,0,0,1,23,28.31a8.52,8.52,0,0,1-1-1.66l-.38-.85-.88.32-2.24.81,2.63-7.18M21,18.61a.67.67,0,0,0-.24,0,.74.74,0,0,0-.4.34L17.2,27.7a.38.38,0,0,0,.11.5.66.66,0,0,0,.33.09.59.59,0,0,0,.29-.07l3.2-1.16a9,9,0,0,0,1.12,1.86A7.87,7.87,0,0,0,26,31.52h0a8.86,8.86,0,0,0,2.76.42A15,15,0,0,0,34,30.83a.56.56,0,0,0,.4-.63v-.05a.53.53,0,0,0-.52-.32h-.12a7.26,7.26,0,0,1-.93.06,7,7,0,0,1-2.06-.31,6.91,6.91,0,0,1-4.53-4.41l3-1.07a.68.68,0,0,0,.45-.42.38.38,0,0,0-.23-.43l-8.14-4.58a.59.59,0,0,0-.29-.07Z" style="fill:url(#未命名的渐变_126)"/>
    </svg>