<svg data-name="图层 1" id="图层_1" viewBox="0 0 40 40" xmlns="http://www.w3.org/2000/svg" xmlns:xlink="http://www.w3.org/1999/xlink">
      <defs>
        <linearGradient id="未命名的渐变_162" gradientUnits="userSpaceOnUse" y1="6.25" y2="35" x2="21.01" x1="21.01">
          <stop stop-color="#ff3f65" offset="0.01"/>
          <stop stop-color="#aa001c" offset="1"/>
        </linearGradient>
        <linearGradient id="未命名的渐变_162-2" xlink:href="#未命名的渐变_162" y1="20.63" y2="20.63" x2="6.63" x1="35.38"/>
      </defs>
      <path d="M33,8.42a65.92,65.92,0,0,0-6.5,5.63,83.47,83.47,0,0,0-5.83,6.23C18.82,22.45,17.39,24.9,15.5,27c-1,1-1.89,2.1-2.92,3.11a31.78,31.78,0,0,1-3.27,3h0a.21.21,0,0,1-.3,0,.18.18,0,0,1,0-.16,18.87,18.87,0,0,1,1.27-4.36,24.13,24.13,0,0,1,2.07-4,19,19,0,0,1,2.78-3.47q1.62-1.55,3.26-3c1.08-1,2.2-2,3.34-2.91s2.32-1.8,3.53-2.64a51.81,51.81,0,0,1,7.58-4.44.2.2,0,0,1,.26.1.21.21,0,0,1-.06.25Z" style="fill:url(#未命名的渐变_162)"/>
      <path d="M33.21,32.6a64.91,64.91,0,0,0-5.63-6.51c-2-2-4.06-4-6.23-5.82S16.73,17,14.66,15.11c-1-1-2.1-1.88-3.11-2.91a30.9,30.9,0,0,1-3-3.28h0a.21.21,0,0,1,0-.3.24.24,0,0,1,.16,0,19.75,19.75,0,0,1,4.36,1.27,23.73,23.73,0,0,1,4,2.07,19.47,19.47,0,0,1,3.47,2.79c1,1.08,2,2.16,3,3.26s2,2.2,2.91,3.33,1.8,2.33,2.64,3.53a52.34,52.34,0,0,1,4.44,7.58.21.21,0,0,1-.1.27.2.2,0,0,1-.24-.06Z" style="fill:url(#未命名的渐变_162-2)"/>
    </svg>