<svg id="图层_1" viewBox="0 0 40 40" data-name="图层 1" xmlns="http://www.w3.org/2000/svg" xmlns:xlink="http://www.w3.org/1999/xlink">
      <defs>
        <linearGradient x1="7.76" id="未命名的渐变_22" y2="20" y1="20" x2="33.87" gradientUnits="userSpaceOnUse">
          <stop stop-color="#666" offset="0.12"/>
          <stop stop-color="#333" offset="0.9"/>
        </linearGradient>
        <linearGradient x1="16.73" id="未命名的渐变_22-2" y2="20" y1="20" x2="24.9" xlink:href="#未命名的渐变_22"/>
        <linearGradient x1="10.05" id="未命名的渐变_22-3" y2="20" y1="20" x2="31.58" xlink:href="#未命名的渐变_22" gradientTransform="translate(40.82 -0.82) rotate(90)"/>
      </defs>
      <g style="opacity:0.30000000000000004">
        <path d="M20.82,12.17C13,12.17,7.76,20,7.76,20S13,27.83,20.82,27.83s13-7.83,13-7.83S28.65,12.17,20.82,12.17Z" style="fill:#fff"/>
        <path d="M20.82,13.17c6,0,10.48,5.11,11.81,6.83-1.33,1.72-5.8,6.83-11.81,6.83S10.33,21.72,9,20c1.33-1.72,5.8-6.83,11.82-6.83m0-1C13,12.17,7.76,20,7.76,20S13,27.83,20.82,27.83s13-7.83,13-7.83-5.22-7.83-13-7.83Z" style="fill:url(#未命名的渐变_22)"/>
      </g>
      <g style="opacity:0.30000000000000004">
        <circle cx="20.82" r="4.08" style="fill:#fff" cy="20"/>
        <path d="M20.82,16.92A3.08,3.08,0,1,1,17.73,20a3.09,3.09,0,0,1,3.09-3.08m0-1A4.08,4.08,0,1,0,24.9,20a4.09,4.09,0,0,0-4.08-4.08Z" style="fill:url(#未命名的渐变_22-2)"/>
      </g>
      <line x1="11.05" y2="29.77" y1="10.23" x2="30.58" style="fill:#fff;stroke-linecap:round;stroke-miterlimit:10;stroke-width:2px;stroke:url(#未命名的渐变_22-3)"/>
    </svg>