<svg id="图层_1" viewBox="0 0 40 40" data-name="图层 1" xmlns="http://www.w3.org/2000/svg" xmlns:xlink="http://www.w3.org/1999/xlink">
      <defs>
        <linearGradient x1="16.13" id="未命名的渐变_63" y2="19.76" y1="19.76" x2="24.7" gradientUnits="userSpaceOnUse">
          <stop stop-color="#d49a00" offset="0.12"/>
          <stop stop-color="#916306" offset="0.81"/>
        </linearGradient>
        <linearGradient x1="24.7" id="未命名的渐变_63-2" y2="19.76" y1="19.76" x2="33.27" xlink:href="#未命名的渐变_63"/>
        <linearGradient x1="16.13" id="未命名的渐变_63-3" y2="14.16" y1="14.16" x2="33.27" xlink:href="#未命名的渐变_63"/>
      </defs>
      <polygon points="7.8 26.21 7.8 18.93 15.88 22.12 15.88 29.39 7.8 26.21" style="fill:#ededed"/>
      <path d="M8.06,19.3l7.57,3V29L8.06,26V19.3m-.5-.73v7.81l8.57,3.38V22L7.56,18.57Z" style="fill:#bababa"/>
      <polygon points="16.38 22.12 24.45 18.93 24.45 26.21 16.38 29.39 16.38 22.12" style="fill:#ededed"/>
      <path d="M24.2,19.3V26l-7.57,3V22.29l7.57-3m.5-.73L16.13,22v7.81l8.57-3.38V18.57Z" style="fill:#bababa"/>
      <polygon points="8.24 18.57 16.13 15.45 24.02 18.57 16.13 21.68 8.24 18.57" style="fill:#ededed"/>
      <path d="M16.13,15.72l7.21,2.85-7.21,2.84L8.92,18.57l7.21-2.85m0-.54L7.56,18.57,16.13,22l8.57-3.38-8.57-3.39Z" style="fill:#bababa"/>
      <polygon points="16.38 29.64 16.38 22.36 24.45 25.54 24.45 32.82 16.38 29.64" style="fill:#ededed"/>
      <path d="M16.63,22.73l7.57,3v6.74l-7.57-3V22.73m-.5-.74V29.8l8.57,3.39V25.37L16.13,22Z" style="fill:#bababa"/>
      <polygon points="24.95 25.54 33.02 22.36 33.02 29.64 24.95 32.82 24.95 25.54" style="fill:#ededed"/>
      <path d="M32.77,22.73v6.73l-7.57,3V25.71l7.57-3m.5-.74L24.7,25.37v7.82l8.57-3.39V22Z" style="fill:#bababa"/>
      <polygon points="16.81 21.99 24.7 18.88 32.59 21.99 24.7 25.11 16.81 21.99" style="fill:#ededed"/>
      <path d="M24.7,19.15,31.91,22,24.7,24.84,17.49,22l7.21-2.84m0-.54L16.13,22l8.57,3.38L33.27,22,24.7,18.61Z" style="fill:#bababa"/>
      <polygon points="7.8 18.38 7.8 11.11 15.88 14.29 15.88 21.57 7.8 18.38" style="fill:#ededed"/>
      <path d="M8.06,11.47l7.57,3V21.2l-7.57-3V11.47m-.5-.73v7.81l8.57,3.38V14.12L7.56,10.74Z" style="fill:#bababa"/>
      <polygon points="16.38 14.29 24.45 11.11 24.45 18.38 16.38 21.57 16.38 14.29" style="fill:#ededed"/>
      <path d="M24.2,11.47v6.74l-7.57,3V14.46l7.57-3m.5-.73-8.57,3.38v7.81l8.57-3.38V10.74Z" style="fill:#bababa"/>
      <polygon points="8.24 10.74 16.13 7.62 24.02 10.74 16.13 13.85 8.24 10.74" style="fill:#ededed"/>
      <path d="M16.13,7.89l7.21,2.85-7.21,2.84L8.92,10.74l7.21-2.85m0-.53L7.56,10.74l8.57,3.38,8.57-3.38L16.13,7.36Z" style="fill:#bababa"/>
      <polygon points="16.13 14.16 24.7 17.55 24.7 25.36 16.13 21.98 16.13 14.16" style="fill:#ffd96e"/>
      <path d="M17.13,15.63l6.57,2.6v5.66L17.13,21.3V15.63m-1-1.47V22l8.57,3.38V17.55l-8.57-3.39Z" style="fill:url(#未命名的渐变_63)"/>
      <polygon points="33.27 14.16 24.7 17.55 24.7 25.36 33.27 21.98 33.27 14.16" style="fill:#ffd96e"/>
      <path d="M32.27,15.63V21.3L25.7,23.89V18.23l6.57-2.6m1-1.47L24.7,17.55v7.81L33.27,22V14.16Z" style="fill:url(#未命名的渐变_63-2)"/>
      <polygon points="24.7 10.78 16.13 14.16 24.7 17.55 33.27 14.16 24.7 10.78" style="fill:#ffd96e"/>
      <path d="M24.7,11.86l5.85,2.3L24.7,16.47l-5.85-2.31,5.85-2.3m0-1.08-8.57,3.38,8.57,3.39,8.57-3.39L24.7,10.78Z" style="fill:url(#未命名的渐变_63-3)"/>
    </svg>