<svg xmlns="http://www.w3.org/2000/svg" data-name="图层 1" id="图层_1" viewBox="0 0 40 40" xmlns:xlink="http://www.w3.org/1999/xlink">
      <defs>
        <linearGradient x1="9.23" y2="31.52" y1="8.7" gradientUnits="userSpaceOnUse" x2="32.06" id="未命名的渐变_72">
          <stop offset="0.12" stop-color="#666"/>
          <stop offset="0.56" stop-color="#333"/>
        </linearGradient>
        <linearGradient x1="12.82" y2="20.11" y1="20.11" x2="28.47" id="未命名的渐变_72-2" xlink:href="#未命名的渐变_72"/>
      </defs>
      <path style="fill:url(#未命名的渐变_72)" d="M30.64,9.11a1,1,0,0,1,1,1v20a1,1,0,0,1-1,1h-20a1,1,0,0,1-1-1v-20a1,1,0,0,1,1-1h20m0-1h-20a2,2,0,0,0-2,2v20a2,2,0,0,0,2,2h20a2,2,0,0,0,2-2v-20a2,2,0,0,0-2-2Z"/>
      <polyline points="13.82 20.3 18.25 24.72 27.46 15.5" style="fill:none;stroke-linecap:round;stroke-linejoin:round;stroke-width:2px;stroke:url(#未命名的渐变_72-2)"/>
    </svg>