<svg id="图层_1" viewBox="0 0 40 40" data-name="图层 1" xmlns="http://www.w3.org/2000/svg" xmlns:xlink="http://www.w3.org/1999/xlink">
      <defs>
        <linearGradient x1="8.56" id="未命名的渐变_63" y2="23.15" y1="23.15" x2="16.86" gradientUnits="userSpaceOnUse">
          <stop stop-color="#d49a00" offset="0.12"/>
          <stop stop-color="#916306" offset="0.81"/>
        </linearGradient>
        <linearGradient x1="16.86" id="未命名的渐变_63-2" y2="23.15" y1="23.15" x2="25.16" xlink:href="#未命名的渐变_63"/>
        <linearGradient x1="8.56" id="未命名的渐变_63-3" y2="17.55" y1="17.55" x2="25.16" xlink:href="#未命名的渐变_63"/>
        <linearGradient x1="16.86" id="未命名的渐变_63-4" y2="26.58" y1="26.58" x2="25.16" xlink:href="#未命名的渐变_63"/>
        <linearGradient x1="25.16" id="未命名的渐变_63-5" y2="26.58" y1="26.58" x2="33.46" xlink:href="#未命名的渐变_63"/>
        <linearGradient x1="16.86" id="未命名的渐变_63-6" y2="20.98" y1="20.98" x2="33.46" xlink:href="#未命名的渐变_63"/>
        <linearGradient x1="8.56" id="未命名的渐变_63-7" y2="15.33" y1="15.33" x2="16.86" xlink:href="#未命名的渐变_63"/>
        <linearGradient x1="16.86" id="未命名的渐变_63-8" y2="15.33" y1="15.33" x2="25.16" xlink:href="#未命名的渐变_63"/>
        <linearGradient x1="8.56" id="未命名的渐变_63-9" y2="9.73" y1="9.73" x2="25.16" xlink:href="#未命名的渐变_63"/>
        <linearGradient x1="16.86" id="未命名的渐变_63-10" y2="18.75" y1="18.75" x2="25.16" xlink:href="#未命名的渐变_63"/>
        <linearGradient x1="25.16" id="未命名的渐变_63-11" y2="18.75" y1="18.75" x2="33.46" xlink:href="#未命名的渐变_63"/>
        <linearGradient x1="16.86" id="未命名的渐变_63-12" y2="13.15" y1="13.15" x2="33.46" xlink:href="#未命名的渐变_63"/>
        <linearGradient x1="17.79" id="未命名的渐变_126" y2="27.34" y1="27.34" x2="33.76" gradientUnits="userSpaceOnUse">
          <stop stop-color="#0384c5" offset="0.12"/>
          <stop stop-color="#0063b1" offset="0.9"/>
        </linearGradient>
        <linearGradient x1="23.28" id="未命名的渐变_126-2" y2="27.34" y1="27.34" x2="28.27" xlink:href="#未命名的渐变_126"/>
      </defs>
      <polygon points="8.56 17.55 16.86 20.94 16.86 28.75 8.56 25.37 8.56 17.55" style="fill:#ffd96e"/>
      <path d="M9.06,18.3l7.3,3V28l-7.3-3V18.3m-.5-.75v7.82l8.3,3.38V20.94l-8.3-3.39Z" style="fill:url(#未命名的渐变_63)"/>
      <polygon points="25.16 17.55 16.86 20.94 16.86 28.75 25.16 25.37 25.16 17.55" style="fill:#ffd96e"/>
      <path d="M24.66,18.3V25l-7.3,3V21.27l7.3-3m.5-.75-8.3,3.39v7.81l8.3-3.38V17.55Z" style="fill:url(#未命名的渐变_63-2)"/>
      <polygon points="16.86 14.17 8.56 17.55 16.86 20.94 25.16 17.55 16.86 14.17" style="fill:#ffd96e"/>
      <path d="M16.86,14.71l7,2.84-7,2.85-7-2.85,7-2.84m0-.54-8.3,3.38,8.3,3.39,8.3-3.39-8.3-3.38Z" style="fill:url(#未命名的渐变_63-3)"/>
      <polygon points="16.86 20.98 25.16 24.36 25.16 32.18 16.86 28.79 16.86 20.98" style="fill:#ffd96e"/>
      <path d="M17.36,21.72l7.3,3v6.73l-7.3-3V21.72m-.5-.74v7.81l8.3,3.39V24.36L16.86,21Z" style="fill:url(#未命名的渐变_63-4)"/>
      <polygon points="33.46 20.98 25.16 24.36 25.16 32.18 33.46 28.79 33.46 20.98" style="fill:#ffd96e"/>
      <path d="M33,21.72v6.74l-7.3,3V24.7l7.3-3m.5-.74-8.3,3.38v7.82l8.3-3.39V21Z" style="fill:url(#未命名的渐变_63-5)"/>
      <polygon points="25.16 17.6 16.86 20.98 25.16 24.36 33.46 20.98 25.16 17.6" style="fill:#ffd96e"/>
      <path d="M25.16,18.14l7,2.84-7,2.84-7-2.84,7-2.84m0-.54L16.86,21l8.3,3.38L33.46,21l-8.3-3.38Z" style="fill:url(#未命名的渐变_63-6)"/>
      <polygon points="8.56 9.73 16.86 13.11 16.86 20.92 8.56 17.54 8.56 9.73" style="fill:#ffd96e"/>
      <path d="M9.06,10.47l7.3,3v6.73l-7.3-3V10.47m-.5-.74v7.81l8.3,3.38V13.11L8.56,9.73Z" style="fill:url(#未命名的渐变_63-7)"/>
      <polygon points="25.16 9.73 16.86 13.11 16.86 20.92 25.16 17.54 25.16 9.73" style="fill:#ffd96e"/>
      <path d="M24.66,10.47v6.74l-7.3,3V13.45l7.3-3m.5-.74-8.3,3.38v7.81l8.3-3.38V9.73Z" style="fill:url(#未命名的渐变_63-8)"/>
      <polygon points="16.86 6.34 8.56 9.73 16.86 13.11 25.16 9.73 16.86 6.34" style="fill:#ffd96e"/>
      <path d="M16.86,6.88l7,2.85-7,2.84-7-2.84,7-2.85m0-.54L8.56,9.73l8.3,3.38,8.3-3.38-8.3-3.39Z" style="fill:url(#未命名的渐变_63-9)"/>
      <polygon points="16.86 13.15 25.16 16.54 25.16 24.35 16.86 20.97 16.86 13.15" style="fill:#ffd96e"/>
      <path d="M17.36,13.9l7.3,3v6.74l-7.3-3V13.9m-.5-.75V21l8.3,3.38V16.54l-8.3-3.39Z" style="fill:url(#未命名的渐变_63-10)"/>
      <polygon points="33.46 13.15 25.16 16.54 25.16 24.35 33.46 20.97 33.46 13.15" style="fill:#ffd96e"/>
      <path d="M33,13.9v6.73l-7.3,3V16.87l7.3-3m.5-.75-8.3,3.39v7.81L33.46,21V13.15Z" style="fill:url(#未命名的渐变_63-11)"/>
      <polygon points="25.16 9.77 16.86 13.15 25.16 16.54 33.46 13.15 25.16 9.77" style="fill:#ffd96e"/>
      <path d="M25.16,10.31l7,2.84-7,2.85-7-2.85,7-2.84m0-.54-8.3,3.38,8.3,3.39,8.3-3.39-8.3-3.38Z" style="fill:url(#未命名的渐变_63-12)"/>
      <path d="M25.78,22.55c-4.79,0-8,4.79-8,4.79s3.2,4.8,8,4.8,8-4.8,8-4.8S30.57,22.55,25.78,22.55Z" style="fill:#d4edff"/>
      <path d="M25.78,23.55c3.26,0,5.77,2.62,6.73,3.79-1,1.18-3.47,3.8-6.73,3.8s-5.77-2.62-6.73-3.8c1-1.17,3.46-3.79,6.73-3.79m0-1c-4.79,0-8,4.79-8,4.79s3.2,4.8,8,4.8,8-4.8,8-4.8-3.19-4.79-8-4.79Z" style="fill:url(#未命名的渐变_126)"/>
      <circle cx="25.78" r="2.5" style="fill:#d4edff" cy="27.34"/>
      <path d="M25.78,25.85a1.5,1.5,0,1,1-1.5,1.49,1.49,1.49,0,0,1,1.5-1.49m0-1a2.5,2.5,0,1,0,2.49,2.49,2.5,2.5,0,0,0-2.49-2.49Z" style="fill:url(#未命名的渐变_126-2)"/>
    </svg>