<svg data-name="图层 1" id="图层_1" viewBox="0 0 40 40" xmlns="http://www.w3.org/2000/svg" xmlns:xlink="http://www.w3.org/1999/xlink">
      <defs>
        <linearGradient id="未命名的渐变_22" gradientUnits="userSpaceOnUse" y1="20" y2="20" x2="33.73" x1="7.62">
          <stop stop-color="#666" offset="0.12"/>
          <stop stop-color="#333" offset="0.9"/>
        </linearGradient>
        <linearGradient id="未命名的渐变_22-2" xlink:href="#未命名的渐变_22" y1="20" y2="20" x2="24.76" x1="16.59"/>
      </defs>
      <path d="M20.68,12.17C12.84,12.17,7.62,20,7.62,20s5.22,7.83,13.06,7.83,13-7.83,13-7.83S28.51,12.17,20.68,12.17Z" style="fill:#fff"/>
      <path d="M20.68,13.17c6,0,10.48,5.11,11.81,6.83-1.33,1.72-5.8,6.83-11.81,6.83S10.19,21.72,8.86,20c1.33-1.72,5.8-6.83,11.82-6.83m0-1C12.84,12.17,7.62,20,7.62,20s5.22,7.83,13.06,7.83,13-7.83,13-7.83-5.22-7.83-13-7.83Z" style="fill:url(#未命名的渐变_22)"/>
      <circle cx="20.68" r="4.08" cy="20" style="fill:#fff"/>
      <path d="M20.68,16.92A3.08,3.08,0,1,1,17.59,20a3.08,3.08,0,0,1,3.09-3.08m0-1A4.08,4.08,0,1,0,24.76,20a4.09,4.09,0,0,0-4.08-4.08Z" style="fill:url(#未命名的渐变_22-2)"/>
    </svg>