<svg data-name="图层 1" viewBox="0 0 40 40" id="图层_1" xmlns="http://www.w3.org/2000/svg">
      <line x1="7.62" x2="33.57" style="fill:#e9d9fc;stroke:#9461c0;stroke-miterlimit:10" y2="19.98" y1="19.98"/>
      <line x1="20.59" x2="20.59" style="fill:#e9d9fc;stroke:#9461c0;stroke-miterlimit:10" y2="32.96" y1="7.01"/>
      <path d="M20.59,29.78A9.8,9.8,0,1,1,30.38,20,9.81,9.81,0,0,1,20.59,29.78Z" style="fill:#e9d9fc"/>
      <path d="M20.59,10.69A9.3,9.3,0,1,1,11.3,20a9.3,9.3,0,0,1,9.29-9.29m0-1A10.3,10.3,0,1,0,30.88,20,10.29,10.29,0,0,0,20.59,9.69Z" style="fill:#9461c0"/>
      <path d="M20.16,16.74C16.51,19,16,22.44,16.67,25.45c.55-2.53,2.12-4.25,4.89-5.44l1,2.28,2.23-5.55-5.55-2.22.95,2.22" style="fill:#9461c0"/>
    </svg>