<svg xmlns="http://www.w3.org/2000/svg" data-name="图层 1" id="图层_1" viewBox="0 0 40 40" xmlns:xlink="http://www.w3.org/1999/xlink">
      <defs>
        <linearGradient x1="17.24" y2="15.42" y1="32.7" gradientUnits="userSpaceOnUse" x2="34.52" id="未命名的渐变_72">
          <stop offset="0.12" stop-color="#666"/>
          <stop offset="0.56" stop-color="#333"/>
        </linearGradient>
        <linearGradient x1="10.58" y2="9.02" y1="21.98" x2="23.54" id="未命名的渐变_72-2" xlink:href="#未命名的渐变_72"/>
      </defs>
      <path style="fill:#fff" d="M27.6,8.5,10.32,25.78a12.2,12.2,0,0,0,14.84,1.88l5.47,5.47,3.24-3.24-5.26-5.26A12.21,12.21,0,0,0,27.6,8.5Z"/>
      <path style="fill:url(#未命名的渐变_72)" d="M27.57,10A11.22,11.22,0,0,1,27.82,24l-.54.69.62.63,4.56,4.55-1.83,1.83L25.87,27l-.55-.54-.67.39a11.23,11.23,0,0,1-12.88-1.05L27.57,10m0-1.45L10.32,25.78a12.23,12.23,0,0,0,14.84,1.88l5.47,5.47,3.24-3.24-5.26-5.26a12.21,12.21,0,0,0-1-16.13Z"/>
      <path style="fill:#fff" d="M25.24,10.87a9.19,9.19,0,0,0-10.61-.22L11.1,7.12,7.86,10.36l3.76,3.76a9.16,9.16,0,0,0,.81,9.56l-.08.08L15.59,27l2-2-2.29-2.29,1.34-1.35,4.45,4.45,2.16-2.16-4.45-4.45L21,17l4.45,4.45L27.6,19.3l-4.45-4.45,1.08-1.08,2.29,2.29,2-2L25.31,10.8Z"/>
      <path style="fill:url(#未命名的渐变_72-2)" d="M11.1,7.83,14.28,11l.29.3.34-.24a8.69,8.69,0,0,1,10,.21l.34.26,0,0L27.85,14l-1.33,1.32-1.93-1.94-.36-.35-.35.35L22.8,14.5l-.35.35.35.36,4.1,4.09-1.46,1.46-4.09-4.1L21,16.31l-.35.35-2.16,2.16-.35.35.35.36,4.1,4.09-1.46,1.46L17,21l-.36-.35-.35.35L15,22.32l-.36.36L15,23,16.91,25l-1.32,1.32-2.53-2.53,0,0-.26-.35a8.61,8.61,0,0,1-.76-9l.16-.32L12,13.77l-3.4-3.41L11.1,7.83m0-.71L7.86,10.36l3.76,3.76a9.16,9.16,0,0,0,.81,9.56l-.08.08L15.59,27l2-2-2.29-2.29,1.34-1.35,4.45,4.45,2.16-2.16-4.45-4.45L21,17l4.45,4.45L27.6,19.3l-4.45-4.45,1.08-1.08,2.29,2.29,2-2L25.31,10.8l-.07.07a9.19,9.19,0,0,0-5.47-1.8,9.07,9.07,0,0,0-5.14,1.58L11.1,7.12Z"/>
    </svg>