<svg xmlns="http://www.w3.org/2000/svg" data-name="图层 1" id="图层_1" viewBox="0 0 40 40" xmlns:xlink="http://www.w3.org/1999/xlink">
      <defs>
        <linearGradient x1="24.06" y2="33.77" y1="7.19" gradientUnits="userSpaceOnUse" x2="16.94" id="未命名的渐变_72">
          <stop offset="0.12" stop-color="#666"/>
          <stop offset="0.56" stop-color="#333"/>
        </linearGradient>
        <linearGradient x1="30.56" y2="14.09" y1="7.96" x2="28.92" id="未命名的渐变_72-2" xlink:href="#未命名的渐变_72"/>
        <linearGradient x1="23.56" y2="30.25" y1="10.28" x2="18.21" id="未命名的渐变_72-3" xlink:href="#未命名的渐变_72"/>
        <linearGradient x1="26.8" y2="21.72" y1="9.56" x2="23.54" id="未命名的渐变_72-4" xlink:href="#未命名的渐变_72"/>
      </defs>
      <path style="fill:#fff" d="M26.29,7.79l-17.95,18c-.93.93-.17,3.19,1.69,5.05s4.12,2.61,5.05,1.68L33,14.52Z"/>
      <path style="fill:url(#未命名的渐变_72)" d="M26.29,9.2l5.32,5.32L14.37,31.76a.58.58,0,0,1-.4.11,5.4,5.4,0,0,1-3.24-1.79A6.68,6.68,0,0,1,9.09,27.6c-.21-.61-.16-1,0-1.15L26.29,9.2m0-1.41-17.95,18c-.93.93-.17,3.19,1.69,5.05A6.31,6.31,0,0,0,14,32.87a1.53,1.53,0,0,0,1.11-.4L33,14.52,26.29,7.79Z"/>
      <ellipse cx="29.74" cy="11.03" transform="translate(0.91 24.26) rotate(-45)" style="fill:#fff" ry="4.8" rx="2.4"/>
      <path style="fill:url(#未命名的渐变_72-2)" d="M27.46,8.23h0A5.45,5.45,0,0,1,30.73,10c1.67,1.66,2,3.32,1.7,3.67a.62.62,0,0,1-.41.11A5.48,5.48,0,0,1,28.75,12a6.84,6.84,0,0,1-1.66-2.51c-.21-.62-.16-1,0-1.17a.64.64,0,0,1,.4-.11m0-1a1.53,1.53,0,0,0-1.11.4c-.94.94-.18,3.22,1.69,5.09a6.38,6.38,0,0,0,4,2.1,1.51,1.51,0,0,0,1.11-.4c.94-.94.18-3.22-1.69-5.09a6.36,6.36,0,0,0-4-2.1Z"/>
      <path style="fill:#fff" d="M18.44,8.91l-7.85,7.85c-1.86,1.86-.35,6.38,3.36,10.1s8.24,5.23,10.1,3.37l7.85-7.86Z"/>
      <path style="fill:url(#未命名的渐变_72-3)" d="M18.44,10.33l12,12-7.15,7.15a2.06,2.06,0,0,1-1.5.5c-2,0-4.83-1.52-7.18-3.87-3.55-3.55-4.62-7.42-3.37-8.68l7.15-7.14m0-1.42-7.85,7.85c-1.86,1.86-.35,6.38,3.36,10.1C16.59,29.5,19.63,31,21.84,31a3,3,0,0,0,2.21-.79l7.85-7.86L18.44,8.91Z"/>
      <path style="fill:#fff" d="M31.45,16.1l-1.23,1.23c-.93.92-3.19.17-5-1.69s-2.61-4.12-1.68-5.05l1.23-1.22c-2.59-1.43-5-1.7-6.28-.46-1.86,1.86-.35,6.38,3.37,10.1s8.24,5.22,10.09,3.36C33.15,21.13,32.88,18.69,31.45,16.1Z"/>
      <path style="fill:url(#未命名的渐变_72-4)" d="M20.64,9.12h0A6.35,6.35,0,0,1,23,9.66l-.23.23a3,3,0,0,0-.44,3.2,8.68,8.68,0,0,0,2.13,3.26,7.13,7.13,0,0,0,4.65,2.37A2.5,2.5,0,0,0,30.93,18l.23-.23c.7,1.72.73,3.17,0,3.87a2.08,2.08,0,0,1-1.51.5c-2,0-4.83-1.52-7.18-3.87A14.44,14.44,0,0,1,19,13c-.5-1.51-.44-2.72.17-3.33a2,2,0,0,1,1.49-.5m0-1a3,3,0,0,0-2.2.79c-1.86,1.86-.35,6.38,3.37,10.1,2.63,2.64,5.68,4.16,7.88,4.16a3,3,0,0,0,2.21-.8c1.25-1.24,1-3.68-.45-6.27l-1.23,1.23a1.5,1.5,0,0,1-1.1.39,6.3,6.3,0,0,1-3.95-2.08c-1.86-1.86-2.61-4.12-1.68-5.05l1.23-1.22a8.83,8.83,0,0,0-4.08-1.25Z"/>
    </svg>