<svg xmlns="http://www.w3.org/2000/svg" data-name="图层 1" id="图层_1" viewBox="0 0 40 40" xmlns:xlink="http://www.w3.org/1999/xlink">
      <defs>
        <linearGradient x1="8.5" y2="23.9" y1="23.9" gradientUnits="userSpaceOnUse" x2="16.11" id="未命名的渐变_12">
          <stop offset="0.06" stop-color="#fff"/>
          <stop offset="0.95" stop-color="#b3b3b3"/>
        </linearGradient>
        <linearGradient x1="17.11" y2="23.9" y1="23.9" x2="24.72" id="未命名的渐变_12-2" xlink:href="#未命名的渐变_12"/>
        <linearGradient x1="9.21" y2="18.04" y1="18.04" x2="24.01" id="未命名的渐变_12-3" xlink:href="#未命名的渐变_12"/>
        <linearGradient x1="17.11" y2="27.73" y1="27.73" x2="24.72" id="未命名的渐变_12-4" xlink:href="#未命名的渐变_12"/>
        <linearGradient x1="25.72" y2="27.73" y1="27.73" x2="33.33" id="未命名的渐变_12-5" xlink:href="#未命名的渐变_12"/>
        <linearGradient x1="17.82" y2="21.87" y1="21.87" x2="32.62" id="未命名的渐变_12-6" xlink:href="#未命名的渐变_12"/>
        <linearGradient x1="8.5" y2="17.13" y1="17.13" x2="16.11" id="未命名的渐变_12-7" xlink:href="#未命名的渐变_12"/>
        <linearGradient x1="17.11" y2="17.13" y1="17.13" x2="24.72" id="未命名的渐变_12-8" xlink:href="#未命名的渐变_12"/>
        <linearGradient x1="9.21" y2="11.27" y1="11.27" x2="24.01" id="未命名的渐变_12-9" xlink:href="#未命名的渐变_12"/>
      </defs>
      <polygon points="8.5 25.53 8.5 18.82 16.11 22.27 16.11 28.98 8.5 25.53" style="fill:url(#未命名的渐变_12)"/>
      <path style="fill:#333" d="M9,19.59l6.61,3v5.62L9,25.21V19.59M8,18v7.81l8.61,3.91V22L8,18Z"/>
      <polygon points="17.11 22.27 24.72 18.82 24.72 25.53 17.11 28.98 17.11 22.27" style="fill:url(#未命名的渐变_12-2)"/>
      <path style="fill:#333" d="M24.22,19.59v5.62l-6.61,3V22.59l6.61-3m1-1.55L16.61,22v7.81l8.61-3.91V18Z"/>
      <polygon points="9.21 18.04 16.61 14.68 24.01 18.04 16.61 21.4 9.21 18.04" style="fill:url(#未命名的渐变_12-3)"/>
      <path style="fill:#333" d="M16.61,15.23,22.8,18l-6.19,2.81L10.42,18l6.19-2.81m0-1.1L8,18,16.61,22,25.22,18l-8.61-3.91Z"/>
      <polygon points="17.11 29.36 17.11 22.65 24.72 26.1 24.72 32.81 17.11 29.36" style="fill:url(#未命名的渐变_12-4)"/>
      <path style="fill:#333" d="M17.61,23.42l6.61,3V32l-6.61-3V23.42m-1-1.55v7.82l8.61,3.9V25.78l-8.61-3.91Z"/>
      <polygon points="25.72 26.1 33.33 22.65 33.33 29.36 25.72 32.81 25.72 26.1" style="fill:url(#未命名的渐变_12-5)"/>
      <path style="fill:#333" d="M32.83,23.42V29l-6.61,3V26.42l6.61-3m1-1.55-8.61,3.91v7.81l8.61-3.9V21.87Z"/>
      <polygon points="17.82 21.87 25.22 18.52 32.62 21.87 25.22 25.23 17.82 21.87" style="fill:url(#未命名的渐变_12-6)"/>
      <path style="fill:#333" d="M25.22,19.06l6.19,2.81-6.19,2.81L19,21.87l6.19-2.81m0-1.09-8.61,3.9,8.61,3.91,8.61-3.91L25.22,18Z"/>
      <polygon points="8.5 18.76 8.5 12.05 16.11 15.5 16.11 22.22 8.5 18.76" style="fill:url(#未命名的渐变_12-7)"/>
      <path style="fill:#333" d="M9,12.83l6.61,3v5.62L9,18.44V12.83M8,11.27v7.82L16.61,23V15.18L8,11.27Z"/>
      <polygon points="17.11 15.5 24.72 12.05 24.72 18.76 17.11 22.22 17.11 15.5" style="fill:url(#未命名的渐变_12-8)"/>
      <path style="fill:#333" d="M24.22,12.83v5.61l-6.61,3V15.82l6.61-3m1-1.56-8.61,3.91V23l8.61-3.9V11.27Z"/>
      <polygon points="9.21 11.27 16.61 7.92 24.01 11.27 16.61 14.63 9.21 11.27" style="fill:url(#未命名的渐变_12-9)"/>
      <path style="fill:#333" d="M16.61,8.47l6.19,2.8-6.19,2.81-6.19-2.81,6.19-2.8m0-1.1L8,11.27l8.61,3.91,8.61-3.91-8.61-3.9Z"/>
    </svg>