<svg xmlns="http://www.w3.org/2000/svg" data-name="图层 1" id="图层_1" viewBox="0 0 40 40" xmlns:xlink="http://www.w3.org/1999/xlink">
      <defs>
        <linearGradient x1="18.51" y2="20.66" y1="20.66" gradientUnits="userSpaceOnUse" x2="25.97" id="未命名的渐变_72">
          <stop offset="0.12" stop-color="#666"/>
          <stop offset="0.56" stop-color="#333"/>
        </linearGradient>
        <linearGradient x1="11.05" y2="9.86" y1="14.79" gradientUnits="userSpaceOnUse" x2="15.04" id="未命名的渐变_89">
          <stop offset="0.01" stop-color="#d4ffec"/>
          <stop offset="1" stop-color="#a1ddaa"/>
        </linearGradient>
        <linearGradient x1="8.05" y2="12.01" y1="12.01" gradientUnits="userSpaceOnUse" x2="17.49" id="未命名的渐变_102">
          <stop offset="0.01" stop-color="#379e4e"/>
          <stop offset="1" stop-color="#006837"/>
        </linearGradient>
        <linearGradient x1="14.45" y2="14.33" y1="32.93" x2="33.05" id="未命名的渐变_89-2" xlink:href="#未命名的渐变_89"/>
        <linearGradient x1="12.59" y2="21.02" y1="21.02" x2="33.69" id="未命名的渐变_102-2" xlink:href="#未命名的渐变_102"/>
      </defs>
      <circle r="3.73" cx="22.24" cy="20.66" style="fill:#fff"/>
      <path style="fill:url(#未命名的渐变_72)" d="M22.24,17.93a2.73,2.73,0,1,1-2.73,2.73,2.73,2.73,0,0,1,2.73-2.73m0-1A3.73,3.73,0,1,0,26,20.66a3.73,3.73,0,0,0-3.73-3.73Z"/>
      <polygon points="17.14 16.38 15.49 10.23 13.89 11.83 9.7 7.64 8.4 8.94 12.59 13.13 10.99 14.73 17.14 16.38" style="fill:url(#未命名的渐变_89)"/>
      <path style="fill:url(#未命名的渐变_102)" d="M9.7,7.64l4.19,4.19,1.6-1.6,1.65,6.15L11,14.73l1.6-1.6L8.4,8.94l1.3-1.3m0-.35-.17.18-1.3,1.3-.18.17.18.18,4,4-1.42,1.43-.31.3.42.11,6.16,1.65.41.11-.11-.41-1.65-6.16-.11-.41-.31.3-1.42,1.43-4-4L9.7,7.29Z"/>
      <path style="fill:url(#未命名的渐变_89-2)" d="M30.72,12.93l1.67-1.67L26.21,9.61l1.65,6.18,1.52-1.51a10,10,0,0,1,2.21,6.25c0,.18,0,.34-.05.52a10.13,10.13,0,0,1-17.29,6.66L13,29a12,12,0,0,0,20.46-8c0-.18,0-.35,0-.52A11.91,11.91,0,0,0,30.72,12.93Z"/>
      <path style="fill:url(#未命名的渐变_102-2)" d="M26.21,9.61l6.18,1.65-1.67,1.67a11.91,11.91,0,0,1,2.72,7.6c0,.17,0,.34,0,.52A12,12,0,0,1,13,29l1.3-1.31a10.12,10.12,0,0,0,17.29-6.66c0-.18.05-.34.05-.52a10,10,0,0,0-2.21-6.25l-1.52,1.51L26.21,9.61m-.35-.36.11.42,1.65,6.18.12.42L28,16l1.31-1.31a9.77,9.77,0,0,1,2,5.88,2.28,2.28,0,0,1,0,.26l0,.24a9.88,9.88,0,0,1-16.86,6.51l-.18-.18-.18.18-1.3,1.3-.18.18.18.18a12.24,12.24,0,0,0,20.89-8.14v-.19c0-.11,0-.22,0-.34A12.08,12.08,0,0,0,31.06,13l1.51-1.51.3-.31L32.45,11,26.27,9.37l-.41-.12Z"/>
    </svg>