<svg xmlns="http://www.w3.org/2000/svg" data-name="图层 1" id="图层_1" viewBox="0 0 40 40" xmlns:xlink="http://www.w3.org/1999/xlink">
      <defs>
        <linearGradient x1="12.24" y2="20.64" y1="6.95" gradientUnits="userSpaceOnUse" x2="20.14" id="未命名的渐变_126">
          <stop offset="0.12" stop-color="#0384c5"/>
          <stop offset="0.9" stop-color="#0063b1"/>
        </linearGradient>
        <linearGradient x1="21.4" y2="33.78" y1="20.1" x2="29.3" id="未命名的渐变_126-2" xlink:href="#未命名的渐变_126"/>
        <linearGradient x1="19.52" y2="22.42" y1="18.24" gradientUnits="userSpaceOnUse" x2="21.94" id="未命名的渐变_72">
          <stop offset="0.12" stop-color="#666"/>
          <stop offset="0.56" stop-color="#333"/>
        </linearGradient>
      </defs>
      <path style="fill:#d4edff" d="M16.19,20.37a4.58,4.58,0,0,1,4.58-4.58,4.26,4.26,0,0,1,.8.08l4-4a9.79,9.79,0,0,0-9.68,0L11.49,7.39l-3.7,3.7,4.44,4.44a9.77,9.77,0,0,0,0,9.67l4-4A4.26,4.26,0,0,1,16.19,20.37Z"/>
      <path style="fill:url(#未命名的渐变_126)" d="M11.49,8.8l3.74,3.73.54.54.66-.37a8.81,8.81,0,0,1,7.47-.58l-2.69,2.69a3.24,3.24,0,0,0-.44,0,5.58,5.58,0,0,0-5.58,5.58,3.31,3.31,0,0,0,0,.44l-2.68,2.68A8.73,8.73,0,0,1,13.1,16l.38-.67-.54-.54L9.2,11.09,11.49,8.8m0-1.41-3.7,3.7,4.44,4.44a9.77,9.77,0,0,0,0,9.67l4-4a4.26,4.26,0,0,1-.08-.8,4.58,4.58,0,0,1,4.58-4.58,4.26,4.26,0,0,1,.8.08l4-4a9.79,9.79,0,0,0-9.68,0L11.49,7.39Z"/>
      <path style="fill:#d4edff" d="M33.75,29.65,29.31,25.2a9.77,9.77,0,0,0,0-9.67l-4,4a4.17,4.17,0,0,1,.08.8A4.58,4.58,0,0,1,20.77,25a4.26,4.26,0,0,1-.8-.08l-4,4a9.79,9.79,0,0,0,9.68,0l4.44,4.44Z"/>
      <path style="fill:url(#未命名的渐变_126-2)" d="M29,17.24a8.75,8.75,0,0,1-.57,7.47l-.37.66.53.54,3.74,3.74-2.29,2.29L26.31,28.2l-.53-.54-.67.38a8.73,8.73,0,0,1-7.46.57l2.68-2.68.44,0a5.58,5.58,0,0,0,5.58-5.58,3.46,3.46,0,0,0,0-.45L29,17.24m.3-1.71-4,4a4.17,4.17,0,0,1,.08.8A4.58,4.58,0,0,1,20.77,25a4.26,4.26,0,0,1-.8-.08l-4,4a9.79,9.79,0,0,0,9.68,0l4.44,4.44,3.7-3.7L29.31,25.2a9.77,9.77,0,0,0,0-9.67Z"/>
      <circle r="2.41" cx="20.73" cy="20.33" style="fill:#fff"/>
      <path style="fill:url(#未命名的渐变_72)" d="M20.73,18.92a1.41,1.41,0,1,1-1.41,1.41,1.41,1.41,0,0,1,1.41-1.41m0-1a2.41,2.41,0,1,0,2.41,2.41,2.4,2.4,0,0,0-2.41-2.41Z"/>
    </svg>