<svg xmlns:xlink="http://www.w3.org/1999/xlink" data-name="图层 1" viewBox="0 0 40 40" id="图层_1" xmlns="http://www.w3.org/2000/svg">
      <defs>
        <linearGradient x1="12.29" x2="20.14" gradientUnits="userSpaceOnUse" id="未命名的渐变_126" y2="20.17" y1="6.58">
          <stop offset="0.12" stop-color="#0384c5"/>
          <stop offset="0.9" stop-color="#0063b1"/>
        </linearGradient>
        <linearGradient x1="21.38" x2="29.23" xlink:href="#未命名的渐变_126" id="未命名的渐变_126-2" y2="33.23" y1="19.64"/>
        <linearGradient x1="15.67" x2="25.85" gradientUnits="userSpaceOnUse" id="未命名的渐变_178" y2="24.99" y1="14.82">
          <stop offset="0.01" stop-color="#ff5559"/>
          <stop offset="1" stop-color="#aa001c"/>
        </linearGradient>
        <linearGradient x1="18.32" x2="23.31" xlink:href="#未命名的渐变_178" id="未命名的渐变_178-2" y2="19.93" y1="19.93"/>
      </defs>
      <g style="opacity:0.7">
        <path d="M16.21,19.91a4.56,4.56,0,0,1,4.55-4.56,5,5,0,0,1,.79.08l4-4a9.72,9.72,0,0,0-9.61,0L11.54,7,7.86,10.69l4.42,4.41a9.66,9.66,0,0,0,0,9.61l4-4A4.15,4.15,0,0,1,16.21,19.91Z" style="fill:#d4edff"/>
        <path d="M11.54,8.42l3.71,3.71.54.54.66-.38a8.71,8.71,0,0,1,4.31-1.14,8.55,8.55,0,0,1,3.09.57L21.2,14.37l-.44,0a5.56,5.56,0,0,0-5.55,5.56,3.17,3.17,0,0,0,0,.43L12.57,23A8.85,8.85,0,0,1,12,19.91a8.76,8.76,0,0,1,1.15-4.32l.37-.66L13,14.39l-3.7-3.7,2.26-2.27m0-1.41L7.86,10.69l4.42,4.41a9.66,9.66,0,0,0,0,9.61l4-4a4.15,4.15,0,0,1-.08-.79,4.56,4.56,0,0,1,4.55-4.56,5,5,0,0,1,.79.08l4-4a9.72,9.72,0,0,0-9.61,0L11.54,7Z" style="fill:url(#未命名的渐变_126)"/>
        <path d="M33.66,29.12l-4.41-4.41a9.72,9.72,0,0,0,0-9.61l-4,4a4.17,4.17,0,0,1,.08.8,4.55,4.55,0,0,1-4.55,4.55,5.16,5.16,0,0,1-.79-.08l-4,4a9.72,9.72,0,0,0,9.61,0L30,32.8Z" style="fill:#d4edff"/>
        <path d="M29,16.81a8.72,8.72,0,0,1-.57,7.41l-.38.66.54.54,3.7,3.7L30,31.39l-3.71-3.71-.54-.54-.66.38a8.68,8.68,0,0,1-4.31,1.14,8.55,8.55,0,0,1-3.09-.57l2.65-2.65.44,0a5.56,5.56,0,0,0,5.55-5.55,3.24,3.24,0,0,0,0-.44L29,16.81m.3-1.71-4,4a4.17,4.17,0,0,1,.08.8,4.55,4.55,0,0,1-4.55,4.55,5.16,5.16,0,0,1-.79-.08l-4,4a9.72,9.72,0,0,0,9.61,0L30,32.8l3.68-3.68-4.41-4.41a9.72,9.72,0,0,0,0-9.61Z" style="fill:url(#未命名的渐变_126-2)"/>
      </g>
      <circle style="fill:#fcc5cd" r="7.2" cx="20.76" cy="19.91"/>
      <path d="M20.76,13.71a6.2,6.2,0,1,1-6.19,6.2,6.21,6.21,0,0,1,6.19-6.2m0-1a7.2,7.2,0,1,0,7.2,7.2,7.19,7.19,0,0,0-7.2-7.2Z" style="fill:url(#未命名的渐变_178)"/>
      <path d="M22.66,16.54a2,2,0,0,1,.65,1.57,2.18,2.18,0,0,1-.4,1.34c-.1.11-.41.4-.94.86a1.72,1.72,0,0,0-.43.55,1.59,1.59,0,0,1-.51.7v.21H20v-.21c.16-.41.23-.77.38-1.06a6.06,6.06,0,0,1,1.27-1.39l.13-.15a1.23,1.23,0,0,0,0-1.62,1.16,1.16,0,0,0-.87-.31,1.12,1.12,0,0,0-1,.45,1.77,1.77,0,0,0-.27,1.09H18.32A2.51,2.51,0,0,1,19,16.65,2.6,2.6,0,0,1,20.94,16,2.48,2.48,0,0,1,22.66,16.54Zm-1.31,5.94a.78.78,0,0,1,.24.59.79.79,0,0,1-.25.6.84.84,0,0,1-.6.22.83.83,0,0,1-.6-.24.75.75,0,0,1-.24-.58.78.78,0,0,1,.24-.59.91.91,0,0,1,1.21,0Z" style="fill:#fcc5cd"/>
      <path d="M20.94,16a2.6,2.6,0,0,0-1.91.68,2.51,2.51,0,0,0-.71,1.92h1.25a1.77,1.77,0,0,1,.27-1.09,1.12,1.12,0,0,1,1-.45,1.16,1.16,0,0,1,.87.31,1.23,1.23,0,0,1,0,1.62l-.13.15a6.06,6.06,0,0,0-1.27,1.39c-.15.29-.22.65-.38,1.06v.21H21v-.21a1.59,1.59,0,0,0,.51-.7,1.72,1.72,0,0,1,.43-.55c.53-.46.84-.75.94-.86a2.18,2.18,0,0,0,.4-1.34,2,2,0,0,0-.65-1.57A2.48,2.48,0,0,0,20.94,16Zm-.2,6.28a.86.86,0,0,0-.6.23.78.78,0,0,0-.24.59.75.75,0,0,0,.24.58.83.83,0,0,0,.6.24.84.84,0,0,0,.6-.22.79.79,0,0,0,.25-.6.78.78,0,0,0-.24-.59.87.87,0,0,0-.61-.23Z" style="fill:url(#未命名的渐变_178-2)"/>
    </svg>