<svg id="图层_1" viewBox="0 0 40 40" data-name="图层 1" xmlns="http://www.w3.org/2000/svg" xmlns:xlink="http://www.w3.org/1999/xlink">
      <defs>
        <linearGradient x1="9.98" gradientUnits="userSpaceOnUse" id="未命名的渐变_72" y1="26.72" y2="19.63" x2="18.27">
          <stop offset="0.12" stop-color="#666"/>
          <stop offset="0.56" stop-color="#333"/>
        </linearGradient>
        <linearGradient x1="31.77" id="未命名的渐变_72-2" xlink:href="#未命名的渐变_72" y1="26.72" y2="19.63" x2="23.48"/>
        <linearGradient x1="14.36" id="未命名的渐变_72-3" xlink:href="#未命名的渐变_72" y1="17.97" y2="17.97" x2="27.26"/>
        <linearGradient x1="16.66" id="未命名的渐变_72-5" xlink:href="#未命名的渐变_72" y1="17.97" y2="17.97" x2="24.96"/>
      </defs>
      <rect x="8.67" width="10.9" transform="translate(-11.67 14.73) rotate(-40.52)" height="6.23" y="20.06" style="fill:#fff"/>
      <path d="M16.13,18.68l2.75,3.21-6.77,5.79L9.36,24.46l6.77-5.78m.11-1.41L8,24.35,12,29.09,20.29,22l-4.05-4.73Z" style="fill:url(#未命名的渐变_72)"/>
      <rect x="24.63" width="5.99" transform="translate(-7.94 29.12) rotate(-49.48)" height="10.9" y="17.73" style="fill:#fff"/>
      <path d="M25.54,18.77l6.76,5.78-2.59,3L22.94,21.8l2.6-3m-.12-1.41-3.89,4.55L29.82,29l3.89-4.56-8.29-7.08Z" style="fill:url(#未命名的渐变_72-2)"/>
      <circle cx="20.81" cy="17.97" r="6.45" style="fill:#fff"/>
      <path d="M20.81,12.52A5.45,5.45,0,1,1,15.36,18a5.45,5.45,0,0,1,5.45-5.45m0-1A6.45,6.45,0,1,0,27.26,18a6.45,6.45,0,0,0-6.45-6.45Z" style="fill:url(#未命名的渐变_72-3)"/>
      <circle cx="20.81" cy="17.97" r="6.45" style="fill:#fff"/>
      <path d="M20.81,12.52A5.45,5.45,0,1,1,15.36,18a5.45,5.45,0,0,1,5.45-5.45m0-1A6.45,6.45,0,1,0,27.26,18a6.45,6.45,0,0,0-6.45-6.45Z" style="fill:url(#未命名的渐变_72-3)"/>
      <circle cx="20.81" cy="17.97" r="4.15" style="fill:#fff"/>
      <path d="M20.81,14.82A3.15,3.15,0,1,1,17.66,18a3.15,3.15,0,0,1,3.15-3.15m0-1A4.15,4.15,0,1,0,25,18a4.15,4.15,0,0,0-4.15-4.15Z" style="fill:url(#未命名的渐变_72-5)"/>
    </svg>