<svg id="图层_1" viewBox="0 0 40 40" data-name="图层 1" xmlns="http://www.w3.org/2000/svg" xmlns:xlink="http://www.w3.org/1999/xlink">
      <defs>
        <linearGradient x1="14.47" gradientUnits="userSpaceOnUse" id="未命名的渐变_72" y1="29.06" y2="16.12" x2="27.37">
          <stop offset="0.12" stop-color="#666"/>
          <stop offset="0.56" stop-color="#333"/>
        </linearGradient>
        <linearGradient x1="16.44" gradientUnits="userSpaceOnUse" id="未命名的渐变_12" y1="18.59" y2="18.59" x2="22.1">
          <stop offset="0.06" stop-color="#fff"/>
          <stop offset="0.95" stop-color="#b3b3b3"/>
        </linearGradient>
        <linearGradient x1="16.69" id="未命名的渐变_12-2" xlink:href="#未命名的渐变_12" y1="12.36" y2="12.36" x2="26.48"/>
        <linearGradient x1="22.6" id="未命名的渐变_12-3" xlink:href="#未命名的渐变_12" y1="18.62" y2="18.62" x2="26.72"/>
      </defs>
      <polygon points="33.83 22.57 20.93 31.59 8 22.61 20.9 13.59 33.83 22.57" style="fill:#fff"/>
      <path d="M20.91,14.81l11.17,7.76-11.15,7.8L9.75,22.6l11.16-7.79m0-1.22L8,22.61l12.93,9,12.9-9-12.93-9Z" style="fill:url(#未命名的渐变_72)"/>
      <polygon points="16.44 21.39 16.44 12.79 22.1 15.49 22.1 24.39 16.44 21.39" style="fill:url(#未命名的渐变_12)"/>
      <path d="M16.69,13.18l5.16,2.47V24l-5.16-2.73V13.18m-.5-.79v9.16l6.16,3.25V15.33l-6.16-2.94Z" style="fill:#333"/>
      <polygon points="16.69 12.33 20.83 9.57 26.48 12.39 22.34 15.15 16.69 12.33" style="fill:url(#未命名的渐变_12-2)"/>
      <path d="M20.85,9.86,26,12.42l-3.66,2.44L17.19,12.3l3.66-2.44m0-.58-4.62,3.08,6.16,3.08L27,12.36,20.81,9.28Z" style="fill:#333"/>
      <polygon points="22.6 15.47 26.72 12.79 26.72 21.77 22.6 24.44 22.6 15.47" style="fill:url(#未命名的渐变_12-3)"/>
      <path d="M26.47,13.26v8.37L22.85,24V15.6l3.62-2.34m.5-.92-4.62,3V24.9l4.62-3V12.34Z" style="fill:#333"/>
    </svg>