<svg id="图层_1" viewBox="0 0 40 40" data-name="图层 1" xmlns="http://www.w3.org/2000/svg" xmlns:xlink="http://www.w3.org/1999/xlink">
      <defs>
        <linearGradient x1="7.83" id="未命名的渐变_126" y2="20.28" y1="20.28" x2="33.83" gradientUnits="userSpaceOnUse">
          <stop stop-color="#0384c5" offset="0.12"/>
          <stop stop-color="#0063b1" offset="0.9"/>
        </linearGradient>
      </defs>
      <path d="M29.64,24.85v1.68h1.43c-2.89,3-5.87,4.68-9,5V24.85h5V22.34h-5V19.19a6,6,0,1,0-2.52,0v3.15h-5v2.51h5v6.36c-4.47-.58-7.79-3.71-9-4.68h2.27V24.85h-5v4.2H9.51V28c1.72,1.77,5.67,5.14,10.87,5.31h.4c4,0,7.78-1.92,11.37-5.67v1.44h1.68v-4.2ZM18.19,13.34a2.51,2.51,0,1,1,2.51,2.51A2.51,2.51,0,0,1,18.19,13.34Zm14,13.23,0,0h0Z" style="fill:#d4edff"/>
      <path d="M20.83,8.28a5.31,5.31,0,0,1,1,.1,5,5,0,0,1,0,9.83l-.79.17v5h5v.51h-5v8.42h-.52V23.85h-5v-.51h5v-5l-.79-.17a5,5,0,0,1-4-4.91,5,5,0,0,1,5-5h0m-.13,8.57a3.51,3.51,0,1,0-3.51-3.51,3.52,3.52,0,0,0,3.51,3.51M13.9,30.22a14.74,14.74,0,0,0,5.55,2l.13,0a13.86,13.86,0,0,1-5.68-2M20.83,7.28a6,6,0,0,0-1.26,11.91v3.15h-5v2.51h5v6.36c-4.47-.58-7.79-3.71-9-4.68h2.27V24.85h-5v4.2H9.51V28c1.72,1.77,5.67,5.14,10.87,5.31h.4c4,0,7.78-1.92,11.37-5.67v1.44h1.68v-4.2H29.64v1.68h1.43c-2.89,3-5.87,4.68-9,5V24.85h5V22.34h-5V19.19a6,6,0,0,0,0-11.79,5.82,5.82,0,0,0-1.23-.12Zm-.13,8.57a2.51,2.51,0,1,1,2.51-2.51,2.51,2.51,0,0,1-2.51,2.51ZM32.15,26.57l0,0h0v0Z" style="fill:url(#未命名的渐变_126)"/>
    </svg>