<svg xmlns:xlink="http://www.w3.org/1999/xlink" data-name="图层 1" viewBox="0 0 40 40" id="图层_1" xmlns="http://www.w3.org/2000/svg">
      <defs>
        <linearGradient x1="7.65" x2="16.31" gradientUnits="userSpaceOnUse" id="未命名的渐变_63" y2="23.7" y1="23.7">
          <stop offset="0.12" stop-color="#d49a00"/>
          <stop offset="0.81" stop-color="#916306"/>
        </linearGradient>
        <linearGradient x1="16.31" x2="24.98" xlink:href="#未命名的渐变_63" id="未命名的渐变_63-2" y2="23.7" y1="23.7"/>
        <linearGradient x1="7.65" x2="24.98" xlink:href="#未命名的渐变_63" id="未命名的渐变_63-3" y2="17.8" y1="17.8"/>
        <linearGradient x1="16.31" x2="24.98" xlink:href="#未命名的渐变_63" id="未命名的渐变_63-4" y2="27.56" y1="27.56"/>
        <linearGradient x1="24.98" x2="33.65" xlink:href="#未命名的渐变_63" id="未命名的渐变_63-5" y2="27.56" y1="27.56"/>
        <linearGradient x1="16.31" x2="33.65" xlink:href="#未命名的渐变_63" id="未命名的渐变_63-6" y2="21.66" y1="21.66"/>
        <linearGradient x1="7.65" x2="16.31" xlink:href="#未命名的渐变_63" id="未命名的渐变_63-7" y2="16.89" y1="16.89"/>
        <linearGradient x1="16.31" x2="24.98" xlink:href="#未命名的渐变_63" id="未命名的渐变_63-8" y2="16.89" y1="16.89"/>
        <linearGradient x1="7.65" x2="24.98" xlink:href="#未命名的渐变_63" id="未命名的渐变_63-9" y2="10.99" y1="10.99"/>
      </defs>
      <polygon style="fill:#fcdb88" points="7.65 17.8 16.31 21.73 16.31 29.59 7.65 25.66 7.65 17.8"/>
      <path d="M8.65,19.35l6.66,3V28L8.65,25V19.35m-1-1.55v7.86l8.66,3.93V21.73L7.65,17.8Z" style="fill:url(#未命名的渐变_63)"/>
      <polygon style="fill:#fcdb88" points="24.98 17.8 16.31 21.73 16.31 29.59 24.98 25.66 24.98 17.8"/>
      <path d="M24,19.35V25l-6.67,3V22.38l6.67-3m1-1.55-8.67,3.93v7.86L25,25.66V17.8Z" style="fill:url(#未命名的渐变_63-2)"/>
      <polygon style="fill:#fcdb88" points="16.31 13.87 7.65 17.8 16.31 21.73 24.98 17.8 16.31 13.87"/>
      <path d="M16.31,15l6.25,2.83-6.25,2.83L10.07,17.8,16.31,15m0-1.1L7.65,17.8l8.66,3.93L25,17.8l-8.67-3.93Z" style="fill:url(#未命名的渐变_63-3)"/>
      <polygon style="fill:#fcdb88" points="16.31 21.66 24.98 25.59 24.98 33.45 16.31 29.52 16.31 21.66"/>
      <path d="M17.31,23.21l6.67,3V31.9l-6.67-3V23.21m-1-1.55v7.86L25,33.45V25.59l-8.67-3.93Z" style="fill:url(#未命名的渐变_63-4)"/>
      <polygon style="fill:#fcdb88" points="33.65 21.66 24.98 25.59 24.98 33.45 33.65 29.52 33.65 21.66"/>
      <path d="M32.65,23.21v5.67L26,31.9V26.23l6.67-3m1-1.55L25,25.59v7.86l8.67-3.93V21.66Z" style="fill:url(#未命名的渐变_63-5)"/>
      <polygon style="fill:#fcdb88" points="24.98 17.73 16.31 21.66 24.98 25.59 33.65 21.66 24.98 17.73"/>
      <path d="M25,18.83l6.25,2.83L25,24.49l-6.24-2.83L25,18.83m0-1.1-8.67,3.93L25,25.59l8.67-3.93L25,17.73Z" style="fill:url(#未命名的渐变_63-6)"/>
      <polygon style="fill:#fcdb88" points="7.65 10.99 16.31 14.92 16.31 22.79 7.65 18.85 7.65 10.99"/>
      <path d="M8.65,12.54l6.66,3v5.66l-6.66-3V12.54M7.65,11v7.86l8.66,3.93V14.92L7.65,11Z" style="fill:url(#未命名的渐变_63-7)"/>
      <polygon style="fill:#fcdb88" points="24.98 10.99 16.31 14.92 16.31 22.79 24.98 18.85 24.98 10.99"/>
      <path d="M24,12.54v5.67l-6.67,3V15.57l6.67-3M25,11l-8.67,3.93v7.86L25,18.85V11Z" style="fill:url(#未命名的渐变_63-8)"/>
      <polygon style="fill:#fcdb88" points="16.31 7.06 7.65 10.99 16.31 14.92 24.98 10.99 16.31 7.06"/>
      <path d="M16.31,8.16,22.56,11l-6.25,2.83L10.07,11l6.24-2.83m0-1.1L7.65,11l8.66,3.93L25,11,16.31,7.06Z" style="fill:url(#未命名的渐变_63-9)"/>
    </svg>