<svg id="图层_1" data-name="图层 1" xmlns="http://www.w3.org/2000/svg" viewBox="0 0 40 40" xmlns:xlink="http://www.w3.org/1999/xlink">
      <defs>
        <linearGradient gradientUnits="userSpaceOnUse" id="未命名的渐变_72" x1="10.03" x2="18.34" y2="22.8" y1="29.91">
          <stop offset="0.12" stop-color="#666"/>
          <stop offset="0.56" stop-color="#333"/>
        </linearGradient>
        <linearGradient id="未命名的渐变_72-2" x1="31.88" x2="23.57" y2="22.8" xlink:href="#未命名的渐变_72" y1="29.91"/>
        <linearGradient id="未命名的渐变_72-3" x1="14.42" x2="27.36" y2="21.13" xlink:href="#未命名的渐变_72" y1="21.13"/>
        <linearGradient id="未命名的渐变_72-5" x1="16.73" x2="25.05" y2="21.13" xlink:href="#未命名的渐变_72" y1="21.13"/>
        <linearGradient id="未命名的渐变_72-6" x1="8.64" x2="33.19" y2="14.34" xlink:href="#未命名的渐变_72" y1="14.34"/>
      </defs>
      <rect x="8.72" y="23.23" width="10.93" style="fill:#fff" height="6.25" transform="translate(-13.72 15.54) rotate(-40.52)"/>
      <path style="fill:url(#未命名的渐变_72)" d="M16.2,21.84,19,25.07l-6.79,5.8L9.41,27.64l6.79-5.8m.11-1.41L8,27.53l4.06,4.75,8.31-7.1-4.06-4.75Z"/>
      <rect x="24.72" y="20.89" width="6" style="fill:#fff" height="10.93" transform="translate(-10.32 30.31) rotate(-49.48)"/>
      <path style="fill:url(#未命名的渐变_72-2)" d="M25.63,21.93l6.79,5.8-2.6,3.05L23,25l2.6-3m-.11-1.41-3.9,4.56,8.31,7.11,3.9-4.57-8.31-7.1Z"/>
      <circle cy="21.13" cx="20.89" r="6.47" style="fill:#fff"/>
      <path style="fill:url(#未命名的渐变_72-3)" d="M20.89,15.66a5.47,5.47,0,1,1-5.47,5.47,5.48,5.48,0,0,1,5.47-5.47m0-1a6.47,6.47,0,1,0,6.47,6.47,6.47,6.47,0,0,0-6.47-6.47Z"/>
      <circle cy="21.13" cx="20.89" r="6.47" style="fill:#fff"/>
      <path style="fill:url(#未命名的渐变_72-3)" d="M20.89,15.66a5.47,5.47,0,1,1-5.47,5.47,5.48,5.48,0,0,1,5.47-5.47m0-1a6.47,6.47,0,1,0,6.47,6.47,6.47,6.47,0,0,0-6.47-6.47Z"/>
      <circle cy="21.13" cx="20.89" r="4.16" style="fill:#fff"/>
      <path style="fill:url(#未命名的渐变_72-5)" d="M20.89,18a3.16,3.16,0,1,1-3.16,3.16A3.16,3.16,0,0,1,20.89,18m0-1a4.16,4.16,0,1,0,4.16,4.16A4.17,4.17,0,0,0,20.89,17Z"/>
      <path style="fill:#fff;stroke-miterlimit:10;stroke-width:0.5px;stroke:url(#未命名的渐变_72-6)" d="M32.69,17.37a.86.86,0,0,0-1.22,0l-.12.12a10.3,10.3,0,0,0-20.59.28l-.4-.4a.86.86,0,0,0-1.21,1.21l2.32,2.33,2.32-2.33a.86.86,0,0,0-1.21-1.21l-.05.05a8.56,8.56,0,0,1,17.11.34l-.39-.39A.86.86,0,0,0,28,18.58l2.32,2.33,2.33-2.33A.86.86,0,0,0,32.69,17.37Z"/>
    </svg>