<svg xmlns="http://www.w3.org/2000/svg" data-name="图层 1" id="图层_1" viewBox="0 0 40 40" xmlns:xlink="http://www.w3.org/1999/xlink">
      <defs>
        <linearGradient x1="22.68" y2="19.38" y1="11.39" gradientUnits="userSpaceOnUse" x2="27.29" id="未命名的渐变_72">
          <stop offset="0.12" stop-color="#666"/>
          <stop offset="0.56" stop-color="#333"/>
        </linearGradient>
        <linearGradient x1="26.41" y2="13.06" y1="7.68" x2="29.52" id="未命名的渐变_72-2" xlink:href="#未命名的渐变_72"/>
        <linearGradient x1="30.3" y2="16.01" y1="10.1" x2="33.71" id="未命名的渐变_72-3" xlink:href="#未命名的渐变_72"/>
        <linearGradient x1="12.65" y2="34.61" y1="14.45" x2="24.29" id="未命名的渐变_72-4" xlink:href="#未命名的渐变_72"/>
        <linearGradient x1="20.03" y2="17.2" y1="8.79" x2="24.89" id="未命名的渐变_72-5" xlink:href="#未命名的渐变_72"/>
        <linearGradient x1="27" y2="28.42" y1="14.56" x2="35" id="未命名的渐变_72-6" xlink:href="#未命名的渐变_72"/>
        <linearGradient x1="9.64" y2="34.03" y1="26.05" x2="14.26" id="未命名的渐变_72-7" xlink:href="#未命名的渐变_72"/>
        <linearGradient x1="13.43" y2="26.74" y1="21.31" x2="16.56" id="未命名的渐变_72-8" xlink:href="#未命名的渐变_72"/>
        <linearGradient x1="17.12" y2="30.24" y1="23.83" x2="20.82" id="未命名的渐变_72-9" xlink:href="#未命名的渐变_72"/>
      </defs>
      <rect y="12.38" height="6.02" x="20.97" style="fill:#fff" width="8.02"/>
      <path style="fill:url(#未命名的渐变_72)" d="M28,13.38v4H22v-4h6m1-1H21v6h8v-6Z"/>
      <polygon points="28.97 13.38 20.95 13.38 26.96 7.37 34.98 7.37 28.97 13.38" style="fill:#fff"/>
      <path style="fill:url(#未命名的渐变_72-2)" d="M32.57,8.37l-4,4H23.36l4-4h5.19m2.41-1H27l-6,6h8l6-6Z"/>
      <polygon points="35.01 12.72 29 18.73 29 13.39 35.01 7.38 35.01 12.72" style="fill:#fff"/>
      <path style="fill:url(#未命名的渐变_72-3)" d="M34,9.79V12.3l-4,4V13.81l4-4m1-2.41-6,6v5.34l6-6V7.38Z"/>
      <rect y="16.01" height="17.04" x="9.94" style="fill:#fff" width="17.04"/>
      <path style="fill:url(#未命名的渐变_72-4)" d="M26,17v15h-15V17H26m1-1h-17v17H27V16Z"/>
      <polygon points="26.96 16.01 9.93 16.01 17.95 9.99 34.98 9.99 26.96 16.01" style="fill:#fff"/>
      <path style="fill:url(#未命名的渐变_72-5)" d="M32,11l-5.35,4H12.93l5.36-4H32m3-1H18l-8,6H27l8-6Z"/>
      <polygon points="35.01 27.04 26.99 33.05 26.99 15.95 35.01 9.94 35.01 27.04" style="fill:#fff"/>
      <path style="fill:url(#未命名的渐变_72-6)" d="M34,11.94V26.53l-6,4.52V16.45l6-4.51m1-2-8,6v17.1l8-6V9.94Z"/>
      <rect y="27.03" height="6.02" x="7.94" style="fill:#fff" width="8.02"/>
      <path style="fill:url(#未命名的渐变_72-7)" d="M15,28v4h-6V28h6m1-1h-8v6h8V27Z"/>
      <polygon points="16.05 27.04 7.92 27.04 13.94 21.02 22.07 21.02 16.05 27.04" style="fill:#fff"/>
      <path style="fill:url(#未命名的渐变_72-8)" d="M19.65,22l-4,4H10.34l4-4h5.3m2.41-1H13.94l-6,6h8.13l6-6Z"/>
      <polygon points="21.98 27.04 15.96 33.05 15.96 27.04 21.98 21.02 21.98 27.04" style="fill:#fff"/>
      <path style="fill:url(#未命名的渐变_72-9)" d="M21,23.43v3.19l-4,4V27.45l4-4M22,21l-6,6v6l6-6V21Z"/>
    </svg>