<svg id="图层_1" viewBox="0 0 40 40" data-name="图层 1" xmlns="http://www.w3.org/2000/svg" xmlns:xlink="http://www.w3.org/1999/xlink">
      <defs>
        <linearGradient x1="13.57" id="未命名的渐变_72" y2="27.5" y1="13.04" x2="28.03" gradientUnits="userSpaceOnUse">
          <stop stop-color="#666" offset="0.12"/>
          <stop stop-color="#333" offset="0.56"/>
        </linearGradient>
        <linearGradient x1="17.7" id="未命名的渐变_72-2" y2="23.36" y1="17.17" x2="23.9" xlink:href="#未命名的渐变_72"/>
        <linearGradient x1="14.12" id="未命名的渐变_72-3" y2="26.95" y1="13.59" x2="27.48" xlink:href="#未命名的渐变_72"/>
      </defs>
      <path d="M20.8,11a9.23,9.23,0,1,1-9.22,9.23A9.23,9.23,0,0,1,20.8,11m0-1A10.23,10.23,0,1,0,31,20.27,10.23,10.23,0,0,0,20.8,10Z" style="fill:url(#未命名的渐变_72)"/>
      <path d="M20.8,16.89a3.38,3.38,0,1,1-3.38,3.38,3.38,3.38,0,0,1,3.38-3.38m0-1a4.38,4.38,0,1,0,4.38,4.38,4.38,4.38,0,0,0-4.38-4.38Z" style="fill:url(#未命名的渐变_72-2)"/>
      <line x1="8.15" y2="20.27" y1="20.27" x2="33.46" style="fill:none;stroke-linecap:round;stroke-miterlimit:10;stroke:url(#未命名的渐变_72-3)"/>
      <line x1="20.8" y2="32.92" y1="7.61" x2="20.8" style="fill:none;stroke-linecap:round;stroke-miterlimit:10;stroke:url(#未命名的渐变_72-3)"/>
    </svg>