<svg xmlns:xlink="http://www.w3.org/1999/xlink" data-name="图层 1" viewBox="0 0 40 40" id="图层_1" xmlns="http://www.w3.org/2000/svg">
      <defs>
        <linearGradient x1="8.18" x2="20.12" gradientUnits="userSpaceOnUse" id="未命名的渐变_12" y2="23.15" y1="23.15">
          <stop offset="0.06" stop-color="#fff"/>
          <stop offset="0.95" stop-color="#b3b3b3"/>
        </linearGradient>
        <linearGradient x1="21.12" x2="33.07" xlink:href="#未命名的渐变_12" id="未命名的渐变_12-2" y2="23.15" y1="23.15"/>
        <linearGradient x1="8.79" x2="32.45" xlink:href="#未命名的渐变_12" id="未命名的渐变_12-3" y2="13.44" y1="13.44"/>
      </defs>
      <polygon style="fill:url(#未命名的渐变_12)" points="8.18 26.08 8.18 14.25 20.12 20.23 20.12 32.05 8.18 26.08"/>
      <path d="M8.67,15.06l11,5.47V31.24l-11-5.47V15.06m-1-1.62v13l13,6.47V19.92L7.67,13.44Z" style="fill:#333"/>
      <polygon style="fill:url(#未命名的渐变_12-2)" points="21.12 20.23 33.07 14.25 33.07 26.08 21.12 32.05 21.12 20.23"/>
      <path d="M32.57,15.06V25.77L21.62,31.24V20.53l11-5.47m1-1.62L20.62,19.92V32.86l13-6.47V13.44Z" style="fill:#333"/>
      <polygon style="fill:url(#未命名的渐变_12-3)" points="8.79 13.44 20.62 7.53 32.45 13.44 20.62 19.36 8.79 13.44"/>
      <path d="M20.62,8.09l10.71,5.35L20.62,18.8,9.91,13.44,20.62,8.09m0-1.12L7.67,13.44l13,6.48,13-6.48L20.62,7Z" style="fill:#333"/>
    </svg>