<svg xmlns="http://www.w3.org/2000/svg" data-name="图层 1" id="图层_1" viewBox="0 0 40 40" xmlns:xlink="http://www.w3.org/1999/xlink">
      <defs>
        <linearGradient x1="26.72" y2="26.17" y1="29.85" gradientUnits="userSpaceOnUse" x2="30.41" id="未命名的渐变_72">
          <stop offset="0.12" stop-color="#666"/>
          <stop offset="0.56" stop-color="#333"/>
        </linearGradient>
        <linearGradient x1="10.5" y2="23.95" y1="26.9" x2="13.45" id="未命名的渐变_72-2" xlink:href="#未命名的渐变_72"/>
        <linearGradient x1="24.51" y2="9.94" y1="12.89" x2="27.46" id="未命名的渐变_72-3" xlink:href="#未命名的渐变_72"/>
        <linearGradient x1="14.56" y2="14" y1="26.54" x2="27.09" id="未命名的渐变_72-4" xlink:href="#未命名的渐变_72"/>
        <linearGradient x1="16.4" y2="15.84" y1="21.01" x2="21.56" id="未命名的渐变_72-5" xlink:href="#未命名的渐变_72"/>
        <linearGradient x1="11.24" y2="10.68" y1="14.37" x2="14.93" id="未命名的渐变_72-6" xlink:href="#未命名的渐变_72"/>
      </defs>
      <rect y="23.32" height="9.39" transform="translate(-11.44 28.4) rotate(-45)" x="25.96" style="fill:#fff" width="5.21"/>
      <path style="fill:url(#未命名的渐变_72)" d="M27.09,24.26l5.23,5.23L30,31.76l-5.22-5.22,2.27-2.28m0-1.41-3.68,3.69L30,33.17l3.69-3.68-6.64-6.64Z"/>
      <path style="fill:#fff" d="M15.29,25.8,13.06,28a1,1,0,0,1-1.43,0L9.38,25.78a1,1,0,0,1,0-1.44l2.23-2.23Z"/>
      <path style="fill:url(#未命名的渐变_72-2)" d="M11.61,23.53l2.27,2.26-1.55,1.53-2.25-2.27,1.53-1.52m0-1.42L9.38,24.34a1,1,0,0,0,0,1.44L11.63,28a1,1,0,0,0,.71.3,1,1,0,0,0,.72-.3l2.23-2.23-3.68-3.69Z"/>
      <path style="fill:#fff" d="M28.56,12.54l-2.2,2.2-3.69-3.69,2.2-2.2a1.07,1.07,0,0,1,1.5,0L28.56,11A1.07,1.07,0,0,1,28.56,12.54Z"/>
      <path style="fill:url(#未命名的渐变_72-3)" d="M25.62,9.54l0,0,2.19,2.19a.06.06,0,0,1,0,.08l-1.5,1.49-2.27-2.27,1.5-1.49s0,0,0,0m0-1a1.05,1.05,0,0,0-.75.31l-2.2,2.2,3.68,3.69,2.21-2.2a1.07,1.07,0,0,0,0-1.5L26.37,8.85a1.05,1.05,0,0,0-.75-.31Z"/>
      <path style="fill:#fff" d="M18.24,12.52l5.05,5.05a2.25,2.25,0,0,1,0,3.18l-2,2a2.25,2.25,0,0,1-3.18,0l-5-5L9.39,21.37,16.06,28a5.18,5.18,0,0,0,7.32,0l5.22-5.22a5.18,5.18,0,0,0,0-7.32L21.93,8.84Z"/>
      <path style="fill:url(#未命名的渐变_72-4)" d="M21.93,10.25l6,6a4.17,4.17,0,0,1,0,5.9l-5.22,5.22a4.18,4.18,0,0,1-5.9,0l-6-6,2.27-2.27,4.34,4.34a3.26,3.26,0,0,0,4.6,0l2-2a3.27,3.27,0,0,0,0-4.6l-4.34-4.34,2.27-2.27m0-1.41-3.69,3.68,5.05,5.05a2.25,2.25,0,0,1,0,3.18l-2,2a2.25,2.25,0,0,1-3.18,0l-5-5L9.39,21.37,16.06,28a5.19,5.19,0,0,0,7.32,0l5.22-5.22a5.18,5.18,0,0,0,0-7.32L21.93,8.84Z"/>
      <path style="fill:#fff" d="M23.27,20.77l-1.94,1.94a2.28,2.28,0,0,1-3.22,0l-5-5,5.16-5.17,5,5A2.28,2.28,0,0,1,23.27,20.77Z"/>
      <path style="fill:url(#未命名的渐变_72-5)" d="M18.24,13.94l4.32,4.32a1.27,1.27,0,0,1,.38.9,1.31,1.31,0,0,1-.38.91L20.62,22a1.23,1.23,0,0,1-.9.38,1.25,1.25,0,0,1-.91-.38L14.5,17.69l3.74-3.75m0-1.42-5.16,5.17,5,5a2.27,2.27,0,0,0,3.22,0l1.94-1.94a2.28,2.28,0,0,0,0-3.22l-5-5Z"/>
      <rect y="7.83" height="9.39" transform="translate(-5.02 12.92) rotate(-45)" x="10.47" style="fill:#fff" width="5.21"/>
      <path style="fill:url(#未命名的渐变_72-6)" d="M11.61,8.78,16.83,14l-2.27,2.27L9.33,11.05l2.28-2.27m0-1.42L7.92,11.05l6.64,6.64L18.24,14,11.61,7.36Z"/>
    </svg>