<svg data-name="图层 1" viewBox="0 0 40 40" xmlns:xlink="http://www.w3.org/1999/xlink" id="图层_1" xmlns="http://www.w3.org/2000/svg">
      <defs>
        <linearGradient gradientUnits="userSpaceOnUse" y1="22.18" x1="7.21" x2="33.48" y2="22.18" id="未命名的渐变_72">
          <stop stop-color="#666" offset="0.12"/>
          <stop stop-color="#333" offset="0.56"/>
        </linearGradient>
        <radialGradient cx="20.35" gradientUnits="userSpaceOnUse" cy="11.36" r="4.15" id="未命名的渐变_47">
          <stop stop-color="#f2f2f2" offset="0"/>
          <stop stop-color="#b3b3b3" offset="0.92"/>
        </radialGradient>
        <linearGradient xlink:href="#未命名的渐变_72" y1="11.36" x1="16.2" x2="24.5" y2="11.36" id="未命名的渐变_72-2"/>
        <linearGradient xlink:href="#未命名的渐变_72" y1="21.93" x1="19.85" x2="20.85" y2="21.93" id="未命名的渐变_72-3"/>
        <linearGradient xlink:href="#未命名的渐变_72" y1="18.54" x1="19.85" x2="20.85" y2="18.54" id="未命名的渐变_72-4"/>
        <linearGradient xlink:href="#未命名的渐变_72" y1="15.72" x1="19.85" x2="20.85" y2="15.72" id="未命名的渐变_72-5"/>
      </defs>
      <ellipse ry="10.82" style="fill:#ededed" cx="20.35" cy="22.18" rx="13.14"/>
      <path style="fill:url(#未命名的渐变_72)" d="M20.35,12.36c6.69,0,12.13,4.4,12.13,9.82S27,32,20.35,32,8.21,27.59,8.21,22.18s5.44-9.82,12.14-9.82m0-1c-7.26,0-13.14,4.84-13.14,10.82S13.09,33,20.35,33s13.13-4.84,13.13-10.82S27.6,11.36,20.35,11.36Z"/>
      <circle style="fill:url(#未命名的渐变_47)" cx="20.35" cy="11.36" r="4.15"/>
      <path style="fill:url(#未命名的渐变_72-2)" d="M20.35,8.21a3.15,3.15,0,1,1-3.15,3.15,3.16,3.16,0,0,1,3.15-3.15m0-1a4.15,4.15,0,1,0,4.15,4.15,4.15,4.15,0,0,0-4.15-4.15Z"/>
      <line style="fill:none;stroke-miterlimit:10;stroke:url(#未命名的渐变_72-3)" y1="22.18" x1="20.35" x2="20.35" y2="21.68"/>
      <line style="fill:none;stroke-miterlimit:10;stroke-dasharray:1.1410685777664185,1.1410685777664185;stroke:url(#未命名的渐变_72-4)" y1="20.54" x1="20.35" x2="20.35" y2="16.54"/>
      <line style="fill:none;stroke-miterlimit:10;stroke:url(#未命名的渐变_72-5)" y1="15.97" x1="20.35" x2="20.35" y2="15.47"/>
    </svg>