<svg xmlns:xlink="http://www.w3.org/1999/xlink" data-name="图层 1" viewBox="0 0 40 40" id="图层_1" xmlns="http://www.w3.org/2000/svg">
      <defs>
        <linearGradient x1="7.88" x2="17.36" gradientUnits="userSpaceOnUse" id="未命名的渐变_72" y2="12.18" y1="12.18">
          <stop offset="0.12" stop-color="#666"/>
          <stop offset="0.56" stop-color="#333"/>
        </linearGradient>
        <linearGradient x1="11.77" x2="30.54" xlink:href="#未命名的渐变_72" id="未命名的渐变_72-2" y2="12.28" y1="31.05"/>
        <linearGradient x1="11.15" x2="13.92" xlink:href="#未命名的渐变_72" id="未命名的渐变_72-3" y2="26.33" y1="26.33"/>
        <linearGradient x1="15.27" x2="18.03" xlink:href="#未命名的渐变_72" id="未命名的渐变_72-4" y2="22.21" y1="22.21"/>
        <linearGradient x1="19.38" x2="22.15" xlink:href="#未命名的渐变_72" id="未命名的渐变_72-5" y2="18.1" y1="18.1"/>
        <linearGradient x1="23.31" x2="26.08" xlink:href="#未命名的渐变_72" id="未命名的渐变_72-6" y2="14.16" y1="14.16"/>
      </defs>
      <circle style="fill:#fff" r="4.74" cx="12.62" cy="12.18"/>
      <path d="M12.62,8.45a3.74,3.74,0,1,1-3.74,3.73,3.74,3.74,0,0,1,3.74-3.73m0-1a4.74,4.74,0,1,0,4.74,4.73,4.74,4.74,0,0,0-4.74-4.73Z" style="fill:url(#未命名的渐变_72)"/>
      <rect style="fill:#fff" height="9.48" width="26.54" x="7.88" rx="0.62" transform="translate(-9.12 21.3) rotate(-45)" y="16.93"/>
      <path d="M27.19,10.34l5.28,5.29L15.12,33,9.83,27.7,27.19,10.34m0-1.15a.66.66,0,0,0-.45.18L8.86,27.26a.61.61,0,0,0,0,.88L14.68,34a.63.63,0,0,0,.88,0L33.45,16.07a.63.63,0,0,0,0-.88L27.63,9.37a.66.66,0,0,0-.44-.18Z" style="fill:url(#未命名的渐变_72-2)"/>
      <line x1="11.51" x2="13.56" style="fill:#fff;stroke-miterlimit:10;stroke:url(#未命名的渐变_72-3)" y2="27.35" y1="25.3"/>
      <line x1="15.62" x2="17.68" style="fill:#fff;stroke-miterlimit:10;stroke:url(#未命名的渐变_72-4)" y2="23.24" y1="21.18"/>
      <line x1="19.73" x2="21.79" style="fill:#fff;stroke-miterlimit:10;stroke:url(#未命名的渐变_72-5)" y2="19.12" y1="17.07"/>
      <line x1="23.67" x2="25.72" style="fill:#fff;stroke-miterlimit:10;stroke:url(#未命名的渐变_72-6)" y2="15.19" y1="13.13"/>
      <path d="M27.19,10.34l5.28,5.29L15.12,33,9.83,27.7,27.19,10.34m0-1.15a.66.66,0,0,0-.45.18L8.86,27.26a.61.61,0,0,0,0,.88L14.68,34a.63.63,0,0,0,.88,0L33.45,16.07a.63.63,0,0,0,0-.88L27.63,9.37a.66.66,0,0,0-.44-.18Z" style="fill:url(#未命名的渐变_72-2)"/>
    </svg>