<svg xmlns="http://www.w3.org/2000/svg" data-name="图层 1" id="图层_1" viewBox="0 0 40 40" xmlns:xlink="http://www.w3.org/1999/xlink">
      <defs>
        <linearGradient x1="18.45" y2="21.47" y1="21.47" gradientUnits="userSpaceOnUse" x2="26.06" id="未命名的渐变_72">
          <stop offset="0.12" stop-color="#666"/>
          <stop offset="0.56" stop-color="#333"/>
        </linearGradient>
        <linearGradient x1="12.61" y2="11.73" y1="16.54" gradientUnits="userSpaceOnUse" x2="16.5" id="未命名的渐变_30">
          <stop offset="0.07" stop-color="#fef7e4"/>
          <stop offset="0.94" stop-color="#f4c326"/>
        </linearGradient>
        <linearGradient x1="10.36" y2="13.92" y1="13.92" gradientUnits="userSpaceOnUse" x2="18.07" id="未命名的渐变_63">
          <stop offset="0.12" stop-color="#d49a00"/>
          <stop offset="0.81" stop-color="#916306"/>
        </linearGradient>
        <linearGradient x1="-7009.25" y2="-1618.37" y1="-1614.91" gradientUnits="userSpaceOnUse" x2="-7006.45" id="未命名的渐变_32" gradientTransform="matrix(0, 0.48, -1, 0, -1607.18, 3365.4)">
          <stop stop-opacity="0" offset="0.07" stop-color="#fef7e4"/>
          <stop offset="0.94" stop-color="#f4c326"/>
        </linearGradient>
        <linearGradient x1="7.64" y2="9.17" y1="9.17" gradientUnits="userSpaceOnUse" x2="11.29" id="未命名的渐变_43">
          <stop stop-opacity="0" offset="0.12" stop-color="#d49a00"/>
          <stop offset="0.81" stop-color="#bd8703"/>
        </linearGradient>
        <linearGradient x1="18.49" y2="18.57" y1="33.56" x2="30.63" id="未命名的渐变_43-2" xlink:href="#未命名的渐变_43"/>
        <linearGradient x1="26.62" y2="15.89" y1="15.89" x2="33.67" id="未命名的渐变_30-2" xlink:href="#未命名的渐变_30"/>
        <linearGradient x1="27.75" y2="11.87" y1="18.64" x2="33.23" id="未命名的渐变_63-2" xlink:href="#未命名的渐变_63"/>
        <linearGradient x1="16.91" y2="20.41" y1="34.29" x2="30.79" id="未命名的渐变_32-2" xlink:href="#未命名的渐变_32" gradientTransform="matrix(1, 0, 0, 1, 0, 0)"/>
      </defs>
      <circle r="3.8" cx="22.26" cy="21.47" style="fill:#fff"/>
      <path style="fill:url(#未命名的渐变_72)" d="M22.26,18.67a2.8,2.8,0,1,1-2.81,2.8,2.8,2.8,0,0,1,2.81-2.8m0-1a3.8,3.8,0,1,0,3.8,3.8,3.81,3.81,0,0,0-3.8-3.8Z"/>
      <polygon points="17.72 17.42 16.11 11.41 14.54 12.98 11.98 10.42 10.71 11.69 13.28 14.25 11.71 15.81 17.72 17.42" style="fill:url(#未命名的渐变_30)"/>
      <path style="fill:url(#未命名的渐变_63)" d="M12,10.42,14.54,13l1.57-1.57,1.61,6-6-1.61,1.57-1.56-2.57-2.57L12,10.42m0-.36-.17.18-1.27,1.27-.18.17.18.18,2.38,2.39-1.39,1.38-.3.31.42.11,6,1.61.42.11L18,17.35l-1.61-6-.11-.42-.31.31-1.39,1.38-2.38-2.38L12,10.06Z"/>
      <rect y="8.03" height="2.28" transform="translate(-3.71 9.38) rotate(-45)" x="8.52" style="fill:url(#未命名的渐变_32)" width="1.89"/>
      <path style="fill:url(#未命名的渐变_43)" d="M9.33,7.7l1.61,1.61L9.6,10.64,8,9,9.33,7.7m0-.36-.18.18L7.82,8.85,7.64,9l.18.18,1.61,1.61L9.6,11l.18-.17,1.33-1.34.18-.17-.18-.18L9.5,7.52l-.17-.18Z"/>
      <path style="fill:url(#未命名的渐变_43-2)" d="M33.65,21.47a11.71,11.71,0,0,1-20,7.78L15,28a9.87,9.87,0,0,0,16.87-6.51h1.83m.26-.25H31.58v.24A9.64,9.64,0,0,1,15.12,27.8L15,27.62l-.18.18-1.28,1.27-.17.18.17.18A12,12,0,0,0,33.9,21.48v-.26Z"/>
      <path style="fill:url(#未命名的渐变_30-2)" d="M33.66,21.46A11.61,11.61,0,0,0,31,13.55l1.63-1.63-6-1.61,1.61,6,1.48-1.48A9.83,9.83,0,0,1,31.87,21c0,.17,0,.33-.05.5h1.84Z"/>
      <path style="fill:url(#未命名的渐变_63-2)" d="M26.62,10.31l6,1.61L31,13.55a11.61,11.61,0,0,1,2.64,7.91H31.82c0-.17.05-.33.05-.5a9.83,9.83,0,0,0-2.16-6.11l-1.48,1.48-1.61-6M26.26,10l.11.42,1.62,6,.11.42.31-.31,1.27-1.27A9.5,9.5,0,0,1,31.62,21a1.94,1.94,0,0,1,0,.24,1.9,1.9,0,0,0,0,.25v.26h2.19l.07-.07.07-.07,0-.11a12,12,0,0,0-2.55-7.91l1.46-1.46.31-.31-.42-.11-6-1.62L26.26,10Z"/>
      <path style="fill:url(#未命名的渐变_32-2)" d="M22,30.88A9.85,9.85,0,0,1,15,28l-1.28,1.27a11.71,11.71,0,0,0,20-7.78H31.82A9.85,9.85,0,0,1,22,30.88Z"/>
    </svg>