<svg xmlns:xlink="http://www.w3.org/1999/xlink" data-name="图层 1" viewBox="0 0 40 40" id="图层_1" xmlns="http://www.w3.org/2000/svg">
      <defs>
        <linearGradient x1="7.87" x2="33.87" gradientUnits="userSpaceOnUse" id="未命名的渐变_22" y2="20.32" y1="20.32">
          <stop offset="0.12" stop-color="#666"/>
          <stop offset="0.9" stop-color="#333"/>
        </linearGradient>
      </defs>
      <path d="M17.05,7.49A1.25,1.25,0,0,1,17.7,8.7v1.86a.82.82,0,0,0,.28.62l5.83,5a3.26,3.26,0,0,0,1.92.77l2.84.17a1.78,1.78,0,0,1,1.07.45,1.2,1.2,0,0,1,.4.77v.1a1.11,1.11,0,0,1-.33.78h0L25.89,23l7.92,10.29.06.08-.08-.06L23.5,25.34l-3.76,3.82h0a1.11,1.11,0,0,1-.88.33,1.25,1.25,0,0,1-.77-.4A1.75,1.75,0,0,1,17.63,28l-.17-2.83a3.3,3.3,0,0,0-.77-1.92l-5-5.83a.82.82,0,0,0-.62-.28H9.45A1.31,1.31,0,0,1,8,16.5a1.43,1.43,0,0,1,.26-1.7h0l3.53-3.5v0l3.51-3.53h0a1.43,1.43,0,0,1,1.7-.26Z" style="fill:url(#未命名的渐变_22)"/>
    </svg>