<svg xmlns:xlink="http://www.w3.org/1999/xlink" data-name="图层 1" viewBox="0 0 40 40" id="图层_1" xmlns="http://www.w3.org/2000/svg">
      <defs>
        <linearGradient x1="7.87" x2="33.87" gradientUnits="userSpaceOnUse" id="未命名的渐变_22" y2="20.32" y1="20.32">
          <stop offset="0.12" stop-color="#666"/>
          <stop offset="0.9" stop-color="#333"/>
        </linearGradient>
      </defs>
      <path d="M17.05,7.49A1.25,1.25,0,0,1,17.7,8.7v1.86a.82.82,0,0,0,.28.62l5.83,5a3.26,3.26,0,0,0,1.92.77l2.84.17a1.78,1.78,0,0,1,1.07.45,1.2,1.2,0,0,1,.4.77v.1a1.11,1.11,0,0,1-.33.78h0L25.89,23l7.92,10.29.06.08-.08-.06L23.5,25.34l-3.76,3.82h0a1.11,1.11,0,0,1-.88.33,1.25,1.25,0,0,1-.77-.4A1.75,1.75,0,0,1,17.63,28l-.17-2.83a3.3,3.3,0,0,0-.77-1.92l-5-5.83a.82.82,0,0,0-.62-.28H9.45A1.31,1.31,0,0,1,8,16.5a1.43,1.43,0,0,1,.26-1.7h0l3.53-3.5v0l3.51-3.53h0a1.43,1.43,0,0,1,1.7-.26Z" style="fill:#fff"/>
      <path d="M16.38,8.32a.49.49,0,0,1,.2,0c.05,0,.12.07.12.33v1.86a1.82,1.82,0,0,0,.63,1.38l5.83,5a4.36,4.36,0,0,0,2.51,1l2.83.17a.68.68,0,0,1,.45.18c.09.08.09.12.09.14a.16.16,0,0,1,0,.08l-3.82,3.76-.63.62.54.7,3.31,4.3-4.3-3.31-.7-.54-.62.63L19,28.45a.09.09,0,0,1-.07,0h0c-.05,0-.12-.07-.14-.09a.68.68,0,0,1-.18-.45l-.17-2.83a4.36,4.36,0,0,0-1-2.51l-5-5.82a1.81,1.81,0,0,0-1.38-.64H9.25c-.26,0-.3-.07-.33-.12a.46.46,0,0,1-.05-.2A.46.46,0,0,1,9,15.51L12.55,12l3.51-3.52a.43.43,0,0,1,.32-.14m0-1a1.45,1.45,0,0,0-1,.43h0l-3.51,3.53v0L8.3,14.8h0A1.43,1.43,0,0,0,8,16.5a1.26,1.26,0,0,0,1.21.65h1.86a.82.82,0,0,1,.62.28l5,5.83a3.3,3.3,0,0,1,.77,1.92L17.63,28a1.75,1.75,0,0,0,.45,1.08,1.25,1.25,0,0,0,.77.4H19a1.11,1.11,0,0,0,.78-.33h0l3.76-3.82,10.29,7.92.08.06-.06-.08L25.89,23l3.82-3.76h0A1.11,1.11,0,0,0,30,18.4v-.1a1.2,1.2,0,0,0-.4-.77,1.78,1.78,0,0,0-1.07-.45l-2.84-.17a3.26,3.26,0,0,1-1.92-.77l-5.83-5a.82.82,0,0,1-.28-.62V8.7a1.25,1.25,0,0,0-.65-1.21,1.45,1.45,0,0,0-.67-.17Z" style="fill:url(#未命名的渐变_22)"/>
    </svg>