<svg xmlns="http://www.w3.org/2000/svg" data-name="图层 1" id="图层_1" viewBox="0 0 40 40" xmlns:xlink="http://www.w3.org/1999/xlink">
      <defs>
        <linearGradient x1="7.88" y2="20.32" y1="20.32" gradientUnits="userSpaceOnUse" x2="33.86" id="未命名的渐变_22">
          <stop offset="0.12" stop-color="#666"/>
          <stop offset="0.9" stop-color="#333"/>
        </linearGradient>
      </defs>
      <path style="fill:#fff" d="M23.6,19.59a.81.81,0,0,1,.46.14l8.45,6a.8.8,0,0,1,.19,1.11,1,1,0,0,1-.18.17l-8.45,6.26a.78.78,0,0,1-1.1-.16.81.81,0,0,1-.16-.47v-4H15.9q-7.38,0-8-7.3c.43.45,2.3,3.09,8,3.09q5.73,0,6.91-.13V20.38a.79.79,0,0,1,.79-.79Zm-4.83-12a.81.81,0,0,1,.16.47v4h6.9q7.4,0,8,7.3c-.43-.45-2.3-3.09-8-3.09q-5.71,0-6.9.13v3.86a.79.79,0,0,1-.79.79.81.81,0,0,1-.46-.14l-8.45-6A.8.8,0,0,1,9,13.83l.17-.17L17.67,7.4a.78.78,0,0,1,1.1.16Z"/>
      <path style="fill:url(#未命名的渐变_22)" d="M17.93,8.45v4.61h8c3.34,0,5.41,1.19,6.37,3.71a12.71,12.71,0,0,0-6.46-1.5c-3.88,0-6.18,0-7,.13l-.89.1v4.35L10,14.29l7.89-5.84m5.88,12.33,7.89,5.57-7.89,5.84V27.58h-8c-3.34,0-5.42-1.19-6.37-3.71a12.69,12.69,0,0,0,6.45,1.5c3.89,0,6.19,0,7-.14l.89-.09V20.78M18.13,7.24a.74.74,0,0,0-.46.16L9.21,13.66,9,13.83a.8.8,0,0,0,.19,1.11l8.45,6a.81.81,0,0,0,.46.14.79.79,0,0,0,.79-.79V16.4q1.18-.13,6.9-.13c5.73,0,7.6,2.64,8,3.09q-.63-7.3-7.94-7.3h-7V8a.81.81,0,0,0-.16-.47h0a.78.78,0,0,0-.64-.32ZM23.6,19.59h0a.79.79,0,0,0-.79.79v3.86q-1.18.14-6.91.13c-5.72,0-7.59-2.64-8-3.09q.63,7.3,7.94,7.3h7v4a.81.81,0,0,0,.16.47.77.77,0,0,0,.63.32.74.74,0,0,0,.47-.16L32.53,27a1.37,1.37,0,0,0,.17-.17.8.8,0,0,0-.19-1.11l-8.45-6a.81.81,0,0,0-.46-.14Z"/>
    </svg>