<svg xmlns:xlink="http://www.w3.org/1999/xlink" data-name="图层 1" viewBox="0 0 40 40" id="图层_1" xmlns="http://www.w3.org/2000/svg">
      <defs>
        <linearGradient x1="11.47" x2="29.78" gradientUnits="userSpaceOnUse" id="未命名的渐变_72" y2="29.11" y1="10.8">
          <stop offset="0.12" stop-color="#666"/>
          <stop offset="0.56" stop-color="#333"/>
        </linearGradient>
        <linearGradient x1="16.24" x2="25.22" xlink:href="#未命名的渐变_72" id="未命名的渐变_72-2" y2="20" y1="20"/>
      </defs>
      <circle style="fill:#fff" r="12.95" cx="20.62" cy="19.96"/>
      <path d="M20.62,8a11.95,11.95,0,1,1-12,12,12,12,0,0,1,12-12m0-1a12.95,12.95,0,1,0,13,13A13,13,0,0,0,20.62,7Z" style="fill:url(#未命名的渐变_72)"/>
      <path d="M24,13.91a3.55,3.55,0,0,1,1.18,2.82,3.92,3.92,0,0,1-.73,2.41c-.18.19-.74.72-1.69,1.55a3,3,0,0,0-.78,1,2.72,2.72,0,0,1-.92,1.27v.37H19.18v-.37c.29-.74.41-1.39.68-1.92a10.76,10.76,0,0,1,2.3-2.49l.23-.27a2.15,2.15,0,0,0,.53-1.39,1.91,1.91,0,0,0-2.12-2.08,2,2,0,0,0-1.84.8,3.29,3.29,0,0,0-.49,2H16.24a4.54,4.54,0,0,1,1.27-3.46,4.69,4.69,0,0,1,3.43-1.23A4.44,4.44,0,0,1,24,13.91ZM21.69,24.59a1.45,1.45,0,0,1,.43,1.06,1.42,1.42,0,0,1-.45,1.07,1.51,1.51,0,0,1-1.08.42,1.53,1.53,0,0,1-1.08-.44,1.51,1.51,0,0,1,0-2.11,1.5,1.5,0,0,1,1.08-.41A1.55,1.55,0,0,1,21.69,24.59Z" style="fill:url(#未命名的渐变_72-2)"/>
    </svg>