<svg xmlns="http://www.w3.org/2000/svg" data-name="图层 1" id="图层_1" viewBox="0 0 40 40" xmlns:xlink="http://www.w3.org/1999/xlink">
      <defs>
        <linearGradient x1="8.23" y2="32.53" y1="7.7" gradientUnits="userSpaceOnUse" x2="33.06" id="未命名的渐变_72">
          <stop offset="0.12" stop-color="#666"/>
          <stop offset="0.56" stop-color="#333"/>
        </linearGradient>
        <linearGradient x1="-1241.4" y2="1049.31" y1="1049.31" gradientUnits="userSpaceOnUse" x2="-1222.92" id="未命名的渐变_89" gradientTransform="translate(1069.45 1252.55) rotate(90)">
          <stop offset="0.01" stop-color="#d4ffec"/>
          <stop offset="1" stop-color="#a1ddaa"/>
        </linearGradient>
        <linearGradient x1="-1241.98" y2="1049.31" y1="1049.31" gradientUnits="userSpaceOnUse" x2="-1222.35" id="未命名的渐变_102" gradientTransform="translate(1069.45 1252.55) rotate(90)">
          <stop offset="0.01" stop-color="#379e4e"/>
          <stop offset="1" stop-color="#006837"/>
        </linearGradient>
        <linearGradient x1="12.66" y2="17.67" y1="17.67" x2="28.65" id="未命名的渐变_102-2" xlink:href="#未命名的渐变_102" gradientTransform="matrix(1, 0, 0, 1, 0, 0)"/>
        <linearGradient x1="20.65" y2="24.12" y1="24.12" x2="21.65" id="未命名的渐变_102-3" xlink:href="#未命名的渐变_102" gradientTransform="matrix(1, 0, 0, 1, 0, 0)"/>
        <linearGradient x1="13.56" y2="15.73" y1="15.73" gradientUnits="userSpaceOnUse" x2="28.65" id="未命名的渐变_126">
          <stop offset="0.12" stop-color="#0384c5"/>
          <stop offset="0.9" stop-color="#0063b1"/>
        </linearGradient>
        <linearGradient x1="-204.82" y2="356.5" y1="356.5" x2="-189.74" id="未命名的渐变_126-2" xlink:href="#未命名的渐变_126" gradientTransform="translate(-177.09 381) rotate(180)"/>
      </defs>
      <rect y="7.12" height="26" x="7.65" style="fill:#fff" rx="2" width="26"/>
      <path style="fill:url(#未命名的渐变_72)" d="M31.65,8.12a1,1,0,0,1,1,1v22a1,1,0,0,1-1,1h-22a1,1,0,0,1-1-1v-22a1,1,0,0,1,1-1h22m0-1h-22a2,2,0,0,0-2,2v22a2,2,0,0,0,2,2h22a2,2,0,0,0,2-2v-22a2,2,0,0,0-2-2Z"/>
      <g style="opacity:0.17">
        <polygon points="28.15 25 28.15 15.77 20.15 11.15 12.15 15.77 12.15 25 20.15 29.62 28.15 25" style="stroke-miterlimit:10;fill:url(#未命名的渐变_89);stroke:url(#未命名的渐变_102)"/>
        <polyline points="12.88 15.63 20.88 19.59 28.41 15.63" style="fill:none;stroke-miterlimit:10;stroke:url(#未命名的渐变_102-2)"/>
        <line x1="21.15" y2="19.12" y1="29.12" x2="21.15" style="fill:none;stroke-miterlimit:10;stroke:url(#未命名的渐变_102-3)"/>
      </g>
      <polyline points="18.69 13.7 14.77 17.62 28.65 17.62" style="fill:none;stroke-miterlimit:10;stroke:url(#未命名的渐变_126)"/>
      <polyline points="22.61 26.54 26.53 22.62 12.65 22.62" style="fill:none;stroke-miterlimit:10;stroke:url(#未命名的渐变_126-2)"/>
    </svg>