<svg xmlns="http://www.w3.org/2000/svg" data-name="图层 1" id="图层_1" viewBox="0 0 40 40" xmlns:xlink="http://www.w3.org/1999/xlink">
      <defs>
        <radialGradient r="2.26" cx="10.55" gradientUnits="userSpaceOnUse" cy="27.98" id="未命名的渐变_188">
          <stop offset="0.06" stop-color="#fff"/>
          <stop offset="0.95" stop-color="#b3b3b3"/>
        </radialGradient>
        <linearGradient x1="9.61" y2="28.92" y1="27.04" gradientUnits="userSpaceOnUse" x2="11.49" id="未命名的渐变_22">
          <stop offset="0.12" stop-color="#666"/>
          <stop offset="0.9" stop-color="#333"/>
        </linearGradient>
        <radialGradient r="2.08" cx="20.75" cy="10.21" id="未命名的渐变_188-2" xlink:href="#未命名的渐变_188"/>
        <linearGradient x1="19.03" y2="11.93" y1="8.49" x2="22.47" id="未命名的渐变_22-2" xlink:href="#未命名的渐变_22"/>
        <radialGradient r="1.41" cx="32.07" cy="28.7" id="未命名的渐变_188-3" xlink:href="#未命名的渐变_188"/>
        <linearGradient x1="30.61" y2="30.16" y1="27.24" x2="33.53" id="未命名的渐变_22-3" xlink:href="#未命名的渐变_22"/>
        <linearGradient x1="10.94" y2="22.04" y1="22.04" x2="30.56" id="未命名的渐变_22-4" xlink:href="#未命名的渐变_22"/>
        <radialGradient r="3.82" cx="20.75" cy="27.63" id="未命名的渐变_188-4" xlink:href="#未命名的渐变_188" gradientTransform="translate(0 -1.59) scale(1 1.04)"/>
        <linearGradient x1="17.69" y2="30.22" y1="24.11" x2="23.81" id="未命名的渐变_22-5" xlink:href="#未命名的渐变_22"/>
        <linearGradient x1="11.31" y2="19.17" y1="19.17" x2="30.79" id="未命名的渐变_22-6" xlink:href="#未命名的渐变_22"/>
      </defs>
      <line x1="13.32" y2="29.56" y1="26.4" x2="7.77" style="stroke-miterlimit:10;fill:url(#未命名的渐变_188);stroke:url(#未命名的渐变_22)"/>
      <line x1="20.75" y2="13.15" y1="7.27" x2="20.75" style="stroke-miterlimit:10;fill:url(#未命名的渐变_188-2);stroke:url(#未命名的渐变_22-2)"/>
      <line x1="33.77" y2="27.65" y1="29.75" x2="30.36" style="stroke-miterlimit:10;fill:url(#未命名的渐变_188-3);stroke:url(#未命名的渐变_22-3)"/>
      <polygon points="30.56 27.71 30.56 16.38 20.75 10.71 10.94 16.38 10.94 27.71 20.75 33.37 30.56 27.71" style="fill:#fff"/>
      <path style="fill:url(#未命名的渐变_22-4)" d="M20.75,11.87,29.56,17V27.13l-8.81,5.09-8.81-5.09V17l8.81-5.08m0-1.16-9.81,5.67V27.71l9.81,5.66,9.81-5.66V16.38l-9.81-5.67Z"/>
      <line x1="20.75" y2="32.78" y1="21.55" x2="20.75" style="stroke-miterlimit:10;fill:url(#未命名的渐变_188-4);stroke:url(#未命名的渐变_22-5)"/>
      <polyline points="11.54 16.74 20.74 21.55 30.57 16.69" style="fill:none;stroke-miterlimit:10;stroke:url(#未命名的渐变_22-6)"/>
    </svg>