<svg xmlns:xlink="http://www.w3.org/1999/xlink" data-name="图层 1" viewBox="0 0 40 40" id="图层_1" xmlns="http://www.w3.org/2000/svg">
      <defs>
        <linearGradient x1="7.77" x2="33.57" gradientUnits="userSpaceOnUse" id="未命名的渐变_22" y2="19.7" y1="19.7">
          <stop offset="0.12" stop-color="#666"/>
          <stop offset="0.9" stop-color="#333"/>
        </linearGradient>
        <linearGradient x1="13.96" x2="27.38" xlink:href="#未命名的渐变_22" id="未命名的渐变_22-2" y2="21.77" y1="21.77"/>
        <radialGradient r="1.03" gradientUnits="userSpaceOnUse" cx="29.44" id="未命名的渐变_188" cy="16.09">
          <stop offset="0.06" stop-color="#fff"/>
          <stop offset="0.95" stop-color="#b3b3b3"/>
        </radialGradient>
        <linearGradient x1="28.41" x2="30.47" xlink:href="#未命名的渐变_22" id="未命名的渐变_22-3" y2="16.09" y1="16.09"/>
      </defs>
      <path d="M29.8,10.93H27.72l-.44-2a1.24,1.24,0,0,0-1.15-1.05H15.46a1.23,1.23,0,0,0-1.13,1l-.53,2.1H11.53A3.76,3.76,0,0,0,7.77,14.7V27.81a3.76,3.76,0,0,0,3.76,3.76H29.8a3.76,3.76,0,0,0,3.77-3.76V14.7A3.77,3.77,0,0,0,29.8,10.93Z" style="fill:#fff"/>
      <path d="M26.13,8.83s.13.08.17.26l.44,2.05.17.79H29.8a2.77,2.77,0,0,1,2.77,2.77V27.81a2.77,2.77,0,0,1-2.77,2.76H11.53a2.77,2.77,0,0,1-2.76-2.76V14.7a2.77,2.77,0,0,1,2.76-2.77h3.05l.19-.76.53-2.1c0-.17.13-.24.16-.24H26.13m0-1H15.46a1.23,1.23,0,0,0-1.13,1l-.53,2.1H11.53A3.76,3.76,0,0,0,7.77,14.7V27.81a3.76,3.76,0,0,0,3.76,3.76H29.8a3.76,3.76,0,0,0,3.77-3.76V14.7a3.77,3.77,0,0,0-3.77-3.77H27.72l-.44-2a1.24,1.24,0,0,0-1.15-1.05Z" style="fill:url(#未命名的渐变_22)"/>
      <circle style="fill:#fff" r="6.71" cx="20.67" cy="21.77"/>
      <path d="M20.67,16.06A5.71,5.71,0,1,1,15,21.77a5.71,5.71,0,0,1,5.71-5.71m0-1a6.71,6.71,0,1,0,6.71,6.71,6.7,6.7,0,0,0-6.71-6.71Z" style="fill:url(#未命名的渐变_22-2)"/>
      <circle style="fill:url(#未命名的渐变_188)" r="1.03" cx="29.44" cy="16.09"/>
      <path d="M29.44,16.06l0,0h-.06a0,0,0,0,1,0,0m0-1a1,1,0,1,0,1,1,1,1,0,0,0-1-1Z" style="fill:url(#未命名的渐变_22-3)"/>
    </svg>