<svg id="图层_1" xmlns:xlink="http://www.w3.org/1999/xlink" xmlns="http://www.w3.org/2000/svg" viewBox="0 0 40 40" data-name="图层 1">
      <defs>
        <linearGradient id="未命名的渐变_22" y1="20.32" gradientUnits="userSpaceOnUse" x2="33.92" y2="20.32" x1="7.82">
          <stop offset="0.12" stop-color="#666"/>
          <stop offset="0.9" stop-color="#333"/>
        </linearGradient>
        <radialGradient id="未命名的渐变_188" cx="18.94" gradientUnits="userSpaceOnUse" r="5.47" cy="15.97">
          <stop offset="0.06" stop-color="#fff"/>
          <stop offset="0.95" stop-color="#b3b3b3"/>
        </radialGradient>
        <linearGradient id="未命名的渐变_22-2" y1="15.97" x2="19.44" xlink:href="#未命名的渐变_22" y2="15.97" x1="18.44"/>
        <radialGradient id="未命名的渐变_188-2" cx="28.12" r="4.83" xlink:href="#未命名的渐变_188" cy="13.07"/>
        <linearGradient id="未命名的渐变_22-3" y1="13.07" x2="33.31" xlink:href="#未命名的渐变_22" y2="13.07" x1="22.93"/>
        <linearGradient id="未命名的渐变_22-4" y1="27.97" x2="32.96" xlink:href="#未命名的渐变_22" y2="27.97" x1="8.04"/>
        <linearGradient id="未命名的渐变_22-5" y1="25.15" x2="24.25" xlink:href="#未命名的渐变_22" y2="25.15" x1="7.82"/>
      </defs>
      <polygon style="fill:#fff" points="7.82 17.31 17.86 7.27 33.92 7.27 33.92 23.33 23.88 33.37 7.82 33.37 7.82 17.31"/>
      <path style="fill:url(#未命名的渐变_22)" d="M32.92,8.27V22.92l-9.45,9.45H8.82V17.72l9.45-9.45H32.92m1-1H17.86l-10,10V33.37H23.88l10-10V7.27Z"/>
      <line y1="8.23" style="stroke-miterlimit:10;fill:url(#未命名的渐变_188);stroke:url(#未命名的渐变_22-2)" x2="18.94" y2="23.7" x1="18.94"/>
      <line y1="8.23" style="stroke-miterlimit:10;fill:url(#未命名的渐变_188-2);stroke:url(#未命名的渐变_22-3)" x2="23.29" y2="17.9" x1="32.96"/>
      <polyline style="fill:none;stroke-miterlimit:10;stroke:url(#未命名的渐变_22-4)" points="32.95 23.22 19 23.22 8.38 32.85"/>
      <path style="fill:url(#未命名的渐变_22-5)" d="M23.25,17.94V32.37H8.82V17.94H23.25m1-1H7.82V33.37H24.25V16.94Z"/>
    </svg>