<svg xmlns="http://www.w3.org/2000/svg" data-name="图层 1" id="图层_1" viewBox="0 0 40 40" xmlns:xlink="http://www.w3.org/1999/xlink">
      <defs>
        <linearGradient x1="7.77" y2="20.23" y1="20.23" gradientUnits="userSpaceOnUse" x2="33.77" id="未命名的渐变_22">
          <stop offset="0.12" stop-color="#666"/>
          <stop offset="0.9" stop-color="#333"/>
        </linearGradient>
        <radialGradient r="6.13" cx="18.84" gradientUnits="userSpaceOnUse" cy="15.9" id="未命名的渐变_188">
          <stop offset="0.06" stop-color="#fff"/>
          <stop offset="0.95" stop-color="#b3b3b3"/>
        </radialGradient>
        <linearGradient x1="18.34" y2="15.9" y1="15.9" x2="19.34" id="未命名的渐变_22-2" xlink:href="#未命名的渐变_22"/>
        <linearGradient x1="7.76" y2="28.22" y1="28.22" x2="33.67" id="未命名的渐变_22-3" xlink:href="#未命名的渐变_22"/>
        <radialGradient r="4.84" cx="27.97" cy="13.03" id="未命名的渐变_188-2" xlink:href="#未命名的渐变_188"/>
        <linearGradient x1="22.78" y2="13.03" y1="13.03" x2="33.16" id="未命名的渐变_22-4" xlink:href="#未命名的渐变_22"/>
        <linearGradient x1="7.77" y2="25.04" y1="25.04" x2="24.14" id="未命名的渐变_22-5" xlink:href="#未命名的渐变_22"/>
      </defs>
      <polygon points="7.77 17.23 17.77 7.23 33.77 7.23 33.77 23.23 23.77 33.23 7.77 33.23 7.77 17.23" style="fill:#fff"/>
      <path style="fill:url(#未命名的渐变_22)" d="M32.77,8.23V22.81l-9.41,9.42H8.77V17.64l9.42-9.41H32.77m1-1h-16l-10,10v16h16l10-10v-16Z"/>
      <line x1="18.84" y2="24.56" y1="7.23" x2="18.84" style="stroke-miterlimit:10;fill:url(#未命名的渐变_188);stroke:url(#未命名的渐变_22-2)"/>
      <polygon points="7.76 33.23 23.66 33.23 33.67 23.22 18.87 23.22 7.76 33.23" style="fill:url(#未命名的渐变_22-3)"/>
      <line x1="32.81" y2="17.86" y1="8.19" x2="23.13" style="stroke-miterlimit:10;fill:url(#未命名的渐变_188-2);stroke:url(#未命名的渐变_22-4)"/>
      <path style="fill:url(#未命名的渐变_22-5)" d="M23.14,17.86V32.23H8.77V17.86H23.14m1-1H7.77V33.23H24.14V16.86Z"/>
    </svg>