<svg xmlns="http://www.w3.org/2000/svg" data-name="图层 1" id="图层_1" viewBox="0 0 40 40" xmlns:xlink="http://www.w3.org/1999/xlink">
      <defs>
        <linearGradient x1="7.82" y2="19.79" y1="19.79" gradientUnits="userSpaceOnUse" x2="33.93" id="未命名的渐变_22">
          <stop offset="0.12" stop-color="#666"/>
          <stop offset="0.9" stop-color="#333"/>
        </linearGradient>
        <linearGradient x1="16.79" y2="19.79" y1="19.79" x2="24.96" id="未命名的渐变_22-2" xlink:href="#未命名的渐变_22"/>
      </defs>
      <path style="fill:#fff" d="M20.87,12c-7.83,0-13,7.84-13,7.84S13,27.62,20.87,27.62s13.06-7.83,13.06-7.83S28.71,12,20.87,12Z"/>
      <path style="fill:url(#未命名的渐变_22)" d="M20.87,13c6,0,10.49,5.12,11.82,6.84-1.33,1.72-5.8,6.83-11.82,6.83S10.39,21.51,9.06,19.79C10.39,18.07,14.86,13,20.87,13m0-1c-7.83,0-13,7.84-13,7.84S13,27.62,20.87,27.62s13.06-7.83,13.06-7.83S28.71,12,20.87,12Z"/>
      <circle r="4.08" cx="20.87" cy="19.79" style="fill:#fff"/>
      <path style="fill:url(#未命名的渐变_22-2)" d="M20.87,16.71a3.08,3.08,0,1,1-3.08,3.08,3.09,3.09,0,0,1,3.08-3.08m0-1A4.08,4.08,0,1,0,25,19.79a4.08,4.08,0,0,0-4.09-4.08Z"/>
    </svg>