<svg xmlns="http://www.w3.org/2000/svg" data-name="图层 1" id="图层_1" viewBox="0 0 40 40" xmlns:xlink="http://www.w3.org/1999/xlink">
      <defs>
        <linearGradient x1="7.77" y2="20.25" y1="20.25" gradientUnits="userSpaceOnUse" x2="33.73" id="未命名的渐变_22">
          <stop offset="0.12" stop-color="#666"/>
          <stop offset="0.9" stop-color="#333"/>
        </linearGradient>
        <linearGradient x1="7.99" y2="27.86" y1="27.86" x2="32.77" id="未命名的渐变_22-2" xlink:href="#未命名的渐变_22"/>
        <radialGradient r="5.44" cx="18.83" gradientUnits="userSpaceOnUse" cy="15.92" id="未命名的渐变_188">
          <stop offset="0.06" stop-color="#fff"/>
          <stop offset="0.95" stop-color="#b3b3b3"/>
        </radialGradient>
        <linearGradient x1="18.33" y2="15.92" y1="15.92" x2="19.33" id="未命名的渐变_22-3" xlink:href="#未命名的渐变_22"/>
        <linearGradient x1="7.77" y2="25.06" y1="25.06" x2="24.12" id="未命名的渐变_22-4" xlink:href="#未命名的渐变_22"/>
        <linearGradient x1="8.25" y2="12.07" y1="12.07" x2="33.69" id="未命名的渐变_22-5" xlink:href="#未命名的渐变_22"/>
      </defs>
      <polygon points="7.77 17.25 17.76 7.27 33.73 7.27 33.73 23.24 23.75 33.23 7.77 33.23 7.77 17.25" style="fill:#fff"/>
      <path style="fill:url(#未命名的渐变_22)" d="M32.73,8.27V22.83l-9.4,9.4H8.77V17.67l9.4-9.4H32.73m1-1h-16l-10,10v16h16l10-10v-16Z"/>
      <polyline points="32.77 23.13 18.9 23.13 8.32 32.71" style="fill:none;stroke-miterlimit:10;stroke:url(#未命名的渐变_22-2)"/>
      <line x1="18.83" y2="8.23" y1="23.61" x2="18.83" style="stroke-miterlimit:10;fill:url(#未命名的渐变_188);stroke:url(#未命名的渐变_22-3)"/>
      <path style="fill:url(#未命名的渐变_22-4)" d="M23.12,17.88V32.23H8.77V17.88H23.12m1-1H7.77V33.23H24.12V16.88Z"/>
      <polygon points="8.25 16.88 17.87 7.27 33.7 7.27 24.08 16.88 8.25 16.88" style="fill:url(#未命名的渐变_22-5)"/>
    </svg>