<svg xmlns="http://www.w3.org/2000/svg" data-name="图层 1" id="图层_1" viewBox="0 0 40 40" xmlns:xlink="http://www.w3.org/1999/xlink">
      <defs>
        <linearGradient x1="7.77" y2="20.21" y1="20.21" gradientUnits="userSpaceOnUse" x2="33.73" id="未命名的渐变_22">
          <stop offset="0.12" stop-color="#666"/>
          <stop offset="0.9" stop-color="#333"/>
        </linearGradient>
        <radialGradient r="4.95" cx="13.8" gradientUnits="userSpaceOnUse" cy="27.55" id="未命名的渐变_188">
          <stop offset="0.06" stop-color="#fff"/>
          <stop offset="0.95" stop-color="#b3b3b3"/>
        </radialGradient>
        <linearGradient x1="8.5" y2="27.55" y1="27.55" x2="19.11" id="未命名的渐变_22-2" xlink:href="#未命名的渐变_22"/>
        <linearGradient x1="17.39" y2="15.4" y1="15.4" x2="33.73" id="未命名的渐变_22-3" xlink:href="#未命名的渐变_22"/>
        <radialGradient r="4.8" cx="27.94" cy="13.41" id="未命名的渐变_188-2" xlink:href="#未命名的渐变_188"/>
        <linearGradient x1="22.79" y2="13.41" y1="13.41" x2="33.09" id="未命名的渐变_22-4" xlink:href="#未命名的渐变_22"/>
        <linearGradient x1="7.77" y2="25.01" y1="25.01" x2="24.12" id="未命名的渐变_22-5" xlink:href="#未命名的渐变_22"/>
      </defs>
      <polygon points="7.77 17.21 17.76 7.23 33.73 7.23 33.73 23.2 23.75 33.19 7.77 33.19 7.77 17.21" style="fill:#fff"/>
      <path style="fill:url(#未命名的渐变_22)" d="M32.73,8.23V22.79l-9.4,9.4H8.77V17.63l9.4-9.4H32.73m1-1h-16l-10,10v16h16l10-10v-16Z"/>
      <line x1="18.75" y2="32.5" y1="22.59" x2="8.85" style="stroke-miterlimit:10;fill:url(#未命名的渐变_188);stroke:url(#未命名的渐变_22-2)"/>
      <rect y="7.23" height="16.35" x="17.39" style="fill:url(#未命名的渐变_22-3)" width="16.35"/>
      <line x1="32.73" y2="18.21" y1="8.62" x2="23.14" style="stroke-miterlimit:10;fill:url(#未命名的渐变_188-2);stroke:url(#未命名的渐变_22-4)"/>
      <path style="fill:url(#未命名的渐变_22-5)" d="M23.12,17.84V32.19H8.77V17.84H23.12m1-1H7.77V33.19H24.12V16.84Z"/>
    </svg>