<svg xmlns="http://www.w3.org/2000/svg" data-name="图层 1" id="图层_1" viewBox="0 0 40 40" xmlns:xlink="http://www.w3.org/1999/xlink">
      <defs>
        <linearGradient x1="7.77" y2="20.23" y1="20.23" gradientUnits="userSpaceOnUse" x2="33.77" id="未命名的渐变_22">
          <stop offset="0.12" stop-color="#666"/>
          <stop offset="0.9" stop-color="#333"/>
        </linearGradient>
        <radialGradient r="5.02" cx="28.18" gradientUnits="userSpaceOnUse" cy="13.21" id="未命名的渐变_188">
          <stop offset="0.06" stop-color="#fff"/>
          <stop offset="0.95" stop-color="#b3b3b3"/>
        </radialGradient>
        <linearGradient x1="22.81" y2="13.21" y1="13.21" x2="33.55" id="未命名的渐变_22-2" xlink:href="#未命名的渐变_22"/>
        <linearGradient x1="18.34" y2="15.42" y1="15.42" x2="33.77" id="未命名的渐变_22-3" xlink:href="#未命名的渐变_22"/>
        <linearGradient x1="7.77" y2="25.04" y1="25.04" x2="24.14" id="未命名的渐变_22-4" xlink:href="#未命名的渐变_22"/>
      </defs>
      <polygon points="7.77 17.23 17.77 7.23 33.77 7.23 33.77 23.23 23.77 33.23 7.77 33.23 7.77 17.23" style="fill:#fff"/>
      <path style="fill:url(#未命名的渐变_22)" d="M32.77,8.23V22.81l-9.41,9.42H8.77V17.64l9.42-9.41H32.77m1-1h-16l-10,10v16h16l10-10v-16Z"/>
      <line x1="33.2" y2="18.23" y1="8.19" x2="23.16" style="stroke-miterlimit:10;fill:url(#未命名的渐变_188);stroke:url(#未命名的渐变_22-2)"/>
      <polyline points="18.84 7.23 18.84 23.11 33.77 23.11" style="fill:none;stroke-miterlimit:10;stroke:url(#未命名的渐变_22-3)"/>
      <rect y="16.86" height="16.37" x="7.77" style="fill:url(#未命名的渐变_22-4)" width="16.37"/>
    </svg>