<svg xmlns="http://www.w3.org/2000/svg" data-name="图层 1" id="图层_1" viewBox="0 0 40 40" xmlns:xlink="http://www.w3.org/1999/xlink">
      <defs>
        <linearGradient x1="7.77" y2="20.25" y1="20.25" gradientUnits="userSpaceOnUse" x2="33.73" id="未命名的渐变_22">
          <stop offset="0.12" stop-color="#666"/>
          <stop offset="0.9" stop-color="#333"/>
        </linearGradient>
        <radialGradient r="4.8" cx="28.18" gradientUnits="userSpaceOnUse" cy="12.87" id="未命名的渐变_188">
          <stop offset="0.06" stop-color="#fff"/>
          <stop offset="0.95" stop-color="#b3b3b3"/>
        </radialGradient>
        <linearGradient x1="23.03" y2="12.87" y1="12.87" x2="33.33" id="未命名的渐变_22-2" xlink:href="#未命名的渐变_22"/>
        <radialGradient r="5.66" cx="24.76" cy="23.13" id="未命名的渐变_188-2" xlink:href="#未命名的渐变_188"/>
        <linearGradient x1="16.75" y2="23.13" y1="23.13" x2="32.77" id="未命名的渐变_22-3" xlink:href="#未命名的渐变_22"/>
        <linearGradient x1="7.77" y2="20.03" y1="20.03" x2="17.77" id="未命名的渐变_22-4" xlink:href="#未命名的渐变_22"/>
        <linearGradient x1="7.77" y2="25.06" y1="25.06" x2="24.12" id="未命名的渐变_22-5" xlink:href="#未命名的渐变_22"/>
      </defs>
      <polygon points="7.77 17.25 17.76 7.27 33.73 7.27 33.73 23.24 23.75 33.23 7.77 33.23 7.77 17.25" style="fill:#fff"/>
      <path style="fill:url(#未命名的渐变_22)" d="M32.73,8.27V22.83l-9.4,9.4H8.77V17.67l9.4-9.4H32.73m1-1h-16l-10,10v16h16l10-10v-16Z"/>
      <line x1="32.98" y2="17.66" y1="8.07" x2="23.38" style="stroke-miterlimit:10;fill:url(#未命名的渐变_188);stroke:url(#未命名的渐变_22-2)"/>
      <line x1="16.75" y2="23.13" y1="23.13" x2="32.77" style="stroke-miterlimit:10;fill:url(#未命名的渐变_188-2);stroke:url(#未命名的渐变_22-3)"/>
      <polygon points="17.77 7.3 7.77 17.36 7.77 32.75 17.77 22.69 17.77 7.3" style="fill:url(#未命名的渐变_22-4)"/>
      <path style="fill:url(#未命名的渐变_22-5)" d="M23.12,17.88V32.23H8.77V17.88H23.12m1-1H7.77V33.23H24.12V16.88Z"/>
    </svg>