<svg xmlns="http://www.w3.org/2000/svg" data-name="图层 1" id="图层_1" viewBox="0 0 20 20" xmlns:xlink="http://www.w3.org/1999/xlink">
      <defs>
        <linearGradient x1="8.08" y2="11.29" y1="6.63" gradientUnits="userSpaceOnUse" x2="10.76" id="未命名的渐变_72">
          <stop offset="0.12" stop-color="#666"/>
          <stop offset="0.56" stop-color="#333"/>
        </linearGradient>
        <linearGradient x1="6.39" y2="4.46" y1="4.46" gradientUnits="userSpaceOnUse" x2="12.95" id="未命名的渐变_126">
          <stop offset="0.12" stop-color="#0384c5"/>
          <stop offset="0.9" stop-color="#0063b1"/>
        </linearGradient>
        <linearGradient x1="5.56" y2="21.67" y1="8.55" x2="13.13" id="未命名的渐变_72-2" xlink:href="#未命名的渐变_72"/>
      </defs>
      <polygon points="12.37 10.36 7.12 10.36 8.44 6.42 11.06 6.42 12.37 10.36" style="fill:#fff"/>
      <path style="fill:url(#未命名的渐变_72)" d="M10.34,7.43,11,9.36H8.51l.65-1.93h1.18m.72-1H8.44L7.12,10.36h5.25L11.06,6.43Z"/>
      <circle r="3.28" cx="9.67" cy="4.46" style="fill:#d4edff"/>
      <path style="fill:url(#未命名的渐变_126)" d="M9.67,2.17A2.29,2.29,0,1,1,7.39,4.46,2.29,2.29,0,0,1,9.67,2.17m0-1A3.29,3.29,0,1,0,13,4.46,3.28,3.28,0,0,0,9.67,1.17Z"/>
      <path style="fill:#fff" d="M16.24,12.71V10.32A1.27,1.27,0,0,0,15,9.05H5a1.26,1.26,0,0,0-1.26,1.27v2.39A1.26,1.26,0,0,1,2.5,14H2.41a1.27,1.27,0,0,0-1.27,1.27v2.39A1.27,1.27,0,0,0,2.41,18.9H17.6a1.27,1.27,0,0,0,1.26-1.27V15.24A1.27,1.27,0,0,0,17.6,14h-.1A1.25,1.25,0,0,1,16.24,12.71Z"/>
      <path style="fill:url(#未命名的渐变_72-2)" d="M15,10.05a.27.27,0,0,1,.27.27v2.39A2.26,2.26,0,0,0,17.5,15h.1a.27.27,0,0,1,.26.27v2.39a.27.27,0,0,1-.26.27H2.41a.27.27,0,0,1-.27-.27V15.24A.27.27,0,0,1,2.41,15H2.5a2.27,2.27,0,0,0,2.27-2.26V10.32A.27.27,0,0,1,5,10.05H15m0-1H5a1.26,1.26,0,0,0-1.26,1.27v2.39A1.26,1.26,0,0,1,2.5,14H2.41a1.27,1.27,0,0,0-1.27,1.27v2.39A1.27,1.27,0,0,0,2.41,18.9H17.6a1.27,1.27,0,0,0,1.26-1.27V15.24A1.27,1.27,0,0,0,17.6,14h-.1a1.25,1.25,0,0,1-1.26-1.26V10.32A1.27,1.27,0,0,0,15,9.05Z"/>
    </svg>