<svg data-name="图层 1" xmlns:xlink="http://www.w3.org/1999/xlink" xmlns="http://www.w3.org/2000/svg" viewBox="0 0 20 20" id="图层_1">
      <defs>
        <linearGradient y1="7.48" gradientUnits="userSpaceOnUse" x1="1.26" y2="18.71" x2="12.49" id="未命名的渐变_72">
          <stop offset="0.12" stop-color="#666"/>
          <stop offset="0.56" stop-color="#333"/>
        </linearGradient>
        <linearGradient y1="4.39" x1="4.36" y2="15.61" x2="15.58" xlink:href="#未命名的渐变_72" id="未命名的渐变_72-2"/>
        <linearGradient y1="1.29" gradientUnits="userSpaceOnUse" x1="7.46" y2="12.52" x2="18.68" id="未命名的渐变_126">
          <stop offset="0.12" stop-color="#0384c5"/>
          <stop offset="0.9" stop-color="#0063b1"/>
        </linearGradient>
      </defs>
      <rect x="0.97" y="7.19" rx="1" style="fill:#fff" width="11.81" height="11.81"/>
      <path d="M11.78,8.19V18H2V8.19h9.81m0-1H2a1,1,0,0,0-1,1V18a1,1,0,0,0,1,1h9.81a1,1,0,0,0,1-1V8.19a1,1,0,0,0-1-1Z" style="fill:url(#未命名的渐变_72)"/>
      <rect x="4.07" y="4.1" rx="1" style="fill:#fff" width="11.81" height="11.81"/>
      <path d="M14.88,5.1v9.8H5.07V5.1h9.81m0-1H5.07a1,1,0,0,0-1,1v9.8a1,1,0,0,0,1,1h9.81a1,1,0,0,0,1-1V5.1a1,1,0,0,0-1-1Z" style="fill:url(#未命名的渐变_72-2)"/>
      <rect x="7.16" y="1" rx="1" style="fill:#d4edff" width="11.81" height="11.81"/>
      <path d="M18,2v9.81H8.16V2H18m0-1H8.16a1,1,0,0,0-1,1v9.81a1,1,0,0,0,1,1H18a1,1,0,0,0,1-1V2a1,1,0,0,0-1-1Z" style="fill:url(#未命名的渐变_126)"/>
    </svg>