<svg xmlns="http://www.w3.org/2000/svg" data-name="图层 1" id="图层_1" viewBox="0 0 20 20" xmlns:xlink="http://www.w3.org/1999/xlink">
      <defs>
        <linearGradient x1="2.53" y2="9.26" y1="14.11" gradientUnits="userSpaceOnUse" x2="8.2" id="未命名的渐变_72">
          <stop offset="0.12" stop-color="#666"/>
          <stop offset="0.56" stop-color="#333"/>
        </linearGradient>
        <linearGradient x1="17.43" y2="9.26" y1="14.11" gradientUnits="userSpaceOnUse" x2="11.76" id="未命名的渐变_126">
          <stop offset="0.12" stop-color="#0384c5"/>
          <stop offset="0.9" stop-color="#0063b1"/>
        </linearGradient>
        <linearGradient x1="5.52" y2="8.12" y1="8.12" x2="14.35" id="未命名的渐变_126-2" xlink:href="#未命名的渐变_126"/>
        <linearGradient x1="7.1" y2="8.12" y1="8.12" x2="12.77" id="未命名的渐变_126-4" xlink:href="#未命名的渐变_126"/>
        <linearGradient x1="7.51" y2="15.15" y1="5.47" gradientUnits="userSpaceOnUse" x2="13.1" id="未命名的渐变_178">
          <stop offset="0.01" stop-color="#ff5559"/>
          <stop offset="1" stop-color="#aa001c"/>
        </linearGradient>
      </defs>
      <rect y="9.56" height="4.26" transform="translate(-6.31 6.29) rotate(-40.52)" x="1.63" style="fill:#fff" width="7.46"/>
      <path style="fill:url(#未命名的渐变_72)" d="M6.7,9.05l1.47,1.72L4,14.32,2.55,12.6,6.7,9.05m.11-1.41L1.14,12.49l2.77,3.24,5.67-4.85L6.81,7.64Z"/>
      <rect y="7.96" height="7.46" transform="translate(-3.77 15.19) rotate(-49.48)" x="12.55" style="fill:#d4edff" width="4.1"/>
      <path style="fill:url(#未命名的渐变_126)" d="M13.2,9.12l4.15,3.54L16,14.26l-4.15-3.55L13.2,9.12m-.11-1.41-2.66,3.11,5.67,4.85,2.66-3.12L13.09,7.71Z"/>
      <circle r="4.41" cx="9.94" cy="8.12" style="fill:#d4edff"/>
      <path style="fill:url(#未命名的渐变_126-2)" d="M9.94,4.71A3.42,3.42,0,1,1,6.52,8.12,3.41,3.41,0,0,1,9.94,4.71m0-1a4.42,4.42,0,1,0,4.41,4.41A4.42,4.42,0,0,0,9.94,3.71Z"/>
      <circle r="4.41" cx="9.94" cy="8.12" style="fill:#d4edff"/>
      <path style="fill:url(#未命名的渐变_126-2)" d="M9.94,4.71A3.42,3.42,0,1,1,6.52,8.12,3.41,3.41,0,0,1,9.94,4.71m0-1a4.42,4.42,0,1,0,4.41,4.41A4.42,4.42,0,0,0,9.94,3.71Z"/>
      <circle r="2.84" cx="9.94" cy="8.12" style="fill:#d4edff"/>
      <path style="fill:url(#未命名的渐变_126-4)" d="M9.94,6.29A1.84,1.84,0,1,1,8.1,8.12,1.83,1.83,0,0,1,9.94,6.29m0-1a2.84,2.84,0,1,0,2.83,2.83A2.84,2.84,0,0,0,9.94,5.29Z"/>
      <polyline points="2.71 17.39 6.47 7.1 13.24 14.04 17.52 2.58" style="fill:none;stroke-linecap:round;stroke-miterlimit:10;stroke:url(#未命名的渐变_178)"/>
    </svg>