<svg id="图层_1" viewBox="0 0 20 20" data-name="图层 1" xmlns="http://www.w3.org/2000/svg" xmlns:xlink="http://www.w3.org/1999/xlink">
      <defs>
        <linearGradient x1="3.74" id="未命名的渐变_99" y2="16.3" y1="3.77" x2="16.27" gradientUnits="userSpaceOnUse">
          <stop stop-color="#379e4e" offset="0.08"/>
          <stop stop-color="#006837" offset="0.81"/>
        </linearGradient>
        <linearGradient x1="8.11" id="未命名的渐变_102" y2="13.73" y1="7.59" x2="14.25" gradientUnits="userSpaceOnUse">
          <stop stop-color="#379e4e" offset="0.01"/>
          <stop stop-color="#006837" offset="1"/>
        </linearGradient>
      </defs>
      <circle cx="10" r="8.86" style="fill:#fff" cy="10.03"/>
      <path d="M10,2.17A7.87,7.87,0,1,1,2.14,10,7.87,7.87,0,0,1,10,2.17m0-1A8.87,8.87,0,1,0,18.86,10,8.86,8.86,0,0,0,10,1.17Z" style="fill:url(#未命名的渐变_99)"/>
      <path d="M12.34,5.89a2.44,2.44,0,0,1,.8,1.94,2.69,2.69,0,0,1-.49,1.65c-.12.13-.51.49-1.16,1.06a2,2,0,0,0-.53.67,1.92,1.92,0,0,1-.63.87v.25H9v-.25c.19-.51.27-.95.46-1.32a7.58,7.58,0,0,1,1.57-1.7l.16-.19a1.55,1.55,0,0,0,0-2,1.48,1.48,0,0,0-1.07-.37,1.38,1.38,0,0,0-1.26.55,2.21,2.21,0,0,0-.34,1.34H7A3.08,3.08,0,0,1,7.87,6a3.24,3.24,0,0,1,2.35-.85A3.07,3.07,0,0,1,12.34,5.89ZM10.73,13.2a1.06,1.06,0,0,1,0,1.47A1.08,1.08,0,0,1,10,15a1,1,0,0,1-.74-.3A.93.93,0,0,1,9,13.93a1,1,0,0,1,.29-.73,1.06,1.06,0,0,1,.74-.28A1.1,1.1,0,0,1,10.73,13.2Z" style="fill:url(#未命名的渐变_102)"/>
    </svg>