<svg xmlns="http://www.w3.org/2000/svg" data-name="图层 1" id="图层_1" viewBox="0 0 20 20" xmlns:xlink="http://www.w3.org/1999/xlink">
      <defs>
        <linearGradient x1="3.68" y2="16.39" y1="3.66" gradientUnits="userSpaceOnUse" x2="16.41" id="未命名的渐变_72">
          <stop offset="0.12" stop-color="#666"/>
          <stop offset="0.56" stop-color="#333"/>
        </linearGradient>
        <linearGradient x1="6.91" y2="13.1" y1="6.94" gradientUnits="userSpaceOnUse" x2="13.08" id="未命名的渐变_126">
          <stop offset="0.12" stop-color="#0384c5"/>
          <stop offset="0.9" stop-color="#0063b1"/>
        </linearGradient>
      </defs>
      <path style="fill:#ddd" d="M17.46,10a2.46,2.46,0,0,1,1.59-2.3,9.38,9.38,0,0,0-1-2.44A2.46,2.46,0,0,1,14.79,2a9.32,9.32,0,0,0-2.44-1,2.48,2.48,0,0,1-2.3,1.59A2.46,2.46,0,0,1,7.75,1,9,9,0,0,0,5.31,2,2.46,2.46,0,0,1,2.06,5.29a9,9,0,0,0-1,2.44,2.46,2.46,0,0,1,0,4.6,9.5,9.5,0,0,0,1,2.44A2.46,2.46,0,0,1,5.31,18a9,9,0,0,0,2.44,1,2.46,2.46,0,0,1,4.6,0,9.11,9.11,0,0,0,2.43-1A2.46,2.46,0,0,1,18,14.77a9.52,9.52,0,0,0,1-2.44A2.47,2.47,0,0,1,17.46,10Z"/>
      <path style="fill:url(#未命名的渐变_72)" d="M12.83,2.22c.26.09.52.2.78.32a3.48,3.48,0,0,0,1,3,3.41,3.41,0,0,0,2.45,1,4,4,0,0,0,.5,0q.18.38.33.78a3.46,3.46,0,0,0,0,5.56q-.15.39-.33.78a2.74,2.74,0,0,0-.5,0,3.46,3.46,0,0,0-3.43,4c-.25.12-.51.22-.77.32a3.46,3.46,0,0,0-5.56,0,7.75,7.75,0,0,1-.79-.33,3.46,3.46,0,0,0-3.41-4,2.85,2.85,0,0,0-.51,0c-.12-.26-.23-.52-.32-.78a3.47,3.47,0,0,0,0-5.56,6.71,6.71,0,0,1,.32-.78,4.24,4.24,0,0,0,.51,0,3.43,3.43,0,0,0,2.44-1,3.41,3.41,0,0,0,1-2.95,6.71,6.71,0,0,1,.78-.32,3.42,3.42,0,0,0,2.78,1.4,3.45,3.45,0,0,0,2.78-1.4M12.35,1a2.48,2.48,0,0,1-2.3,1.59A2.46,2.46,0,0,1,7.75,1,9,9,0,0,0,5.31,2,2.45,2.45,0,0,1,3.07,5.5a2.5,2.5,0,0,1-1-.21,9,9,0,0,0-1,2.44,2.46,2.46,0,0,1,0,4.6,9.18,9.18,0,0,0,1,2.44,2.36,2.36,0,0,1,1-.22A2.47,2.47,0,0,1,5.31,18a9,9,0,0,0,2.44,1,2.46,2.46,0,0,1,4.6,0,9.11,9.11,0,0,0,2.43-1A2.47,2.47,0,0,1,17,14.55a2.39,2.39,0,0,1,1,.22,9.52,9.52,0,0,0,1-2.44,2.46,2.46,0,0,1,0-4.6,9.38,9.38,0,0,0-1-2.44,2.55,2.55,0,0,1-1,.22,2.42,2.42,0,0,1-1.74-.73A2.45,2.45,0,0,1,14.79,2a9.32,9.32,0,0,0-2.44-1Z"/>
      <circle r="4.36" cx="9.99" cy="10.02" style="fill:#d4edff"/>
      <path style="fill:url(#未命名的渐变_126)" d="M10,6.66A3.36,3.36,0,1,1,6.64,10,3.36,3.36,0,0,1,10,6.66m0-1A4.36,4.36,0,1,0,14.35,10,4.36,4.36,0,0,0,10,5.66Z"/>
    </svg>