<svg xmlns:xlink="http://www.w3.org/1999/xlink" viewBox="0 0 20 20" id="图层_1" xmlns="http://www.w3.org/2000/svg" data-name="图层 1">
      <defs>
        <linearGradient gradientUnits="userSpaceOnUse" id="未命名的渐变_33" y1="9.69" x1="18.85" x2="8.68" y2="9.69">
          <stop stop-color="gray" offset="0.06"/>
          <stop stop-color="#4d4d4d" offset="0.98"/>
        </linearGradient>
        <linearGradient xlink:href="#未命名的渐变_33" id="未命名的渐变_33-2" y1="8.22" x1="10.89" x2="4.96" y2="8.22"/>
        <linearGradient xlink:href="#未命名的渐变_33" id="未命名的渐变_33-3" y1="2.42" x1="18.85" x2="7.25" y2="2.42"/>
        <linearGradient xlink:href="#未命名的渐变_33" gradientTransform="matrix(-1, 0, 0, 1, -30.82, 0)" id="未命名的渐变_33-4" y1="15.54" x1="-40.02" x2="-36.22" y2="15.54"/>
        <linearGradient gradientUnits="userSpaceOnUse" id="未命名的渐变_126" y1="16.22" x1="8.04" x2="1.14" y2="16.22">
          <stop stop-color="#0384c5" offset="0.12"/>
          <stop stop-color="#0063b1" offset="0.9"/>
        </linearGradient>
        <linearGradient xlink:href="#未命名的渐变_33" id="未命名的渐变_33-5" y1="17.56" x1="3.03" x2="1.14" y2="17.56"/>
        <linearGradient xlink:href="#未命名的渐变_33" id="未命名的渐变_33-6" y1="13.98" x1="9.89" x2="5.39" y2="13.98"/>
        <linearGradient xlink:href="#未命名的渐变_33" id="未命名的渐变_33-7" y1="9.43" x1="17.48" x2="10.66" y2="8.21"/>
        <linearGradient xlink:href="#未命名的渐变_126" id="未命名的渐变_126-2" y1="7.04" x1="17.53" x2="10.57" y2="7.04"/>
        <linearGradient xlink:href="#未命名的渐变_126" id="未命名的渐变_126-3" y1="9.77" x1="8.04" x2="6.24" y2="9.77"/>
      </defs>
      <path style="fill:#dbdbdb" d="M18.85,2.3V13.42L9.2,17.07V15.19L9.89,14S8.15,12.42,8.84,8.94a13.52,13.52,0,0,1,2.05-5.27Z"/>
      <path style="fill:url(#未命名的渐变_33)" d="M18.35,2.89V13.08L9.7,16.35v-1l.62-1.07.2-.34-.29-.27c-.06-.06-1.52-1.48-.9-4.61a14,14,0,0,1,1.85-4.91l7.17-1.24m.5-.59-8,1.37A13.52,13.52,0,0,0,8.84,8.94C8.15,12.42,9.89,14,9.89,14L9.2,15.19v1.88l9.65-3.65V2.3Z"/>
      <path style="fill:#dbdbdb" d="M9.89,14S8.15,12.42,8.84,8.94a13.52,13.52,0,0,1,2.05-5.27L7.18,2.44A13.51,13.51,0,0,0,5.12,7.7c-.68,3.49,1,5.08,1,5.08Z"/>
      <path style="fill:url(#未命名的渐变_33-2)" d="M7.38,3l2.74.91a15.65,15.65,0,0,0-1.78,4.9,6.93,6.93,0,0,0,.35,4.25l-2.24-.75C6.16,12,5.06,10.59,5.61,7.8A14.28,14.28,0,0,1,7.38,3m-.2-.59A13.51,13.51,0,0,0,5.12,7.7c-.68,3.49,1,5.08,1,5.08L9.89,14S8.15,12.42,8.84,8.94a13.52,13.52,0,0,1,2.05-5.27L7.18,2.44Z"/>
      <polygon style="fill:#dbdbdb" points="10.89 3.67 7.25 2.47 15.48 1.17 18.85 2.3 10.89 3.67"/>
      <path style="fill:url(#未命名的渐变_33-3)" d="M15.43,1.68l1.38.46-5.88,1L9.36,2.64l6.07-1m.05-.51L7.25,2.47l3.64,1.2,8-1.37L15.48,1.17Z"/>
      <polygon style="fill:url(#未命名的渐变_33-4)" points="9.2 15.19 5.39 14.01 5.39 15.92 9.2 17.07 9.2 15.19"/>
      <polygon style="fill:#d4edff" points="8.04 15.98 3.1 17.53 1.14 16.29 6.18 14.92 8.04 15.98"/>
      <path style="fill:url(#未命名的渐变_126)" d="M6.11,15.46l.68.39L3.17,17l-.8-.5,3.74-1m.07-.54-5,1.37,2,1.24L8,16,6.18,14.92Z"/>
      <polygon style="fill:#dbdbdb" points="3.03 18.83 3.03 17.53 1.14 16.29 1.14 17.53 3.03 18.83"/>
      <path style="fill:url(#未命名的渐变_33-5)" d="M1.64,17.22l.89.58v.08l-.89-.61v-.05m-.5-.93v1.24L3,18.83v-1.3L1.14,16.29Z"/>
      <polygon style="fill:#dbdbdb" points="5.39 14.01 6.17 12.78 9.89 14.01 9.2 15.19 5.39 14.01"/>
      <path style="fill:url(#未命名的渐变_33-6)" d="M6.39,13.37l2.76.92L9,14.6l-2.8-.87.22-.36m-.22-.59L5.39,14,9.2,15.19,9.89,14,6.17,12.78Z"/>
      <ellipse style="fill:#a0a0a0" cx="14.07" cy="8.82" rx="4.53" transform="translate(2.91 21.12) rotate(-79.86)" ry="3.46"/>
      <path style="fill:url(#未命名的渐变_33-7)" d="M14.4,4.82l.38,0c1.61.29,2.6,2.3,2.21,4.49-.36,2-1.75,3.48-3.24,3.48a2.56,2.56,0,0,1-.39,0c-1.61-.29-2.6-2.31-2.21-4.49.36-2,1.75-3.48,3.25-3.48m0-.5c-1.72,0-3.33,1.63-3.74,3.89-.44,2.46.73,4.73,2.61,5.07a2.59,2.59,0,0,0,.48,0c1.71,0,3.33-1.63,3.73-3.89.44-2.46-.73-4.73-2.61-5.07a2.56,2.56,0,0,0-.47,0Z"/>
      <path style="fill:#d4edff" d="M10.6,9.77a5.89,5.89,0,0,1,.06-1.56C11.1,5.75,13,4,14.87,4.36a3.61,3.61,0,0,1,2.66,3.36Z"/>
      <path style="fill:url(#未命名的渐变_126-2)" d="M14.4,4.82l.38,0A3,3,0,0,1,17,7.37l-5.9,1.74a7.4,7.4,0,0,1,.08-.81c.36-2,1.75-3.48,3.25-3.48m0-.5c-1.71,0-3.32,1.63-3.73,3.89a5.89,5.89,0,0,0-.06,1.56l6.93-2a3.61,3.61,0,0,0-2.66-3.36,2.59,2.59,0,0,0-.48,0Z"/>
      <path style="fill:#d4edff" d="M8,7.7,6.6,7.36s-.92,3.18.2,4.59l1.08.23A6,6,0,0,1,8,7.7Z"/>
      <path style="fill:url(#未命名的渐变_126-3)" d="M7,8l.36.09a6.23,6.23,0,0,0-.14,3.47l-.08,0C6.55,10.61,6.75,8.93,7,8m-.36-.6s-.92,3.18.2,4.59l1.08.23A6,6,0,0,1,8,7.7L6.6,7.36Z"/>
    </svg>