<svg xmlns="http://www.w3.org/2000/svg" data-name="图层 1" id="图层_1" viewBox="0 0 20 20" xmlns:xlink="http://www.w3.org/1999/xlink">
      <defs>
        <linearGradient x1="1.14" y2="4.44" y1="4.44" gradientUnits="userSpaceOnUse" x2="7.67" id="未命名的渐变_89">
          <stop offset="0.01" stop-color="#d4ffec"/>
          <stop offset="1" stop-color="#a1ddaa"/>
        </linearGradient>
        <linearGradient x1="1.14" y2="4.44" y1="4.44" gradientUnits="userSpaceOnUse" x2="7.67" id="未命名的渐变_102">
          <stop offset="0.01" stop-color="#379e4e"/>
          <stop offset="1" stop-color="#006837"/>
        </linearGradient>
        <linearGradient x1="4.4" y2="4.38" y1="16.8" gradientUnits="userSpaceOnUse" x2="16.82" id="未命名的渐变_72">
          <stop offset="0.12" stop-color="#666"/>
          <stop offset="0.56" stop-color="#333"/>
        </linearGradient>
        <linearGradient x1="3.87" y2="13.67" y1="13.67" x2="5.94" id="未命名的渐变_72-2" xlink:href="#未命名的渐变_72"/>
        <linearGradient x1="6.59" y2="10.95" y1="10.95" x2="8.66" id="未命名的渐变_72-3" xlink:href="#未命名的渐变_72"/>
        <linearGradient x1="9.32" y2="8.22" y1="8.22" x2="11.38" id="未命名的渐变_72-4" xlink:href="#未命名的渐变_72"/>
        <linearGradient x1="11.92" y2="5.62" y1="5.62" x2="13.99" id="未命名的渐变_72-5" xlink:href="#未命名的渐变_72"/>
      </defs>
      <circle r="3.27" cx="4.41" cy="4.44" style="fill:url(#未命名的渐变_89)"/>
      <path style="fill:url(#未命名的渐变_102)" d="M4.41,2.17A2.27,2.27,0,1,1,2.14,4.44,2.27,2.27,0,0,1,4.41,2.17m0-1A3.27,3.27,0,1,0,7.67,4.44,3.27,3.27,0,0,0,4.41,1.17Z"/>
      <rect y="7.45" height="6.27" transform="translate(-4.38 10.6) rotate(-45)" x="1.82" style="fill:#fff" rx="0.62" width="17.57"/>
      <path style="fill:url(#未命名的渐变_72)" d="M14.6,3.57l3,3-11,11-3-3,11-11m0-1.15a.62.62,0,0,0-.44.18L2.62,14.14a.61.61,0,0,0,0,.88l3.55,3.56a.63.63,0,0,0,.88,0L18.6,7a.63.63,0,0,0,0-.88L15,2.6a.62.62,0,0,0-.44-.18Z"/>
      <line x1="4.22" y2="14.35" y1="12.99" x2="5.58" style="fill:#fff;stroke-miterlimit:10;stroke:url(#未命名的渐变_72-2)"/>
      <line x1="6.94" y2="11.63" y1="10.27" x2="8.31" style="fill:#fff;stroke-miterlimit:10;stroke:url(#未命名的渐变_72-3)"/>
      <line x1="9.67" y2="8.9" y1="7.54" x2="11.03" style="fill:#fff;stroke-miterlimit:10;stroke:url(#未命名的渐变_72-4)"/>
      <line x1="12.27" y2="6.3" y1="4.94" x2="13.63" style="fill:#fff;stroke-miterlimit:10;stroke:url(#未命名的渐变_72-5)"/>
      <path style="fill:url(#未命名的渐变_72)" d="M14.6,3.57l3,3-11,11-3-3,11-11m0-1.15a.62.62,0,0,0-.44.18L2.62,14.14a.61.61,0,0,0,0,.88l3.55,3.56a.63.63,0,0,0,.88,0L18.6,7a.63.63,0,0,0,0-.88L15,2.6a.62.62,0,0,0-.44-.18Z"/>
    </svg>