<svg xmlns="http://www.w3.org/2000/svg" xmlns:xlink="http://www.w3.org/1999/xlink" data-name="图层 1" id="图层_1" viewBox="0 0 20 20">
      <defs>
        <linearGradient y2="18.25" x1="1.82" y1="0.58" id="未命名的渐变_126" gradientUnits="userSpaceOnUse" x2="19.5">
          <stop stop-color="#0384c5" offset="0.12"/>
          <stop stop-color="#0063b1" offset="0.9"/>
        </linearGradient>
        <linearGradient y2="19.86" x1="6.09" y1="11.9" xlink:href="#未命名的渐变_126" id="未命名的渐变_126-2" x2="14.05"/>
        <linearGradient y2="4.67" x1="4" y1="4.67" xlink:href="#未命名的渐变_126" id="未命名的渐变_126-3" x2="15.65"/>
        <linearGradient y2="16.35" x1="7.13" y1="16.35" xlink:href="#未命名的渐变_126" id="未命名的渐变_126-4" x2="8.13"/>
      </defs>
      <path style="fill:#d4edff" d="M3.94,19H18.56a.49.49,0,0,0,.49-.49v-17A.48.48,0,0,0,18.56,1h-17a.47.47,0,0,0-.48.48V15.78a.47.47,0,0,0,.12.32l2.36,2.72A.48.48,0,0,0,3.94,19Z"/>
      <path style="fill:url(#未命名的渐变_126)" d="M18.05,2V18H4.17l-2.08-2.4V2h16m.51-1h-17a.47.47,0,0,0-.48.48V15.78a.47.47,0,0,0,.12.32l2.36,2.72a.48.48,0,0,0,.37.17H18.56a.49.49,0,0,0,.49-.49v-17A.48.48,0,0,0,18.56,1Z"/>
      <path style="fill:#fff" d="M14.92,19H5.21v-5.8a1,1,0,0,1,1-1h7.71a1,1,0,0,1,1,1Z"/>
      <path style="fill:url(#未命名的渐变_126-2)" d="M13.92,13.19V18H6.21v-4.8h7.71m0-1H6.21a1,1,0,0,0-1,1V19h9.71v-5.8a1,1,0,0,0-1-1Z"/>
      <path style="fill:#fff" d="M14.65,8.31H5a1,1,0,0,1-1-1V1H15.65V7.31A1,1,0,0,1,14.65,8.31Z"/>
      <path style="fill:url(#未命名的渐变_126-3)" d="M14.65,2V7.31H5V2h9.65m1-1H4V7.31a1,1,0,0,0,1,1h9.65a1,1,0,0,0,1-1V1Z"/>
      <line y2="3.45" x1="5.63" y1="3.45" x2="14.19" style="fill:none;stroke:#898989;stroke-miterlimit:10"/>
      <line y2="5.88" x1="5.63" y1="5.88" x2="14.19" style="fill:none;stroke:#898989;stroke-miterlimit:10"/>
      <line y2="14.62" x1="7.63" y1="18.08" x2="7.63" style="fill:#d4edff;stroke-linecap:round;stroke-miterlimit:10;stroke:url(#未命名的渐变_126-4)"/>
    </svg>