<svg xmlns="http://www.w3.org/2000/svg" data-name="图层 1" id="图层_1" viewBox="0 0 20 20" xmlns:xlink="http://www.w3.org/1999/xlink">
      <defs>
        <linearGradient x1="1.05" y2="11.41" y1="11.41" gradientUnits="userSpaceOnUse" x2="19.05" id="未命名的渐变_72">
          <stop offset="0.12" stop-color="#666"/>
          <stop offset="0.56" stop-color="#333"/>
        </linearGradient>
        <linearGradient x1="1.05" y2="2.91" y1="2.91" x2="13.06" id="未命名的渐变_72-2" xlink:href="#未命名的渐变_72"/>
        <linearGradient x1="13.63" y2="18.59" y1="8.62" gradientUnits="userSpaceOnUse" x2="13.63" id="未命名的渐变_178">
          <stop offset="0.01" stop-color="#ff5559"/>
          <stop offset="1" stop-color="#aa001c"/>
        </linearGradient>
      </defs>
      <rect y="3.8" height="15.23" x="1.05" style="fill:#fff" rx="1.32" width="18"/>
      <path style="fill:url(#未命名的渐变_72)" d="M17.73,4.8a.32.32,0,0,1,.32.31v12.6a.32.32,0,0,1-.32.32H2.36a.31.31,0,0,1-.31-.32V5.11a.31.31,0,0,1,.31-.31H17.73m0-1H2.36A1.31,1.31,0,0,0,1.05,5.11v12.6A1.32,1.32,0,0,0,2.36,19H17.73a1.32,1.32,0,0,0,1.32-1.32V5.11A1.32,1.32,0,0,0,17.73,3.8Z"/>
      <path style="fill:#fff" d="M1.05,4.09V1.72A.73.73,0,0,1,1.81,1h8.58a.8.8,0,0,1,.62.28l1.9,2.38a.69.69,0,0,1-.62,1.1H1.81A.73.73,0,0,1,1.05,4.09Z"/>
      <path style="fill:url(#未命名的渐变_72-2)" d="M10.3,2l1.41,1.76H2.05V2H10.3m.09-1H1.81a.73.73,0,0,0-.76.69V4.09a.73.73,0,0,0,.76.7H12.29a.69.69,0,0,0,.62-1.1L11,1.31A.8.8,0,0,0,10.39,1Z"/>
      <path style="fill:#fcc5cd" d="M18.37,15.39l-1.78-1.78,1.78-1.78a.8.8,0,0,0,0-1.14L16.54,8.86a.79.79,0,0,0-1.13,0l-1.78,1.78L11.84,8.86a.79.79,0,0,0-1.13,0L8.88,10.69a.8.8,0,0,0,0,1.14l1.78,1.78L8.88,15.39a.79.79,0,0,0,0,1.13l1.83,1.84a.8.8,0,0,0,1.13,0l1.79-1.79,1.78,1.79a.8.8,0,0,0,1.13,0l1.83-1.84A.79.79,0,0,0,18.37,15.39Z"/>
      <path style="fill:url(#未命名的渐变_178)" d="M11.42,9.57h0m4.69,0h0M16,9.7l1.56,1.56L15.89,12.9l-.71.71.71.7L17.53,16,16,17.51l-1.64-1.64-.7-.71-.71.71-1.64,1.64L9.72,16l1.64-1.65.71-.7-.71-.71L9.72,11.26,11.28,9.7l1.64,1.65.71.7.7-.7L16,9.7m0-1.08a.77.77,0,0,0-.56.24l-1.78,1.78L11.84,8.86a.79.79,0,0,0-1.13,0L8.88,10.69a.8.8,0,0,0,0,1.14l1.78,1.78L8.88,15.39a.79.79,0,0,0,0,1.13l1.83,1.84a.81.81,0,0,0,1.13,0l1.79-1.79,1.78,1.79a.81.81,0,0,0,1.13,0l1.83-1.84a.79.79,0,0,0,0-1.13l-1.78-1.78,1.78-1.78a.8.8,0,0,0,0-1.14L16.54,8.86A.78.78,0,0,0,16,8.62Z"/>
    </svg>