<svg xmlns="http://www.w3.org/2000/svg" data-name="图层 1" id="图层_1" viewBox="0 0 20 20" xmlns:xlink="http://www.w3.org/1999/xlink">
      <defs>
        <radialGradient r="6.3" cx="9.11" gradientUnits="userSpaceOnUse" cy="14.56" id="未命名的渐变_15">
          <stop offset="0" stop-color="#e6faff"/>
          <stop offset="0.95" stop-color="#83beec"/>
        </radialGradient>
        <linearGradient x1="1.07" y2="14.56" y1="14.56" gradientUnits="userSpaceOnUse" x2="17.15" id="未命名的渐变_126">
          <stop offset="0.12" stop-color="#0384c5"/>
          <stop offset="0.9" stop-color="#0063b1"/>
        </linearGradient>
        <linearGradient x1="8.26" y2="8.71" y1="8.71" x2="9.26" id="未命名的渐变_126-2" xlink:href="#未命名的渐变_126"/>
        <radialGradient r="3.46" cx="12.96" gradientUnits="userSpaceOnUse" cy="37.37" id="未命名的渐变_45" gradientTransform="translate(0.35 -25.69) scale(0.98 1.07)">
          <stop offset="0.01" stop-color="#ffbfdd"/>
          <stop offset="0.96" stop-color="#ff6a7a"/>
        </radialGradient>
        <linearGradient x1="8.26" y2="14.22" y1="14.22" gradientUnits="userSpaceOnUse" x2="17.85" id="未命名的渐变_162">
          <stop offset="0.01" stop-color="#ff3f65"/>
          <stop offset="1" stop-color="#aa001c"/>
        </linearGradient>
        <linearGradient x1="7.12" y2="2.38" y1="2.38" x2="10.62" id="未命名的渐变_126-3" xlink:href="#未命名的渐变_126"/>
        <linearGradient x1="17.15" y2="14.07" y1="14.07" x2="19.02" id="未命名的渐变_162-2" xlink:href="#未命名的渐变_162"/>
      </defs>
      <ellipse cx="9.11" cy="14.56" style="fill:url(#未命名的渐变_15)" ry="3.85" rx="8.04"/>
      <path style="fill:url(#未命名的渐变_126)" d="M9.11,11.72c4.36,0,7,1.66,7,2.84s-2.68,2.85-7,2.85-7-1.66-7-2.85,2.68-2.84,7-2.84m0-1c-4.44,0-8,1.72-8,3.84s3.6,3.85,8,3.85,8-1.72,8-3.85-3.6-3.84-8-3.84Z"/>
      <line x1="8.76" y2="3.03" y1="14.4" x2="8.76" style="fill:none;stroke-miterlimit:10;stroke:url(#未命名的渐变_126-2)"/>
      <line x1="17.85" y2="14.22" y1="14.22" x2="8.26" style="stroke-miterlimit:10;fill:url(#未命名的渐变_45);stroke:url(#未命名的渐变_162)"/>
      <polygon points="8.87 1.03 7.12 3.73 10.62 3.73 8.87 1.03" style="fill:url(#未命名的渐变_126-3)"/>
      <polygon points="19.02 14.07 17.15 12.69 17.15 15.46 19.02 14.07" style="fill:url(#未命名的渐变_162-2)"/>
    </svg>