<svg id="图层_1" viewBox="0 0 20 20" xmlns:xlink="http://www.w3.org/1999/xlink" data-name="图层 1" xmlns="http://www.w3.org/2000/svg">
      <defs>
        <radialGradient cy="-26.57" gradientTransform="matrix(-0.1, 0, 0, 2.98, -9.73, 93.4)" id="未命名的渐变_23" gradientUnits="userSpaceOnUse" cx="-142.42" r="3.04">
          <stop offset="0" stop-color="#aa8900"/>
          <stop offset="1" stop-color="#ffd555"/>
        </radialGradient>
        <radialGradient cy="-25.42" gradientTransform="translate(44.6 85.94) scale(0.1 2.82)" id="未命名的渐变_23-2" cx="-285.14" r="3.04" xlink:href="#未命名的渐变_23"/>
        <radialGradient cy="-73.29" gradientTransform="matrix(0.33, 0, 0, -2.99, -0.87, -206.3)" id="未命名的渐变_11" gradientUnits="userSpaceOnUse" cx="12.99" r="8.37">
          <stop offset="0" stop-color="#fbebca"/>
          <stop offset="1" stop-color="#ffd555"/>
        </radialGradient>
        <radialGradient cy="-73.23" gradientTransform="translate(48.49 -206.3) rotate(180) scale(0.33 2.99)" id="未命名的渐变_11-2" cx="96.09" r="8.37" xlink:href="#未命名的渐变_11"/>
        <radialGradient cy="-36.63" gradientTransform="translate(0 43.26) scale(1 0.77)" id="未命名的渐变_154" gradientUnits="userSpaceOnUse" cx="9.97" r="8.04">
          <stop offset="0" stop-color="#fbebca"/>
          <stop offset="0.57" stop-color="#ffd555"/>
        </radialGradient>
        <radialGradient cy="-72.56" gradientTransform="matrix(1, 0, 0, -2.99, 0, -206.3)" id="未命名的渐变_11-3" cx="9.97" r="5.86" xlink:href="#未命名的渐变_11"/>
        <radialGradient cy="-21.75" gradientTransform="translate(52.78 69.6) scale(0.38 2.47)" id="未命名的渐变_154-2" cx="-132.33" r="3.24" xlink:href="#未命名的渐变_154"/>
        <radialGradient cy="-21.75" gradientTransform="translate(52.78 69.6) scale(0.38 2.47)" id="未命名的渐变_154-3" cx="-94.99" r="3.24" xlink:href="#未命名的渐变_154"/>
      </defs>
      <polygon points="4.64 17.09 5.51 14.03 5.51 11.14 4.64 14.2 4.64 17.09" style="fill:url(#未命名的渐变_23)"/>
      <polygon points="15.4 16.98 14.53 14.08 14.53 11.35 15.4 14.24 15.4 16.98" style="fill:url(#未命名的渐变_23-2)"/>
      <polygon points="5.64 11.1 3.69 11.1 1.28 14.95 4.32 14.95 5.64 11.1" style="fill:url(#未命名的渐变_11)"/>
      <polygon points="14.27 10.91 16.23 10.91 18.64 14.76 15.6 14.76 14.27 10.91" style="fill:url(#未命名的渐变_11-2)"/>
      <line x2="7.21" x1="7.21" y2="8.91" style="fill:none;stroke:#0063b1;stroke-miterlimit:10;stroke-width:0.5px" y1="4.47"/>
      <line x2="12.75" x1="12.75" y2="8.91" style="fill:none;stroke:#0063b1;stroke-miterlimit:10;stroke-width:0.5px" y1="4.47"/>
      <path style="fill:#0063b1" d="M14,6.85l.75,1.72V13L14,10V6.85m-.5-2.38V10l1.75,7.19V8.46l-1.75-4Z"/>
      <path style="fill:#0063b1" d="M6,6.85V10L5.21,13V8.57L6,6.85m.5-2.38-1.75,4V17.2L6.46,10V4.47Z"/>
      <rect x="5.41" height="4.47" width="9.12" style="opacity:0.63;fill:url(#未命名的渐变_154)" y="12.74"/>
      <polygon points="12.92 8.91 7.05 8.91 5.41 12.76 14.53 12.76 12.92 8.91" style="opacity:0.63;fill:url(#未命名的渐变_11-3)"/>
      <rect x="1.2" height="2.39" width="3.44" style="opacity:0.63;fill:url(#未命名的渐变_154-2)" y="14.7"/>
      <rect x="15.27" height="2.39" width="3.44" style="opacity:0.63;fill:url(#未命名的渐变_154-3)" y="14.7"/>
      <path style="fill:#0063b1" d="M12.55,5l1.23,3H6.15L7.38,5h5.17m.34-.5H7.05l-1.64,4h9.12l-1.64-4Z"/>
      <path style="fill:#0063b1" d="M14,9V16.7H5.91V9H14m.5-.5H5.41V17.2h9.12V8.46Z"/>
      <path style="fill:#0063b1" d="M18.24,9V16.7H15.73V9h2.51m.5-.5H15.23V17.2h3.51V8.46Z"/>
      <path style="fill:#0063b1" d="M4.22,9V16.7H1.7V9H4.22m.5-.5H1.2V17.2H4.72V8.46Z"/>
      <path style="fill:#0063b1" d="M5.68,5,4.39,8H2.09l1.8-3H5.68m.77-.5H3.61l-2.41,4H4.72l1.73-4Z"/>
      <path style="fill:#0063b1" d="M16,5l1.81,3H15.53L14.24,5H16m.28-.5H13.48l1.73,4h3.51l-2.41-4Z"/>
      <path style="fill:#0063b1" d="M17.64,15.84a.16.16,0,0,1,.16.16.16.16,0,0,1-.16.15.15.15,0,0,1-.15-.15.16.16,0,0,1,.15-.16m0-.5a.66.66,0,1,0,.66.66.66.66,0,0,0-.66-.66Z"/>
      <path style="fill:#fff" d="M4.37,3.09A.69.69,0,0,1,4.09,3h0a2.65,2.65,0,0,1,.27,0,.55.55,0,0,1,.28.06h0A2.65,2.65,0,0,1,4.37,3.09Z"/>
      <path style="fill:#0063b1" d="M4.37,2.75c-.3,0-.55.13-.55.29s.25.3.55.3.55-.13.55-.3-.25-.29-.55-.29Z"/>
      <path style="fill:#fff" d="M4.37,6.07A.52.52,0,0,1,4.06,6V3.28h.6V6h0A1.07,1.07,0,0,1,4.37,6.07Z"/>
      <path style="fill:#0063b1" d="M4.42,3.53V5.82h-.1V3.53h.1m.5-.5H3.82V6c0,.16.25.29.55.29s.55-.13.55-.29V3Z"/>
      <line x2="3.8" x1="3.8" y2="11.1" style="fill:none;stroke:#0063b1;stroke-miterlimit:10;stroke-width:0.5px" y1="4.67"/>
      <line x2="16.1" x1="16.1" y2="10.91" style="fill:none;stroke:#0063b1;stroke-miterlimit:10;stroke-width:0.5px" y1="4.72"/>
    </svg>