<svg xmlns="http://www.w3.org/2000/svg" data-name="图层 1" id="图层_1" viewBox="0 0 20 20" xmlns:xlink="http://www.w3.org/1999/xlink">
      <defs>
        <linearGradient x1="3.44" y2="17.14" y1="2.83" gradientUnits="userSpaceOnUse" x2="17.75" id="未命名的渐变_178">
          <stop offset="0.01" stop-color="#ff5559"/>
          <stop offset="1" stop-color="#aa001c"/>
        </linearGradient>
      </defs>
      <path style="fill:#fcc5cd" d="M18.4,13.89,14.5,10l3.9-3.91a1.83,1.83,0,0,0,0-2.6l-1.3-1.3a1.83,1.83,0,0,0-2.6,0l-3.9,3.9L6.69,2.18a1.83,1.83,0,0,0-2.6,0l-1.3,1.3a1.83,1.83,0,0,0,0,2.6L6.69,10l-3.9,3.9a1.83,1.83,0,0,0,0,2.6l1.3,1.3a1.83,1.83,0,0,0,2.6,0l3.91-3.9,3.9,3.9a1.83,1.83,0,0,0,2.6,0l1.3-1.3A1.83,1.83,0,0,0,18.4,13.89Z"/>
      <path style="fill:url(#未命名的渐变_178)" d="M15.8,2.64a.86.86,0,0,1,.6.25l1.3,1.3a.86.86,0,0,1,0,1.19l-3.91,3.9-.7.71.7.7L17.7,14.6a.86.86,0,0,1,0,1.19l-1.3,1.3a.85.85,0,0,1-.6.24.82.82,0,0,1-.59-.24L11.3,13.18l-.7-.7-.71.7L6,17.09a.81.81,0,0,1-.59.24.82.82,0,0,1-.59-.24l-1.3-1.3a.83.83,0,0,1,0-1.19l3.9-3.91.71-.7L7.4,9.28,3.5,5.38a.83.83,0,0,1,0-1.19l1.3-1.3a.83.83,0,0,1,.59-.25A.82.82,0,0,1,6,2.89l3.91,3.9.71.71.7-.71,3.91-3.9a.83.83,0,0,1,.59-.25m0-1a1.83,1.83,0,0,0-1.3.54l-3.9,3.9L6.69,2.18a1.83,1.83,0,0,0-2.6,0l-1.3,1.3a1.83,1.83,0,0,0,0,2.6L6.69,10l-3.9,3.9a1.83,1.83,0,0,0,0,2.6l1.3,1.3a1.83,1.83,0,0,0,2.6,0l3.91-3.9,3.9,3.9a1.83,1.83,0,0,0,2.6,0l1.3-1.3a1.83,1.83,0,0,0,0-2.6L14.5,10l3.9-3.91a1.83,1.83,0,0,0,0-2.6l-1.3-1.3a1.83,1.83,0,0,0-1.3-.54Z"/>
    </svg>