<svg id="图层_1" data-name="图层 1" viewBox="0 0 20 20" xmlns="http://www.w3.org/2000/svg" xmlns:xlink="http://www.w3.org/1999/xlink">
      <defs>
        <radialGradient cy="-26.33" gradientTransform="matrix(-0.1, 0, 0, 2.98, -438.02, 91.86)" id="未命名的渐变_23" r="3.08" cx="-4261.79" gradientUnits="userSpaceOnUse">
          <stop offset="0" stop-color="#aa8900"/>
          <stop offset="1" stop-color="#ffd555"/>
        </radialGradient>
        <radialGradient cy="-25.21" gradientTransform="translate(-303.04 84.53) scale(0.1 2.82)" id="未命名的渐变_23-2" r="3.08" xlink:href="#未命名的渐变_23" cx="3059.38"/>
        <radialGradient cy="-71.98" gradientTransform="matrix(0.33, 0, 0, -2.99, -259.5, -203.2)" id="未命名的渐变_11" r="8.47" cx="788.37" gradientUnits="userSpaceOnUse">
          <stop offset="0" stop-color="#fbebca"/>
          <stop offset="1" stop-color="#ffd555"/>
        </radialGradient>
        <radialGradient cy="-71.91" gradientTransform="translate(-468.81 -203.2) rotate(180) scale(0.33 2.99)" id="未命名的渐变_11-2" r="8.47" xlink:href="#未命名的渐变_11" cx="-1455.66"/>
        <radialGradient cy="-36.2" gradientTransform="translate(0 42.12) scale(1 0.77)" id="未命名的渐变_154" r="8.13" cx="9.89" gradientUnits="userSpaceOnUse">
          <stop offset="0" stop-color="#fbebca"/>
          <stop offset="0.57" stop-color="#ffd555"/>
        </radialGradient>
        <radialGradient cy="-71.24" gradientTransform="matrix(1, 0, 0, -2.99, 0, -203.2)" id="未命名的渐变_11-3" r="5.93" xlink:href="#未命名的渐变_11" cx="9.9"/>
        <radialGradient cy="-21.61" gradientTransform="translate(-189.02 68.46) scale(0.38 2.47)" id="未命名的渐变_154-2" r="3.28" xlink:href="#未命名的渐变_154" cx="509.02"/>
        <radialGradient cy="-21.61" gradientTransform="translate(-189.02 68.46) scale(0.38 2.47)" id="未命名的渐变_154-3" r="3.28" xlink:href="#未命名的渐变_154" cx="546.78"/>
        <linearGradient id="未命名的渐变_102" y2="14.43" x1="12.05" x2="18.77" gradientUnits="userSpaceOnUse" y1="14.43">
          <stop offset="0.01" stop-color="#379e4e"/>
          <stop offset="1" stop-color="#006837"/>
        </linearGradient>
        <linearGradient id="未命名的渐变_102-2" y2="16.01" x1="12.7" xlink:href="#未命名的渐变_102" x2="14.93" y1="16.01"/>
        <linearGradient id="未命名的渐变_102-3" y2="13.58" x1="14.43" xlink:href="#未命名的渐变_102" x2="18.05" y1="13.58"/>
        <linearGradient id="未命名的渐变_102-4" y2="11.95" x1="14.24" xlink:href="#未命名的渐变_102" x2="15.06" y1="11.95"/>
        <linearGradient gradientTransform="translate(51.82 -29.68) rotate(-135)" id="未命名的渐变_102-5" y2="-60.61" x1="-5.84" xlink:href="#未命名的渐变_102" x2="-5.02" y1="-60.61"/>
        <linearGradient gradientTransform="translate(-11.73 -59.35) rotate(90)" id="未命名的渐变_102-6" y2="-29.65" x1="74.08" xlink:href="#未命名的渐变_102" x2="74.9" y1="-29.65"/>
      </defs>
      <polygon style="fill:url(#未命名的渐变_23)" points="4.5 16.3 5.38 13.2 5.38 10.29 4.5 13.38 4.5 16.3"/>
      <polygon style="fill:url(#未命名的渐变_23-2)" points="15.38 16.18 14.51 13.26 14.51 10.5 15.38 13.42 15.38 16.18"/>
      <polygon style="fill:url(#未命名的渐变_11)" points="5.52 10.24 3.54 10.24 1.1 14.13 4.18 14.13 5.52 10.24"/>
      <polygon style="fill:url(#未命名的渐变_11-2)" points="14.24 10.05 16.22 10.05 18.66 13.94 15.58 13.94 14.24 10.05"/>
      <line y2="8.03" x1="7.1" style="fill:none;stroke:#0063b1;stroke-miterlimit:10;stroke-width:0.5px" x2="7.1" y1="3.54"/>
      <line y2="8.03" x1="12.7" style="fill:none;stroke:#0063b1;stroke-miterlimit:10;stroke-width:0.5px" x2="12.7" y1="3.54"/>
      <path d="M13.94,5.92l.77,1.76v4.57l-.77-3.17V5.92m-.5-2.38v5.6l1.77,7.28V7.58l-1.77-4Z" style="fill:#0063b1"/>
      <path d="M5.85,5.92V9.08l-.78,3.17V7.68l.78-1.76m.5-2.38-1.78,4v8.84L6.35,9.14V3.54Z" style="fill:#0063b1"/>
      <rect x="5.28" style="opacity:0.63;fill:url(#未命名的渐变_154)" width="9.22" height="4.52" y="11.9"/>
      <polygon style="opacity:0.63;fill:url(#未命名的渐变_11-3)" points="12.88 8.03 6.94 8.03 5.29 11.92 14.51 11.92 12.88 8.03"/>
      <rect x="1.03" style="opacity:0.63;fill:url(#未命名的渐变_154-2)" width="3.47" height="2.41" y="13.88"/>
      <rect x="15.25" style="opacity:0.63;fill:url(#未命名的渐变_154-3)" width="3.47" height="2.41" y="13.88"/>
      <path d="M12.51,4l1.25,3H6L7.27,4h5.24m.34-.5H6.94l-1.66,4H14.5l-1.65-4Z" style="fill:#0063b1"/>
      <path d="M14,8.08v7.84H5.78V8.08H14m.5-.5H5.28v8.84H14.5V7.58Z" style="fill:#0063b1"/>
      <path d="M18.27,8.08v7.84H15.71V8.08h2.56m.5-.5H15.21v8.84h3.56V7.58Z" style="fill:#0063b1"/>
      <path d="M4.08,8.08v7.84H1.53V8.08H4.08m.5-.5H1v8.84H4.58V7.58Z" style="fill:#0063b1"/>
      <path d="M5.57,4l-1.32,3H1.91L3.74,4H5.57m.76-.5H3.46L1,7.58H4.58l1.75-4Z" style="fill:#0063b1"/>
      <path d="M16,4l1.83,3H15.52L14.2,4H16m.28-.5H13.44l1.75,4h3.56l-2.44-4Z" style="fill:#0063b1"/>
      <path d="M17.65,15a.17.17,0,0,1,.17.16.18.18,0,0,1-.17.17.17.17,0,0,1-.16-.17.16.16,0,0,1,.16-.16m0-.5a.67.67,0,1,0,.67.66.67.67,0,0,0-.67-.66Z" style="fill:#0063b1"/>
      <path d="M4.23,2.14a.7.7,0,0,1-.29-.06H4a2.65,2.65,0,0,1,.27,0,.54.54,0,0,1,.29.06h0A2.6,2.6,0,0,1,4.23,2.14Z" style="fill:#fff"/>
      <path d="M4.23,1.8c-.3,0-.55.13-.55.29s.25.3.55.3.56-.13.56-.3-.25-.29-.56-.29Z" style="fill:#0063b1"/>
      <path d="M4.23,5.16a.42.42,0,0,1-.31-.09V2.33h.61V5.11h0A1.09,1.09,0,0,1,4.23,5.16Z" style="fill:#fff"/>
      <path d="M4.29,2.58V4.91H4.18V2.58h.11m.5-.5H3.68v3c0,.17.25.3.55.3s.56-.13.56-.3v-3Z" style="fill:#0063b1"/>
      <line y2="10.24" x1="3.66" style="fill:none;stroke:#0063b1;stroke-miterlimit:10;stroke-width:0.5px" x2="3.66" y1="3.75"/>
      <line y2="10.05" x1="16.09" style="fill:none;stroke:#0063b1;stroke-miterlimit:10;stroke-width:0.5px" x2="16.09" y1="3.79"/>
      <rect x="12.05" style="fill:#d4ffec" width="6.72" height="6.72" y="11.07"/>
      <path d="M18.27,11.57v5.72H12.55V11.57h5.72m.5-.5H12.05v6.72h6.72V11.07Z" style="fill:url(#未命名的渐变_102)"/>
      <line y2="16.88" x1="14.68" style="fill:none;stroke-linecap:round;stroke-linejoin:round;stroke-width:0.5px;stroke:url(#未命名的渐变_102-2)" x2="12.95" y1="15.14"/>
      <polyline style="fill:none;stroke-linecap:round;stroke-linejoin:round;stroke-width:0.5px;stroke:url(#未命名的渐变_102-3)" points="17.8 15.14 14.68 15.14 14.68 12.02"/>
      <polygon style="fill:url(#未命名的渐变_102-4)" points="14.65 11.59 14.24 12.3 15.06 12.3 14.65 11.59"/>
      <polygon style="fill:url(#未命名的渐变_102-5)" points="12.55 17.27 13.34 17.06 12.76 16.48 12.55 17.27"/>
      <polygon style="fill:url(#未命名的渐变_102-6)" points="18.27 15.14 17.56 14.73 17.56 15.55 18.27 15.14"/>
    </svg>