<svg data-name="图层 1" viewBox="0 0 20 20" xmlns="http://www.w3.org/2000/svg" xmlns:xlink="http://www.w3.org/1999/xlink" id="图层_1">
      <defs>
        <linearGradient y2="12.63" gradientUnits="userSpaceOnUse" x2="9.45" x1="2.26" id="未命名的渐变_35" y1="12.63">
          <stop offset="0.1" stop-color="#ccc"/>
          <stop offset="0.95" stop-color="#999"/>
        </linearGradient>
        <linearGradient y2="12.63" gradientUnits="userSpaceOnUse" x2="17.78" x1="10.6" id="未命名的渐变_126" y1="12.63">
          <stop offset="0.12" stop-color="#0384c5"/>
          <stop offset="0.9" stop-color="#0063b1"/>
        </linearGradient>
        <linearGradient y2="0.82" x2="16.37" x1="4.62" id="未命名的渐变_35-2" xlink:href="#未命名的渐变_35" y1="9.19"/>
        <linearGradient y2="-302.92" gradientUnits="userSpaceOnUse" x2="-288.81" gradientTransform="translate(386.51 378.37) scale(1.27 1.2)" x1="-296.67" id="未命名的渐变_22" y1="-302.92">
          <stop offset="0.12" stop-color="#666"/>
          <stop offset="0.9" stop-color="#333"/>
        </linearGradient>
        <linearGradient y2="11.75" gradientUnits="userSpaceOnUse" x2="13.88" x1="4.73" id="未命名的渐变_63" y1="6.9">
          <stop offset="0.12" stop-color="#d49a00"/>
          <stop offset="0.81" stop-color="#916306"/>
        </linearGradient>
      </defs>
      <polygon style="fill:url(#未命名的渐变_35)" points="9.45 18.96 2.26 14.65 2.26 6.3 9.45 10.61 9.45 18.96"/>
      <polygon style="fill:url(#未命名的渐变_126)" points="10.6 18.96 17.78 14.65 17.78 6.3 10.6 10.61 10.6 18.96"/>
      <polygon style="fill:url(#未命名的渐变_35-2)" points="9.99 9.7 2.77 5.37 9.99 1.04 17.2 5.37 9.99 9.7"/>
      <rect x="9.46" style="fill:#e5e5e5;stroke-linecap:round;stroke-miterlimit:10;stroke-width:0.5px;stroke:url(#未命名的渐变_22)" y="14.22" width="9.35" transform="translate(14.68 -5.63) rotate(45)" height="1.37"/>
      <polygon style="fill:#fcdb88" points="11.61 4.97 11.51 8.59 14.42 10.72 10.96 11.74 9.83 15.17 7.79 12.19 4.17 12.18 6.38 9.31 5.28 5.87 8.68 7.09 11.61 4.97"/>
      <path d="M10.55,7l0,1.59,0,.52.43.31,1.28.94-1.53.45-.5.14-.16.5-.5,1.51-.9-1.31-.29-.43H6.2l1-1.26.32-.41L7.33,9,6.85,7.5,8.34,8l.5.18.42-.31L10.55,7m1.06-2L8.68,7.09,5.28,5.87l1.1,3.44L4.17,12.18H7.79l2,3L11,11.74l3.46-1L11.51,8.58,11.61,5Z" style="fill:url(#未命名的渐变_63)"/>
    </svg>