<svg xmlns="http://www.w3.org/2000/svg" data-name="图层 1" id="图层_1" viewBox="0 0 20 20" xmlns:xlink="http://www.w3.org/1999/xlink">
      <defs>
        <linearGradient x1="3.87" y2="9.99" y1="9.99" gradientUnits="userSpaceOnUse" x2="16.04" id="未命名的渐变_63">
          <stop offset="0.12" stop-color="#d49a00"/>
          <stop offset="0.81" stop-color="#916306"/>
        </linearGradient>
      </defs>
      <path style="fill:#fcdb88" d="M15.68,8.09h-4.6L12,1.35a.16.16,0,0,0-.13-.17.16.16,0,0,0-.13.06L3.94,11.32a.35.35,0,0,0,.07.5.34.34,0,0,0,.22.07H8.82l-.9,6.74A.15.15,0,0,0,8,18.8a.2.2,0,0,0,.14-.06L16,8.66a.35.35,0,0,0-.28-.57Z"/>
      <path style="fill:url(#未命名的渐变_63)" d="M10.57,4.37,10.09,8,9.94,9.09h4.43l-5,6.52L9.81,12,10,10.89H5.53l5-6.52m1.27-3.19a.14.14,0,0,0-.11.06L3.94,11.32a.35.35,0,0,0,.07.5.34.34,0,0,0,.22.07H8.82l-.9,6.74A.15.15,0,0,0,8,18.8h0a.14.14,0,0,0,.12-.06L16,8.66a.36.36,0,0,0-.06-.5.34.34,0,0,0-.22-.07h-4.6L12,1.35a.16.16,0,0,0-.13-.17Z"/>
    </svg>