<svg id="图层_1" data-name="图层 1" viewBox="0 0 20 20" xmlns="http://www.w3.org/2000/svg" xmlns:xlink="http://www.w3.org/1999/xlink">
      <defs>
        <linearGradient id="未命名的渐变_72" y2="7.42" x1="1.17" x2="19.08" gradientUnits="userSpaceOnUse" y1="7.42">
          <stop offset="0.12" stop-color="#666"/>
          <stop offset="0.56" stop-color="#333"/>
        </linearGradient>
        <linearGradient id="未命名的渐变_72-2" y2="10.05" x1="14.11" xlink:href="#未命名的渐变_72" x2="19.08" y1="10.05"/>
        <linearGradient id="未命名的渐变_102" y2="12.89" x1="1.17" x2="14.11" gradientUnits="userSpaceOnUse" y1="12.89">
          <stop offset="0.01" stop-color="#379e4e"/>
          <stop offset="1" stop-color="#006837"/>
        </linearGradient>
      </defs>
      <polygon style="fill:#c1c1c1" points="1.17 9.82 9.7 3.22 19.08 4.14 14.11 11.62 1.17 9.82"/>
      <path d="M9.77,3.48l8.87.86-4.65,7L1.8,9.65l8-6.17m-.08-.26L1.17,9.82l12.94,1.8,5-7.48L9.69,3.22Z" style="fill:url(#未命名的渐变_72)"/>
      <polygon style="fill:#c1c1c1" points="14.11 15.96 19.08 7.33 19.08 4.14 14.11 11.62 14.11 15.96"/>
      <path d="M18.83,5V7.27L14.36,15V11.7L18.83,5m.25-.82-5,7.48V16l5-8.63V4.14Z" style="fill:url(#未命名的渐变_72-2)"/>
      <path d="M11.71,11.29a.34.34,0,0,1-.68,0s0,0,0-.06l-2-.28a.33.33,0,0,1-.33.3.35.35,0,0,1-.35-.34s0,0,0-.06l-2-.27a.34.34,0,0,1-.68,0,.06.06,0,0,1,0,0L3.8,10.18a.34.34,0,0,1-.33.29.35.35,0,0,1-.35-.35v0l-2-.27.25,5.43,1.84.1A.35.35,0,0,1,3.6,15a.35.35,0,0,1,.35.35v0l1.82.1v0a.34.34,0,0,1,.34-.34.35.35,0,0,1,.35.34s0,0,0,.06l1.93.11v0a.34.34,0,0,1,.34-.34.35.35,0,0,1,.35.34s0,0,0,.06l2,.12v0a.34.34,0,0,1,.34-.35.35.35,0,0,1,.35.35s0,0,0,.05l2.4.14V11.62ZM6.65,12.47,2.92,14.08a.28.28,0,0,1-.38-.24l0-1.92a.27.27,0,0,1,.29-.28L6.57,12A.27.27,0,0,1,6.65,12.47Zm6.12,2.37a.27.27,0,0,1-.29.27l-4.65-.33a.27.27,0,0,1-.07-.52l4.65-1.69a.27.27,0,0,1,.36.26Z" style="fill:#d4ffec"/>
      <path d="M1.44,10.11l1.47.2a.58.58,0,0,0,.56.41A.56.56,0,0,0,4,10.46l1.5.21a.61.61,0,0,0,.57.42.59.59,0,0,0,.5-.28L8.09,11a.6.6,0,0,0,.58.43.59.59,0,0,0,.5-.28l1.63.23a.59.59,0,0,0,.57.43.58.58,0,0,0,.5-.28l2,.28v3.85l-1.92-.1a.56.56,0,0,0-.19-.28l.72,0h0a.52.52,0,0,0,.52-.52v-2a.51.51,0,0,0-.16-.37.48.48,0,0,0-.36-.15h0a.47.47,0,0,0-.17,0L7.67,14a.52.52,0,0,0,.14,1l.65,0a.6.6,0,0,0-.29.3l-1.5-.08a.59.59,0,0,0-.57-.41.58.58,0,0,0-.53.35l-1.41-.08a.59.59,0,0,0-1.09-.06L1.66,15l-.22-4.9m1.37,4.24a.78.78,0,0,0,.21,0l3.73-1.62a.51.51,0,0,0,.31-.56.52.52,0,0,0-.47-.43l-3.84-.31a.52.52,0,0,0-.37.16.49.49,0,0,0-.14.38l0,1.91a.52.52,0,0,0,.52.51M9,15.11l2,.15a.58.58,0,0,0-.23.26l-1.55-.08A.62.62,0,0,0,9,15.11M1.17,9.82l.25,5.43,1.84.1A.35.35,0,0,1,3.6,15a.35.35,0,0,1,.35.35v0l1.82.1v0a.34.34,0,0,1,.34-.34.35.35,0,0,1,.35.34s0,0,0,.06l1.93.11v0a.34.34,0,0,1,.34-.34.35.35,0,0,1,.35.34s0,0,0,.06l2,.12v0a.34.34,0,0,1,.34-.35.35.35,0,0,1,.35.35s0,0,0,.05l2.4.14V11.62l-2.4-.33a.34.34,0,0,1-.68,0s0,0,0-.06l-2-.28a.33.33,0,0,1-.33.3.35.35,0,0,1-.35-.34s0,0,0-.06l-2-.27a.34.34,0,0,1-.68,0s0,0,0,0L3.8,10.18a.34.34,0,0,1-.33.29.35.35,0,0,1-.35-.35v0l-2-.27ZM2.81,14.1a.27.27,0,0,1-.27-.26l0-1.92a.26.26,0,0,1,.26-.28h0L6.57,12a.27.27,0,0,1,.08.52L2.92,14.08l-.11,0Zm9.69,1h0l-4.65-.33a.27.27,0,0,1-.07-.52l4.65-1.69h.09a.27.27,0,0,1,.27.27v2a.27.27,0,0,1-.27.27Z" style="fill:url(#未命名的渐变_102)"/>
    </svg>