<svg data-name="图层 1" xmlns:xlink="http://www.w3.org/1999/xlink" id="图层_1" viewBox="0 0 20 20" xmlns="http://www.w3.org/2000/svg">
      <defs>
        <linearGradient y2="16.36" y1="3.64" x1="3.64" x2="16.36" id="未命名的渐变_9" gradientUnits="userSpaceOnUse">
          <stop stop-color="#666" offset="0.12"/>
          <stop stop-color="#333" offset="0.95"/>
        </linearGradient>
        <linearGradient y2="10" y1="10" x1="6" x2="14" id="未命名的渐变_178" gradientUnits="userSpaceOnUse">
          <stop stop-color="#ff5559" offset="0.01"/>
          <stop stop-color="#aa001c" offset="1"/>
        </linearGradient>
      </defs>
      <circle cy="10" cx="10" style="fill:#fff" r="9"/>
      <path d="M10,2a8,8,0,1,1-8,8,8,8,0,0,1,8-8m0-1a9,9,0,1,0,9,9,9,9,0,0,0-9-9Z" style="fill:url(#未命名的渐变_9)"/>
      <rect x="6" width="8" y="6" height="8" rx="1" style="fill:#fcc5cd"/>
      <path d="M13,7v6H7V7h6m0-1H7A1,1,0,0,0,6,7v6a1,1,0,0,0,1,1h6a1,1,0,0,0,1-1V7a1,1,0,0,0-1-1Z" style="fill:url(#未命名的渐变_178)"/>
    </svg>