<svg xmlns="http://www.w3.org/2000/svg" data-name="图层 1" id="图层_1" viewBox="0 0 20 20" xmlns:xlink="http://www.w3.org/1999/xlink">
      <defs>
        <linearGradient x1="1.05" y2="11.41" y1="11.41" gradientUnits="userSpaceOnUse" x2="19.05" id="未命名的渐变_72">
          <stop offset="0.12" stop-color="#666"/>
          <stop offset="0.56" stop-color="#333"/>
        </linearGradient>
        <linearGradient x1="1.05" y2="2.91" y1="2.91" x2="13.06" id="未命名的渐变_72-2" xlink:href="#未命名的渐变_72"/>
        <linearGradient x1="9.94" y2="17.06" y1="9.92" gradientUnits="userSpaceOnUse" x2="17.08" id="未命名的渐变_63">
          <stop offset="0.12" stop-color="#d49a00"/>
          <stop offset="0.81" stop-color="#916306"/>
        </linearGradient>
      </defs>
      <rect y="3.8" height="15.23" x="1.05" style="fill:#fff" rx="1.32" width="18"/>
      <path style="fill:url(#未命名的渐变_72)" d="M17.73,4.8a.32.32,0,0,1,.32.31v12.6a.32.32,0,0,1-.32.32H2.36a.31.31,0,0,1-.31-.32V5.11a.31.31,0,0,1,.31-.31H17.73m0-1H2.36A1.31,1.31,0,0,0,1.05,5.11v12.6A1.32,1.32,0,0,0,2.36,19H17.73a1.32,1.32,0,0,0,1.32-1.32V5.11A1.32,1.32,0,0,0,17.73,3.8Z"/>
      <path style="fill:#fff" d="M1.05,4.09V1.72A.73.73,0,0,1,1.81,1h8.58a.8.8,0,0,1,.62.28l1.9,2.38a.69.69,0,0,1-.62,1.1H1.81A.73.73,0,0,1,1.05,4.09Z"/>
      <path style="fill:url(#未命名的渐变_72-2)" d="M10.3,2l1.41,1.76H2.05V2H10.3m.08-1H1.81a.73.73,0,0,0-.76.69V4.09a.73.73,0,0,0,.76.7H12.29a.69.69,0,0,0,.62-1.1L11,1.31A.81.81,0,0,0,10.38,1Z"/>
      <path style="fill:#fcdb88" d="M18.24,11.41H15.58V8.75a.8.8,0,0,0-.8-.8H12.23a.8.8,0,0,0-.8.8v2.66H8.77a.8.8,0,0,0-.8.81v2.54a.8.8,0,0,0,.8.81h2.66v2.65a.8.8,0,0,0,.8.81h2.55a.8.8,0,0,0,.8-.81V15.57h2.66a.81.81,0,0,0,.81-.81V12.22A.81.81,0,0,0,18.24,11.41Z"/>
      <path style="fill:url(#未命名的渐变_63)" d="M14.58,9v3.46h3.47v2.16H14.58V18H12.43V14.57H9V12.41h3.46V9h2.15m.2-1H12.23a.8.8,0,0,0-.8.8v2.66H8.77a.8.8,0,0,0-.8.81v2.54a.8.8,0,0,0,.8.81h2.66v2.65a.8.8,0,0,0,.8.81h2.55a.8.8,0,0,0,.8-.81V15.57h2.66a.81.81,0,0,0,.81-.81V12.22a.81.81,0,0,0-.81-.81H15.58V8.75a.8.8,0,0,0-.8-.8Z"/>
    </svg>