<svg xmlns:xlink="http://www.w3.org/1999/xlink" data-name="图层 1" viewBox="0 0 20 20" id="图层_1" xmlns="http://www.w3.org/2000/svg">
      <defs>
        <linearGradient x1="4.05" x2="16.64" gradientUnits="userSpaceOnUse" id="未命名的渐变_22" y2="3.25" y1="15.84">
          <stop offset="0.12" stop-color="#666"/>
          <stop offset="0.9" stop-color="#333"/>
        </linearGradient>
        <linearGradient x1="7.98" x2="16.64" xlink:href="#未命名的渐变_22" id="未命名的渐变_22-2" y2="3.25" y1="11.91"/>
      </defs>
      <rect style="fill:#fff" height="8.83" width="17.81" x="1.44" rx="1.63" transform="translate(-3.72 10.11) rotate(-45)" y="5.13"/>
      <path d="M13.52,1.8A.64.64,0,0,1,14,2L17.9,5.92a.63.63,0,0,1,0,.9L7.62,17.1a.63.63,0,0,1-.9,0L2.79,13.17a.63.63,0,0,1,0-.9L13.07,2a.64.64,0,0,1,.45-.19m0-1a1.64,1.64,0,0,0-1.16.48L2.08,11.57a1.63,1.63,0,0,0,0,2.31L6,17.81a1.64,1.64,0,0,0,1.16.48,1.61,1.61,0,0,0,1.15-.48L18.61,7.53a1.63,1.63,0,0,0,0-2.31L14.67,1.28A1.61,1.61,0,0,0,13.52.8Z" style="fill:url(#未命名的渐变_22)"/>
      <path d="M18.61,7.53,11.1,15,4.86,8.79l7.5-7.51a1.63,1.63,0,0,1,2.31,0l3.94,3.94A1.63,1.63,0,0,1,18.61,7.53Z" style="fill:#e0e0e0"/>
      <path d="M13.52,1.8A.64.64,0,0,1,14,2L17.9,5.92a.63.63,0,0,1,0,.9l-6.8,6.8L6.27,8.79,13.07,2a.64.64,0,0,1,.45-.19m0-1a1.64,1.64,0,0,0-1.16.48L4.86,8.79,11.1,15l7.51-7.5a1.63,1.63,0,0,0,0-2.31L14.67,1.28A1.61,1.61,0,0,0,13.52.8Z" style="fill:url(#未命名的渐变_22-2)"/>
    </svg>