<svg xmlns="http://www.w3.org/2000/svg" data-name="图层 1" id="图层_1" viewBox="0 0 20 20" xmlns:xlink="http://www.w3.org/1999/xlink">
      <defs>
        <linearGradient x1="1.14" y2="9.99" y1="9.99" gradientUnits="userSpaceOnUse" x2="11.31" id="未命名的渐变_22">
          <stop offset="0.12" stop-color="#666"/>
          <stop offset="0.9" stop-color="#333"/>
        </linearGradient>
        <linearGradient x1="6.56" y2="9.99" y1="9.99" gradientUnits="userSpaceOnUse" x2="18.86" id="未命名的渐变_178">
          <stop offset="0.01" stop-color="#ff5559"/>
          <stop offset="1" stop-color="#aa001c"/>
        </linearGradient>
      </defs>
      <rect y="1.17" height="17.62" x="1.14" style="fill:#fff" rx="2" width="10.17"/>
      <path style="fill:url(#未命名的渐变_22)" d="M9.31,2.17a1,1,0,0,1,1,1V16.8a1,1,0,0,1-1,1H3.14a1,1,0,0,1-1-1V3.17a1,1,0,0,1,1-1H9.31m0-1H3.14a2,2,0,0,0-2,2V16.8a2,2,0,0,0,2,2H9.31a2,2,0,0,0,2-2V3.17a2,2,0,0,0-2-2Z"/>
      <polygon points="18.86 9.99 12.66 5.24 12.66 7.95 6.56 7.95 6.56 12.02 12.66 12.02 12.66 14.73 18.86 9.99" style="fill:#fcc5cd"/>
      <path style="fill:url(#未命名的渐变_178)" d="M13.66,7.27,17.22,10l-3.56,2.72V11H7.56V9h6.1V7.27m-1-2V8H6.56V12h6.1v2.71L18.86,10l-6.2-4.75Z"/>
    </svg>