<svg xmlns="http://www.w3.org/2000/svg" data-name="图层 1" id="图层_1" viewBox="0 0 20 20" xmlns:xlink="http://www.w3.org/1999/xlink">
      <defs>
        <linearGradient x1="1.05" y2="11.41" y1="11.41" gradientUnits="userSpaceOnUse" x2="19.05" id="未命名的渐变_72">
          <stop offset="0.12" stop-color="#666"/>
          <stop offset="0.56" stop-color="#333"/>
        </linearGradient>
        <linearGradient x1="1.05" y2="2.91" y1="2.91" x2="13.06" id="未命名的渐变_72-2" xlink:href="#未命名的渐变_72"/>
        <linearGradient x1="13.74" y2="12.21" y1="7.05" gradientUnits="userSpaceOnUse" x2="18.9" id="未命名的渐变_102">
          <stop offset="0.01" stop-color="#379e4e"/>
          <stop offset="1" stop-color="#006837"/>
        </linearGradient>
        <linearGradient x1="8.17" y2="17.33" y1="10.64" x2="14.86" id="未命名的渐变_102-2" xlink:href="#未命名的渐变_102"/>
      </defs>
      <rect y="3.8" height="15.23" x="1.05" style="fill:#fff" rx="1.32" width="18"/>
      <path style="fill:url(#未命名的渐变_72)" d="M17.73,4.8a.32.32,0,0,1,.32.31v12.6a.32.32,0,0,1-.32.32H2.36a.31.31,0,0,1-.31-.32V5.11a.31.31,0,0,1,.31-.31H17.73m0-1H2.36A1.31,1.31,0,0,0,1.05,5.11v12.6A1.32,1.32,0,0,0,2.36,19H17.73a1.32,1.32,0,0,0,1.32-1.32V5.11A1.32,1.32,0,0,0,17.73,3.8Z"/>
      <path style="fill:#fff" d="M1.05,4.09V1.72A.73.73,0,0,1,1.81,1h8.58a.8.8,0,0,1,.62.28l1.9,2.38a.69.69,0,0,1-.62,1.1H1.81A.73.73,0,0,1,1.05,4.09Z"/>
      <path style="fill:url(#未命名的渐变_72-2)" d="M10.3,2l1.41,1.76H2.05V2H10.3m.08-1H1.81a.73.73,0,0,0-.76.69V4.09a.73.73,0,0,0,.76.7H12.29a.69.69,0,0,0,.62-1.1L11,1.31A.81.81,0,0,0,10.38,1Z"/>
      <path style="fill:#d4ffec" d="M18.75,7.27a1.09,1.09,0,0,0-1.55,0L15.48,9l-.59-.58a1.77,1.77,0,0,0-2.52,0l-1,1,5.16,5.16,1-1a1.78,1.78,0,0,0,0-2.51L17,10.54l1.73-1.72A1.11,1.11,0,0,0,18.75,7.27Z"/>
      <path style="fill:url(#未命名的渐变_102)" d="M18,8A.09.09,0,0,1,18,8a.11.11,0,0,1,0,.13L16.32,9.83l-.71.71.71.71.51.51a.78.78,0,0,1,0,1.11l-.32.32L12.76,9.44l.32-.32a.78.78,0,0,1,1.11,0l.58.58.71.71.7-.71L17.91,8A.09.09,0,0,1,18,8m0-1a1.09,1.09,0,0,0-.77.32L15.48,9l-.59-.58a1.79,1.79,0,0,0-2.52,0l-1,1,5.16,5.16,1-1a1.78,1.78,0,0,0,0-2.51L17,10.54l1.73-1.72a1.11,1.11,0,0,0,0-1.55A1.13,1.13,0,0,0,18,7Z"/>
      <polygon points="10.82 9.93 15.99 15.09 13.18 19.01 6.49 12.32 10.82 9.93" style="fill:#d4ffec"/>
      <path style="fill:url(#未命名的渐变_102-2)" d="M10.65,11.17l4,4-1.63,2.27L8.14,12.55l2.51-1.38m.17-1.24L6.49,12.32,13.18,19,16,15.09,10.82,9.93Z"/>
    </svg>