<svg xmlns="http://www.w3.org/2000/svg" data-name="图层 1" id="图层_1" viewBox="0 0 20 20" xmlns:xlink="http://www.w3.org/1999/xlink">
      <defs>
        <linearGradient x1="5.94" y2="20.21" y1="9.01" gradientUnits="userSpaceOnUse" x2="17.14" id="未命名的渐变_6">
          <stop offset="0" stop-color="#d49a00"/>
          <stop offset="1" stop-color="#916306"/>
        </linearGradient>
      </defs>
      <path style="fill:url(#未命名的渐变_6)" d="M8.1,3.86,2,13.89a2.22,2.22,0,0,0,1.9,3.37H16.08A2.22,2.22,0,0,0,18,13.89l-6.08-10A2.22,2.22,0,0,0,8.1,3.86Z"/>
      <path style="fill:#fff" d="M10.19,15.59a.84.84,0,0,1-.86-.9.86.86,0,0,1,.86-.9.88.88,0,0,1,.89.9A.86.86,0,0,1,10.19,15.59Zm0-8.81c.38,0,.8.08.81.48a3.91,3.91,0,0,1,0,.54c-.1,1.08-.38,3.61-.49,5.28H9.91C9.78,11.41,9.53,9,9.42,7.82c0-.19,0-.44,0-.58C9.38,6.88,9.78,6.78,10.18,6.78Z"/>
    </svg>