<svg xmlns="http://www.w3.org/2000/svg" data-name="图层 1" id="图层_1" viewBox="0 0 20 20" xmlns:xlink="http://www.w3.org/1999/xlink">
      <defs>
        <linearGradient x1="1.14" y2="10" y1="10" gradientUnits="userSpaceOnUse" x2="18.89" id="未命名的渐变_126">
          <stop offset="0.12" stop-color="#0384c5"/>
          <stop offset="0.9" stop-color="#0063b1"/>
        </linearGradient>
      </defs>
      <circle r="8.88" cx="10.02" cy="10" style="fill:url(#未命名的渐变_126)"/>
      <path style="fill:#fff" d="M9.14,15.08a.94.94,0,0,1-.72-.3,1,1,0,0,1-.27-.73,15.3,15.3,0,0,1,.71-3.16l-.34-.3-2.23,1L7.86,9.85A5.65,5.65,0,0,1,9.18,8.73a2.39,2.39,0,0,1,1.16-.37h.07a.85.85,0,0,1,.66.25.79.79,0,0,1,.2.59A8.71,8.71,0,0,1,10.82,11c-.34,1.15-.51,1.81-.6,2.19l.7-.31,2.82-1.34-2.27,2.14a8.18,8.18,0,0,1-1.41,1.15A1.9,1.9,0,0,1,9.14,15.08Zm1.65-7.41A1.05,1.05,0,0,1,10,7.34a1.14,1.14,0,0,1-.3-.8,1.46,1.46,0,0,1,.37-1A1.27,1.27,0,0,1,11,5.13a1.09,1.09,0,0,1,.79.32,1.12,1.12,0,0,1,.31.79,1.42,1.42,0,0,1-.39,1A1.24,1.24,0,0,1,10.79,7.67Z"/>
    </svg>