<svg xmlns:xlink="http://www.w3.org/1999/xlink" xmlns="http://www.w3.org/2000/svg" viewBox="0 0 20 20" data-name="图层 1" id="图层_1">
      <defs>
        <linearGradient x2="8.91" x1="2.56" y1="2.56" y2="8.91" id="未命名的渐变_102" gradientUnits="userSpaceOnUse">
          <stop offset="0.01" stop-color="#379e4e"/>
          <stop offset="1" stop-color="#006837"/>
        </linearGradient>
        <linearGradient x2="17.44" x1="8.92" y1="8.91" y2="17.44" id="未命名的渐变_102-2" xlink:href="#未命名的渐变_102"/>
      </defs>
      <circle cx="5.73" cy="5.73" r="4.49" style="fill:#d4ffec"/>
      <path d="M5.73,2.24a3.49,3.49,0,1,1-2.47,1,3.5,3.5,0,0,1,2.47-1m0-1A4.5,4.5,0,0,0,2.56,8.91a4.48,4.48,0,0,0,6.35,0A4.5,4.5,0,0,0,5.73,1.24Z" style="fill:url(#未命名的渐变_102)"/>
      <circle cx="13.18" cy="13.18" r="6.03" style="fill:#d4ffec"/>
      <path d="M13.18,8.15A5,5,0,1,1,9.62,9.62a5,5,0,0,1,3.56-1.47m0-1a6,6,0,1,0,4.26,1.76,6,6,0,0,0-4.26-1.76Z" style="fill:url(#未命名的渐变_102-2)"/>
    </svg>