<svg xmlns="http://www.w3.org/2000/svg" data-name="图层 1" id="图层_1" viewBox="0 0 20 20" xmlns:xlink="http://www.w3.org/1999/xlink">
      <defs>
        <linearGradient x1="6.8" y2="9.87" y1="9.87" gradientUnits="userSpaceOnUse" x2="12.83" id="未命名的渐变_72">
          <stop offset="0.12" stop-color="#666"/>
          <stop offset="0.56" stop-color="#333"/>
        </linearGradient>
        <linearGradient x1="5.1" y2="3.9" y1="18.29" gradientUnits="userSpaceOnUse" x2="19.49" id="未命名的渐变_89">
          <stop offset="0.01" stop-color="#d4ffec"/>
          <stop offset="1" stop-color="#a1ddaa"/>
        </linearGradient>
        <linearGradient x1="3.01" y2="10.04" y1="10.04" gradientUnits="userSpaceOnUse" x2="18.86" id="未命名的渐变_102">
          <stop offset="0.01" stop-color="#379e4e"/>
          <stop offset="1" stop-color="#006837"/>
        </linearGradient>
      </defs>
      <circle r="3.02" cx="9.82" cy="9.87" style="fill:#fff"/>
      <path style="fill:url(#未命名的渐变_72)" d="M9.82,7.85a2,2,0,1,1-2,2,2,2,0,0,1,2-2m0-1a3,3,0,1,0,3,3,3,3,0,0,0-3-3Z"/>
      <path style="fill:url(#未命名的渐变_89)" d="M16.76,3.74l1.29-1.28L13.27,1.17,14.55,6l1.17-1.17A7.83,7.83,0,0,1,9.57,17.48,7.77,7.77,0,0,1,4,15.18l-1,1a9.28,9.28,0,0,0,13.13,0,9.29,9.29,0,0,0,.62-12.45Z"/>
      <path style="fill:url(#未命名的渐变_102)" d="M14.68,2.59,16.12,3,16.05,3l-.64.64h0L15.07,4l-.39-1.43M13.27,1.17,14.55,6l1.17-1.17A7.83,7.83,0,0,1,9.57,17.48,7.77,7.77,0,0,1,4,15.18l-1,1a9.28,9.28,0,0,0,13.13,0,9.29,9.29,0,0,0,.62-12.45l1.29-1.28L13.27,1.17Z"/>
    </svg>