<svg xmlns="http://www.w3.org/2000/svg" data-name="图层 1" id="图层_1" viewBox="0 0 20 20" xmlns:xlink="http://www.w3.org/1999/xlink">
      <defs>
        <linearGradient x1="14.27" y2="10.03" y1="10.03" gradientUnits="userSpaceOnUse" x2="18.86" id="未命名的渐变_72">
          <stop offset="0.12" stop-color="#666"/>
          <stop offset="0.56" stop-color="#333"/>
        </linearGradient>
        <linearGradient x1="1.14" y2="10.03" y1="10.03" gradientUnits="userSpaceOnUse" x2="14.37" id="未命名的渐变_89">
          <stop offset="0.01" stop-color="#d4ffec"/>
          <stop offset="1" stop-color="#a1ddaa"/>
        </linearGradient>
        <linearGradient x1="1.14" y2="10.03" y1="10.03" gradientUnits="userSpaceOnUse" x2="14.37" id="未命名的渐变_102">
          <stop offset="0.01" stop-color="#379e4e"/>
          <stop offset="1" stop-color="#006837"/>
        </linearGradient>
      </defs>
      <circle r="2.3" cx="16.56" cy="10.03" style="fill:#fff"/>
      <path style="fill:url(#未命名的渐变_72)" d="M16.56,8.74A1.3,1.3,0,1,1,15.27,10a1.3,1.3,0,0,1,1.29-1.29m0-1A2.3,2.3,0,1,0,18.86,10a2.3,2.3,0,0,0-2.3-2.29Z"/>
      <polygon points="14.37 10.04 7.7 5.44 7.7 8.07 1.14 8.07 1.14 12 7.7 12 7.7 14.63 14.37 10.04" style="fill:url(#未命名的渐变_89)"/>
      <path style="fill:url(#未命名的渐变_102)" d="M8.7,7.34,12.61,10,8.7,12.73V11H2.14V9.07H8.7V7.34m-1-1.9V8.07H1.14V12H7.7v2.63L14.37,10,7.7,5.44Z"/>
    </svg>