<svg xmlns:xlink="http://www.w3.org/1999/xlink" xmlns="http://www.w3.org/2000/svg" viewBox="0 0 20 20" data-name="图层 1" id="图层_1">
      <defs>
        <linearGradient x2="18.44" x1="1.08" y1="12.53" y2="12.53" id="未命名的渐变_102" gradientUnits="userSpaceOnUse">
          <stop offset="0.01" stop-color="#379e4e"/>
          <stop offset="1" stop-color="#006837"/>
        </linearGradient>
        <linearGradient x2="15.83" x1="6.44" y1="6.85" y2="6.85" id="未命名的渐变_102-2" xlink:href="#未命名的渐变_102"/>
      </defs>
      <polygon points="14.29 17.23 1.08 17.23 5.23 7.83 18.44 7.83 14.29 17.23" style="fill:#d4ffec"/>
      <path d="M16.9,8.83l-3.27,7.4h-11l3.27-7.4h11m1.54-1H5.23l-4.15,9.4h13.2l4.16-9.4Z" style="fill:url(#未命名的渐变_102)"/>
      <circle cx="11.13" cy="6.85" r="4.69" style="fill:#d4ffec"/>
      <path d="M11.13,3.15a3.7,3.7,0,1,1-3.69,3.7,3.7,3.7,0,0,1,3.69-3.7m0-1a4.7,4.7,0,1,0,4.7,4.7,4.7,4.7,0,0,0-4.7-4.7Z" style="fill:url(#未命名的渐变_102-2)"/>
    </svg>