<svg xmlns="http://www.w3.org/2000/svg" data-name="图层 1" id="图层_1" viewBox="0 0 20 20" xmlns:xlink="http://www.w3.org/1999/xlink">
      <defs>
        <linearGradient x1="7.58" y2="6.75" y1="18.55" gradientUnits="userSpaceOnUse" x2="19.37" id="未命名的渐变_126">
          <stop offset="0.12" stop-color="#0384c5"/>
          <stop offset="0.9" stop-color="#0063b1"/>
        </linearGradient>
        <linearGradient x1="3.03" y2="2.39" y1="11.23" gradientUnits="userSpaceOnUse" x2="11.88" id="未命名的渐变_72">
          <stop offset="0.12" stop-color="#666"/>
          <stop offset="0.56" stop-color="#333"/>
        </linearGradient>
      </defs>
      <path style="fill:#d4edff" d="M14.65,2,2.86,13.83A8.34,8.34,0,0,0,13,15.11l3.74,3.73,2.21-2.21L15.34,13A8.34,8.34,0,0,0,14.65,2Z"/>
      <path style="fill:url(#未命名的渐变_126)" d="M14.6,3.5a7.34,7.34,0,0,1,0,8.92l-.54.7.62.63,2.89,2.88-.8.8-3-3-.55-.55-.66.4a7.41,7.41,0,0,1-3.74,1,7.28,7.28,0,0,1-4.42-1.48L14.6,3.5M14.65,2,2.86,13.83A8.35,8.35,0,0,0,13,15.11l3.74,3.73,2.21-2.21L15.34,13a8.34,8.34,0,0,0-.69-11Z"/>
      <path style="fill:#fff" d="M13,3.65A6.24,6.24,0,0,0,5.8,3.5L3.39,1.09,1.18,3.3,3.74,5.86a6.25,6.25,0,0,0,.56,6.53l-.06,0,2.21,2.21,1.39-1.38L6.28,11.7l.91-.91,3,3,1.47-1.48-3-3,1.47-1.47,3,3L14.65,9.4l-3-3,.74-.74,1.56,1.56L15.3,5.81,13.09,3.6Z"/>
      <path style="fill:url(#未命名的渐变_72)" d="M3.39,1.79,5.44,3.85l.29.29.35-.23a5.77,5.77,0,0,1,6.66.14l.34.26h0l1.5,1.51-.68.68L12.7,5.28l-.35-.36L12,5.28,11.26,6l-.35.36.35.35L13.94,9.4l-.76.77L10.49,7.49l-.35-.36-.35.36L8.31,9,8,9.31l.35.36L11,12.35l-.77.77L7.54,10.43l-.35-.35-.35.35-.92.92-.35.35.35.36,1.21,1.21L6.45,14,5,12.44H5l-.25-.35a5.71,5.71,0,0,1-.51-6l.16-.32L4.1,5.51,1.88,3.3,3.39,1.79m0-.7L1.18,3.3,3.74,5.86a6.25,6.25,0,0,0,.56,6.53l-.06,0,2.21,2.21,1.39-1.38L6.28,11.7l.91-.91,3,3,1.47-1.48-3-3,1.47-1.47,3,3L14.65,9.4l-3-3,.74-.74,1.56,1.56L15.3,5.81,13.09,3.6l-.05,0A6.27,6.27,0,0,0,9.31,2.42,6.2,6.2,0,0,0,5.8,3.5L3.39,1.09Z"/>
    </svg>