<svg xmlns="http://www.w3.org/2000/svg" data-name="图层 1" id="图层_1" viewBox="0 0 20 20" xmlns:xlink="http://www.w3.org/1999/xlink">
      <defs>
        <linearGradient x1="2.76" y2="14.36" y1="1.77" gradientUnits="userSpaceOnUse" x2="10.02" id="未命名的渐变_72">
          <stop offset="0.12" stop-color="#666"/>
          <stop offset="0.56" stop-color="#333"/>
        </linearGradient>
        <linearGradient x1="17.77" y2="20.75" y1="11.79" x2="2.23" id="未命名的渐变_72-2" xlink:href="#未命名的渐变_72"/>
        <linearGradient x1="9.86" y2="8.2" y1="2.02" gradientUnits="userSpaceOnUse" x2="13.43" id="未命名的渐变_126">
          <stop offset="0.12" stop-color="#0384c5"/>
          <stop offset="0.9" stop-color="#0063b1"/>
        </linearGradient>
        <linearGradient x1="13.14" y2="14.13" y1="7.95" x2="16.71" id="未命名的渐变_126-2" xlink:href="#未命名的渐变_126"/>
      </defs>
      <rect y="1.17" height="13.78" x="3.77" style="fill:#fff" rx="0.04" width="5.25"/>
      <path style="fill:url(#未命名的渐变_72)" d="M8,2.17V14H4.77V2.17H8m1-1H3.81a0,0,0,0,0,0,.05V14.91a0,0,0,0,0,0,.05H9a0,0,0,0,0,0-.05V1.22a0,0,0,0,0,0-.05Z"/>
      <rect y="13.64" height="5.25" x="1.14" style="fill:#fff" rx="0.04" width="17.72"/>
      <path style="fill:url(#未命名的渐变_72-2)" d="M17.86,14.64V17.9H2.14V14.64H17.86m1-1H1.19a0,0,0,0,0-.05,0v5.16a0,0,0,0,0,.05,0H18.82a0,0,0,0,0,0,0V13.69a0,0,0,0,0,0,0Z"/>
      <rect y="2.49" height="5.25" x="9.02" style="fill:#d4edff" rx="0.04" width="5.25"/>
      <path style="fill:url(#未命名的渐变_126)" d="M13.27,3.49V6.74H10V3.49h3.25m1-1H9.06a0,0,0,0,0,0,0V7.69a0,0,0,0,0,0,0h5.16a0,0,0,0,0,0,0V2.53a0,0,0,0,0,0,0Z"/>
      <rect y="8.42" height="5.25" x="12.3" style="fill:#d4edff" rx="0.04" width="5.25"/>
      <path style="fill:url(#未命名的渐变_126-2)" d="M16.55,9.42v3.25H13.3V9.42h3.25m.95-1H12.34a0,0,0,0,0,0,0v5.16a0,0,0,0,0,0,.05H17.5a0,0,0,0,0,.05-.05V8.46a0,0,0,0,0-.05,0Z"/>
    </svg>