<svg xmlns="http://www.w3.org/2000/svg" data-name="图层 1" id="图层_1" viewBox="0 0 20 20" xmlns:xlink="http://www.w3.org/1999/xlink">
      <defs>
        <linearGradient x1="14.07" y2="14.1" y1="16.63" gradientUnits="userSpaceOnUse" x2="16.59" id="未命名的渐变_72">
          <stop offset="0.12" stop-color="#666"/>
          <stop offset="0.56" stop-color="#333"/>
        </linearGradient>
        <linearGradient x1="2.94" y2="12.58" y1="14.6" x2="4.96" id="未命名的渐变_72-2" xlink:href="#未命名的渐变_72"/>
        <linearGradient x1="12.55" y2="2.97" y1="4.99" x2="14.57" id="未命名的渐变_72-3" xlink:href="#未命名的渐变_72"/>
        <linearGradient x1="5.72" y2="5.75" y1="14.35" x2="14.32" id="未命名的渐变_72-4" xlink:href="#未命名的渐变_72"/>
        <linearGradient x1="6.98" y2="7.02" y1="10.56" gradientUnits="userSpaceOnUse" x2="10.52" id="未命名的渐变_126">
          <stop offset="0.12" stop-color="#0384c5"/>
          <stop offset="0.9" stop-color="#0063b1"/>
        </linearGradient>
        <linearGradient x1="3.44" y2="3.48" y1="6.01" x2="5.97" id="未命名的渐变_126-2" xlink:href="#未命名的渐变_126"/>
      </defs>
      <rect y="12.14" height="6.44" transform="translate(-6.37 15.34) rotate(-45)" x="13.54" style="fill:#fff" width="3.58"/>
      <path style="fill:url(#未命名的渐变_72)" d="M14.32,13.24l3.14,3.14-1.12,1.11L13.2,14.35l1.12-1.11m0-1.42-2.53,2.53,4.55,4.55,2.53-2.53-4.55-4.55Z"/>
      <path style="fill:#fff" d="M6.23,13.85l-1.31,1.3a1,1,0,0,1-1.44,0L2.39,14.06a1,1,0,0,1,0-1.44l1.31-1.3Z"/>
      <path style="fill:url(#未命名的渐变_72-2)" d="M3.7,12.73l1.1,1.11-.61.6L3.1,13.33l.6-.6m0-1.41-1.31,1.3a1,1,0,0,0,0,1.44l1.09,1.09a1,1,0,0,0,1.44,0l1.31-1.3L3.7,11.32Z"/>
      <path style="fill:#fff" d="M15.09,5,13.81,6.26,11.28,3.73l1.28-1.28a1.06,1.06,0,0,1,1.49,0l1,1A1.06,1.06,0,0,1,15.09,5Z"/>
      <path style="fill:url(#未命名的渐变_72-3)" d="M13.31,3.14l0,0,1,1a.08.08,0,0,1,0,.09l-.57.56L12.7,3.73l.57-.57a0,0,0,0,1,0,0m0-1a1.1,1.1,0,0,0-.75.31L11.28,3.73l2.53,2.53L15.09,5a1.06,1.06,0,0,0,0-1.49l-1-1a1.05,1.05,0,0,0-.74-.31Z"/>
      <path style="fill:#fff" d="M8.25,4.74,11.71,8.2a1.56,1.56,0,0,1,0,2.19l-1.36,1.35a1.53,1.53,0,0,1-2.18,0L4.71,8.28,2.18,10.81l4.57,4.57a3.54,3.54,0,0,0,5,0l3.58-3.58a3.54,3.54,0,0,0,0-5L10.78,2.21Z"/>
      <path style="fill:url(#未命名的渐变_72-4)" d="M10.78,3.63l3.86,3.86a2.55,2.55,0,0,1,0,3.61l-3.58,3.58a2.56,2.56,0,0,1-3.6,0L3.59,10.81,4.71,9.7l2.75,2.75a2.56,2.56,0,0,0,3.6,0l1.36-1.36a2.56,2.56,0,0,0,0-3.6L9.66,4.74l1.12-1.11m0-1.42L8.25,4.74,11.71,8.2a1.56,1.56,0,0,1,0,2.19l-1.36,1.35a1.55,1.55,0,0,1-1.09.45,1.53,1.53,0,0,1-1.09-.45L4.71,8.28,2.18,10.81l4.57,4.57a3.55,3.55,0,0,0,5,0l3.58-3.58a3.54,3.54,0,0,0,0-5L10.78,2.21Z"/>
      <path style="fill:#d4edff" d="M11.73,10.36l-1.4,1.41a1.51,1.51,0,0,1-2.14,0L4.71,8.28,8.25,4.74l3.48,3.49A1.5,1.5,0,0,1,11.73,10.36Z"/>
      <path style="fill:url(#未命名的渐变_126)" d="M8.25,6.16,11,8.93a.51.51,0,0,1,0,.72L9.62,11.06a.51.51,0,0,1-.36.15.49.49,0,0,1-.36-.15L6.12,8.28,8.25,6.16m0-1.42L4.71,8.28l3.48,3.49a1.52,1.52,0,0,0,2.14,0l1.4-1.41a1.5,1.5,0,0,0,0-2.13L8.25,4.74Z"/>
      <rect y="1.52" height="6.44" transform="translate(-1.97 4.72) rotate(-45)" x="2.92" style="fill:#d4edff" width="3.58"/>
      <path style="fill:url(#未命名的渐变_126-2)" d="M3.7,2.61,6.83,5.75,5.72,6.87,2.58,3.73,3.7,2.61m0-1.41L1.17,3.73,5.72,8.28,8.25,5.75,3.7,1.2Z"/>
    </svg>