<svg xmlns="http://www.w3.org/2000/svg" data-name="图层 1" id="图层_1" viewBox="0 0 20 20" xmlns:xlink="http://www.w3.org/1999/xlink">
      <defs>
        <linearGradient x1="12.32" y2="19.54" y1="1.08" gradientUnits="userSpaceOnUse" x2="7.37" id="未命名的渐变_126">
          <stop offset="0.12" stop-color="#0384c5"/>
          <stop offset="0.9" stop-color="#0063b1"/>
        </linearGradient>
        <linearGradient x1="16.86" y2="5.88" y1="1.62" x2="15.72" id="未命名的渐变_126-2" xlink:href="#未命名的渐变_126"/>
        <linearGradient x1="11.97" y2="17.1" y1="3.23" gradientUnits="userSpaceOnUse" x2="8.25" id="未命名的渐变_72">
          <stop offset="0.12" stop-color="#666"/>
          <stop offset="0.56" stop-color="#333"/>
        </linearGradient>
        <linearGradient x1="14.22" y2="11.18" y1="2.73" x2="11.96" id="未命名的渐变_72-2" xlink:href="#未命名的渐变_72"/>
      </defs>
      <path style="fill:#d4edff" d="M13.87,1.5,1.4,14c-.64.64-.12,2.21,1.17,3.5s2.86,1.82,3.51,1.17L18.54,6.17Z"/>
      <path style="fill:url(#未命名的渐变_126)" d="M13.87,2.91l3.26,3.27L5.41,17.91h-.1a3.51,3.51,0,0,1-2-1.15,3.32,3.32,0,0,1-1.17-2.1L13.87,2.91m0-1.41L1.4,14c-.64.64-.12,2.21,1.17,3.5a4.38,4.38,0,0,0,2.74,1.45,1.06,1.06,0,0,0,.77-.28L18.54,6.17,13.87,1.5Z"/>
      <ellipse cx="16.29" cy="3.75" transform="translate(2.12 12.61) rotate(-45)" style="fill:#d4edff" ry="3.33" rx="1.67"/>
      <path style="fill:url(#未命名的渐变_126-2)" d="M14.71,2.11h0a3.58,3.58,0,0,1,2.05,1.17,3.3,3.3,0,0,1,1.16,2.1h-.05a3.52,3.52,0,0,1-2.05-1.16,3.39,3.39,0,0,1-1.17-2.1h.06m0-1a1.07,1.07,0,0,0-.78.28c-.65.65-.12,2.24,1.18,3.54a4.42,4.42,0,0,0,2.76,1.45,1,1,0,0,0,.77-.28c.65-.65.13-2.23-1.17-3.53a4.46,4.46,0,0,0-2.76-1.46Z"/>
      <path style="fill:#fff" d="M8.41,2.28,3,7.73c-1.29,1.29-.25,4.43,2.34,7s5.72,3.62,7,2.33l5.45-5.45Z"/>
      <path style="fill:url(#未命名的渐变_72)" d="M8.41,3.69l7.94,7.94L11.6,16.38a1.15,1.15,0,0,1-.83.26c-1.32,0-3.19-1-4.77-2.6a10,10,0,0,1-2.38-3.6c-.3-.92-.29-1.67,0-2L8.41,3.69m0-1.41L3,7.73c-1.29,1.29-.25,4.43,2.34,7,1.83,1.83,3.94,2.89,5.47,2.89a2.1,2.1,0,0,0,1.54-.56l5.45-5.45L8.41,2.28Z"/>
      <path style="fill:#fff" d="M17.45,7.27l-.85.85c-.65.65-2.22.13-3.51-1.17s-1.82-2.86-1.17-3.5l.85-.86c-1.8-1-3.49-1.18-4.36-.31-1.29,1.29-.24,4.43,2.34,7s5.72,3.63,7,2.34C18.63,10.76,18.44,9.07,17.45,7.27Z"/>
      <path style="fill:url(#未命名的渐变_72-2)" d="M9.94,2.73h0a3.68,3.68,0,0,1,1.11.2c-.87,1.12-.34,3.06,1.33,4.73A5.3,5.3,0,0,0,15.83,9.4,2.07,2.07,0,0,0,17.12,9c.27.88.27,1.6-.06,1.93a1.16,1.16,0,0,1-.83.26c-1.32,0-3.19-1-4.77-2.6C9,6.16,8.46,3.65,9.12,3a1.09,1.09,0,0,1,.82-.26m0-1a2.09,2.09,0,0,0-1.53.55c-1.29,1.29-.24,4.43,2.34,7,1.83,1.83,3.95,2.89,5.48,2.89a2.1,2.1,0,0,0,1.53-.55c.87-.87.68-2.56-.31-4.36l-.85.85a1.06,1.06,0,0,1-.77.28A4.35,4.35,0,0,1,13.09,7c-1.29-1.29-1.82-2.86-1.17-3.5l.85-.86a6.15,6.15,0,0,0-2.83-.86Z"/>
    </svg>