<svg xmlns="http://www.w3.org/2000/svg" data-name="图层 1" id="图层_1" viewBox="0 0 20 20" xmlns:xlink="http://www.w3.org/1999/xlink">
      <defs>
        <linearGradient x1="9.31" y2="18.1" y1="1.91" gradientUnits="userSpaceOnUse" x2="-0.04" id="未命名的渐变_72">
          <stop offset="0.12" stop-color="#666"/>
          <stop offset="0.56" stop-color="#333"/>
        </linearGradient>
        <linearGradient x1="3.76" y2="13.4" y1="8.65" gradientUnits="userSpaceOnUse" x2="11.99" id="未命名的渐变_126">
          <stop offset="0.12" stop-color="#0384c5"/>
          <stop offset="0.9" stop-color="#0063b1"/>
        </linearGradient>
        <linearGradient x1="11.55" y2="10.61" y1="8.76" x2="14.76" id="未命名的渐变_126-2" xlink:href="#未命名的渐变_126"/>
        <linearGradient x1="5.86" y2="8.92" y1="5.02" x2="12.6" id="未命名的渐变_126-3" xlink:href="#未命名的渐变_126"/>
        <linearGradient x1="13.64" y2="11.14" y1="8.46" x2="18.28" id="未命名的渐变_126-4" xlink:href="#未命名的渐变_126"/>
      </defs>
      <polygon points="1.24 18.84 8.02 16.63 8.02 1.18 1.24 3.38 1.24 18.84" style="fill:#fff"/>
      <path style="fill:url(#未命名的渐变_72)" d="M7,2.55V15.91L2.24,17.47V4.11L7,2.55M8,1.17,1.24,3.38V18.84L8,16.63V1.17Z"/>
      <rect y="8.31" height="5.43" x="3.95" style="fill:#d4edff" width="7.84"/>
      <path style="fill:url(#未命名的渐变_126)" d="M11.3,8.81v4.43H4.45V8.81H11.3m.5-.5H4v5.43H11.8V8.31Z"/>
      <polygon points="14.51 11.04 14.51 5.61 11.8 8.33 11.8 13.75 14.51 11.04" style="fill:#d4edff"/>
      <path style="fill:url(#未命名的渐变_126-2)" d="M14,6.82v4L12.3,12.55v-4L14,6.82m.5-1.21L11.8,8.33v5.42L14.51,11V5.61Z"/>
      <polygon points="11.8 8.33 14.51 5.61 6.67 5.61 3.95 8.33 11.8 8.33" style="fill:#d4edff"/>
      <path style="fill:url(#未命名的渐变_126-3)" d="M13.3,6.11,11.59,7.83H5.16L6.87,6.11H13.3m1.21-.5H6.67L4,8.33H11.8l2.71-2.72Z"/>
      <line x1="18.76" y2="9.8" y1="9.8" x2="13.15" style="fill:none;stroke-miterlimit:10;stroke:url(#未命名的渐变_126-4)"/>
    </svg>