<svg id="图层_1" xmlns:xlink="http://www.w3.org/1999/xlink" viewBox="0 0 20 20" xmlns="http://www.w3.org/2000/svg" data-name="图层 1">
      <defs>
        <linearGradient id="未命名的渐变_22" y1="13.32" x2="8.21" gradientUnits="userSpaceOnUse" y2="13.32" x1="1.23">
          <stop stop-color="#666" offset="0.12"/>
          <stop stop-color="#333" offset="0.9"/>
        </linearGradient>
        <linearGradient id="未命名的渐变_22-2" y1="13.32" x2="18.88" y2="13.32" xlink:href="#未命名的渐变_22" x1="11.89"/>
        <linearGradient id="未命名的渐变_126" y1="8.67" x2="8.38" gradientUnits="userSpaceOnUse" y2="8.67" x1="7.38">
          <stop stop-color="#0384c5" offset="0.12"/>
          <stop stop-color="#0063b1" offset="0.9"/>
        </linearGradient>
        <linearGradient id="未命名的渐变_126-2" y1="8.67" x2="12.73" y2="8.67" xlink:href="#未命名的渐变_126" x1="11.73"/>
        <linearGradient id="未命名的渐变_126-3" y1="5.87" x2="6.29" y2="5.87" xlink:href="#未命名的渐变_126" x1="2.16"/>
        <linearGradient id="未命名的渐变_126-4" y1="5.01" x2="6.49" y2="6.72" xlink:href="#未命名的渐变_126" x1="6.49"/>
        <linearGradient id="未命名的渐变_126-5" y1="5.87" x2="32.63" y2="5.87" xlink:href="#未命名的渐变_126" gradientTransform="matrix(-1, 0, 0, 1, 46.51, 0)" x1="28.5"/>
        <linearGradient id="未命名的渐变_126-6" y1="5.01" x2="32.83" y2="6.72" xlink:href="#未命名的渐变_126" gradientTransform="matrix(-1, 0, 0, 1, 46.51, 0)" x1="32.83"/>
      </defs>
      <circle r="3.49" cx="4.72" style="fill:#fff" cy="13.32"/>
      <path d="M4.72,10.82h0a2.5,2.5,0,1,1-2.36,3.31,2.53,2.53,0,0,1,.12-1.91A2.5,2.5,0,0,1,3.91,11a2.46,2.46,0,0,1,.81-.14m0-1A3.78,3.78,0,0,0,3.58,10a3.49,3.49,0,1,0,1.14-.19Z" style="fill:url(#未命名的渐变_22)"/>
      <circle r="3.49" cx="15.39" style="fill:#fff" cy="13.32"/>
      <path d="M15.39,10.82h0a2.5,2.5,0,0,1,.81,4.86,2.54,2.54,0,0,1-.81.13A2.48,2.48,0,0,1,13,14.13a2.44,2.44,0,0,1,.12-1.91A2.5,2.5,0,0,1,14.58,11a2.46,2.46,0,0,1,.81-.14m0-1a3.78,3.78,0,0,0-1.14.19,3.49,3.49,0,0,0,1.14,6.8,3.44,3.44,0,0,0,1.13-.19,3.49,3.49,0,0,0-1.13-6.8Z" style="fill:url(#未命名的渐变_22-2)"/>
      <line y1="13.32" x2="7.88" y2="4.03" style="fill:#d4edff;stroke-miterlimit:10;stroke:url(#未命名的渐变_126)" x1="7.88"/>
      <line y1="13.32" x2="12.23" y2="4.03" style="fill:#d4edff;stroke-miterlimit:10;stroke:url(#未命名的渐变_126-2)" x1="12.23"/>
      <line y1="5.87" x2="6.29" y2="5.87" style="fill:#d4edff;stroke-miterlimit:10;stroke:url(#未命名的渐变_126-3)" x1="2.16"/>
      <polygon points="7.68 5.87 5.31 5.01 5.31 6.72 7.68 5.87" style="fill:url(#未命名的渐变_126-4)"/>
      <line y1="5.87" x2="13.88" y2="5.87" style="fill:#d4edff;stroke-miterlimit:10;stroke:url(#未命名的渐变_126-5)" x1="18.02"/>
      <polygon points="12.49 5.87 14.87 5.01 14.87 6.72 12.49 5.87" style="fill:url(#未命名的渐变_126-6)"/>
    </svg>