<svg data-name="图层 1" id="图层_1" viewBox="0 0 20 20" xmlns="http://www.w3.org/2000/svg" xmlns:xlink="http://www.w3.org/1999/xlink">
      <defs>
        <linearGradient id="未命名的渐变_22" gradientUnits="userSpaceOnUse" y1="9.82" y2="9.82" x2="19.03" x1="0.97">
          <stop stop-color="#666" offset="0.12"/>
          <stop stop-color="#333" offset="0.9"/>
        </linearGradient>
        <linearGradient id="未命名的渐变_22-2" xlink:href="#未命名的渐变_22" y1="9.82" y2="9.82" x2="12.82" x1="7.18"/>
      </defs>
      <path d="M10,4.4c-5.42,0-9,5.42-9,5.42s3.61,5.42,9,5.42,9-5.42,9-5.42S15.42,4.4,10,4.4Z" style="fill:#fff"/>
      <path d="M10,5.4c3.83,0,6.74,3.12,7.78,4.42-1,1.3-3.94,4.42-7.78,4.42S3.26,11.12,2.22,9.82C3.26,8.52,6.16,5.4,10,5.4m0-1c-5.42,0-9,5.42-9,5.42s3.61,5.42,9,5.42,9-5.42,9-5.42S15.42,4.4,10,4.4Z" style="fill:url(#未命名的渐变_22)"/>
      <circle cx="10" r="2.82" cy="9.82" style="fill:#fff"/>
      <path d="M10,8A1.82,1.82,0,1,1,8.18,9.82,1.81,1.81,0,0,1,10,8m0-1a2.82,2.82,0,1,0,2.82,2.82A2.82,2.82,0,0,0,10,7Z" style="fill:url(#未命名的渐变_22-2)"/>
    </svg>