<svg data-name="图层 1" id="图层_1" viewBox="0 0 20 20" xmlns="http://www.w3.org/2000/svg" xmlns:xlink="http://www.w3.org/1999/xlink">
      <defs>
        <linearGradient id="未命名的渐变_162" gradientUnits="userSpaceOnUse" y1="0.78" y2="19.66" x2="9.8" x1="9.8">
          <stop stop-color="#ff3f65" offset="0.01"/>
          <stop stop-color="#aa001c" offset="1"/>
        </linearGradient>
        <linearGradient id="未命名的渐变_162-2" xlink:href="#未命名的渐变_162" y1="10.22" y2="10.22" x2="0.36" x1="19.24"/>
      </defs>
      <path d="M17.49,2.41a42.21,42.21,0,0,0-4.11,3.67c-1.3,1.3-2.53,2.64-3.69,4s-2,3-3.26,4.3c-.62.65-1.23,1.32-1.91,2a17.08,17.08,0,0,1-2.21,1.86h0a.17.17,0,0,1-.23,0,.15.15,0,0,1,0-.11,13.43,13.43,0,0,1,2-5.47,11.79,11.79,0,0,1,1.8-2.24Q6.9,9.41,8,8.46a37.57,37.57,0,0,1,4.46-3.53,32.79,32.79,0,0,1,4.93-2.78.14.14,0,0,1,.19.07.15.15,0,0,1,0,.18Z" style="fill:url(#未命名的渐变_162)"/>
      <path d="M17.61,17.91a42.31,42.31,0,0,0-3.68-4.11,53.71,53.71,0,0,0-4-3.68c-1.4-1.16-3-2-4.31-3.27-.65-.62-1.32-1.23-1.95-1.91A17.92,17.92,0,0,1,1.78,2.73h0a.17.17,0,0,1,0-.23.14.14,0,0,1,.11,0,13.33,13.33,0,0,1,5.46,2,11.49,11.49,0,0,1,2.24,1.8c.66.71,1.3,1.42,1.93,2.13a38.62,38.62,0,0,1,3.53,4.46,32.79,32.79,0,0,1,2.78,4.93.14.14,0,0,1-.08.19.16.16,0,0,1-.18,0Z" style="fill:url(#未命名的渐变_162-2)"/>
    </svg>