<svg id="图层_1" viewBox="0 0 20 20" data-name="图层 1" xmlns="http://www.w3.org/2000/svg" xmlns:xlink="http://www.w3.org/1999/xlink">
      <defs>
        <linearGradient x1="1.1" id="未命名的渐变_22" y2="9.81" y1="9.81" x2="19.01" gradientUnits="userSpaceOnUse">
          <stop stop-color="#666" offset="0.12"/>
          <stop stop-color="#333" offset="0.9"/>
        </linearGradient>
        <linearGradient x1="7.25" id="未命名的渐变_22-2" y2="9.81" y1="9.81" x2="12.85" xlink:href="#未命名的渐变_22"/>
        <linearGradient x1="68.82" id="未命名的渐变_22-3" y2="-54.24" y1="-54.24" x2="82.42" xlink:href="#未命名的渐变_22" gradientTransform="translate(-44.18 -65.82) rotate(90)"/>
      </defs>
      <g style="opacity:0.30000000000000004">
        <path d="M10.05,4.43c-5.37,0-9,5.38-9,5.38s3.58,5.37,9,5.37,9-5.37,9-5.37S15.43,4.43,10.05,4.43Z" style="fill:#fff"/>
        <path d="M10.05,5.43c3.79,0,6.67,3.09,7.71,4.38-1,1.29-3.91,4.37-7.71,4.37s-6.66-3.09-7.7-4.37c1-1.29,3.92-4.38,7.7-4.38m0-1c-5.37,0-9,5.38-9,5.38s3.58,5.37,9,5.37,9-5.37,9-5.37-3.58-5.38-9-5.38Z" style="fill:url(#未命名的渐变_22)"/>
      </g>
      <g style="opacity:0.30000000000000004">
        <circle cx="10.05" r="2.8" style="fill:#fff" cy="9.81"/>
        <path d="M10.05,8a1.8,1.8,0,1,1-1.8,1.8A1.8,1.8,0,0,1,10.05,8m0-1a2.8,2.8,0,1,0,2.8,2.8A2.8,2.8,0,0,0,10.05,7Z" style="fill:url(#未命名的渐变_22-2)"/>
      </g>
      <line x1="4.26" y2="15.6" y1="4.01" x2="15.85" style="fill:#fff;stroke-linecap:round;stroke-miterlimit:10;stroke-width:2px;stroke:url(#未命名的渐变_22-3)"/>
    </svg>