<svg id="图层_1" viewBox="0 0 20 20" data-name="图层 1" xmlns="http://www.w3.org/2000/svg" xmlns:xlink="http://www.w3.org/1999/xlink">
      <defs>
        <linearGradient x1="0.97" id="未命名的渐变_63" y2="12.75" y1="12.75" x2="6.95" gradientUnits="userSpaceOnUse">
          <stop stop-color="#d49a00" offset="0.12"/>
          <stop stop-color="#916306" offset="0.81"/>
        </linearGradient>
        <linearGradient x1="6.95" id="未命名的渐变_63-2" y2="12.75" y1="12.75" x2="12.93" xlink:href="#未命名的渐变_63"/>
        <linearGradient x1="0.97" id="未命名的渐变_63-3" y2="8.84" y1="8.84" x2="12.93" xlink:href="#未命名的渐变_63"/>
        <linearGradient x1="6.95" id="未命名的渐变_63-4" y2="15.14" y1="15.14" x2="12.93" xlink:href="#未命名的渐变_63"/>
        <linearGradient x1="12.93" id="未命名的渐变_63-5" y2="15.14" y1="15.14" x2="18.92" xlink:href="#未命名的渐变_63"/>
        <linearGradient x1="6.95" id="未命名的渐变_63-6" y2="11.23" y1="11.23" x2="18.92" xlink:href="#未命名的渐变_63"/>
        <linearGradient x1="0.97" id="未命名的渐变_63-7" y2="7.28" y1="7.28" x2="6.95" xlink:href="#未命名的渐变_63"/>
        <linearGradient x1="6.95" id="未命名的渐变_63-8" y2="7.28" y1="7.28" x2="12.93" xlink:href="#未命名的渐变_63"/>
        <linearGradient x1="0.97" id="未命名的渐变_63-9" y2="3.37" y1="3.37" x2="12.93" xlink:href="#未命名的渐变_63"/>
        <linearGradient x1="6.95" id="未命名的渐变_63-10" y2="9.67" y1="9.67" x2="12.93" xlink:href="#未命名的渐变_63"/>
        <linearGradient x1="12.93" id="未命名的渐变_63-11" y2="9.67" y1="9.67" x2="18.92" xlink:href="#未命名的渐变_63"/>
        <linearGradient x1="6.95" id="未命名的渐变_63-12" y2="5.76" y1="5.76" x2="18.92" xlink:href="#未命名的渐变_63"/>
        <linearGradient x1="7.76" id="未命名的渐变_126" y2="15.68" y1="15.68" x2="18.92" gradientUnits="userSpaceOnUse">
          <stop stop-color="#0384c5" offset="0.12"/>
          <stop stop-color="#0063b1" offset="0.9"/>
        </linearGradient>
        <linearGradient x1="11.6" id="未命名的渐变_126-2" y2="15.68" y1="15.68" x2="15.08" xlink:href="#未命名的渐变_126"/>
      </defs>
      <polygon points="0.97 8.84 6.95 11.2 6.95 16.66 0.97 14.29 0.97 8.84" style="fill:#ffd96e"/>
      <path d="M1.47,9.57l5,2v4.38l-5-2V9.57M1,8.84V14.3l6,2.36V11.2L1,8.84Z" style="fill:url(#未命名的渐变_63)"/>
      <polygon points="12.93 8.84 6.95 11.2 6.95 16.66 12.93 14.29 12.93 8.84" style="fill:#ffd96e"/>
      <path d="M12.43,9.57V14l-5,2V11.54l5-2m.5-.73L7,11.2v5.46l6-2.36V8.84Z" style="fill:url(#未命名的渐变_63-2)"/>
      <polygon points="6.95 6.47 0.97 8.84 6.95 11.2 12.93 8.84 6.95 6.47" style="fill:#ffd96e"/>
      <path d="M7,7l4.62,1.83L7,10.66,2.33,8.84,7,7m0-.54L1,8.84,7,11.2l6-2.36L7,6.47Z" style="fill:url(#未命名的渐变_63-3)"/>
      <polygon points="6.95 11.23 12.93 13.59 12.93 19.05 6.95 16.69 6.95 11.23" style="fill:#ffd96e"/>
      <path d="M7.45,12l5,2v4.39l-5-2V12M7,11.23v5.46l6,2.36V13.59L7,11.23Z" style="fill:url(#未命名的渐变_63-4)"/>
      <polygon points="18.92 11.23 12.93 13.59 12.93 19.05 18.92 16.69 18.92 11.23" style="fill:#ffd96e"/>
      <path d="M18.42,12v4.38l-5,2V13.93l5-2m.5-.74-6,2.36v5.46l6-2.36V11.23Z" style="fill:url(#未命名的渐变_63-5)"/>
      <polygon points="12.93 8.87 6.95 11.23 12.93 13.59 18.92 11.23 12.93 8.87" style="fill:#ffd96e"/>
      <path d="M12.93,9.4l4.63,1.83-4.63,1.83L8.31,11.23,12.93,9.4m0-.53L7,11.23l6,2.36,6-2.36-6-2.36Z" style="fill:url(#未命名的渐变_63-6)"/>
      <polygon points="0.97 3.37 6.95 5.73 6.95 11.19 0.97 8.83 0.97 3.37" style="fill:#ffd96e"/>
      <path d="M1.47,4.1l5,2v4.39l-5-2V4.1M1,3.37V8.83l6,2.36V5.73L1,3.37Z" style="fill:url(#未命名的渐变_63-7)"/>
      <polygon points="12.93 3.37 6.95 5.73 6.95 11.19 12.93 8.83 12.93 3.37" style="fill:#ffd96e"/>
      <path d="M12.43,4.1V8.49l-5,2V6.07l5-2m.5-.73L7,5.73v5.46l6-2.36V3.37Z" style="fill:url(#未命名的渐变_63-8)"/>
      <polygon points="6.95 1.01 0.97 3.37 6.95 5.73 12.93 3.37 6.95 1.01" style="fill:#ffd96e"/>
      <path d="M7,1.54l4.62,1.83L7,5.2,2.33,3.37,7,1.54M7,1,1,3.37,7,5.73l6-2.36L7,1Z" style="fill:url(#未命名的渐变_63-9)"/>
      <polygon points="6.95 5.76 12.93 8.13 12.93 13.58 6.95 11.22 6.95 5.76" style="fill:#ffd96e"/>
      <path d="M7.45,6.5l5,2v4.38l-5-2V6.5M7,5.76v5.46l6,2.36V8.13L7,5.76Z" style="fill:url(#未命名的渐变_63-10)"/>
      <polygon points="18.92 5.76 12.93 8.13 12.93 13.58 18.92 11.22 18.92 5.76" style="fill:#ffd96e"/>
      <path d="M18.42,6.5v4.38l-5,2V8.47l5-2m.5-.74-6,2.37v5.45l6-2.36V5.76Z" style="fill:url(#未命名的渐变_63-11)"/>
      <polygon points="12.93 3.4 6.95 5.76 12.93 8.13 18.92 5.76 12.93 3.4" style="fill:#ffd96e"/>
      <path d="M12.93,3.94l4.63,1.82L12.93,7.59,8.31,5.76l4.62-1.82m0-.54L7,5.76l6,2.37,6-2.37-6-2.36Z" style="fill:url(#未命名的渐变_63-12)"/>
      <path d="M13.34,12.33c-3.35,0-5.58,3.35-5.58,3.35S10,19,13.34,19s5.58-3.34,5.58-3.34S16.69,12.33,13.34,12.33Z" style="fill:#d4edff"/>
      <path d="M13.34,13.33a6.16,6.16,0,0,1,4.31,2.35A6.13,6.13,0,0,1,13.34,18,6.17,6.17,0,0,1,9,15.68a6.14,6.14,0,0,1,4.31-2.35m0-1c-3.35,0-5.58,3.35-5.58,3.35S10,19,13.34,19s5.58-3.34,5.58-3.34-2.23-3.35-5.58-3.35Z" style="fill:url(#未命名的渐变_126)"/>
      <circle cx="13.34" r="1.74" style="fill:#d4edff" cy="15.68"/>
      <path d="M13.34,14.93a.75.75,0,0,1,.74.75.74.74,0,1,1-1.48,0,.75.75,0,0,1,.74-.75m0-1a1.75,1.75,0,1,0,1.74,1.75,1.74,1.74,0,0,0-1.74-1.75Z" style="fill:url(#未命名的渐变_126-2)"/>
    </svg>