<svg data-name="图层 1" id="图层_1" viewBox="0 0 20 20" xmlns="http://www.w3.org/2000/svg" xmlns:xlink="http://www.w3.org/1999/xlink">
      <defs>
        <linearGradient id="未命名的渐变_72" gradientUnits="userSpaceOnUse" y1="11.39" y2="11.39" x2="19.07" x1="1.16">
          <stop stop-color="#666" offset="0.12"/>
          <stop stop-color="#333" offset="0.56"/>
        </linearGradient>
        <linearGradient id="未命名的渐变_72-2" xlink:href="#未命名的渐变_72" y1="2.8" y2="2.8" x2="13.12" x1="1.16"/>
        <linearGradient id="未命名的渐变_126" gradientUnits="userSpaceOnUse" y1="13.67" y2="13.67" x2="19.28" x1="7.36">
          <stop stop-color="#0384c5" offset="0.12"/>
          <stop stop-color="#0063b1" offset="0.9"/>
        </linearGradient>
      </defs>
      <rect y="3.82" width="17.91" height="15.15" x="1.16" style="fill:#fff" rx="1.32"/>
      <path d="M17.75,4.82a.31.31,0,0,1,.32.31V17.65a.32.32,0,0,1-.32.32H2.48a.32.32,0,0,1-.32-.32V5.13a.32.32,0,0,1,.32-.31H17.75m0-1H2.48A1.32,1.32,0,0,0,1.16,5.13V17.65A1.32,1.32,0,0,0,2.48,19H17.75a1.32,1.32,0,0,0,1.32-1.32V5.13a1.32,1.32,0,0,0-1.32-1.31Z" style="fill:url(#未命名的渐变_72)"/>
      <path d="M1.16,3.89V1.7a.72.72,0,0,1,.77-.64h8.52a.8.8,0,0,1,.62.27L13,3.52c.37.42,0,1-.62,1H1.93A.71.71,0,0,1,1.16,3.89Z" style="fill:#fff"/>
      <path d="M10.39,2.06l1.27,1.47H2.16V2.06h8.23m.06-1H1.93a.72.72,0,0,0-.77.64V3.89a.71.71,0,0,0,.77.64H12.35c.62,0,1-.59.62-1l-1.9-2.19a.8.8,0,0,0-.62-.27Z" style="fill:url(#未命名的渐变_72-2)"/>
      <path d="M13.44,18h0A8.5,8.5,0,0,0,19,17.5a.41.41,0,0,0,.28-.44v0a.37.37,0,0,0-.44-.21,4.82,4.82,0,0,1-5.18-3.21l2-.74a.45.45,0,0,0,.31-.29.26.26,0,0,0-.15-.3L10.23,9.13a.43.43,0,0,0-.37,0,.52.52,0,0,0-.27.24l-2.19,6a.25.25,0,0,0,.07.34.44.44,0,0,0,.43,0l2.2-.8a6.17,6.17,0,0,0,.78,1.28A5.35,5.35,0,0,0,13.44,18Z" style="fill:#d4edff"/>
      <path d="M10.3,10.32,14,12.41l-.72.26-1,.35.4,1a5.93,5.93,0,0,0,2.86,3.26h-.24a5.25,5.25,0,0,1-1.51-.21l-.05,0a4.46,4.46,0,0,1-2.1-1.46A6,6,0,0,1,11,14.49l-.38-.85L9.76,14l-.92.33,1.46-4M10,9.08a.51.51,0,0,0-.17,0,.52.52,0,0,0-.27.24l-2.19,6a.25.25,0,0,0,.07.34.39.39,0,0,0,.23.07.46.46,0,0,0,.2-.05l2.2-.8a6.17,6.17,0,0,0,.78,1.28A5.35,5.35,0,0,0,13.44,18h0a6.51,6.51,0,0,0,1.9.28A10.51,10.51,0,0,0,19,17.5a.41.41,0,0,0,.28-.44v0a.36.36,0,0,0-.36-.22h-.08c-.22,0-.43,0-.64,0a4.82,4.82,0,0,1-4.54-3.25l2-.74a.49.49,0,0,0,.32-.29.28.28,0,0,0-.16-.3L10.23,9.13a.46.46,0,0,0-.2-.05Z" style="fill:url(#未命名的渐变_126)"/>
    </svg>