<svg xmlns="http://www.w3.org/2000/svg" data-name="图层 1" id="图层_1" viewBox="0 0 20 20" xmlns:xlink="http://www.w3.org/1999/xlink">
      <defs>
        <linearGradient x1="12.34" y2="19.52" y1="1.07" gradientUnits="userSpaceOnUse" x2="7.39" id="未命名的渐变_72">
          <stop offset="0.12" stop-color="#666"/>
          <stop offset="0.56" stop-color="#333"/>
        </linearGradient>
        <linearGradient x1="16.85" y2="5.86" y1="1.6" x2="15.71" id="未命名的渐变_72-2" xlink:href="#未命名的渐变_72"/>
        <linearGradient x1="11.99" y2="17.08" y1="3.22" x2="8.27" id="未命名的渐变_72-3" xlink:href="#未命名的渐变_72"/>
        <linearGradient x1="14.24" y2="11.16" y1="2.72" x2="11.97" id="未命名的渐变_72-4" xlink:href="#未命名的渐变_72"/>
      </defs>
      <path style="fill:#fff" d="M13.89,1.49,1.42,14c-.64.64-.12,2.21,1.17,3.5s2.86,1.82,3.51,1.17L18.56,6.16Z"/>
      <path style="fill:url(#未命名的渐变_72)" d="M13.89,2.9l3.26,3.26L5.43,17.89h-.1a3.51,3.51,0,0,1-2-1.15,3.32,3.32,0,0,1-1.17-2.1L13.89,2.9m0-1.41L1.42,14c-.64.64-.12,2.21,1.17,3.5A4.38,4.38,0,0,0,5.33,18.9a1.06,1.06,0,0,0,.77-.28L18.56,6.16,13.89,1.49Z"/>
      <ellipse cx="16.28" cy="3.73" transform="translate(2.13 12.6) rotate(-45)" style="fill:#fff" ry="3.33" rx="1.67"/>
      <path style="fill:url(#未命名的渐变_72-2)" d="M14.7,2.1h0a3.54,3.54,0,0,1,2.05,1.16,3.3,3.3,0,0,1,1.16,2.1h-.05a3.55,3.55,0,0,1-2-1.17,3.39,3.39,0,0,1-1.17-2.1h.06m0-1a1.07,1.07,0,0,0-.78.28c-.65.65-.12,2.23,1.18,3.53a4.44,4.44,0,0,0,2.76,1.46,1,1,0,0,0,.77-.28c.65-.65.13-2.23-1.17-3.53A4.41,4.41,0,0,0,14.7,1.1Z"/>
      <path style="fill:#fff" d="M8.43,2.26,3,7.72c-1.29,1.29-.24,4.43,2.34,7s5.72,3.62,7,2.33l5.45-5.45Z"/>
      <path style="fill:url(#未命名的渐变_72-3)" d="M8.43,3.68l7.94,7.93-4.75,4.75a1.15,1.15,0,0,1-.83.26c-1.32,0-3.19-1-4.77-2.6a9.75,9.75,0,0,1-2.37-3.6c-.31-.92-.29-1.66,0-2L8.43,3.68m0-1.42L3,7.72c-1.29,1.29-.24,4.43,2.34,7,1.83,1.83,3.94,2.89,5.47,2.89a2.1,2.1,0,0,0,1.54-.56l5.45-5.45L8.43,2.26Z"/>
      <path style="fill:#fff" d="M17.46,7.25l-.85.86c-.64.64-2.21.12-3.5-1.17s-1.82-2.86-1.17-3.51l.85-.85C11,1.59,9.3,1.4,8.43,2.26c-1.29,1.29-.24,4.43,2.34,7s5.72,3.63,7,2.34C18.64,10.75,18.46,9.05,17.46,7.25Z"/>
      <path style="fill:url(#未命名的渐变_72-4)" d="M10,2.71a3.73,3.73,0,0,1,1.11.2,2.49,2.49,0,0,0-.22,2.35A6.33,6.33,0,0,0,12.4,7.64a5.3,5.3,0,0,0,3.44,1.74A2.13,2.13,0,0,0,17.13,9c.28.87.27,1.59-.06,1.92a1.09,1.09,0,0,1-.82.26c-1.32,0-3.2-1-4.77-2.59C9.06,6.15,8.48,3.64,9.14,3A1.14,1.14,0,0,1,10,2.71h0m0-1a2.13,2.13,0,0,0-1.53.55c-1.29,1.29-.24,4.43,2.34,7,1.83,1.84,3.94,2.89,5.48,2.89a2.09,2.09,0,0,0,1.53-.55c.86-.86.68-2.56-.31-4.36l-.86.86a1.08,1.08,0,0,1-.77.27,4.38,4.38,0,0,1-2.73-1.44c-1.29-1.29-1.82-2.86-1.17-3.51l.85-.85A6.17,6.17,0,0,0,10,1.71Z"/>
    </svg>