<svg xmlns="http://www.w3.org/2000/svg" data-name="图层 1" id="图层_1" viewBox="0 0 20 20" xmlns:xlink="http://www.w3.org/1999/xlink">
      <defs>
        <linearGradient x1="10.85" y2="9.08" y1="3.83" gradientUnits="userSpaceOnUse" x2="13.89" id="未命名的渐变_72">
          <stop offset="0.12" stop-color="#666"/>
          <stop offset="0.56" stop-color="#333"/>
        </linearGradient>
        <linearGradient x1="13.31" y2="4.93" y1="1.38" x2="15.35" id="未命名的渐变_72-2" xlink:href="#未命名的渐变_72"/>
        <linearGradient x1="15.87" y2="6.87" y1="2.97" x2="18.11" id="未命名的渐变_72-3" xlink:href="#未命名的渐变_72"/>
        <linearGradient x1="4.25" y2="19.11" y1="5.83" x2="11.91" id="未命名的渐变_72-4" xlink:href="#未命名的渐变_72"/>
        <linearGradient x1="9.11" y2="7.65" y1="2.11" x2="12.31" id="未命名的渐变_72-5" xlink:href="#未命名的渐变_72"/>
        <linearGradient x1="13.7" y2="15.04" y1="5.91" x2="18.96" id="未命名的渐变_72-6" xlink:href="#未命名的渐变_72"/>
        <linearGradient x1="2.27" y2="18.73" y1="13.47" x2="5.31" id="未命名的渐变_72-7" xlink:href="#未命名的渐变_72"/>
        <linearGradient x1="4.76" y2="13.93" y1="10.36" x2="6.83" id="未命名的渐变_72-8" xlink:href="#未命名的渐变_72"/>
        <linearGradient x1="7.19" y2="16.23" y1="12.01" x2="9.63" id="未命名的渐变_72-9" xlink:href="#未命名的渐变_72"/>
      </defs>
      <rect y="4.47" height="3.96" x="9.73" style="fill:#fff" width="5.28"/>
      <path style="fill:url(#未命名的渐变_72)" d="M14,5.47v2H10.73v-2H14m1-1H9.73v4H15v-4Z"/>
      <polygon points="14.99 5.13 9.71 5.13 13.67 1.18 18.95 1.18 14.99 5.13" style="fill:#fff"/>
      <path style="fill:url(#未命名的渐变_72-2)" d="M16.54,2.17l-2,2H12.13l2-2h2.45m2.41-1H13.67l-4,4H15l4-4Z"/>
      <polygon points="18.97 4.7 15.01 8.66 15.01 5.14 18.97 1.18 18.97 4.7" style="fill:#fff"/>
      <path style="fill:url(#未命名的渐变_72-3)" d="M18,3.6v.68l-2,2V5.56l2-2m1-2.42-4,4V8.66l4-4V1.18Z"/>
      <rect y="6.86" height="11.22" x="2.47" style="fill:#fff" width="11.22"/>
      <path style="fill:url(#未命名的渐变_72-4)" d="M12.69,7.86v9.22H3.47V7.86h9.22m1-1H2.47V18.08H13.69V6.86Z"/>
      <polygon points="13.67 6.86 2.46 6.86 7.74 2.9 18.95 2.9 13.67 6.86" style="fill:#fff"/>
      <path style="fill:url(#未命名的渐变_72-5)" d="M16,3.9l-2.61,2H5.46l2.62-2H16m3-1H7.74l-5.28,4H13.67L19,2.9Z"/>
      <polygon points="18.97 14.12 13.69 18.08 13.69 6.83 18.97 2.87 18.97 14.12" style="fill:#fff"/>
      <path style="fill:url(#未命名的渐变_72-6)" d="M18,4.87v8.75l-3.28,2.46V7.33L18,4.87m1-2-5.28,4V18.08l5.28-4V2.87Z"/>
      <rect y="14.12" height="3.96" x="1.15" style="fill:#fff" width="5.28"/>
      <path style="fill:url(#未命名的渐变_72-7)" d="M5.43,15.12v2H2.15v-2H5.43m1-1H1.15v4H6.43v-4Z"/>
      <polygon points="6.49 14.12 1.14 14.12 5.1 10.16 10.45 10.16 6.49 14.12" style="fill:#fff"/>
      <path style="fill:url(#未命名的渐变_72-8)" d="M8,11.16l-1.95,2H3.56l1.95-2H8m2.42-1H5.1l-4,4H6.49l4-4Z"/>
      <polygon points="10.39 14.12 6.43 18.08 6.43 14.12 10.39 10.16 10.39 14.12" style="fill:#fff"/>
      <path style="fill:url(#未命名的渐变_72-9)" d="M9.39,12.57v1.14l-2,2V14.53l2-2m1-2.41-4,4v4l4-4v-4Z"/>
    </svg>