<svg xmlns:xlink="http://www.w3.org/1999/xlink" data-name="图层 1" viewBox="0 0 20 20" id="图层_1" xmlns="http://www.w3.org/2000/svg">
      <defs>
        <linearGradient x1="1.05" x2="9.98" gradientUnits="userSpaceOnUse" id="未命名的渐变_63" y2="12.2" y1="12.2">
          <stop offset="0.12" stop-color="#d49a00"/>
          <stop offset="0.81" stop-color="#916306"/>
        </linearGradient>
        <linearGradient x1="9.98" x2="18.92" xlink:href="#未命名的渐变_63" id="未命名的渐变_63-2" y2="12.2" y1="12.2"/>
        <linearGradient x1="1.05" x2="18.92" xlink:href="#未命名的渐变_63" id="未命名的渐变_63-3" y2="5.5" y1="5.5"/>
      </defs>
      <polygon style="fill:#fcdb88" points="1.05 5.5 9.98 9.96 9.98 18.9 1.05 14.43 1.05 5.5"/>
      <path d="M2.05,7.11,9,10.58v6.7L2.05,13.81V7.11m-1-1.61v8.93L10,18.9V10L1.05,5.5Z" style="fill:url(#未命名的渐变_63)"/>
      <polygon style="fill:#fcdb88" points="18.92 5.5 9.98 9.96 9.98 18.9 18.92 14.43 18.92 5.5"/>
      <path d="M17.92,7.11v6.7L11,17.28v-6.7l6.94-3.47m1-1.61L10,10V18.9l8.94-4.47V5.5Z" style="fill:url(#未命名的渐变_63-2)"/>
      <polygon style="fill:#fcdb88" points="9.98 1.03 1.05 5.5 9.98 9.96 18.92 5.5 9.98 1.03"/>
      <path d="M10,2.15l6.7,3.35L10,8.85,3.28,5.5,10,2.15M10,1,1.05,5.5,10,10,18.92,5.5,10,1Z" style="fill:url(#未命名的渐变_63-3)"/>
    </svg>