<svg id="图层_1" viewBox="0 0 20 20" data-name="图层 1" xmlns="http://www.w3.org/2000/svg" xmlns:xlink="http://www.w3.org/1999/xlink">
      <defs>
        <linearGradient x1="5.15" id="未命名的渐变_72" y2="14.91" y1="5.02" x2="15.05" gradientUnits="userSpaceOnUse">
          <stop stop-color="#666" offset="0.12"/>
          <stop stop-color="#333" offset="0.56"/>
        </linearGradient>
        <linearGradient x1="7.98" id="未命名的渐变_72-2" y2="12.09" y1="7.84" x2="12.22" xlink:href="#未命名的渐变_72"/>
        <linearGradient x1="5.41" id="未命名的渐变_72-3" y2="14.65" y1="5.28" x2="14.78" xlink:href="#未命名的渐变_72"/>
      </defs>
      <path d="M10.1,4a6,6,0,1,1-6,6,6,6,0,0,1,6-6m0-1a7,7,0,1,0,7,7,7,7,0,0,0-7-7Z" style="fill:url(#未命名的渐变_72)"/>
      <path d="M10.1,8a2,2,0,1,1-2,2,2,2,0,0,1,2-2m0-1a3,3,0,1,0,3,3,3,3,0,0,0-3-3Z" style="fill:url(#未命名的渐变_72-2)"/>
      <line x1="1.43" y2="9.97" y1="9.97" x2="18.76" style="fill:none;stroke-linecap:round;stroke-miterlimit:10;stroke:url(#未命名的渐变_72-3)"/>
      <line x1="10.1" y2="18.63" y1="1.3" x2="10.1" style="fill:none;stroke-linecap:round;stroke-miterlimit:10;stroke:url(#未命名的渐变_72-3)"/>
    </svg>