<svg id="图层_1" viewBox="0 0 20 20" data-name="图层 1" xmlns="http://www.w3.org/2000/svg" xmlns:xlink="http://www.w3.org/1999/xlink">
      <defs>
        <linearGradient x1="1.14" id="未命名的渐变_126" y2="10.04" y1="10.04" x2="18.86" gradientUnits="userSpaceOnUse">
          <stop stop-color="#0384c5" offset="0.12"/>
          <stop stop-color="#0063b1" offset="0.9"/>
        </linearGradient>
      </defs>
      <path d="M16,13.16V14.3h1a10.18,10.18,0,0,1-6.12,3.43V13.16h3.43V11.44H10.86V9.3a4.11,4.11,0,1,0-1.72,0v2.14H5.71v1.72H9.14v4.33C6.09,17.1,3.83,15,3,14.3H4.57V13.16H1.14V16H2.28v-.74a11.35,11.35,0,0,0,7.41,3.62H10c2.7,0,5.3-1.31,7.75-3.87v1h1.14V13.16ZM8.2,5.3A1.71,1.71,0,1,1,9.91,7,1.71,1.71,0,0,1,8.2,5.3Zm9.52,9,0,0h0Z" style="fill:#d4edff"/>
      <path d="M10,2.17a3.48,3.48,0,0,1,.64.07,3.11,3.11,0,0,1,0,6.08L10,8.45l-.65-.13a3.12,3.12,0,0,1-2.46-3A3,3,0,0,1,7.8,3.09,3.1,3.1,0,0,1,10,2.17h0M9.91,8A2.72,2.72,0,1,0,7.2,5.3,2.72,2.72,0,0,0,9.91,8M10,1.17A4.11,4.11,0,0,0,9.14,9.3v2.14H5.71v1.72H9.14v4.33C6.09,17.1,3.83,15,3,14.3H4.57V13.16H1.14V16H2.28v-.74a11.35,11.35,0,0,0,7.41,3.62H10c2.7,0,5.3-1.31,7.75-3.87v1h1.14V13.16H16V14.3h1a10.18,10.18,0,0,1-6.12,3.43V13.16h3.43V11.44H10.86V9.3A4.11,4.11,0,0,0,10,1.17ZM9.91,7A1.72,1.72,0,1,1,11.62,5.3,1.71,1.71,0,0,1,9.91,7Zm7.81,7.31,0,0h0v0Z" style="fill:url(#未命名的渐变_126)"/>
    </svg>