<svg xmlns="http://www.w3.org/2000/svg" data-name="图层 1" id="图层_1" viewBox="0 0 20 20" xmlns:xlink="http://www.w3.org/1999/xlink">
      <defs>
        <linearGradient x1="8.4" y2="10.86" y1="10.86" gradientUnits="userSpaceOnUse" x2="13.52" id="未命名的渐变_72">
          <stop offset="0.12" stop-color="#666"/>
          <stop offset="0.56" stop-color="#333"/>
        </linearGradient>
        <linearGradient x1="4.46" y2="4.3" y1="7.54" gradientUnits="userSpaceOnUse" x2="7.08" id="未命名的渐变_30">
          <stop offset="0.07" stop-color="#fef7e4"/>
          <stop offset="0.94" stop-color="#f4c326"/>
        </linearGradient>
        <linearGradient x1="2.83" y2="5.78" y1="5.78" gradientUnits="userSpaceOnUse" x2="8.26" id="未命名的渐变_63">
          <stop offset="0.12" stop-color="#d49a00"/>
          <stop offset="0.81" stop-color="#916306"/>
        </linearGradient>
        <linearGradient x1="-6913.55" y2="-1646.47" y1="-1644.14" gradientUnits="userSpaceOnUse" x2="-6911.66" id="未命名的渐变_32" gradientTransform="matrix(0, 0.48, -1, 0, -1642.96, 3313.19)">
          <stop stop-opacity="0" offset="0.07" stop-color="#fef7e4"/>
          <stop offset="0.94" stop-color="#f4c326"/>
        </linearGradient>
        <linearGradient x1="1" y2="2.58" y1="2.58" gradientUnits="userSpaceOnUse" x2="3.69" id="未命名的渐变_43">
          <stop stop-opacity="0" offset="0.12" stop-color="#d49a00"/>
          <stop offset="0.81" stop-color="#bd8703"/>
        </linearGradient>
        <linearGradient x1="8.37" y2="8.81" y1="19.07" x2="16.67" id="未命名的渐变_43-2" xlink:href="#未命名的渐变_43"/>
        <linearGradient x1="13.9" y2="7.1" y1="7.1" x2="18.65" id="未命名的渐变_30-2" xlink:href="#未命名的渐变_30"/>
        <linearGradient x1="14.56" y2="4.27" y1="9.02" x2="18.4" id="未命名的渐变_63-2" xlink:href="#未命名的渐变_63"/>
        <linearGradient x1="7.36" y2="10.15" y1="19.5" x2="16.71" id="未命名的渐变_32-2" xlink:href="#未命名的渐变_32" gradientTransform="matrix(1, 0, 0, 1, 0, 0)"/>
      </defs>
      <circle r="2.56" cx="10.96" cy="10.86" style="fill:#fff"/>
      <path style="fill:url(#未命名的渐变_72)" d="M11,9.3A1.57,1.57,0,1,1,9.4,10.86,1.56,1.56,0,0,1,11,9.3m0-1a2.57,2.57,0,1,0,2.56,2.56A2.56,2.56,0,0,0,11,8.3Z"/>
      <polygon points="7.9 8.13 6.82 4.09 5.76 5.14 4.04 3.42 3.18 4.27 4.91 6 3.86 7.05 7.9 8.13" style="fill:url(#未命名的渐变_30)"/>
      <path style="fill:url(#未命名的渐变_63)" d="M4,3.42,5.76,5.14l1.06-1,1.08,4-4-1.08L4.91,6,3.18,4.27,4,3.42m0-.36-.18.18L3,4.09l-.18.18L3,4.45,4.56,6l-.88.87-.31.31.42.11L7.84,8.38l.42.11-.12-.42L7.06,4,7,3.61l-.31.3-.88.88L4.22,3.24,4,3.06Z"/>
      <rect y="1.81" height="1.53" transform="translate(-1.14 2.41) rotate(-45)" x="1.71" style="fill:url(#未命名的渐变_32)" width="1.27"/>
      <path style="fill:url(#未命名的渐变_43)" d="M2.25,1.58,3.33,2.67l-.89.9L1.35,2.48l.9-.9m0-.35-.18.18-.9.9L1,2.48l.17.18L2.26,3.74l.18.18.17-.18.9-.89.18-.18-.18-.18L2.43,1.41l-.18-.18Z"/>
      <path style="fill:url(#未命名的渐变_43-2)" d="M18.63,10.86A7.87,7.87,0,0,1,5.18,16.1L6,15.25A6.65,6.65,0,0,0,17.4,10.86h1.23m.26-.25H17.16v.24A6.41,6.41,0,0,1,6.21,15.07L6,14.89l-.17.18L5,15.93l-.18.17.18.18a8.13,8.13,0,0,0,13.88-5.41v-.26Z"/>
      <path style="fill:url(#未命名的渐变_30-2)" d="M18.64,10.85a7.8,7.8,0,0,0-1.78-5.32L18,4.43,13.9,3.34,15,7.41l1-1a6.58,6.58,0,0,1,1.45,4.11c0,.12,0,.23,0,.34h1.24Z"/>
      <path style="fill:url(#未命名的渐变_63-2)" d="M13.9,3.34,18,4.43l-1.1,1.1a7.8,7.8,0,0,1,1.78,5.32H17.4c0-.11,0-.22,0-.34A6.58,6.58,0,0,0,16,6.41l-1,1L13.9,3.34M13.54,3l.11.42,1.09,4.06.12.42.3-.31L16,6.79a6.29,6.29,0,0,1,1.23,3.73.81.81,0,0,1,0,.16,1,1,0,0,0,0,.17v.26h1.6l.08-.08.06-.06v-.11A8.12,8.12,0,0,0,17.2,5.54l.94-.93.3-.31L18,4.19,14,3.1,13.54,3Z"/>
      <path style="fill:url(#未命名的渐变_32-2)" d="M10.76,17.2A6.66,6.66,0,0,1,6,15.25l-.85.85a7.88,7.88,0,0,0,13.45-5.24H17.4a6.62,6.62,0,0,1-6.64,6.34Z"/>
    </svg>