<svg xmlns="http://www.w3.org/2000/svg" data-name="图层 1" id="图层_1" viewBox="0 0 20 20" xmlns:xlink="http://www.w3.org/1999/xlink">
      <defs>
        <linearGradient x1="5.4" y2="14.6" y1="5.26" gradientUnits="userSpaceOnUse" x2="14.73" id="未命名的渐变_72">
          <stop offset="0.12" stop-color="#666"/>
          <stop offset="0.56" stop-color="#333"/>
        </linearGradient>
        <linearGradient x1="5.37" y2="14.62" y1="5.23" x2="14.76" id="未命名的渐变_72-3" xlink:href="#未命名的渐变_72"/>
        <linearGradient x1="7.31" y2="9.93" y1="9.93" x2="12.82" id="未命名的渐变_72-4" xlink:href="#未命名的渐变_72"/>
      </defs>
      <line x1="1.44" y2="9.93" y1="9.93" x2="18.69" style="fill:#fff;stroke-linecap:round;stroke-miterlimit:10;stroke:url(#未命名的渐变_72)"/>
      <line x1="10.06" y2="18.56" y1="1.3" x2="10.06" style="fill:#fff;stroke-linecap:round;stroke-miterlimit:10;stroke:url(#未命名的渐变_72)"/>
      <circle r="6.64" cx="10.06" cy="9.93" style="fill:#fff"/>
      <path style="fill:url(#未命名的渐变_72-3)" d="M10.06,4.29A5.64,5.64,0,1,1,4.43,9.93a5.65,5.65,0,0,1,5.63-5.64m0-1A6.64,6.64,0,1,0,16.7,9.93a6.63,6.63,0,0,0-6.64-6.64Z"/>
      <path style="fill:url(#未命名的渐变_72-4)" d="M9.78,7.77a5.08,5.08,0,0,0-2.32,5.78A5,5,0,0,1,10.7,9.94l.65,1.51,1.47-3.67L9.15,6.3l.63,1.47"/>
    </svg>