<svg xmlns="http://www.w3.org/2000/svg" data-name="图层 1" id="图层_1" viewBox="0 0 20 20" xmlns:xlink="http://www.w3.org/1999/xlink">
      <defs>
        <linearGradient x1="8.87" y2="18.98" y1="1.03" gradientUnits="userSpaceOnUse" x2="8.87" id="未命名的渐变_72">
          <stop offset="0.12" stop-color="#666"/>
          <stop offset="0.56" stop-color="#333"/>
        </linearGradient>
        <linearGradient x1="8.37" y2="14.16" y1="14.16" x2="9.37" id="未命名的渐变_72-2" xlink:href="#未命名的渐变_72"/>
        <linearGradient x1="1.3" y2="8.07" y1="8.07" x2="16.54" id="未命名的渐变_72-3" xlink:href="#未命名的渐变_72"/>
        <linearGradient x1="11.28" y2="14.12" y1="14.12" gradientUnits="userSpaceOnUse" x2="19.05" id="未命名的渐变_126">
          <stop offset="0.12" stop-color="#0384c5"/>
          <stop offset="0.9" stop-color="#0063b1"/>
        </linearGradient>
      </defs>
      <polygon points="16.64 14.5 16.64 5.52 8.87 1.03 1.09 5.52 1.09 14.5 8.87 18.98 16.64 14.5" style="fill:#fff"/>
      <path style="fill:url(#未命名的渐变_72)" d="M8.87,2.18l6.77,3.91v7.83L8.87,17.83,2.09,13.92V6.09L8.87,2.18M8.87,1,1.09,5.52v9L8.87,19l7.77-4.48v-9L8.87,1Z"/>
      <line x1="8.87" y2="9.77" y1="18.56" x2="8.87" style="fill:#fff;stroke-linecap:round;stroke-miterlimit:10;stroke:url(#未命名的渐变_72-2)"/>
      <polyline points="1.8 5.95 8.72 10.11 16.04 5.95" style="fill:#fff;stroke-linecap:round;stroke-miterlimit:10;stroke:url(#未命名的渐变_72-3)"/>
      <path style="fill:url(#未命名的渐变_72)" d="M8.87,2.18l6.77,3.91v7.83L8.87,17.83,2.09,13.92V6.09L8.87,2.18M8.87,1,1.09,5.52v9L8.87,19l7.77-4.48v-9L8.87,1Z"/>
      <polygon points="11.28 9.09 19.05 9.09 16.64 13.99 16.64 19.14 13.94 17.52 13.94 13.99 11.28 9.09" style="fill:#d4edff"/>
      <path style="fill:url(#未命名的渐变_126)" d="M18.24,9.59l-2,4.18-.05.11v4.38l-1.7-1V13.87l-.06-.11L12.12,9.59h6.12m.81-.5H11.28L13.94,14v3.52l2.7,1.62V14l2.41-4.91Z"/>
    </svg>