<svg xmlns="http://www.w3.org/2000/svg" data-name="图层 1" id="图层_1" viewBox="0 0 20 20" xmlns:xlink="http://www.w3.org/1999/xlink">
      <defs>
        <linearGradient x1="4.14" y2="10.21" y1="0.84" gradientUnits="userSpaceOnUse" x2="9.55" id="未命名的渐变_126">
          <stop offset="0.12" stop-color="#0384c5"/>
          <stop offset="0.9" stop-color="#0063b1"/>
        </linearGradient>
        <linearGradient x1="10.41" y2="19.2" y1="9.84" x2="15.81" id="未命名的渐变_126-2" xlink:href="#未命名的渐变_126"/>
        <linearGradient x1="9.12" y2="11.42" y1="8.56" gradientUnits="userSpaceOnUse" x2="10.77" id="未命名的渐变_72">
          <stop offset="0.12" stop-color="#666"/>
          <stop offset="0.56" stop-color="#333"/>
        </linearGradient>
      </defs>
      <path style="fill:#d4edff" d="M6.84,10A3.13,3.13,0,0,1,10,6.89a3.19,3.19,0,0,1,.54.05l2.77-2.76a6.67,6.67,0,0,0-6.62,0l-3-3L1.09,3.67l3,3a6.73,6.73,0,0,0,0,6.62L6.9,10.57A2.51,2.51,0,0,1,6.84,10Z"/>
      <path style="fill:url(#未命名的渐变_126)" d="M3.63,2.55,6,4.88l.54.54.66-.37A5.69,5.69,0,0,1,10,4.3a5.43,5.43,0,0,1,1.55.22L10.16,5.89H10A4.14,4.14,0,0,0,5.84,10v.18L4.47,11.58A5.87,5.87,0,0,1,4.26,10,5.65,5.65,0,0,1,5,7.21l.38-.67L4.84,6,2.51,3.67,3.63,2.55m0-1.41L1.09,3.67l3,3a6.73,6.73,0,0,0,0,6.62L6.9,10.57A2.51,2.51,0,0,1,6.84,10,3.13,3.13,0,0,1,10,6.89a3.19,3.19,0,0,1,.54.05l2.77-2.76a6.67,6.67,0,0,0-6.62,0l-3-3Z"/>
      <path style="fill:#d4edff" d="M18.86,16.37l-3-3a6.67,6.67,0,0,0,0-6.62L13.06,9.48a3.1,3.1,0,0,1,0,.54A3.14,3.14,0,0,1,10,13.16a2.51,2.51,0,0,1-.55-.06L6.67,15.87a6.73,6.73,0,0,0,6.62,0l3,3Z"/>
      <path style="fill:url(#未命名的渐变_126-2)" d="M15.48,8.47A5.8,5.8,0,0,1,15.7,10,5.69,5.69,0,0,1,15,12.84l-.37.66.53.54,2.34,2.33-1.12,1.12L14,15.16l-.53-.54-.67.38a5.67,5.67,0,0,1-2.81.74,5.87,5.87,0,0,1-1.56-.21l1.37-1.38H10A4.14,4.14,0,0,0,14.11,10V9.84l1.37-1.37m.34-1.76L13.06,9.48a3.1,3.1,0,0,1,0,.54A3.14,3.14,0,0,1,10,13.16a2.51,2.51,0,0,1-.55-.06L6.67,15.87a6.73,6.73,0,0,0,6.62,0l3,3,2.53-2.54-3-3a6.67,6.67,0,0,0,0-6.62Z"/>
      <circle r="1.65" cx="9.95" cy="9.99" style="fill:#fff"/>
      <path style="fill:url(#未命名的渐变_72)" d="M10,9.34A.65.65,0,1,1,9.3,10,.66.66,0,0,1,10,9.34m0-1A1.65,1.65,0,1,0,11.6,10,1.65,1.65,0,0,0,10,8.34Z"/>
    </svg>