<svg id="图层_1" viewBox="0 0 20 20" data-name="图层 1" xmlns="http://www.w3.org/2000/svg" xmlns:xlink="http://www.w3.org/1999/xlink">
      <defs>
        <linearGradient x1="9.31" gradientUnits="userSpaceOnUse" id="未命名的渐变_72" y1="1.91" y2="18.1" x2="-0.04">
          <stop offset="0.12" stop-color="#666"/>
          <stop offset="0.56" stop-color="#333"/>
        </linearGradient>
        <linearGradient x1="4.2" gradientUnits="userSpaceOnUse" id="未命名的渐变_12" y1="11.03" y2="11.03" x2="11.55">
          <stop offset="0.06" stop-color="#fff"/>
          <stop offset="0.95" stop-color="#b3b3b3"/>
        </linearGradient>
        <linearGradient x1="12.05" id="未命名的渐变_12-2" xlink:href="#未命名的渐变_12" y1="9.68" y2="9.68" x2="14.26"/>
        <linearGradient x1="4.56" id="未命名的渐变_12-3" xlink:href="#未命名的渐变_12" y1="6.97" y2="6.97" x2="13.91"/>
        <linearGradient x1="13.64" id="未命名的渐变_72-2" xlink:href="#未命名的渐变_72" y1="8.46" y2="11.14" x2="18.28"/>
      </defs>
      <polygon points="1.24 18.84 8.02 16.63 8.02 1.18 1.24 3.38 1.24 18.84" style="fill:#fff"/>
      <path d="M7,2.55V15.91L2.24,17.47V4.11L7,2.55M8,1.17,1.24,3.38V18.84L8,16.63V1.17Z" style="fill:url(#未命名的渐变_72)"/>
      <rect x="4.2" width="7.34" height="4.93" y="8.56" style="fill:url(#未命名的渐变_12)"/>
      <path d="M11.3,8.81v4.43H4.45V8.81H11.3m.5-.5H4v5.43H11.8V8.31Z" style="fill:#333"/>
      <polygon points="12.05 8.43 14.26 6.22 14.26 10.94 12.05 13.15 12.05 8.43" style="fill:url(#未命名的渐变_12-2)"/>
      <path d="M14,6.82v4L12.3,12.55v-4L14,6.82m.5-1.21L11.8,8.33v5.42L14.51,11V5.61Z" style="fill:#333"/>
      <polygon points="4.56 8.08 6.77 5.86 13.91 5.86 11.69 8.08 4.56 8.08" style="fill:url(#未命名的渐变_12-3)"/>
      <path d="M13.3,6.11,11.59,7.83H5.16L6.87,6.11H13.3m1.21-.5H6.67L4,8.33H11.8l2.71-2.72Z" style="fill:#333"/>
      <line x1="18.76" y1="9.8" y2="9.8" x2="13.15" style="fill:#fff;stroke-miterlimit:10;stroke:url(#未命名的渐变_72-2)"/>
    </svg>