<svg id="图层_1" data-name="图层 1" xmlns="http://www.w3.org/2000/svg" viewBox="0 0 20 20" xmlns:xlink="http://www.w3.org/1999/xlink">
      <defs>
        <linearGradient gradientUnits="userSpaceOnUse" id="未命名的渐变_72" x1="2.52" x2="8.17" y2="11.94" y1="16.77">
          <stop offset="0.12" stop-color="#666"/>
          <stop offset="0.56" stop-color="#333"/>
        </linearGradient>
        <linearGradient id="未命名的渐变_72-2" x1="17.38" x2="11.73" y2="11.94" xlink:href="#未命名的渐变_72" y1="16.77"/>
        <linearGradient id="未命名的渐变_72-3" x1="5.51" x2="14.31" y2="10.8" xlink:href="#未命名的渐变_72" y1="10.8"/>
        <linearGradient id="未命名的渐变_72-5" x1="7.08" x2="12.74" y2="10.8" xlink:href="#未命名的渐变_72" y1="10.8"/>
        <linearGradient id="未命名的渐变_72-6" x1="1.5" x2="18.35" y2="6.2" xlink:href="#未命名的渐变_72" y1="6.2"/>
      </defs>
      <rect x="1.63" y="12.23" width="7.43" style="fill:#fff" height="4.25" transform="translate(-8.04 6.92) rotate(-40.52)"/>
      <path style="fill:url(#未命名的渐变_72)" d="M6.68,11.73l1.46,1.71L4,17,2.55,15.26l4.13-3.53m.11-1.41L1.14,15.15,3.9,18.38l5.65-4.83L6.79,10.32Z"/>
      <rect x="12.51" y="10.63" width="4.08" style="fill:#fff" height="7.43" transform="translate(-5.81 16.09) rotate(-49.48)"/>
      <path style="fill:url(#未命名的渐变_72-2)" d="M13.17,11.79l4.13,3.54-1.36,1.58-4.13-3.53,1.36-1.59m-.12-1.4-2.65,3.1,5.65,4.83,2.66-3.1-5.66-4.83Z"/>
      <circle cy="10.8" cx="9.91" r="4.4" style="fill:#fff"/>
      <path style="fill:url(#未命名的渐变_72-3)" d="M9.91,7.4a3.4,3.4,0,1,1-3.4,3.4,3.41,3.41,0,0,1,3.4-3.4m0-1a4.4,4.4,0,1,0,4.4,4.4,4.4,4.4,0,0,0-4.4-4.4Z"/>
      <circle cy="10.8" cx="9.91" r="4.4" style="fill:#fff"/>
      <path style="fill:url(#未命名的渐变_72-3)" d="M9.91,7.4a3.4,3.4,0,1,1-3.4,3.4,3.41,3.41,0,0,1,3.4-3.4m0-1a4.4,4.4,0,1,0,4.4,4.4,4.4,4.4,0,0,0-4.4-4.4Z"/>
      <circle cy="10.8" cx="9.91" r="2.83" style="fill:#fff"/>
      <path style="fill:url(#未命名的渐变_72-5)" d="M9.91,9A1.83,1.83,0,1,1,8.08,10.8,1.83,1.83,0,0,1,9.91,9m0-1a2.83,2.83,0,1,0,2.83,2.83A2.83,2.83,0,0,0,9.91,8Z"/>
      <path style="fill:#fff;stroke-miterlimit:10;stroke-width:0.5px;stroke:url(#未命名的渐变_72-6)" d="M17.93,8.24a.6.6,0,0,0-.83,0L17,8.32a7,7,0,0,0-14,.2l-.27-.28a.6.6,0,0,0-.83,0,.59.59,0,0,0,0,.83L3.5,10.65,5.08,9.07a.59.59,0,0,0,0-.83.59.59,0,0,0-.82,0l0,0a5.82,5.82,0,0,1,11.63.23l-.26-.27a.59.59,0,0,0-.82,0,.59.59,0,0,0,0,.83l1.58,1.58,1.58-1.58A.59.59,0,0,0,17.93,8.24Z"/>
    </svg>