<svg xmlns="http://www.w3.org/2000/svg" data-name="图层 1" id="图层_1" viewBox="0 0 20 20" xmlns:xlink="http://www.w3.org/1999/xlink">
      <defs>
        <linearGradient x1="8.26" y2="9.94" y1="9.94" gradientUnits="userSpaceOnUse" x2="13.29" id="未命名的渐变_72">
          <stop offset="0.12" stop-color="#666"/>
          <stop offset="0.56" stop-color="#333"/>
        </linearGradient>
        <linearGradient x1="3.24" y2="2.67" y1="5.98" gradientUnits="userSpaceOnUse" x2="5.93" id="未命名的渐变_89">
          <stop offset="0.01" stop-color="#d4ffec"/>
          <stop offset="1" stop-color="#a1ddaa"/>
        </linearGradient>
        <linearGradient x1="1.11" y2="4.11" y1="4.11" gradientUnits="userSpaceOnUse" x2="7.69" id="未命名的渐变_102">
          <stop offset="0.01" stop-color="#379e4e"/>
          <stop offset="1" stop-color="#006837"/>
        </linearGradient>
        <linearGradient x1="5.53" y2="5.68" y1="18.19" x2="18.05" id="未命名的渐变_89-2" xlink:href="#未命名的渐变_89"/>
        <linearGradient x1="4.16" y2="10.16" y1="10.16" x2="18.56" id="未命名的渐变_102-2" xlink:href="#未命名的渐变_102"/>
      </defs>
      <circle r="2.51" cx="10.77" cy="9.94" style="fill:#fff"/>
      <path style="fill:url(#未命名的渐变_72)" d="M10.77,8.42A1.52,1.52,0,1,1,9.26,9.94a1.52,1.52,0,0,1,1.51-1.52m0-1a2.52,2.52,0,1,0,2.52,2.52,2.52,2.52,0,0,0-2.52-2.52Z"/>
      <polygon points="7.34 7.05 6.23 2.91 5.15 3.99 2.34 1.18 1.46 2.05 4.28 4.87 3.2 5.95 7.34 7.05" style="fill:url(#未命名的渐变_89)"/>
      <path style="fill:url(#未命名的渐变_102)" d="M2.34,1.17,5.15,4,6.23,2.91,7.34,7.05,3.2,5.94,4.28,4.87,1.46,2.05l.88-.88m0-.35L2.16,1l-.88.87-.17.18.17.18L3.92,4.87l-.9.9-.3.3.41.12L7.28,7.3l.41.11L7.58,7,6.47,2.85l-.11-.42-.31.31-.9.9L2.51,1,2.34.82Z"/>
      <path style="fill:url(#未命名的渐变_89-2)" d="M16.48,4.73,17.6,3.61,13.44,2.5l1.12,4.16,1-1a6.8,6.8,0,0,1,1.49,4.21c0,.12,0,.23,0,.34A6.81,6.81,0,0,1,5.4,14.68l-.88.88a8.07,8.07,0,0,0,13.77-5.37c0-.11,0-.23,0-.34A8,8,0,0,0,16.48,4.73Z"/>
      <path style="fill:url(#未命名的渐变_102-2)" d="M13.44,2.5,17.6,3.61,16.48,4.73a8,8,0,0,1,1.83,5.12c0,.11,0,.23,0,.34A8.07,8.07,0,0,1,4.52,15.56l.88-.88A6.81,6.81,0,0,0,17,10.19c0-.11,0-.22,0-.34a6.8,6.8,0,0,0-1.49-4.21l-1,1L13.44,2.5m-.35-.36.11.42,1.12,4.16.11.42.3-.31L15.55,6a6.47,6.47,0,0,1,1.27,3.83,1,1,0,0,1,0,.16c0,.05,0,.11,0,.17A6.57,6.57,0,0,1,5.57,14.5l-.17-.17-.18.17-.88.88-.18.18.18.18a8.32,8.32,0,0,0,14.2-5.54v-.12c0-.08,0-.15,0-.23a8.2,8.2,0,0,0-1.74-5.1l1-1,.31-.31-.42-.11L13.51,2.26l-.42-.12Z"/>
    </svg>