<svg id="图层_1" viewBox="0 0 20 20" data-name="图层 1" xmlns="http://www.w3.org/2000/svg" xmlns:xlink="http://www.w3.org/1999/xlink">
      <defs>
        <linearGradient x1="5.62" gradientUnits="userSpaceOnUse" id="未命名的渐变_72" y1="16.24" y2="7.46" x2="14.37">
          <stop offset="0.12" stop-color="#666"/>
          <stop offset="0.56" stop-color="#333"/>
        </linearGradient>
        <linearGradient x1="7.04" gradientUnits="userSpaceOnUse" id="未命名的渐变_12" y1="9.13" y2="9.13" x2="10.72">
          <stop offset="0.06" stop-color="#fff"/>
          <stop offset="0.95" stop-color="#b3b3b3"/>
        </linearGradient>
        <linearGradient x1="7.29" id="未命名的渐变_12-2" xlink:href="#未命名的渐变_12" y1="4.9" y2="4.9" x2="13.61"/>
        <linearGradient x1="11.22" id="未命名的渐变_12-3" xlink:href="#未命名的渐变_12" y1="9.15" y2="9.15" x2="13.86"/>
      </defs>
      <polygon points="18.76 11.84 10 17.96 1.22 11.86 9.99 5.74 18.76 11.84" style="fill:#fff"/>
      <path d="M10,7l7,4.88-7,4.9L3,11.86,10,7m0-1.22L1.22,11.86,10,18l8.76-6.12L10,5.74Z" style="fill:url(#未命名的渐变_72)"/>
      <polygon points="7.04 10.99 7.04 5.32 10.72 7.08 10.72 12.94 7.04 10.99" style="fill:url(#未命名的渐变_12)"/>
      <path d="M7.29,5.72l3.18,1.51v5.29L7.29,10.84V5.72m-.5-.8v6.22L11,13.35V6.92l-4.18-2Z" style="fill:#333"/>
      <polygon points="7.29 4.87 9.94 3.1 13.61 4.93 10.95 6.71 7.29 4.87" style="fill:url(#未命名的渐变_12-2)"/>
      <path d="M10,3.39,13.11,5,10.93,6.42,7.78,4.84,10,3.39m0-.58L6.79,4.9,11,7,14.11,4.9,9.93,2.81Z" style="fill:#333"/>
      <polygon points="11.22 7.05 13.86 5.35 13.86 11.25 11.22 12.96 11.22 7.05" style="fill:url(#未命名的渐变_12-3)"/>
      <path d="M13.61,5.81v5.3L11.47,12.5V7.19l2.14-1.38m.5-.92L11,6.92v6.5l3.14-2V4.89Z" style="fill:#333"/>
    </svg>