<svg xmlns:xlink="http://www.w3.org/1999/xlink" data-name="图层 1" viewBox="0 0 20 20" id="图层_1" xmlns="http://www.w3.org/2000/svg">
      <defs>
        <linearGradient x1="1.05" x2="19.02" gradientUnits="userSpaceOnUse" id="未命名的渐变_126" y2="11.4" y1="11.4">
          <stop offset="0.12" stop-color="#0384c5"/>
          <stop offset="0.9" stop-color="#0063b1"/>
        </linearGradient>
        <linearGradient x1="1.05" x2="13.04" xlink:href="#未命名的渐变_126" id="未命名的渐变_126-2" y2="2.77" y1="2.77"/>
        <linearGradient x1="7.07" x2="19.04" gradientUnits="userSpaceOnUse" id="未命名的渐变_63" y2="12.09" y1="12.09">
          <stop offset="0.12" stop-color="#d49a00"/>
          <stop offset="0.81" stop-color="#916306"/>
        </linearGradient>
        <linearGradient x1="11.1" x2="15.02" xlink:href="#未命名的渐变_63" id="未命名的渐变_63-2" y2="17.18" y1="13.25"/>
        <linearGradient x1="7.21" x2="19.27" xlink:href="#未命名的渐变_63" id="未命名的渐变_63-3" y2="10.36" y1="10.36"/>
      </defs>
      <rect style="fill:#d4edff" height="15.21" width="17.98" x="1.05" rx="1.32" y="3.79"/>
      <path d="M17.71,4.79a.32.32,0,0,1,.31.32V17.69a.31.31,0,0,1-.31.31H2.36a.31.31,0,0,1-.31-.31V5.11a.32.32,0,0,1,.31-.32H17.71m0-1H2.36A1.32,1.32,0,0,0,1.05,5.11V17.69A1.31,1.31,0,0,0,2.36,19H17.71A1.31,1.31,0,0,0,19,17.69V5.11a1.32,1.32,0,0,0-1.31-1.32Z" style="fill:url(#未命名的渐变_126)"/>
      <path d="M1.05,3.87V1.67A.71.71,0,0,1,1.81,1h8.56a.83.83,0,0,1,.62.26l1.91,2.2c.37.43,0,1-.62,1H1.81A.7.7,0,0,1,1.05,3.87Z" style="fill:#d4edff"/>
      <path d="M10.31,2l1.28,1.48H2.05V2h8.26m.06-1H1.81a.71.71,0,0,0-.76.64v2.2a.7.7,0,0,0,.76.64H12.28c.62,0,1-.59.62-1L11,1.29A.83.83,0,0,0,10.37,1Z" style="fill:url(#未命名的渐变_126-2)"/>
      <polygon style="fill:#fcdb88" points="19.04 15.55 19.04 8.64 13.06 5.18 7.07 8.64 7.07 15.55 13.06 19 19.04 15.55"/>
      <path d="M13.06,6.33l5,2.88V15l-5,2.88L8.07,15V9.21l5-2.88m0-1.15-6,3.46v6.91l6,3.45,6-3.45V8.64l-6-3.46Z" style="fill:url(#未命名的渐变_63)"/>
      <line x1="13.06" x2="13.06" style="fill:#fcdb88;stroke-miterlimit:10;stroke:url(#未命名的渐变_63-2)" y2="18.64" y1="11.79"/>
      <polyline style="fill:#fcdb88;stroke-miterlimit:10;stroke:url(#未命名的渐变_63-3)" points="7.44 8.86 13.05 11.79 19.05 8.82"/>
    </svg>