<svg xmlns:xlink="http://www.w3.org/1999/xlink" data-name="图层 1" viewBox="0 0 20 20" id="图层_1" xmlns="http://www.w3.org/2000/svg">
      <defs>
        <linearGradient x1="4.12" x2="9.57" gradientUnits="userSpaceOnUse" id="未命名的渐变_72" y2="10.04" y1="0.6">
          <stop offset="0.12" stop-color="#666"/>
          <stop offset="0.56" stop-color="#333"/>
        </linearGradient>
        <linearGradient x1="10.43" x2="15.88" xlink:href="#未命名的渐变_72" id="未命名的渐变_72-2" y2="19.11" y1="9.67"/>
        <linearGradient x1="6.47" x2="13.53" xlink:href="#未命名的渐变_72" id="未命名的渐变_72-3" y2="13.39" y1="6.32"/>
        <linearGradient x1="8.31" x2="11.77" xlink:href="#未命名的渐变_72" id="未命名的渐变_72-4" y2="9.87" y1="9.87"/>
      </defs>
      <g style="opacity:0.7">
        <path d="M6.84,9.86A3.17,3.17,0,0,1,10,6.69a3.31,3.31,0,0,1,.55.06L13.34,4A6.78,6.78,0,0,0,6.66,4L3.6.9,1.05,3.46,4.11,6.52a6.76,6.76,0,0,0,0,6.67L6.9,10.41A2.57,2.57,0,0,1,6.84,9.86Z" style="fill:#fff"/>
        <path d="M3.6,2.32,6,4.67l.54.54.66-.38A5.8,5.8,0,0,1,10,4.08a6,6,0,0,1,1.58.22L10.19,5.7H10A4.17,4.17,0,0,0,5.84,9.86a1.09,1.09,0,0,0,0,.18l-1.4,1.4a5.63,5.63,0,0,1-.22-1.58A5.81,5.81,0,0,1,5,7l.38-.66-.54-.54L2.46,3.46,3.6,2.32M3.6.9,1.05,3.46,4.11,6.52a6.76,6.76,0,0,0,0,6.67L6.9,10.41a2.57,2.57,0,0,1-.06-.55A3.17,3.17,0,0,1,10,6.69a3.31,3.31,0,0,1,.55.06L13.34,4A6.78,6.78,0,0,0,6.66,4L3.6.9Z" style="fill:url(#未命名的渐变_72)"/>
        <path d="M19,16.26l-3.07-3.07a6.69,6.69,0,0,0,0-6.67L13.11,9.3a3.43,3.43,0,0,1,.05.56A3.16,3.16,0,0,1,10,13,3.31,3.31,0,0,1,9.45,13L6.66,15.75a6.78,6.78,0,0,0,6.68,0l3.06,3.06Z" style="fill:#fff"/>
        <path d="M15.55,8.27A5.66,5.66,0,0,1,15,12.7l-.37.66.54.54,2.35,2.36L16.4,17.4,14.05,15l-.54-.54-.66.38a5.83,5.83,0,0,1-2.85.75,6,6,0,0,1-1.58-.22L9.81,14H10a4.16,4.16,0,0,0,4.16-4.16V9.67l1.39-1.4m.34-1.75L13.11,9.3a3.43,3.43,0,0,1,.05.56A3.16,3.16,0,0,1,10,13,3.31,3.31,0,0,1,9.45,13L6.66,15.75a6.78,6.78,0,0,0,6.68,0l3.06,3.06L19,16.26l-3.07-3.07a6.69,6.69,0,0,0,0-6.67Z" style="fill:url(#未命名的渐变_72-2)"/>
      </g>
      <circle style="fill:#fff" r="5" cx="10" cy="9.86"/>
      <path d="M10,5.86a4,4,0,1,1-4,4,4,4,0,0,1,4-4m0-1a5,5,0,1,0,5,5,5,5,0,0,0-5-5Z" style="fill:url(#未命名的渐变_72-3)"/>
      <path d="M11.32,7.52a1.39,1.39,0,0,1,.45,1.09,1.45,1.45,0,0,1-.28.93,6.86,6.86,0,0,1-.65.6,1.2,1.2,0,0,0-.3.38,1,1,0,0,1-.35.49v.14H9.45V11a6.83,6.83,0,0,1,.26-.74,4,4,0,0,1,.88-1l.09-.11a.84.84,0,0,0,.21-.54.86.86,0,0,0-.21-.59.85.85,0,0,0-.61-.21.8.8,0,0,0-.71.31,1.28,1.28,0,0,0-.19.76H8.31A1.73,1.73,0,0,1,8.8,7.6a1.82,1.82,0,0,1,1.33-.48A1.71,1.71,0,0,1,11.32,7.52Zm-.91,4.12a.57.57,0,0,1,.17.41.54.54,0,0,1-.18.42.58.58,0,0,1-.41.16.59.59,0,0,1-.42-.17.54.54,0,0,1-.16-.41.56.56,0,0,1,.16-.41.63.63,0,0,1,.42-.16A.61.61,0,0,1,10.41,11.64Z" style="fill:url(#未命名的渐变_72-4)"/>
    </svg>