<svg xmlns="http://www.w3.org/2000/svg" data-name="图层 1" id="图层_1" viewBox="0 0 20 20" xmlns:xlink="http://www.w3.org/1999/xlink">
      <defs>
        <linearGradient x1="7.51" y2="6.81" y1="18.65" gradientUnits="userSpaceOnUse" x2="19.36" id="未命名的渐变_72">
          <stop offset="0.12" stop-color="#666"/>
          <stop offset="0.56" stop-color="#333"/>
        </linearGradient>
        <linearGradient x1="2.95" y2="2.42" y1="11.31" x2="11.83" id="未命名的渐变_72-2" xlink:href="#未命名的渐变_72"/>
      </defs>
      <path style="fill:#fff" d="M14.62,2.07,2.77,13.91A8.38,8.38,0,0,0,12.94,15.2L16.7,19l2.22-2.22-3.61-3.61A8.37,8.37,0,0,0,14.62,2.07Z"/>
      <path style="fill:url(#未命名的渐变_72)" d="M14.57,3.53a7.38,7.38,0,0,1-.05,9L14,13.2l.62.63,2.9,2.9-.8.81-3-3-.55-.55-.67.4a7.36,7.36,0,0,1-3.75,1,7.28,7.28,0,0,1-4.44-1.49L14.57,3.53m0-1.46L2.77,13.91a8.31,8.31,0,0,0,5.91,2.45,8.4,8.4,0,0,0,4.26-1.16L16.7,19l2.22-2.22-3.61-3.61a8.37,8.37,0,0,0-.69-11Z"/>
      <path style="fill:#fff" d="M13,3.69a6.28,6.28,0,0,0-7.27-.15L3.3,1.12,1.08,3.34,3.66,5.92a6.26,6.26,0,0,0,.56,6.55l-.06,0,2.23,2.22,1.39-1.39L6.21,11.78l.92-.92,3.05,3.05,1.48-1.48-3.05-3L10.09,7.9l3.05,3,1.48-1.48-3-3.05.74-.74,1.57,1.57,1.39-1.39L13.05,3.64Z"/>
      <path style="fill:url(#未命名的渐变_72-2)" d="M3.31,1.83,5.37,3.89l.29.29L6,4A5.72,5.72,0,0,1,9.25,3,5.78,5.78,0,0,1,12.7,4.09l.34.26h0l1.51,1.51-.68.68L12.66,5.33,12.31,5,12,5.33l-.74.74-.35.35.35.35,2.7,2.7-.77.77-2.7-2.69-.35-.36-.36.36L8.25,9l-.35.35.35.36L11,12.43l-.77.78-2.7-2.7-.35-.36-.36.36-.92.92-.35.35.35.36,1.22,1.21L6.39,14,4.87,12.52h0l-.26-.35a5.74,5.74,0,0,1-.51-6l.16-.32L4,5.56,1.79,3.34,3.31,1.83m0-.71L1.08,3.34,3.66,5.92a6.26,6.26,0,0,0,.56,6.55l-.06,0,2.23,2.22,1.39-1.39L6.21,11.78l.92-.92,3.05,3.05,1.48-1.48-3.05-3L10.09,7.9l3.05,3,1.48-1.48-3-3.05.74-.74,1.57,1.57,1.39-1.39L13.05,3.64l-.06,0a6.26,6.26,0,0,0-7.27-.15L3.31,1.12Z"/>
    </svg>