<svg xmlns="http://www.w3.org/2000/svg" data-name="图层 1" id="图层_1" viewBox="0 0 20 20" xmlns:xlink="http://www.w3.org/1999/xlink">
      <defs>
        <linearGradient x1="1.64" y2="12.28" y1="12.28" gradientUnits="userSpaceOnUse" x2="6.43" id="未命名的渐变_12">
          <stop offset="0.06" stop-color="#fff"/>
          <stop offset="0.95" stop-color="#b3b3b3"/>
        </linearGradient>
        <linearGradient x1="7.43" y2="12.28" y1="12.28" x2="12.21" id="未命名的渐变_12-2" xlink:href="#未命名的渐变_12"/>
        <linearGradient x1="2.35" y2="8.35" y1="8.35" x2="11.5" id="未命名的渐变_12-3" xlink:href="#未命名的渐变_12"/>
        <linearGradient x1="7.43" y2="14.86" y1="14.86" x2="12.21" id="未命名的渐变_12-4" xlink:href="#未命名的渐变_12"/>
        <linearGradient x1="13.21" y2="14.86" y1="14.86" x2="18" id="未命名的渐变_12-5" xlink:href="#未命名的渐变_12"/>
        <linearGradient x1="8.14" y2="10.92" y1="10.92" x2="17.29" id="未命名的渐变_12-6" xlink:href="#未命名的渐变_12"/>
        <linearGradient x1="1.64" y2="7.74" y1="7.74" x2="6.43" id="未命名的渐变_12-7" xlink:href="#未命名的渐变_12"/>
        <linearGradient x1="7.43" y2="7.74" y1="7.74" x2="12.21" id="未命名的渐变_12-8" xlink:href="#未命名的渐变_12"/>
        <linearGradient x1="2.35" y2="3.8" y1="3.8" x2="11.5" id="未命名的渐变_12-9" xlink:href="#未命名的渐变_12"/>
      </defs>
      <polygon points="1.64 13.27 1.64 9.12 6.43 11.29 6.43 15.45 1.64 13.27" style="fill:url(#未命名的渐变_12)"/>
      <path style="fill:#333" d="M2.14,9.9l3.79,1.72v3.05L2.14,13v-3m-1-1.55V13.6l5.79,2.62V11L1.14,8.35Z"/>
      <polygon points="7.43 11.29 12.21 9.12 12.21 13.27 7.43 15.45 7.43 11.29" style="fill:url(#未命名的渐变_12-2)"/>
      <path style="fill:#333" d="M11.71,9.9v3L7.93,14.67V11.62L11.71,9.9m1-1.55L6.93,11v5.25l5.78-2.62V8.35Z"/>
      <polygon points="2.35 8.35 6.93 6.27 11.5 8.35 6.93 10.42 2.35 8.35" style="fill:url(#未命名的渐变_12-3)"/>
      <path style="fill:#333" d="M6.93,6.82l3.36,1.53L6.93,9.87,3.56,8.35,6.93,6.82m0-1.1L1.14,8.35,6.93,11l5.78-2.62L6.93,5.72Z"/>
      <polygon points="7.43 15.85 7.43 11.7 12.21 13.87 12.21 18.02 7.43 15.85" style="fill:url(#未命名的渐变_12-4)"/>
      <path style="fill:#333" d="M7.93,12.47l3.78,1.72v3.06L7.93,15.53V12.47m-1-1.55v5.25l5.78,2.63V13.55L6.93,10.92Z"/>
      <polygon points="13.21 13.87 18 11.7 18 15.85 13.21 18.02 13.21 13.87" style="fill:url(#未命名的渐变_12-5)"/>
      <path style="fill:#333" d="M17.5,12.47v3.06l-3.79,1.72V14.19l3.79-1.72m1-1.55-5.79,2.63V18.8l5.79-2.63V10.92Z"/>
      <polygon points="8.14 10.92 12.71 8.85 17.29 10.92 12.71 13 8.14 10.92" style="fill:url(#未命名的渐变_12-6)"/>
      <path style="fill:#333" d="M12.71,9.4l3.37,1.52-3.37,1.53L9.35,10.92,12.71,9.4m0-1.1L6.93,10.92l5.78,2.63,5.79-2.63L12.71,8.3Z"/>
      <polygon points="1.64 8.73 1.64 4.58 6.43 6.75 6.43 10.9 1.64 8.73" style="fill:url(#未命名的渐变_12-7)"/>
      <path style="fill:#333" d="M2.14,5.35,5.93,7.07v3L2.14,8.41V5.35m-1-1.55V9.05l5.79,2.62V6.42L1.14,3.8Z"/>
      <polygon points="7.43 6.75 12.21 4.58 12.21 8.73 7.43 10.9 7.43 6.75" style="fill:url(#未命名的渐变_12-8)"/>
      <path style="fill:#333" d="M11.71,5.35V8.41L7.93,10.12v-3l3.78-1.72m1-1.55L6.93,6.42v5.25l5.78-2.62V3.8Z"/>
      <polygon points="2.35 3.8 6.93 1.72 11.5 3.8 6.93 5.88 2.35 3.8" style="fill:url(#未命名的渐变_12-9)"/>
      <path style="fill:#333" d="M6.93,2.27,10.29,3.8,6.93,5.33,3.56,3.8,6.93,2.27m0-1.1L1.14,3.8,6.93,6.42,12.71,3.8,6.93,1.17Z"/>
    </svg>