<svg data-name="图层 1" viewBox="0 0 20 20" id="图层_1" xmlns="http://www.w3.org/2000/svg">
      <line x1="1.05" x2="18.92" style="fill:#e9d9fc;stroke:#9461c0;stroke-miterlimit:10" y2="9.86" y1="9.86"/>
      <line x1="9.98" x2="9.98" style="fill:#e9d9fc;stroke:#9461c0;stroke-miterlimit:10" y2="18.8" y1="0.92"/>
      <path d="M10,16.45a6.59,6.59,0,1,1,6.59-6.59A6.59,6.59,0,0,1,10,16.45Z" style="fill:#e9d9fc"/>
      <path d="M10,3.77A6.09,6.09,0,1,1,3.9,9.86,6.09,6.09,0,0,1,10,3.77m0-1a7.09,7.09,0,1,0,7.09,7.09A7.08,7.08,0,0,0,10,2.77Z" style="fill:#9461c0"/>
      <path d="M9.68,7.62a5.27,5.27,0,0,0-2.4,6,5.12,5.12,0,0,1,3.37-3.74l.67,1.56,1.53-3.82L9,6.09l.65,1.53" style="fill:#9461c0"/>
    </svg>