<svg xmlns="http://www.w3.org/2000/svg" data-name="图层 1" id="图层_1" viewBox="0 0 20 20" xmlns:xlink="http://www.w3.org/1999/xlink">
      <defs>
        <linearGradient x1="1.15" y2="5.27" y1="5.27" gradientUnits="userSpaceOnUse" x2="10.07" id="未命名的渐变_178">
          <stop offset="0.01" stop-color="#ff5559"/>
          <stop offset="1" stop-color="#aa001c"/>
        </linearGradient>
        <linearGradient x1="11.25" y2="10.81" y1="6.33" gradientUnits="userSpaceOnUse" x2="13.83" id="未命名的渐变_126">
          <stop offset="0.12" stop-color="#0384c5"/>
          <stop offset="0.9" stop-color="#0063b1"/>
        </linearGradient>
        <linearGradient x1="13.46" y2="6.74" y1="3.79" gradientUnits="userSpaceOnUse" x2="15.17" id="未命名的渐变_63">
          <stop offset="0.12" stop-color="#d49a00"/>
          <stop offset="0.81" stop-color="#916306"/>
        </linearGradient>
        <linearGradient x1="15.5" y2="8.61" y1="5.14" x2="17.51" id="未命名的渐变_63-2" xlink:href="#未命名的渐变_63"/>
        <linearGradient x1="5.86" y2="19.76" y1="8.04" gradientUnits="userSpaceOnUse" x2="12.62" id="未命名的渐变_72">
          <stop offset="0.12" stop-color="#666"/>
          <stop offset="0.56" stop-color="#333"/>
        </linearGradient>
        <linearGradient x1="10.12" y2="9.67" y1="4.76" x2="12.95" id="未命名的渐变_72-2" xlink:href="#未命名的渐变_72"/>
        <linearGradient x1="14.19" y2="16.16" y1="8.15" x2="18.81" id="未命名的渐变_72-3" xlink:href="#未命名的渐变_72"/>
        <linearGradient x1="3.33" y2="19.44" y1="14.96" x2="5.91" id="未命名的渐变_63-3" xlink:href="#未命名的渐变_63"/>
        <linearGradient x1="5.39" y2="15.41" y1="12.38" x2="7.14" id="未命名的渐变_63-4" xlink:href="#未命名的渐变_63"/>
        <linearGradient x1="7.56" y2="17.29" y1="13.76" x2="9.6" id="未命名的渐变_63-5" xlink:href="#未命名的渐变_63"/>
      </defs>
      <path style="fill:#fcc5cd" d="M8.08,1.63a.5.5,0,0,0-.49.51.49.49,0,0,0,.32.47L2.59,7.18a.49.49,0,0,0-.45-.3.5.5,0,0,0-.49.5V8.9H3.13a.5.5,0,0,0,.5-.51.49.49,0,0,0-.36-.47L8.61,3.33a.5.5,0,0,0,1-.18V1.63Z"/>
      <path style="fill:url(#未命名的渐变_178)" d="M9.57,1.63V3.15a.5.5,0,0,1-1,.18L3.27,7.92a.49.49,0,0,1,.36.47.5.5,0,0,1-.5.51H1.65V7.38a.5.5,0,0,1,.49-.5.49.49,0,0,1,.45.3L7.91,2.61a.49.49,0,0,1-.32-.47.5.5,0,0,1,.49-.51H9.57m.5-.5h-2a1,1,0,0,0-1,1,.91.91,0,0,0,.1.43L2.61,6.5a.94.94,0,0,0-.47-.12,1,1,0,0,0-1,1v2h2a1,1,0,0,0,1-1A1,1,0,0,0,4,7.93L8.58,4a1.05,1.05,0,0,0,.49.13,1,1,0,0,0,1-1v-2Z"/>
      <rect y="6.92" height="3.3" x="10.23" style="fill:#d4edff" width="4.62"/>
      <path style="fill:url(#未命名的渐变_126)" d="M13.85,7.92v1.3H11.23V7.92h2.62m1-1H10.23v3.3h4.62V6.92Z"/>
      <polygon points="14.87 6.92 10.46 6.92 13.77 3.62 18.17 3.62 14.87 6.92" style="fill:#fcdb88"/>
      <path style="fill:url(#未命名的渐变_63)" d="M15.75,4.62l-1.3,1.3H12.88l1.3-1.3h1.57m2.42-1h-4.4l-3.31,3.3h4.41l3.3-3.3Z"/>
      <polygon points="18.15 6.91 14.85 10.14 14.85 6.84 18.15 3.61 18.15 6.91" style="fill:#fcdb88"/>
      <path style="fill:url(#未命名的渐变_63-2)" d="M17.15,6v.5l-1.3,1.27v-.5L17.15,6m1-2.38-3.3,3.23v3.31l3.3-3.24V3.61Z"/>
      <rect y="8.95" height="9.9" x="4.29" style="fill:#fff" width="9.9"/>
      <path style="fill:url(#未命名的渐变_72)" d="M13.19,10v7.9H5.29V10h7.9m1-1H4.29v9.9h9.9V9Z"/>
      <polygon points="14.19 8.95 4.29 8.95 8.88 5.48 18.78 5.48 14.19 8.95" style="fill:#fff"/>
      <path style="fill:url(#未命名的渐变_72-2)" d="M15.8,6.48,13.86,8H7.27L9.21,6.48H15.8m3-1H8.88L4.29,9h9.9l4.59-3.47Z"/>
      <polygon points="18.81 15.37 14.19 18.83 14.19 8.95 18.81 5.48 18.81 15.37" style="fill:#fff"/>
      <path style="fill:url(#未命名的渐变_72-3)" d="M17.81,7.48v7.39l-2.62,2V9.45l2.62-2m1-2L14.19,9v9.88l4.62-3.46V5.48Z"/>
      <rect y="15.55" height="3.3" x="2.31" style="fill:#fcdb88" width="4.62"/>
      <path style="fill:url(#未命名的渐变_63-3)" d="M5.93,16.55v1.3H3.31v-1.3H5.93m1-1H2.31v3.3H6.93v-3.3Z"/>
      <polygon points="6.91 15.55 2.33 15.55 5.63 12.25 10.21 12.25 6.91 15.55" style="fill:#fcdb88"/>
      <path style="fill:url(#未命名的渐变_63-4)" d="M7.8,13.25l-1.31,1.3H4.74L6,13.25H7.8m2.41-1H5.63l-3.3,3.3H6.91l3.3-3.3Z"/>
      <polygon points="10.23 15.53 6.93 18.83 6.93 15.53 10.23 12.22 10.23 15.53" style="fill:#fcdb88"/>
      <path style="fill:url(#未命名的渐变_63-5)" d="M9.23,14.64v.47l-1.3,1.3v-.47l1.3-1.3m1-2.42-3.3,3.3v3.31l3.3-3.31v-3.3Z"/>
    </svg>