<svg xmlns="http://www.w3.org/2000/svg" data-name="图层 1" id="图层_1" viewBox="0 0 20 20" xmlns:xlink="http://www.w3.org/1999/xlink">
      <defs>
        <linearGradient x1="2.52" y2="11.94" y1="16.77" gradientUnits="userSpaceOnUse" x2="8.17" id="未命名的渐变_72">
          <stop offset="0.12" stop-color="#666"/>
          <stop offset="0.56" stop-color="#333"/>
        </linearGradient>
        <linearGradient x1="17.38" y2="11.94" y1="16.77" gradientUnits="userSpaceOnUse" x2="11.73" id="未命名的渐变_63">
          <stop offset="0.12" stop-color="#d49a00"/>
          <stop offset="0.81" stop-color="#916306"/>
        </linearGradient>
        <linearGradient x1="5.51" y2="10.8" y1="10.8" gradientUnits="userSpaceOnUse" x2="14.31" id="未命名的渐变_126">
          <stop offset="0.12" stop-color="#0384c5"/>
          <stop offset="0.9" stop-color="#0063b1"/>
        </linearGradient>
        <linearGradient x1="5.51" y2="10.8" y1="10.8" x2="14.31" id="未命名的渐变_63-2" xlink:href="#未命名的渐变_63"/>
        <linearGradient x1="7.08" y2="10.8" y1="10.8" x2="12.74" id="未命名的渐变_63-3" xlink:href="#未命名的渐变_63"/>
        <linearGradient x1="1.5" y2="6.2" y1="6.2" gradientUnits="userSpaceOnUse" x2="18.35" id="未命名的渐变_178">
          <stop offset="0.01" stop-color="#ff5559"/>
          <stop offset="1" stop-color="#aa001c"/>
        </linearGradient>
      </defs>
      <rect y="12.23" height="4.25" transform="translate(-8.04 6.92) rotate(-40.52)" x="1.63" style="fill:#fff" width="7.43"/>
      <path style="fill:url(#未命名的渐变_72)" d="M6.68,11.73l1.46,1.71L4,17,2.55,15.26l4.13-3.53m.11-1.41L1.14,15.15,3.9,18.38l5.65-4.83L6.79,10.32Z"/>
      <rect y="10.63" height="7.43" transform="translate(-5.81 16.09) rotate(-49.48)" x="12.51" style="fill:#fcdb88" width="4.08"/>
      <path style="fill:url(#未命名的渐变_63)" d="M13.17,11.79l4.13,3.54-1.36,1.58-4.13-3.53,1.36-1.59m-.12-1.4-2.65,3.1,5.65,4.83,2.66-3.1-5.66-4.83Z"/>
      <circle r="4.4" cx="9.91" cy="10.8" style="fill:#d4edff"/>
      <path style="fill:url(#未命名的渐变_126)" d="M9.91,7.4a3.4,3.4,0,1,1-3.4,3.4,3.41,3.41,0,0,1,3.4-3.4m0-1a4.4,4.4,0,1,0,4.4,4.4,4.4,4.4,0,0,0-4.4-4.4Z"/>
      <circle r="4.4" cx="9.91" cy="10.8" style="fill:#fcdb88"/>
      <path style="fill:url(#未命名的渐变_63-2)" d="M9.91,7.4a3.4,3.4,0,1,1-3.4,3.4,3.41,3.41,0,0,1,3.4-3.4m0-1a4.4,4.4,0,1,0,4.4,4.4,4.4,4.4,0,0,0-4.4-4.4Z"/>
      <circle r="2.83" cx="9.91" cy="10.8" style="fill:#fcdb88"/>
      <path style="fill:url(#未命名的渐变_63-3)" d="M9.91,9A1.83,1.83,0,1,1,8.08,10.8,1.83,1.83,0,0,1,9.91,9m0-1a2.83,2.83,0,1,0,2.83,2.83A2.83,2.83,0,0,0,9.91,8Z"/>
      <path style="fill:#fcc5cd;stroke-linecap:round;stroke-miterlimit:10;stroke-width:0.5px;stroke:url(#未命名的渐变_178)" d="M17.93,8.24a.6.6,0,0,0-.83,0L17,8.32a7,7,0,0,0-14,.2l-.27-.28a.6.6,0,0,0-.83,0,.59.59,0,0,0,0,.83L3.5,10.65,5.08,9.07a.59.59,0,0,0,0-.83.59.59,0,0,0-.82,0l0,0a5.82,5.82,0,0,1,11.63.23l-.26-.27a.59.59,0,0,0-.82,0,.59.59,0,0,0,0,.83l1.58,1.58,1.58-1.58A.59.59,0,0,0,17.93,8.24Z"/>
    </svg>