<svg xmlns:xlink="http://www.w3.org/1999/xlink" data-name="图层 1" viewBox="0 0 20 20" id="图层_1" xmlns="http://www.w3.org/2000/svg">
      <defs>
        <linearGradient x1="1.14" x2="18.89" gradientUnits="userSpaceOnUse" id="未命名的渐变_22" y2="10" y1="10">
          <stop offset="0.12" stop-color="#666"/>
          <stop offset="0.9" stop-color="#333"/>
        </linearGradient>
      </defs>
      <path d="M7.41,1.24a.87.87,0,0,1,.44.83V3.34a.55.55,0,0,0,.2.42l4,3.38a2.21,2.21,0,0,0,1.32.53l1.93.12A1.17,1.17,0,0,1,16,8.1a.81.81,0,0,1,.28.52v.07a.72.72,0,0,1-.23.53h0l-2.6,2.57,5.4,7,0,.06-.05,0-7-5.41L9.24,16h0a.75.75,0,0,1-.6.22A.85.85,0,0,1,8.11,16a1.24,1.24,0,0,1-.31-.74l-.11-1.93A2.27,2.27,0,0,0,7.16,12L3.78,8a.6.6,0,0,0-.43-.2H2.22a.89.89,0,0,1-1-.43,1,1,0,0,1-.12-.46,1,1,0,0,1,.29-.71h0l2.4-2.39h0l2.4-2.41h0a1,1,0,0,1,1.16-.18Z" style="fill:url(#未命名的渐变_22)"/>
    </svg>