<svg xmlns:xlink="http://www.w3.org/1999/xlink" data-name="图层 1" viewBox="0 0 20 20" id="图层_1" xmlns="http://www.w3.org/2000/svg">
      <defs>
        <linearGradient x1="1.14" x2="18.89" gradientUnits="userSpaceOnUse" id="未命名的渐变_22" y2="10" y1="10">
          <stop offset="0.12" stop-color="#666"/>
          <stop offset="0.9" stop-color="#333"/>
        </linearGradient>
      </defs>
      <path d="M7.41,1.24a.87.87,0,0,1,.44.83V3.34a.55.55,0,0,0,.2.42l4,3.38a2.21,2.21,0,0,0,1.32.53l1.93.12A1.17,1.17,0,0,1,16,8.1a.81.81,0,0,1,.28.52v.07a.72.72,0,0,1-.23.53h0l-2.6,2.57,5.4,7,0,.06-.05,0-7-5.41L9.24,16h0a.75.75,0,0,1-.6.22A.85.85,0,0,1,8.11,16a1.24,1.24,0,0,1-.31-.74l-.11-1.93A2.27,2.27,0,0,0,7.16,12L3.78,8a.6.6,0,0,0-.43-.2H2.22a.89.89,0,0,1-1-.43,1,1,0,0,1-.12-.46,1,1,0,0,1,.29-.71h0l2.4-2.39h0l2.4-2.41h0a1,1,0,0,1,1.16-.18Z" style="fill:#fff"/>
      <path d="M6.85,2.23V3.34A1.54,1.54,0,0,0,7.4,4.52l4,3.39a3.23,3.23,0,0,0,1.9.76l1.8.11-2.34,2.31-.62.62.53.7.78,1-1-.77-.7-.54-.62.63L8.79,15.07l-.1-1.81a3.31,3.31,0,0,0-.77-1.9l-3.38-4a1.56,1.56,0,0,0-1.19-.55H2.25l2.31-2.3,2.29-2.3M7,1.13a1,1,0,0,0-.7.29h0L3.85,3.83h0L1.44,6.23h0a1,1,0,0,0-.29.71,1,1,0,0,0,.12.46.86.86,0,0,0,.82.44H3.35a.6.6,0,0,1,.43.2l3.38,4a2.27,2.27,0,0,1,.53,1.31l.11,1.93a1.24,1.24,0,0,0,.31.74.85.85,0,0,0,.53.27h.07A.75.75,0,0,0,9.24,16h0l2.57-2.6,7,5.41.05,0,0-.06-5.4-7,2.6-2.57h0a.72.72,0,0,0,.23-.53V8.62A.81.81,0,0,0,16,8.1a1.17,1.17,0,0,0-.73-.31l-1.93-.12A2.21,2.21,0,0,1,12,7.14l-4-3.38a.55.55,0,0,1-.2-.42V2.07a.87.87,0,0,0-.44-.83A.92.92,0,0,0,7,1.13Z" style="fill:url(#未命名的渐变_22)"/>
    </svg>