<svg xmlns="http://www.w3.org/2000/svg" data-name="图层 1" id="图层_1" viewBox="0 0 20 20" xmlns:xlink="http://www.w3.org/1999/xlink">
      <defs>
        <linearGradient x1="1.14" y2="10" y1="10" gradientUnits="userSpaceOnUse" x2="18.77" id="未命名的渐变_22">
          <stop offset="0.12" stop-color="#666"/>
          <stop offset="0.9" stop-color="#333"/>
        </linearGradient>
      </defs>
      <path style="fill:#fff" d="M11.81,9.51a.56.56,0,0,1,.31.09l5.74,4.06a.52.52,0,0,1,.12.74.43.43,0,0,1-.11.12l-5.74,4.25a.53.53,0,0,1-.75-.11.54.54,0,0,1-.11-.32V15.61H6.59c-3.35,0-5.16-1.63-5.45-5,.29.31,1.56,2.1,5.45,2.1,2.58,0,4.15,0,4.68-.09V10a.54.54,0,0,1,.54-.53ZM8.53,1.34a.56.56,0,0,1,.11.32V4.39h4.69c3.34,0,5.15,1.64,5.44,5-.29-.31-1.56-2.1-5.44-2.1-2.59,0-4.16,0-4.69.09V10a.54.54,0,0,1-.54.54.57.57,0,0,1-.31-.1L2.05,6.35a.54.54,0,0,1-.12-.75A.43.43,0,0,1,2,5.48L7.78,1.23a.53.53,0,0,1,.75.11Z"/>
      <path style="fill:url(#未命名的渐变_22)" d="M7.64,2.58V5.39h5.74A4,4,0,0,1,17,6.88a9.72,9.72,0,0,0-3.65-.63c-3.54,0-4.44.06-4.8.1l-.89.09V9.07L3.16,5.9,7.64,2.58m4.63,8.36,4.49,3.16-4.49,3.32V14.61H6.53c-1.72,0-2.9-.47-3.6-1.49a9.74,9.74,0,0,0,3.66.63c3.53,0,4.43-.05,4.79-.09l.89-.1V10.94M8.1,1.13a.55.55,0,0,0-.32.1L2,5.48a.43.43,0,0,0-.11.12.53.53,0,0,0,.12.75L7.79,10.4a.57.57,0,0,0,.31.1A.54.54,0,0,0,8.64,10V7.34c.53-.06,2.1-.09,4.69-.09,3.88,0,5.15,1.79,5.44,2.1-.29-3.3-2.08-5-5.39-5H8.64V1.66a.56.56,0,0,0-.11-.32h0a.53.53,0,0,0-.43-.21Zm3.71,8.38a.54.54,0,0,0-.54.53v2.62c-.53.06-2.1.09-4.68.09-3.89,0-5.16-1.79-5.45-2.1.29,3.31,2.08,5,5.39,5h4.74v2.73a.55.55,0,0,0,.54.54.56.56,0,0,0,.32-.11l5.74-4.25A.43.43,0,0,0,18,14.4a.52.52,0,0,0-.12-.74L12.12,9.6a.56.56,0,0,0-.31-.09Z"/>
    </svg>