<svg xmlns:xlink="http://www.w3.org/1999/xlink" data-name="图层 1" viewBox="0 0 20 20" id="图层_1" xmlns="http://www.w3.org/2000/svg">
      <defs>
        <linearGradient x1="3.66" x2="16.3" gradientUnits="userSpaceOnUse" id="未命名的渐变_72" y2="16.28" y1="3.65">
          <stop offset="0.12" stop-color="#666"/>
          <stop offset="0.56" stop-color="#333"/>
        </linearGradient>
        <linearGradient x1="6.96" x2="13.15" xlink:href="#未命名的渐变_72" id="未命名的渐变_72-2" y2="10" y1="10"/>
      </defs>
      <circle style="fill:#fff" r="8.94" cx="9.98" cy="9.96"/>
      <path d="M10,2A7.94,7.94,0,1,1,2.05,10,7.94,7.94,0,0,1,10,2m0-1A8.94,8.94,0,1,0,18.92,10,8.93,8.93,0,0,0,10,1Z" style="fill:url(#未命名的渐变_72)"/>
      <path d="M12.34,5.79a2.45,2.45,0,0,1,.81,2,2.66,2.66,0,0,1-.5,1.66c-.12.14-.51.5-1.16,1.07a2,2,0,0,0-.54.68,1.9,1.9,0,0,1-.64.87v.26H9V12c.2-.51.28-1,.47-1.32A7.41,7.41,0,0,1,11,9l.16-.19a1.53,1.53,0,0,0,0-2,1.45,1.45,0,0,0-1.08-.38A1.39,1.39,0,0,0,8.84,7,2.26,2.26,0,0,0,8.5,8.31H7a3.12,3.12,0,0,1,.88-2.39,3.25,3.25,0,0,1,2.36-.85A3.07,3.07,0,0,1,12.34,5.79Zm-1.62,7.37a1,1,0,0,1,.3.73,1,1,0,0,1-.32.75,1,1,0,0,1-.74.28,1,1,0,0,1-.74-.3,1,1,0,0,1,0-1.46,1,1,0,0,1,.74-.28A1.07,1.07,0,0,1,10.72,13.16Z" style="fill:url(#未命名的渐变_72-2)"/>
    </svg>