<svg xmlns="http://www.w3.org/2000/svg" data-name="图层 1" id="图层_1" viewBox="0 0 20 20" xmlns:xlink="http://www.w3.org/1999/xlink">
      <defs>
        <linearGradient x1="1.14" y2="13.3" y1="13.3" gradientUnits="userSpaceOnUse" x2="12.33" id="未命名的渐变_12">
          <stop offset="0.06" stop-color="#fff"/>
          <stop offset="0.95" stop-color="#b3b3b3"/>
        </linearGradient>
        <linearGradient x1="12.33" y2="9.84" y1="9.84" x2="18.91" id="未命名的渐变_12-2" xlink:href="#未命名的渐变_12"/>
        <linearGradient x1="1.47" y2="4.42" y1="4.42" x2="18.88" id="未命名的渐变_12-3" xlink:href="#未命名的渐变_12"/>
        <linearGradient x1="1.14" y2="10.01" y1="10.01" gradientUnits="userSpaceOnUse" x2="18.91" id="未命名的渐变_22">
          <stop offset="0.12" stop-color="#666"/>
          <stop offset="0.9" stop-color="#333"/>
        </linearGradient>
      </defs>
      <rect y="7.71" height="11.19" x="1.14" style="fill:url(#未命名的渐变_12)" width="11.19"/>
      <polygon points="12.33 7.7 18.91 1.11 18.91 11.98 12.33 18.57 12.33 7.7" style="fill:url(#未命名的渐变_12-2)"/>
      <polygon points="1.47 7.71 8.05 1.13 18.88 1.13 12.3 7.71 1.47 7.71" style="fill:url(#未命名的渐变_12-3)"/>
      <path style="fill:url(#未命名的渐变_22)" d="M17.91,2.13v9.52l-6.25,6.24H2.14V8.37L8.39,2.13h9.52m1-1H8L1.14,8V18.89H12.08l6.83-6.83V1.13Z"/>
    </svg>