<svg xmlns="http://www.w3.org/2000/svg" data-name="图层 1" id="图层_1" viewBox="0 0 20 20" xmlns:xlink="http://www.w3.org/1999/xlink">
      <defs>
        <radialGradient r="1.55" cx="3.1" gradientUnits="userSpaceOnUse" cy="15.31" id="未命名的渐变_188">
          <stop offset="0.06" stop-color="#fff"/>
          <stop offset="0.95" stop-color="#b3b3b3"/>
        </radialGradient>
        <linearGradient x1="2.35" y2="16.06" y1="14.56" gradientUnits="userSpaceOnUse" x2="3.85" id="未命名的渐变_22">
          <stop offset="0.12" stop-color="#666"/>
          <stop offset="0.9" stop-color="#333"/>
        </linearGradient>
        <radialGradient r="1.43" cx="10.1" cy="3.13" id="未命名的渐变_188-2" xlink:href="#未命名的渐变_188"/>
        <linearGradient x1="8.84" y2="4.39" y1="1.87" x2="11.35" id="未命名的渐变_22-2" xlink:href="#未命名的渐变_22"/>
        <radialGradient r="0.97" cx="17.86" cy="15.81" id="未命名的渐变_188-3" xlink:href="#未命名的渐变_188"/>
        <linearGradient x1="16.83" y2="16.84" y1="14.78" x2="18.88" id="未命名的渐变_22-3" xlink:href="#未命名的渐变_22"/>
        <linearGradient x1="3.37" y2="11.24" y1="11.24" x2="16.83" id="未命名的渐变_22-4" xlink:href="#未命名的渐变_22"/>
        <radialGradient r="2.62" cx="10.1" cy="12.79" id="未命名的渐变_188-4" xlink:href="#未命名的渐变_188" gradientTransform="translate(0 1.45) scale(1 1.04)"/>
        <linearGradient x1="7.92" y2="16.93" y1="12.58" x2="12.27" id="未命名的渐变_22-5" xlink:href="#未命名的渐变_22"/>
        <linearGradient x1="3.55" y2="9.29" y1="9.29" x2="17.05" id="未命名的渐变_22-6" xlink:href="#未命名的渐变_22"/>
      </defs>
      <line x1="5" y2="16.4" y1="14.23" x2="1.19" style="stroke-miterlimit:10;fill:url(#未命名的渐变_188);stroke:url(#未命名的渐变_22)"/>
      <line x1="10.1" y2="5.15" y1="1.11" x2="10.1" style="stroke-miterlimit:10;fill:url(#未命名的渐变_188-2);stroke:url(#未命名的渐变_22-2)"/>
      <line x1="19.03" y2="15.09" y1="16.53" x2="16.69" style="stroke-miterlimit:10;fill:url(#未命名的渐变_188-3);stroke:url(#未命名的渐变_22-3)"/>
      <polygon points="16.82 15.13 16.82 7.36 10.1 3.47 3.37 7.36 3.37 15.13 10.1 19.01 16.82 15.13" style="fill:#fff"/>
      <path style="fill:url(#未命名的渐变_22-4)" d="M10.1,4.63l5.73,3.3v6.62L10.1,17.86,4.37,14.55V7.93l5.73-3.3m0-1.16L3.37,7.36v7.77L10.1,19l6.73-3.88V7.36L10.1,3.47Z"/>
      <line x1="10.1" y2="18.61" y1="10.9" x2="10.1" style="stroke-miterlimit:10;fill:url(#未命名的渐变_188-4);stroke:url(#未命名的渐变_22-5)"/>
      <polyline points="3.78 7.6 10.09 10.9 16.83 7.57" style="fill:none;stroke-miterlimit:10;stroke:url(#未命名的渐变_22-6)"/>
    </svg>