<svg xmlns:xlink="http://www.w3.org/1999/xlink" data-name="图层 1" viewBox="0 0 20 20" id="图层_1" xmlns="http://www.w3.org/2000/svg">
      <defs>
        <linearGradient x1="1.05" x2="18.92" gradientUnits="userSpaceOnUse" id="未命名的渐变_22" y2="10.25" y1="10.25">
          <stop offset="0.12" stop-color="#666"/>
          <stop offset="0.9" stop-color="#333"/>
        </linearGradient>
        <linearGradient x1="5.34" x2="14.63" xlink:href="#未命名的渐变_22" id="未命名的渐变_22-2" y2="11.68" y1="11.68"/>
        <radialGradient r="0.71" gradientUnits="userSpaceOnUse" cx="16.06" id="未命名的渐变_188" cy="7.75">
          <stop offset="0.06" stop-color="#fff"/>
          <stop offset="0.95" stop-color="#b3b3b3"/>
        </radialGradient>
        <linearGradient x1="15.34" x2="16.77" xlink:href="#未命名的渐变_22" id="未命名的渐变_22-3" y2="7.75" y1="7.75"/>
      </defs>
      <path d="M16.31,4.17H14.87l-.31-1.42A.86.86,0,0,0,13.77,2H6.38a.84.84,0,0,0-.79.69L5.23,4.17H3.66A2.61,2.61,0,0,0,1.05,6.78v9.08a2.61,2.61,0,0,0,2.61,2.61H16.31a2.61,2.61,0,0,0,2.61-2.61V6.78A2.61,2.61,0,0,0,16.31,4.17Z" style="fill:#fff"/>
      <path d="M13.6,3l.29,1.35.17.79h2.25a1.62,1.62,0,0,1,1.61,1.61v9.08a1.61,1.61,0,0,1-1.61,1.61H3.66a1.61,1.61,0,0,1-1.61-1.61V6.78A1.62,1.62,0,0,1,3.66,5.17H6l.19-.75L6.54,3H13.6m.17-1H6.38a.84.84,0,0,0-.79.69L5.23,4.17H3.66A2.61,2.61,0,0,0,1.05,6.78v9.08a2.61,2.61,0,0,0,2.61,2.61H16.31a2.61,2.61,0,0,0,2.61-2.61V6.78a2.61,2.61,0,0,0-2.61-2.61H14.87l-.31-1.42A.86.86,0,0,0,13.77,2Z" style="fill:url(#未命名的渐变_22)"/>
      <circle style="fill:#fff" r="4.65" cx="9.98" cy="11.68"/>
      <path d="M10,8a3.65,3.65,0,1,1-3.64,3.65A3.66,3.66,0,0,1,10,8m0-1a4.65,4.65,0,1,0,4.65,4.65A4.65,4.65,0,0,0,10,7Z" style="fill:url(#未命名的渐变_22-2)"/>
      <circle style="fill:url(#未命名的渐变_188)" r="0.71" cx="16.06" cy="7.75"/>
      <path d="M16.06,7a.72.72,0,1,0,.71.72A.72.72,0,0,0,16.06,7Z" style="fill:url(#未命名的渐变_22-3)"/>
    </svg>