<svg xmlns="http://www.w3.org/2000/svg" data-name="图层 1" id="图层_1" viewBox="0 0 20 20" xmlns:xlink="http://www.w3.org/1999/xlink">
      <defs>
        <linearGradient x1="1.14" y2="10.06" y1="10.06" gradientUnits="userSpaceOnUse" x2="19.05" id="未命名的渐变_22">
          <stop offset="0.12" stop-color="#666"/>
          <stop offset="0.9" stop-color="#333"/>
        </linearGradient>
        <radialGradient r="3.31" cx="5.41" gradientUnits="userSpaceOnUse" cy="15.02" id="未命名的渐变_188">
          <stop offset="0.06" stop-color="#fff"/>
          <stop offset="0.95" stop-color="#b3b3b3"/>
        </radialGradient>
        <linearGradient x1="1.75" y2="15.02" y1="15.02" x2="9.07" id="未命名的渐变_22-2" xlink:href="#未命名的渐变_22"/>
        <linearGradient x1="7.77" y2="6.75" y1="6.75" x2="19.05" id="未命名的渐变_22-3" xlink:href="#未命名的渐变_22"/>
        <radialGradient r="3.31" cx="15.05" cy="5.38" id="未命名的渐变_188-2" xlink:href="#未命名的渐变_188"/>
        <linearGradient x1="11.39" y2="5.38" y1="5.38" x2="18.71" id="未命名的渐变_22-4" xlink:href="#未命名的渐变_22"/>
        <linearGradient x1="1.14" y2="13.38" y1="13.38" x2="12.41" id="未命名的渐变_22-5" xlink:href="#未命名的渐变_22"/>
      </defs>
      <polygon points="1.14 8 8.03 1.11 19.05 1.11 19.05 12.13 12.16 19.01 1.14 19.01 1.14 8" style="fill:#fff"/>
      <path style="fill:url(#未命名的渐变_22)" d="M18.05,2.11v9.6L11.75,18H2.14V8.41l6.3-6.3h9.61m1-1H8L1.14,8V19h11l6.89-6.88v-11Z"/>
      <line x1="8.72" y2="18.33" y1="11.71" x2="2.1" style="stroke-miterlimit:10;fill:url(#未命名的渐变_188);stroke:url(#未命名的渐变_22-2)"/>
      <rect y="1.11" height="11.27" x="7.77" style="fill:url(#未命名的渐变_22-3)" width="11.27"/>
      <line x1="18.36" y2="8.68" y1="2.07" x2="11.74" style="stroke-miterlimit:10;fill:url(#未命名的渐变_188-2);stroke:url(#未命名的渐变_22-4)"/>
      <path style="fill:url(#未命名的渐变_22-5)" d="M11.41,8.74V18H2.14V8.74h9.27m1-1H1.14V19H12.41V7.74Z"/>
    </svg>