<svg xmlns="http://www.w3.org/2000/svg" data-name="图层 1" id="图层_1" viewBox="0 0 20 20" xmlns:xlink="http://www.w3.org/1999/xlink">
      <defs>
        <linearGradient x1="1.14" y2="9.88" y1="9.88" gradientUnits="userSpaceOnUse" x2="18.89" id="未命名的渐变_22">
          <stop offset="0.12" stop-color="#666"/>
          <stop offset="0.9" stop-color="#333"/>
        </linearGradient>
        <linearGradient x1="7.24" y2="9.88" y1="9.88" x2="12.79" id="未命名的渐变_22-2" xlink:href="#未命名的渐变_22"/>
        <linearGradient x1="1.57" y2="9.88" y1="9.88" x2="18.46" id="未命名的渐变_22-3" xlink:href="#未命名的渐变_22"/>
      </defs>
      <path style="fill:#fff" d="M10,4.55c-5.33,0-8.88,5.33-8.88,5.33S4.69,15.2,10,15.2s8.87-5.32,8.87-5.32S15.34,4.55,10,4.55Z"/>
      <path style="fill:url(#未命名的渐变_22)" d="M10,5.55c3.74,0,6.59,3.05,7.62,4.33-1,1.28-3.88,4.32-7.62,4.32s-6.6-3-7.63-4.32C3.43,8.6,6.28,5.55,10,5.55m0-1c-5.33,0-8.88,5.33-8.88,5.33S4.69,15.2,10,15.2s8.87-5.32,8.87-5.32S15.34,4.55,10,4.55Z"/>
      <circle r="2.77" cx="10.02" cy="9.88" style="fill:#fff"/>
      <path style="fill:url(#未命名的渐变_22-2)" d="M10,8.1A1.78,1.78,0,1,1,8.24,9.88,1.78,1.78,0,0,1,10,8.1m0-1a2.78,2.78,0,1,0,2.77,2.78A2.77,2.77,0,0,0,10,7.1Z"/>
      <line x1="2.07" y2="1.93" y1="17.82" x2="17.96" style="fill:#fff;stroke-linecap:round;stroke-miterlimit:10;stroke:url(#未命名的渐变_22-3)"/>
    </svg>